<?xml version="1.0" encoding="UTF-8" standalone="no"?>
<!DOCTYPE svg PUBLIC "-//W3C//DTD SVG 1.1//EN"
 "http://www.w3.org/Graphics/SVG/1.1/DTD/svg11.dtd">
<!-- Generated by graphviz version 2.43.0 (0)
 -->
<!-- Title: async.h Pages: 1 -->
<svg width="526pt" height="140pt"
 viewBox="0.00 0.00 525.50 140.00" xmlns="http://www.w3.org/2000/svg" xmlns:xlink="http://www.w3.org/1999/xlink">
<g id="graph0" class="graph" transform="scale(1 1) rotate(0) translate(4 136)">
<title>async.h</title>
<polygon fill="white" stroke="transparent" points="-4,4 -4,-136 521.5,-136 521.5,4 -4,4"/>
<!-- Node1 -->
<g id="node1" class="node">
<title>Node1</title>
<g id="a_node1"><a xlink:title=" ">
<polygon fill="#bfbfbf" stroke="black" points="314.5,-112.5 314.5,-131.5 368.5,-131.5 368.5,-112.5 314.5,-112.5"/>
<text text-anchor="middle" x="341.5" y="-119.5" font-family="Helvetica,sans-Serif" font-size="10.00">async.h</text>
</a>
</g>
</g>
<!-- Node2 -->
<g id="node2" class="node">
<title>Node2</title>
<g id="a_node2"><a xlink:href="storage_8h.html" target="_top" xlink:title=" ">
<polygon fill="white" stroke="black" points="54,-56.5 54,-75.5 181,-75.5 181,-56.5 54,-56.5"/>
<text text-anchor="middle" x="117.5" y="-63.5" font-family="Helvetica,sans-Serif" font-size="10.00">mp&#45;coro/bits/storage.h</text>
</a>
</g>
</g>
<!-- Node1&#45;&gt;Node2 -->
<g id="edge1" class="edge">
<title>Node1&#45;&gt;Node2</title>
<path fill="none" stroke="midnightblue" d="M314.48,-114.49C276.94,-105.44 208.51,-88.94 163.01,-77.97"/>
<polygon fill="midnightblue" stroke="midnightblue" points="163.65,-74.52 153.11,-75.58 162.01,-81.33 163.65,-74.52"/>
</g>
<!-- Node6 -->
<g id="node6" class="node">
<title>Node6</title>
<g id="a_node6"><a xlink:href="trace_8h.html" target="_top" xlink:title=" ">
<polygon fill="white" stroke="black" points="199.5,-56.5 199.5,-75.5 293.5,-75.5 293.5,-56.5 199.5,-56.5"/>
<text text-anchor="middle" x="246.5" y="-63.5" font-family="Helvetica,sans-Serif" font-size="10.00">mp&#45;coro/trace.h</text>
</a>
</g>
</g>
<!-- Node1&#45;&gt;Node6 -->
<g id="edge5" class="edge">
<title>Node1&#45;&gt;Node6</title>
<path fill="none" stroke="midnightblue" d="M326.24,-112.32C311.28,-103.82 288.25,-90.73 270.77,-80.8"/>
<polygon fill="midnightblue" stroke="midnightblue" points="272.15,-77.55 261.73,-75.65 268.69,-83.64 272.15,-77.55"/>
</g>
<!-- Node7 -->
<g id="node7" class="node">
<title>Node7</title>
<g id="a_node7"><a xlink:title=" ">
<polygon fill="white" stroke="#bfbfbf" points="311.5,-56.5 311.5,-75.5 371.5,-75.5 371.5,-56.5 311.5,-56.5"/>
<text text-anchor="middle" x="341.5" y="-63.5" font-family="Helvetica,sans-Serif" font-size="10.00">concepts</text>
</a>
</g>
</g>
<!-- Node1&#45;&gt;Node7 -->
<g id="edge6" class="edge">
<title>Node1&#45;&gt;Node7</title>
<path fill="none" stroke="midnightblue" d="M341.5,-112.08C341.5,-105.01 341.5,-94.86 341.5,-85.99"/>
<polygon fill="midnightblue" stroke="midnightblue" points="345,-85.75 341.5,-75.75 338,-85.75 345,-85.75"/>
</g>
<!-- Node8 -->
<g id="node8" class="node">
<title>Node8</title>
<g id="a_node8"><a xlink:title=" ">
<polygon fill="white" stroke="#bfbfbf" points="389.5,-56.5 389.5,-75.5 451.5,-75.5 451.5,-56.5 389.5,-56.5"/>
<text text-anchor="middle" x="420.5" y="-63.5" font-family="Helvetica,sans-Serif" font-size="10.00">coroutine</text>
</a>
</g>
</g>
<!-- Node1&#45;&gt;Node8 -->
<g id="edge7" class="edge">
<title>Node1&#45;&gt;Node8</title>
<path fill="none" stroke="midnightblue" d="M354.19,-112.32C366.4,-103.98 385.08,-91.21 399.5,-81.35"/>
<polygon fill="midnightblue" stroke="midnightblue" points="401.56,-84.19 407.84,-75.65 397.61,-78.41 401.56,-84.19"/>
</g>
<!-- Node9 -->
<g id="node9" class="node">
<title>Node9</title>
<g id="a_node9"><a xlink:title=" ">
<polygon fill="white" stroke="#bfbfbf" points="469.5,-56.5 469.5,-75.5 517.5,-75.5 517.5,-56.5 469.5,-56.5"/>
<text text-anchor="middle" x="493.5" y="-63.5" font-family="Helvetica,sans-Serif" font-size="10.00">thread</text>
</a>
</g>
</g>
<!-- Node1&#45;&gt;Node9 -->
<g id="edge8" class="edge">
<title>Node1&#45;&gt;Node9</title>
<path fill="none" stroke="midnightblue" d="M365.58,-112.44C391.04,-103.4 431.39,-89.06 459.96,-78.92"/>
<polygon fill="midnightblue" stroke="midnightblue" points="461.28,-82.16 469.53,-75.52 458.93,-75.57 461.28,-82.16"/>
</g>
<!-- Node3 -->
<g id="node3" class="node">
<title>Node3</title>
<g id="a_node3"><a xlink:title=" ">
<polygon fill="white" stroke="#bfbfbf" points="0,-0.5 0,-19.5 65,-19.5 65,-0.5 0,-0.5"/>
<text text-anchor="middle" x="32.5" y="-7.5" font-family="Helvetica,sans-Serif" font-size="10.00">exception</text>
</a>
</g>
</g>
<!-- Node2&#45;&gt;Node3 -->
<g id="edge2" class="edge">
<title>Node2&#45;&gt;Node3</title>
<path fill="none" stroke="midnightblue" d="M103.84,-56.32C90.58,-47.9 70.23,-34.97 54.65,-25.07"/>
<polygon fill="midnightblue" stroke="midnightblue" points="56.44,-22.06 46.12,-19.65 52.69,-27.97 56.44,-22.06"/>
</g>
<!-- Node4 -->
<g id="node4" class="node">
<title>Node4</title>
<g id="a_node4"><a xlink:title=" ">
<polygon fill="white" stroke="#bfbfbf" points="83,-0.5 83,-19.5 152,-19.5 152,-0.5 83,-0.5"/>
<text text-anchor="middle" x="117.5" y="-7.5" font-family="Helvetica,sans-Serif" font-size="10.00">type_traits</text>
</a>
</g>
</g>
<!-- Node2&#45;&gt;Node4 -->
<g id="edge3" class="edge">
<title>Node2&#45;&gt;Node4</title>
<path fill="none" stroke="midnightblue" d="M117.5,-56.08C117.5,-49.01 117.5,-38.86 117.5,-29.99"/>
<polygon fill="midnightblue" stroke="midnightblue" points="121,-29.75 117.5,-19.75 114,-29.75 121,-29.75"/>
</g>
<!-- Node5 -->
<g id="node5" class="node">
<title>Node5</title>
<g id="a_node5"><a xlink:title=" ">
<polygon fill="white" stroke="#bfbfbf" points="170,-0.5 170,-19.5 221,-19.5 221,-0.5 170,-0.5"/>
<text text-anchor="middle" x="195.5" y="-7.5" font-family="Helvetica,sans-Serif" font-size="10.00">variant</text>
</a>
</g>
</g>
<!-- Node2&#45;&gt;Node5 -->
<g id="edge4" class="edge">
<title>Node2&#45;&gt;Node5</title>
<path fill="none" stroke="midnightblue" d="M130.03,-56.32C142.09,-47.98 160.53,-35.21 174.77,-25.35"/>
<polygon fill="midnightblue" stroke="midnightblue" points="176.77,-28.22 183,-19.65 172.78,-22.47 176.77,-28.22"/>
</g>
</g>
</svg>
