<?xml version="1.0" encoding="UTF-8" standalone="no"?>
<!DOCTYPE svg PUBLIC "-//W3C//DTD SVG 1.1//EN"
 "http://www.w3.org/Graphics/SVG/1.1/DTD/svg11.dtd">
<!-- Generated by graphviz version 2.43.0 (0)
 -->
<!-- Title: get Pages: 1 -->
<svg width="389pt" height="122pt"
 viewBox="0.00 0.00 389.00 121.50" xmlns="http://www.w3.org/2000/svg" xmlns:xlink="http://www.w3.org/1999/xlink">
<g id="graph0" class="graph" transform="scale(1 1) rotate(0) translate(4 117.5)">
<title>get</title>
<polygon fill="white" stroke="transparent" points="-4,4 -4,-117.5 385,-117.5 385,4 -4,4"/>
<!-- Node1 -->
<g id="node1" class="node">
<title>Node1</title>
<g id="a_node1"><a xlink:title=" ">
<polygon fill="#bfbfbf" stroke="black" points="349,-30 349,-49 381,-49 381,-30 349,-30"/>
<text text-anchor="middle" x="365" y="-37" font-family="Helvetica,sans-Serif" font-size="10.00">get</text>
</a>
</g>
</g>
<!-- Node2 -->
<g id="node2" class="node">
<title>Node2</title>
<g id="a_node2"><a xlink:href="structmp__coro_1_1task_1_1awaiter.html#a3ffaa5cd66a8d18b91ed92bac4a31858" target="_top" xlink:title="Return the value of the task&#39;s promise.">
<polygon fill="white" stroke="black" points="180.5,-49.5 180.5,-79.5 308.5,-79.5 308.5,-49.5 180.5,-49.5"/>
<text text-anchor="start" x="188.5" y="-67.5" font-family="Helvetica,sans-Serif" font-size="10.00">mp_coro::task::awaiter</text>
<text text-anchor="middle" x="244.5" y="-56.5" font-family="Helvetica,sans-Serif" font-size="10.00">::await_resume</text>
</a>
</g>
</g>
<!-- Node1&#45;&gt;Node2 -->
<g id="edge1" class="edge">
<title>Node1&#45;&gt;Node2</title>
<path fill="none" stroke="midnightblue" d="M338.94,-44.79C329.98,-46.68 319.43,-48.9 308.71,-51.17"/>
<polygon fill="midnightblue" stroke="midnightblue" points="339.93,-48.16 348.99,-42.67 338.48,-41.31 339.93,-48.16"/>
</g>
<!-- Node5 -->
<g id="node5" class="node">
<title>Node5</title>
<g id="a_node5"><a xlink:href="classmp__coro_1_1detail_1_1nonvoid__storage.html#ae10f0ddc271baf9b60b2c44a049f6106" target="_top" xlink:title=" ">
<polygon fill="white" stroke="black" points="176,-0.5 176,-30.5 313,-30.5 313,-0.5 176,-0.5"/>
<text text-anchor="start" x="184" y="-18.5" font-family="Helvetica,sans-Serif" font-size="10.00">mp_coro::detail::nonvoid</text>
<text text-anchor="middle" x="244.5" y="-7.5" font-family="Helvetica,sans-Serif" font-size="10.00">_storage::nonvoid_get</text>
</a>
</g>
</g>
<!-- Node1&#45;&gt;Node5 -->
<g id="edge4" class="edge">
<title>Node1&#45;&gt;Node5</title>
<path fill="none" stroke="midnightblue" d="M339.18,-34.47C331.36,-32.89 322.32,-31.06 313,-29.17"/>
<polygon fill="midnightblue" stroke="midnightblue" points="338.5,-37.91 348.99,-36.46 339.89,-31.04 338.5,-37.91"/>
</g>
<!-- Node3 -->
<g id="node3" class="node">
<title>Node3</title>
<g id="a_node3"><a xlink:href="structmp__coro_1_1detail_1_1when__all__awaitable.html#a41cc5ea5dd6aaa94fc81dc0a76facb60" target="_top" xlink:title=" ">
<polygon fill="white" stroke="black" points="3,-72 3,-113 137,-113 137,-72 3,-72"/>
<text text-anchor="start" x="11" y="-101" font-family="Helvetica,sans-Serif" font-size="10.00">mp_coro::detail::when</text>
<text text-anchor="start" x="11" y="-90" font-family="Helvetica,sans-Serif" font-size="10.00">_all_awaitable::operator</text>
<text text-anchor="middle" x="70" y="-79" font-family="Helvetica,sans-Serif" font-size="10.00"> co_await</text>
</a>
</g>
</g>
<!-- Node2&#45;&gt;Node3 -->
<g id="edge2" class="edge">
<title>Node2&#45;&gt;Node3</title>
<path fill="none" stroke="midnightblue" d="M170.25,-76.39C159.26,-78.17 147.98,-80.01 137.14,-81.76"/>
<polygon fill="midnightblue" stroke="midnightblue" points="170.94,-79.82 180.25,-74.77 169.82,-72.91 170.94,-79.82"/>
</g>
<!-- Node4 -->
<g id="node4" class="node">
<title>Node4</title>
<g id="a_node4"><a xlink:href="classmp__coro_1_1async.html#a2c5b02a3e9d6dee7dd5185de8791a2b2" target="_top" xlink:title=" ">
<polygon fill="white" stroke="black" points="0,-22.5 0,-52.5 140,-52.5 140,-22.5 0,-22.5"/>
<text text-anchor="start" x="8" y="-40.5" font-family="Helvetica,sans-Serif" font-size="10.00">mp_coro::async::operator</text>
<text text-anchor="middle" x="70" y="-29.5" font-family="Helvetica,sans-Serif" font-size="10.00"> co_await</text>
</a>
</g>
</g>
<!-- Node2&#45;&gt;Node4 -->
<g id="edge3" class="edge">
<title>Node2&#45;&gt;Node4</title>
<path fill="none" stroke="midnightblue" d="M170.32,-53.05C160.29,-51.48 150.01,-49.87 140.06,-48.31"/>
<polygon fill="midnightblue" stroke="midnightblue" points="169.83,-56.51 180.25,-54.6 170.91,-49.6 169.83,-56.51"/>
</g>
</g>
</svg>
