<?xml version="1.0" encoding="UTF-8" standalone="no"?>
<!DOCTYPE svg PUBLIC "-//W3C//DTD SVG 1.1//EN"
 "http://www.w3.org/Graphics/SVG/1.1/DTD/svg11.dtd">
<!-- Generated by graphviz version 2.43.0 (0)
 -->
<!-- Title: nonvoid_storage&lt; T &gt; Pages: 1 -->
<svg width="366pt" height="624pt"
 viewBox="0.00 0.00 365.50 624.00" xmlns="http://www.w3.org/2000/svg" xmlns:xlink="http://www.w3.org/1999/xlink">
<g id="graph0" class="graph" transform="scale(1 1) rotate(0) translate(4 620)">
<title>nonvoid_storage&lt; T &gt;</title>
<polygon fill="white" stroke="transparent" points="-4,4 -4,-620 361.5,-620 361.5,4 -4,4"/>
<!-- Node1 -->
<g id="node1" class="node">
<title>Node1</title>
<g id="a_node1"><a xlink:title=" ">
<polygon fill="#bfbfbf" stroke="black" points="86,-326.5 86,-405.5 212,-405.5 212,-326.5 86,-326.5"/>
<text text-anchor="middle" x="149" y="-393.5" font-family="Helvetica,sans-Serif" font-size="10.00">nonvoid_storage&lt; T &gt;</text>
<polyline fill="none" stroke="black" points="86,-386.5 212,-386.5 "/>
<text text-anchor="middle" x="149" y="-374.5" font-family="Helvetica,sans-Serif" font-size="10.00"> </text>
<polyline fill="none" stroke="black" points="86,-367.5 212,-367.5 "/>
<text text-anchor="start" x="94" y="-355.5" font-family="Helvetica,sans-Serif" font-size="10.00">+ nonvoid_get()</text>
<text text-anchor="start" x="94" y="-344.5" font-family="Helvetica,sans-Serif" font-size="10.00">+ nonvoid_get()</text>
<text text-anchor="start" x="94" y="-333.5" font-family="Helvetica,sans-Serif" font-size="10.00">+ nonvoid_get()</text>
</a>
</g>
</g>
<!-- Node4 -->
<g id="node4" class="node">
<title>Node4</title>
<g id="a_node4"><a xlink:href="structmp__coro_1_1detail_1_1task__promise__storage__base.html" target="_top" xlink:title=" ">
<polygon fill="white" stroke="black" points="0,-221.5 0,-289.5 140,-289.5 140,-221.5 0,-221.5"/>
<text text-anchor="start" x="8" y="-277.5" font-family="Helvetica,sans-Serif" font-size="10.00">task_promise_storage</text>
<text text-anchor="middle" x="70" y="-266.5" font-family="Helvetica,sans-Serif" font-size="10.00">_base&lt; void &gt;</text>
<polyline fill="none" stroke="black" points="0,-259.5 140,-259.5 "/>
<text text-anchor="middle" x="70" y="-247.5" font-family="Helvetica,sans-Serif" font-size="10.00"> </text>
<polyline fill="none" stroke="black" points="0,-240.5 140,-240.5 "/>
<text text-anchor="start" x="8" y="-228.5" font-family="Helvetica,sans-Serif" font-size="10.00">+ unhandled_exception()</text>
</a>
</g>
</g>
<!-- Node1&#45;&gt;Node4 -->
<g id="edge3" class="edge">
<title>Node1&#45;&gt;Node4</title>
<path fill="none" stroke="midnightblue" d="M114.85,-318.1C107.85,-308.48 100.62,-298.55 94.06,-289.54"/>
<polygon fill="none" stroke="midnightblue" points="112.21,-320.42 120.93,-326.44 117.87,-316.3 112.21,-320.42"/>
</g>
<!-- Node6 -->
<g id="node6" class="node">
<title>Node6</title>
<g id="a_node6"><a xlink:href="structmp__coro_1_1detail_1_1task__promise__storage__base.html" target="_top" xlink:title=" ">
<polygon fill="white" stroke="black" points="158,-221.5 158,-289.5 298,-289.5 298,-221.5 158,-221.5"/>
<text text-anchor="start" x="166" y="-277.5" font-family="Helvetica,sans-Serif" font-size="10.00">task_promise_storage</text>
<text text-anchor="middle" x="228" y="-266.5" font-family="Helvetica,sans-Serif" font-size="10.00">_base&lt; T &gt;</text>
<polyline fill="none" stroke="black" points="158,-259.5 298,-259.5 "/>
<text text-anchor="middle" x="228" y="-247.5" font-family="Helvetica,sans-Serif" font-size="10.00"> </text>
<polyline fill="none" stroke="black" points="158,-240.5 298,-240.5 "/>
<text text-anchor="start" x="166" y="-228.5" font-family="Helvetica,sans-Serif" font-size="10.00">+ unhandled_exception()</text>
</a>
</g>
</g>
<!-- Node1&#45;&gt;Node6 -->
<g id="edge5" class="edge">
<title>Node1&#45;&gt;Node6</title>
<path fill="none" stroke="midnightblue" d="M183.15,-318.1C190.15,-308.48 197.38,-298.55 203.94,-289.54"/>
<polygon fill="none" stroke="midnightblue" points="180.13,-316.3 177.07,-326.44 185.79,-320.42 180.13,-316.3"/>
</g>
<!-- Node2 -->
<g id="node2" class="node">
<title>Node2</title>
<g id="a_node2"><a xlink:href="classmp__coro_1_1detail_1_1storage.html" target="_top" xlink:title="Storage class that can either contain a value, an exception, or be empty.">
<polygon fill="white" stroke="black" points="97,-442.5 97,-499.5 201,-499.5 201,-442.5 97,-442.5"/>
<text text-anchor="middle" x="149" y="-487.5" font-family="Helvetica,sans-Serif" font-size="10.00">storage&lt; T &gt;</text>
<polyline fill="none" stroke="black" points="97,-480.5 201,-480.5 "/>
<text text-anchor="middle" x="149" y="-468.5" font-family="Helvetica,sans-Serif" font-size="10.00"> </text>
<polyline fill="none" stroke="black" points="97,-461.5 201,-461.5 "/>
<text text-anchor="start" x="105" y="-449.5" font-family="Helvetica,sans-Serif" font-size="10.00">+ set_exception()</text>
</a>
</g>
</g>
<!-- Node2&#45;&gt;Node1 -->
<g id="edge1" class="edge">
<title>Node2&#45;&gt;Node1</title>
<path fill="none" stroke="midnightblue" d="M149,-432.16C149,-423.47 149,-414.23 149,-405.52"/>
<polygon fill="none" stroke="midnightblue" points="145.5,-432.4 149,-442.4 152.5,-432.4 145.5,-432.4"/>
</g>
<!-- Node3 -->
<g id="node3" class="node">
<title>Node3</title>
<g id="a_node3"><a xlink:href="classmp__coro_1_1detail_1_1storage__base.html" target="_top" xlink:title="Storage class that can either contain a value, an exception, or be empty.">
<polygon fill="white" stroke="black" points="94,-536.5 94,-615.5 204,-615.5 204,-536.5 94,-536.5"/>
<text text-anchor="middle" x="149" y="-603.5" font-family="Helvetica,sans-Serif" font-size="10.00">storage_base&lt; T &gt;</text>
<polyline fill="none" stroke="black" points="94,-596.5 204,-596.5 "/>
<text text-anchor="start" x="102" y="-584.5" font-family="Helvetica,sans-Serif" font-size="10.00"># result</text>
<polyline fill="none" stroke="black" points="94,-577.5 204,-577.5 "/>
<text text-anchor="start" x="102" y="-565.5" font-family="Helvetica,sans-Serif" font-size="10.00">+ set_value()</text>
<text text-anchor="start" x="102" y="-554.5" font-family="Helvetica,sans-Serif" font-size="10.00">+ get()</text>
<text text-anchor="start" x="102" y="-543.5" font-family="Helvetica,sans-Serif" font-size="10.00">+ get()</text>
</a>
</g>
</g>
<!-- Node3&#45;&gt;Node2 -->
<g id="edge2" class="edge">
<title>Node3&#45;&gt;Node2</title>
<path fill="none" stroke="midnightblue" d="M149,-526.16C149,-517.04 149,-507.81 149,-499.61"/>
<polygon fill="none" stroke="midnightblue" points="145.5,-526.35 149,-536.35 152.5,-526.35 145.5,-526.35"/>
</g>
<!-- Node5 -->
<g id="node5" class="node">
<title>Node5</title>
<g id="a_node5"><a xlink:href="structmp__coro_1_1detail_1_1task__promise__storage_3_01void_01_4.html" target="_top" xlink:title=" ">
<polygon fill="white" stroke="black" points="7.5,-116.5 7.5,-184.5 132.5,-184.5 132.5,-116.5 7.5,-116.5"/>
<text text-anchor="start" x="15.5" y="-172.5" font-family="Helvetica,sans-Serif" font-size="10.00">task_promise_storage</text>
<text text-anchor="middle" x="70" y="-161.5" font-family="Helvetica,sans-Serif" font-size="10.00">&lt; void &gt;</text>
<polyline fill="none" stroke="black" points="7.5,-154.5 132.5,-154.5 "/>
<text text-anchor="middle" x="70" y="-142.5" font-family="Helvetica,sans-Serif" font-size="10.00"> </text>
<polyline fill="none" stroke="black" points="7.5,-135.5 132.5,-135.5 "/>
<text text-anchor="start" x="15.5" y="-123.5" font-family="Helvetica,sans-Serif" font-size="10.00">+ return_void()</text>
</a>
</g>
</g>
<!-- Node4&#45;&gt;Node5 -->
<g id="edge4" class="edge">
<title>Node4&#45;&gt;Node5</title>
<path fill="none" stroke="midnightblue" d="M70,-211.14C70,-202.26 70,-193.04 70,-184.59"/>
<polygon fill="none" stroke="midnightblue" points="66.5,-211.34 70,-221.34 73.5,-211.34 66.5,-211.34"/>
</g>
<!-- Node7 -->
<g id="node7" class="node">
<title>Node7</title>
<g id="a_node7"><a xlink:href="structmp__coro_1_1detail_1_1task__promise__storage.html" target="_top" xlink:title=" ">
<polygon fill="white" stroke="black" points="151.5,-122 151.5,-179 304.5,-179 304.5,-122 151.5,-122"/>
<text text-anchor="middle" x="228" y="-167" font-family="Helvetica,sans-Serif" font-size="10.00">task_promise_storage&lt; T &gt;</text>
<polyline fill="none" stroke="black" points="151.5,-160 304.5,-160 "/>
<text text-anchor="middle" x="228" y="-148" font-family="Helvetica,sans-Serif" font-size="10.00"> </text>
<polyline fill="none" stroke="black" points="151.5,-141 304.5,-141 "/>
<text text-anchor="start" x="159.5" y="-129" font-family="Helvetica,sans-Serif" font-size="10.00">+ return_value()</text>
</a>
</g>
</g>
<!-- Node6&#45;&gt;Node7 -->
<g id="edge6" class="edge">
<title>Node6&#45;&gt;Node7</title>
<path fill="none" stroke="midnightblue" d="M228,-211.15C228,-200.29 228,-188.93 228,-179.08"/>
<polygon fill="none" stroke="midnightblue" points="224.5,-211.34 228,-221.34 231.5,-211.34 224.5,-211.34"/>
</g>
<!-- Node8 -->
<g id="node8" class="node">
<title>Node8</title>
<g id="a_node8"><a xlink:href="structmp__coro_1_1detail_1_1synchronized__task_1_1promise__type.html" target="_top" xlink:title="Required promise type for coroutines returning a synchronized_task.">
<polygon fill="white" stroke="black" points="97.5,-0.5 97.5,-79.5 218.5,-79.5 218.5,-0.5 97.5,-0.5"/>
<text text-anchor="middle" x="158" y="-67.5" font-family="Helvetica,sans-Serif" font-size="10.00">promise_type</text>
<polyline fill="none" stroke="black" points="97.5,-60.5 218.5,-60.5 "/>
<text text-anchor="start" x="105.5" y="-48.5" font-family="Helvetica,sans-Serif" font-size="10.00">+ sync</text>
<polyline fill="none" stroke="black" points="97.5,-41.5 218.5,-41.5 "/>
<text text-anchor="start" x="105.5" y="-29.5" font-family="Helvetica,sans-Serif" font-size="10.00">+ get_return_object()</text>
<text text-anchor="start" x="105.5" y="-18.5" font-family="Helvetica,sans-Serif" font-size="10.00">+ initial_suspend()</text>
<text text-anchor="start" x="105.5" y="-7.5" font-family="Helvetica,sans-Serif" font-size="10.00">+ final_suspend()</text>
</a>
</g>
</g>
<!-- Node7&#45;&gt;Node8 -->
<g id="edge7" class="edge">
<title>Node7&#45;&gt;Node8</title>
<path fill="none" stroke="midnightblue" d="M204.72,-113.42C197.73,-102.59 190.04,-90.66 182.94,-79.66"/>
<polygon fill="none" stroke="midnightblue" points="201.79,-115.33 210.15,-121.84 207.67,-111.54 201.79,-115.33"/>
</g>
<!-- Node9 -->
<g id="node9" class="node">
<title>Node9</title>
<g id="a_node9"><a xlink:href="structmp__coro_1_1task_1_1promise__type.html" target="_top" xlink:title="Required promise type for coroutines returning a task.">
<polygon fill="white" stroke="black" points="236.5,-0.5 236.5,-79.5 357.5,-79.5 357.5,-0.5 236.5,-0.5"/>
<text text-anchor="middle" x="297" y="-67.5" font-family="Helvetica,sans-Serif" font-size="10.00">promise_type</text>
<polyline fill="none" stroke="black" points="236.5,-60.5 357.5,-60.5 "/>
<text text-anchor="start" x="244.5" y="-48.5" font-family="Helvetica,sans-Serif" font-size="10.00">+ continuation</text>
<polyline fill="none" stroke="black" points="236.5,-41.5 357.5,-41.5 "/>
<text text-anchor="start" x="244.5" y="-29.5" font-family="Helvetica,sans-Serif" font-size="10.00">+ get_return_object()</text>
<text text-anchor="start" x="244.5" y="-18.5" font-family="Helvetica,sans-Serif" font-size="10.00">+ initial_suspend()</text>
<text text-anchor="start" x="244.5" y="-7.5" font-family="Helvetica,sans-Serif" font-size="10.00">+ final_suspend()</text>
</a>
</g>
</g>
<!-- Node7&#45;&gt;Node9 -->
<g id="edge8" class="edge">
<title>Node7&#45;&gt;Node9</title>
<path fill="none" stroke="midnightblue" d="M251.15,-113.1C257.98,-102.35 265.49,-90.55 272.41,-79.66"/>
<polygon fill="none" stroke="midnightblue" points="248,-111.52 245.59,-121.84 253.91,-115.28 248,-111.52"/>
</g>
</g>
</svg>
