<?xml version="1.0" encoding="UTF-8" standalone="no"?>
<!DOCTYPE svg PUBLIC "-//W3C//DTD SVG 1.1//EN"
 "http://www.w3.org/Graphics/SVG/1.1/DTD/svg11.dtd">
<!-- Generated by graphviz version 2.43.0 (0)
 -->
<!-- Title: async&lt; Func &gt; Pages: 1 -->
<svg width="212pt" height="310pt"
 viewBox="0.00 0.00 211.50 310.00" xmlns="http://www.w3.org/2000/svg" xmlns:xlink="http://www.w3.org/1999/xlink">
<g id="graph0" class="graph" transform="scale(1 1) rotate(0) translate(4 306)">
<title>async&lt; Func &gt;</title>
<polygon fill="white" stroke="transparent" points="-4,4 -4,-306 207.5,-306 207.5,4 -4,4"/>
<!-- Node1 -->
<g id="node1" class="node">
<title>Node1</title>
<g id="a_node1"><a xlink:title=" ">
<polygon fill="#bfbfbf" stroke="black" points="0,-0.5 0,-79.5 123,-79.5 123,-0.5 0,-0.5"/>
<text text-anchor="middle" x="61.5" y="-67.5" font-family="Helvetica,sans-Serif" font-size="10.00">async&lt; Func &gt;</text>
<polyline fill="none" stroke="black" points="0,-60.5 123,-60.5 "/>
<text text-anchor="middle" x="61.5" y="-48.5" font-family="Helvetica,sans-Serif" font-size="10.00"> </text>
<polyline fill="none" stroke="black" points="0,-41.5 123,-41.5 "/>
<text text-anchor="start" x="8" y="-29.5" font-family="Helvetica,sans-Serif" font-size="10.00">+ async()</text>
<text text-anchor="start" x="8" y="-18.5" font-family="Helvetica,sans-Serif" font-size="10.00">+ operator co_await()</text>
<text text-anchor="start" x="8" y="-7.5" font-family="Helvetica,sans-Serif" font-size="10.00">+ operator co_await()</text>
</a>
</g>
</g>
<!-- Node2 -->
<g id="node2" class="node">
<title>Node2</title>
<g id="a_node2"><a xlink:title=" ">
<polygon fill="white" stroke="black" points="14,-127.5 14,-184.5 53,-184.5 53,-127.5 14,-127.5"/>
<text text-anchor="middle" x="33.5" y="-172.5" font-family="Helvetica,sans-Serif" font-size="10.00">Func</text>
<polyline fill="none" stroke="black" points="14,-165.5 53,-165.5 "/>
<text text-anchor="middle" x="33.5" y="-153.5" font-family="Helvetica,sans-Serif" font-size="10.00"> </text>
<polyline fill="none" stroke="black" points="14,-146.5 53,-146.5 "/>
<text text-anchor="middle" x="33.5" y="-134.5" font-family="Helvetica,sans-Serif" font-size="10.00"> </text>
</a>
</g>
</g>
<!-- Node2&#45;&gt;Node1 -->
<g id="edge1" class="edge">
<title>Node2&#45;&gt;Node1</title>
<path fill="none" stroke="#404040" d="M40.28,-127.4C42.95,-116.52 46.11,-103.66 49.16,-91.24"/>
<polygon fill="none" stroke="#404040" points="49.17,-91.19 46.72,-84.41 52.03,-79.54 54.49,-86.32 49.17,-91.19"/>
<text text-anchor="middle" x="64.5" y="-101" font-family="Helvetica,sans-Serif" font-size="10.00"> &#45;func_</text>
</g>
<!-- Node3 -->
<g id="node3" class="node">
<title>Node3</title>
<g id="a_node3"><a xlink:href="classmp__coro_1_1detail_1_1storage.html" target="_top" xlink:title=" ">
<polygon fill="white" stroke="black" points="71.5,-127.5 71.5,-184.5 203.5,-184.5 203.5,-127.5 71.5,-127.5"/>
<text text-anchor="middle" x="137.5" y="-172.5" font-family="Helvetica,sans-Serif" font-size="10.00">storage&lt; return_type &gt;</text>
<polyline fill="none" stroke="black" points="71.5,-165.5 203.5,-165.5 "/>
<text text-anchor="middle" x="137.5" y="-153.5" font-family="Helvetica,sans-Serif" font-size="10.00"> </text>
<polyline fill="none" stroke="black" points="71.5,-146.5 203.5,-146.5 "/>
<text text-anchor="start" x="79.5" y="-134.5" font-family="Helvetica,sans-Serif" font-size="10.00">+ set_exception()</text>
</a>
</g>
</g>
<!-- Node3&#45;&gt;Node1 -->
<g id="edge2" class="edge">
<title>Node3&#45;&gt;Node1</title>
<path fill="none" stroke="#404040" d="M119.1,-127.4C111.55,-116.07 102.56,-102.6 93.97,-89.7"/>
<polygon fill="none" stroke="#404040" points="93.85,-89.53 87.19,-86.75 87.19,-79.54 93.85,-82.31 93.85,-89.53"/>
<text text-anchor="middle" x="125.5" y="-101" font-family="Helvetica,sans-Serif" font-size="10.00"> &#45;result_</text>
</g>
<!-- Node4 -->
<g id="node4" class="node">
<title>Node4</title>
<g id="a_node4"><a xlink:href="classmp__coro_1_1detail_1_1storage__base.html" target="_top" xlink:title="Storage class that can either contain a value, an exception, or be empty.">
<polygon fill="white" stroke="black" points="82.5,-222.5 82.5,-301.5 192.5,-301.5 192.5,-222.5 82.5,-222.5"/>
<text text-anchor="middle" x="137.5" y="-289.5" font-family="Helvetica,sans-Serif" font-size="10.00">storage_base&lt; T &gt;</text>
<polyline fill="none" stroke="black" points="82.5,-282.5 192.5,-282.5 "/>
<text text-anchor="start" x="90.5" y="-270.5" font-family="Helvetica,sans-Serif" font-size="10.00"># result</text>
<polyline fill="none" stroke="black" points="82.5,-263.5 192.5,-263.5 "/>
<text text-anchor="start" x="90.5" y="-251.5" font-family="Helvetica,sans-Serif" font-size="10.00">+ set_value()</text>
<text text-anchor="start" x="90.5" y="-240.5" font-family="Helvetica,sans-Serif" font-size="10.00">+ get()</text>
<text text-anchor="start" x="90.5" y="-229.5" font-family="Helvetica,sans-Serif" font-size="10.00">+ get()</text>
</a>
</g>
</g>
<!-- Node4&#45;&gt;Node3 -->
<g id="edge3" class="edge">
<title>Node4&#45;&gt;Node3</title>
<path fill="none" stroke="midnightblue" d="M137.5,-212.16C137.5,-202.74 137.5,-193.17 137.5,-184.72"/>
<polygon fill="none" stroke="midnightblue" points="134,-212.27 137.5,-222.27 141,-212.27 134,-212.27"/>
</g>
</g>
</svg>
