<?xml version="1.0" encoding="UTF-8" standalone="no"?>
<!DOCTYPE svg PUBLIC "-//W3C//DTD SVG 1.1//EN"
 "http://www.w3.org/Graphics/SVG/1.1/DTD/svg11.dtd">
<!-- Generated by graphviz version 2.43.0 (0)
 -->
<!-- Title: storage&lt; T &gt; Pages: 1 -->
<svg width="440pt" height="624pt"
 viewBox="0.00 0.00 440.00 624.00" xmlns="http://www.w3.org/2000/svg" xmlns:xlink="http://www.w3.org/1999/xlink">
<g id="graph0" class="graph" transform="scale(1 1) rotate(0) translate(4 620)">
<title>storage&lt; T &gt;</title>
<polygon fill="white" stroke="transparent" points="-4,4 -4,-620 436,-620 436,4 -4,4"/>
<!-- Node1 -->
<g id="node1" class="node">
<title>Node1</title>
<g id="a_node1"><a xlink:title="Storage class that can either contain a value, an exception, or be empty.">
<polygon fill="#bfbfbf" stroke="black" points="94.5,-442.5 94.5,-499.5 198.5,-499.5 198.5,-442.5 94.5,-442.5"/>
<text text-anchor="middle" x="146.5" y="-487.5" font-family="Helvetica,sans-Serif" font-size="10.00">storage&lt; T &gt;</text>
<polyline fill="none" stroke="black" points="94.5,-480.5 198.5,-480.5 "/>
<text text-anchor="middle" x="146.5" y="-468.5" font-family="Helvetica,sans-Serif" font-size="10.00"> </text>
<polyline fill="none" stroke="black" points="94.5,-461.5 198.5,-461.5 "/>
<text text-anchor="start" x="102.5" y="-449.5" font-family="Helvetica,sans-Serif" font-size="10.00">+ set_exception()</text>
</a>
</g>
</g>
<!-- Node3 -->
<g id="node3" class="node">
<title>Node3</title>
<g id="a_node3"><a xlink:href="classmp__coro_1_1detail_1_1nonvoid__storage.html" target="_top" xlink:title=" ">
<polygon fill="white" stroke="black" points="0,-326.5 0,-405.5 141,-405.5 141,-326.5 0,-326.5"/>
<text text-anchor="middle" x="70.5" y="-393.5" font-family="Helvetica,sans-Serif" font-size="10.00">nonvoid_storage&lt; void &gt;</text>
<polyline fill="none" stroke="black" points="0,-386.5 141,-386.5 "/>
<text text-anchor="middle" x="70.5" y="-374.5" font-family="Helvetica,sans-Serif" font-size="10.00"> </text>
<polyline fill="none" stroke="black" points="0,-367.5 141,-367.5 "/>
<text text-anchor="start" x="8" y="-355.5" font-family="Helvetica,sans-Serif" font-size="10.00">+ nonvoid_get()</text>
<text text-anchor="start" x="8" y="-344.5" font-family="Helvetica,sans-Serif" font-size="10.00">+ nonvoid_get()</text>
<text text-anchor="start" x="8" y="-333.5" font-family="Helvetica,sans-Serif" font-size="10.00">+ nonvoid_get()</text>
</a>
</g>
</g>
<!-- Node1&#45;&gt;Node3 -->
<g id="edge2" class="edge">
<title>Node1&#45;&gt;Node3</title>
<path fill="none" stroke="midnightblue" d="M120.05,-434.15C113.22,-424.9 105.85,-414.9 98.92,-405.52"/>
<polygon fill="none" stroke="midnightblue" points="117.38,-436.43 126.13,-442.4 123.01,-432.27 117.38,-436.43"/>
</g>
<!-- Node4 -->
<g id="node4" class="node">
<title>Node4</title>
<g id="a_node4"><a xlink:href="classmp__coro_1_1detail_1_1nonvoid__storage.html" target="_top" xlink:title=" ">
<polygon fill="white" stroke="black" points="159.5,-326.5 159.5,-405.5 285.5,-405.5 285.5,-326.5 159.5,-326.5"/>
<text text-anchor="middle" x="222.5" y="-393.5" font-family="Helvetica,sans-Serif" font-size="10.00">nonvoid_storage&lt; T &gt;</text>
<polyline fill="none" stroke="black" points="159.5,-386.5 285.5,-386.5 "/>
<text text-anchor="middle" x="222.5" y="-374.5" font-family="Helvetica,sans-Serif" font-size="10.00"> </text>
<polyline fill="none" stroke="black" points="159.5,-367.5 285.5,-367.5 "/>
<text text-anchor="start" x="167.5" y="-355.5" font-family="Helvetica,sans-Serif" font-size="10.00">+ nonvoid_get()</text>
<text text-anchor="start" x="167.5" y="-344.5" font-family="Helvetica,sans-Serif" font-size="10.00">+ nonvoid_get()</text>
<text text-anchor="start" x="167.5" y="-333.5" font-family="Helvetica,sans-Serif" font-size="10.00">+ nonvoid_get()</text>
</a>
</g>
</g>
<!-- Node1&#45;&gt;Node4 -->
<g id="edge3" class="edge">
<title>Node1&#45;&gt;Node4</title>
<path fill="none" stroke="midnightblue" d="M172.95,-434.15C179.78,-424.9 187.15,-414.9 194.08,-405.52"/>
<polygon fill="none" stroke="midnightblue" points="169.99,-432.27 166.87,-442.4 175.62,-436.43 169.99,-432.27"/>
</g>
<!-- Node2 -->
<g id="node2" class="node">
<title>Node2</title>
<g id="a_node2"><a xlink:href="classmp__coro_1_1detail_1_1storage__base.html" target="_top" xlink:title="Storage class that can either contain a value, an exception, or be empty.">
<polygon fill="white" stroke="black" points="91.5,-536.5 91.5,-615.5 201.5,-615.5 201.5,-536.5 91.5,-536.5"/>
<text text-anchor="middle" x="146.5" y="-603.5" font-family="Helvetica,sans-Serif" font-size="10.00">storage_base&lt; T &gt;</text>
<polyline fill="none" stroke="black" points="91.5,-596.5 201.5,-596.5 "/>
<text text-anchor="start" x="99.5" y="-584.5" font-family="Helvetica,sans-Serif" font-size="10.00"># result</text>
<polyline fill="none" stroke="black" points="91.5,-577.5 201.5,-577.5 "/>
<text text-anchor="start" x="99.5" y="-565.5" font-family="Helvetica,sans-Serif" font-size="10.00">+ set_value()</text>
<text text-anchor="start" x="99.5" y="-554.5" font-family="Helvetica,sans-Serif" font-size="10.00">+ get()</text>
<text text-anchor="start" x="99.5" y="-543.5" font-family="Helvetica,sans-Serif" font-size="10.00">+ get()</text>
</a>
</g>
</g>
<!-- Node2&#45;&gt;Node1 -->
<g id="edge1" class="edge">
<title>Node2&#45;&gt;Node1</title>
<path fill="none" stroke="midnightblue" d="M146.5,-526.16C146.5,-517.04 146.5,-507.81 146.5,-499.61"/>
<polygon fill="none" stroke="midnightblue" points="143,-526.35 146.5,-536.35 150,-526.35 143,-526.35"/>
</g>
<!-- Node5 -->
<g id="node5" class="node">
<title>Node5</title>
<g id="a_node5"><a xlink:href="structmp__coro_1_1detail_1_1task__promise__storage__base.html" target="_top" xlink:title=" ">
<polygon fill="white" stroke="black" points="73.5,-221.5 73.5,-289.5 213.5,-289.5 213.5,-221.5 73.5,-221.5"/>
<text text-anchor="start" x="81.5" y="-277.5" font-family="Helvetica,sans-Serif" font-size="10.00">task_promise_storage</text>
<text text-anchor="middle" x="143.5" y="-266.5" font-family="Helvetica,sans-Serif" font-size="10.00">_base&lt; void &gt;</text>
<polyline fill="none" stroke="black" points="73.5,-259.5 213.5,-259.5 "/>
<text text-anchor="middle" x="143.5" y="-247.5" font-family="Helvetica,sans-Serif" font-size="10.00"> </text>
<polyline fill="none" stroke="black" points="73.5,-240.5 213.5,-240.5 "/>
<text text-anchor="start" x="81.5" y="-228.5" font-family="Helvetica,sans-Serif" font-size="10.00">+ unhandled_exception()</text>
</a>
</g>
</g>
<!-- Node4&#45;&gt;Node5 -->
<g id="edge4" class="edge">
<title>Node4&#45;&gt;Node5</title>
<path fill="none" stroke="midnightblue" d="M188.35,-318.1C181.35,-308.48 174.12,-298.55 167.56,-289.54"/>
<polygon fill="none" stroke="midnightblue" points="185.71,-320.42 194.43,-326.44 191.37,-316.3 185.71,-320.42"/>
</g>
<!-- Node7 -->
<g id="node7" class="node">
<title>Node7</title>
<g id="a_node7"><a xlink:href="structmp__coro_1_1detail_1_1task__promise__storage__base.html" target="_top" xlink:title=" ">
<polygon fill="white" stroke="black" points="231.5,-221.5 231.5,-289.5 371.5,-289.5 371.5,-221.5 231.5,-221.5"/>
<text text-anchor="start" x="239.5" y="-277.5" font-family="Helvetica,sans-Serif" font-size="10.00">task_promise_storage</text>
<text text-anchor="middle" x="301.5" y="-266.5" font-family="Helvetica,sans-Serif" font-size="10.00">_base&lt; T &gt;</text>
<polyline fill="none" stroke="black" points="231.5,-259.5 371.5,-259.5 "/>
<text text-anchor="middle" x="301.5" y="-247.5" font-family="Helvetica,sans-Serif" font-size="10.00"> </text>
<polyline fill="none" stroke="black" points="231.5,-240.5 371.5,-240.5 "/>
<text text-anchor="start" x="239.5" y="-228.5" font-family="Helvetica,sans-Serif" font-size="10.00">+ unhandled_exception()</text>
</a>
</g>
</g>
<!-- Node4&#45;&gt;Node7 -->
<g id="edge6" class="edge">
<title>Node4&#45;&gt;Node7</title>
<path fill="none" stroke="midnightblue" d="M256.65,-318.1C263.65,-308.48 270.88,-298.55 277.44,-289.54"/>
<polygon fill="none" stroke="midnightblue" points="253.63,-316.3 250.57,-326.44 259.29,-320.42 253.63,-316.3"/>
</g>
<!-- Node6 -->
<g id="node6" class="node">
<title>Node6</title>
<g id="a_node6"><a xlink:href="structmp__coro_1_1detail_1_1task__promise__storage_3_01void_01_4.html" target="_top" xlink:title=" ">
<polygon fill="white" stroke="black" points="81,-116.5 81,-184.5 206,-184.5 206,-116.5 81,-116.5"/>
<text text-anchor="start" x="89" y="-172.5" font-family="Helvetica,sans-Serif" font-size="10.00">task_promise_storage</text>
<text text-anchor="middle" x="143.5" y="-161.5" font-family="Helvetica,sans-Serif" font-size="10.00">&lt; void &gt;</text>
<polyline fill="none" stroke="black" points="81,-154.5 206,-154.5 "/>
<text text-anchor="middle" x="143.5" y="-142.5" font-family="Helvetica,sans-Serif" font-size="10.00"> </text>
<polyline fill="none" stroke="black" points="81,-135.5 206,-135.5 "/>
<text text-anchor="start" x="89" y="-123.5" font-family="Helvetica,sans-Serif" font-size="10.00">+ return_void()</text>
</a>
</g>
</g>
<!-- Node5&#45;&gt;Node6 -->
<g id="edge5" class="edge">
<title>Node5&#45;&gt;Node6</title>
<path fill="none" stroke="midnightblue" d="M143.5,-211.14C143.5,-202.26 143.5,-193.04 143.5,-184.59"/>
<polygon fill="none" stroke="midnightblue" points="140,-211.34 143.5,-221.34 147,-211.34 140,-211.34"/>
</g>
<!-- Node8 -->
<g id="node8" class="node">
<title>Node8</title>
<g id="a_node8"><a xlink:href="structmp__coro_1_1detail_1_1task__promise__storage.html" target="_top" xlink:title=" ">
<polygon fill="white" stroke="black" points="225,-122 225,-179 378,-179 378,-122 225,-122"/>
<text text-anchor="middle" x="301.5" y="-167" font-family="Helvetica,sans-Serif" font-size="10.00">task_promise_storage&lt; T &gt;</text>
<polyline fill="none" stroke="black" points="225,-160 378,-160 "/>
<text text-anchor="middle" x="301.5" y="-148" font-family="Helvetica,sans-Serif" font-size="10.00"> </text>
<polyline fill="none" stroke="black" points="225,-141 378,-141 "/>
<text text-anchor="start" x="233" y="-129" font-family="Helvetica,sans-Serif" font-size="10.00">+ return_value()</text>
</a>
</g>
</g>
<!-- Node7&#45;&gt;Node8 -->
<g id="edge7" class="edge">
<title>Node7&#45;&gt;Node8</title>
<path fill="none" stroke="midnightblue" d="M301.5,-211.15C301.5,-200.29 301.5,-188.93 301.5,-179.08"/>
<polygon fill="none" stroke="midnightblue" points="298,-211.34 301.5,-221.34 305,-211.34 298,-211.34"/>
</g>
<!-- Node9 -->
<g id="node9" class="node">
<title>Node9</title>
<g id="a_node9"><a xlink:href="structmp__coro_1_1detail_1_1synchronized__task_1_1promise__type.html" target="_top" xlink:title="Required promise type for coroutines returning a synchronized_task.">
<polygon fill="white" stroke="black" points="172,-0.5 172,-79.5 293,-79.5 293,-0.5 172,-0.5"/>
<text text-anchor="middle" x="232.5" y="-67.5" font-family="Helvetica,sans-Serif" font-size="10.00">promise_type</text>
<polyline fill="none" stroke="black" points="172,-60.5 293,-60.5 "/>
<text text-anchor="start" x="180" y="-48.5" font-family="Helvetica,sans-Serif" font-size="10.00">+ sync</text>
<polyline fill="none" stroke="black" points="172,-41.5 293,-41.5 "/>
<text text-anchor="start" x="180" y="-29.5" font-family="Helvetica,sans-Serif" font-size="10.00">+ get_return_object()</text>
<text text-anchor="start" x="180" y="-18.5" font-family="Helvetica,sans-Serif" font-size="10.00">+ initial_suspend()</text>
<text text-anchor="start" x="180" y="-7.5" font-family="Helvetica,sans-Serif" font-size="10.00">+ final_suspend()</text>
</a>
</g>
</g>
<!-- Node8&#45;&gt;Node9 -->
<g id="edge8" class="edge">
<title>Node8&#45;&gt;Node9</title>
<path fill="none" stroke="midnightblue" d="M278.35,-113.1C271.52,-102.35 264.01,-90.55 257.09,-79.66"/>
<polygon fill="none" stroke="midnightblue" points="275.59,-115.28 283.91,-121.84 281.5,-111.52 275.59,-115.28"/>
</g>
<!-- Node10 -->
<g id="node10" class="node">
<title>Node10</title>
<g id="a_node10"><a xlink:href="structmp__coro_1_1task_1_1promise__type.html" target="_top" xlink:title="Required promise type for coroutines returning a task.">
<polygon fill="white" stroke="black" points="311,-0.5 311,-79.5 432,-79.5 432,-0.5 311,-0.5"/>
<text text-anchor="middle" x="371.5" y="-67.5" font-family="Helvetica,sans-Serif" font-size="10.00">promise_type</text>
<polyline fill="none" stroke="black" points="311,-60.5 432,-60.5 "/>
<text text-anchor="start" x="319" y="-48.5" font-family="Helvetica,sans-Serif" font-size="10.00">+ continuation</text>
<polyline fill="none" stroke="black" points="311,-41.5 432,-41.5 "/>
<text text-anchor="start" x="319" y="-29.5" font-family="Helvetica,sans-Serif" font-size="10.00">+ get_return_object()</text>
<text text-anchor="start" x="319" y="-18.5" font-family="Helvetica,sans-Serif" font-size="10.00">+ initial_suspend()</text>
<text text-anchor="start" x="319" y="-7.5" font-family="Helvetica,sans-Serif" font-size="10.00">+ final_suspend()</text>
</a>
</g>
</g>
<!-- Node8&#45;&gt;Node10 -->
<g id="edge9" class="edge">
<title>Node8&#45;&gt;Node10</title>
<path fill="none" stroke="midnightblue" d="M324.78,-113.42C331.77,-102.59 339.46,-90.66 346.56,-79.66"/>
<polygon fill="none" stroke="midnightblue" points="321.83,-111.54 319.35,-121.84 327.71,-115.33 321.83,-111.54"/>
</g>
</g>
</svg>
