<?xml version="1.0" encoding="UTF-8" standalone="no"?>
<!DOCTYPE svg PUBLIC "-//W3C//DTD SVG 1.1//EN"
 "http://www.w3.org/Graphics/SVG/1.1/DTD/svg11.dtd">
<!-- Generated by graphviz version 2.43.0 (0)
 -->
<!-- Title: operator co_await Pages: 1 -->
<svg width="610pt" height="137pt"
 viewBox="0.00 0.00 610.00 137.00" xmlns="http://www.w3.org/2000/svg" xmlns:xlink="http://www.w3.org/1999/xlink">
<g id="graph0" class="graph" transform="scale(1 1) rotate(0) translate(4 133)">
<title>operator co_await</title>
<polygon fill="white" stroke="transparent" points="-4,4 -4,-133 606,-133 606,4 -4,4"/>
<!-- Node1 -->
<g id="node1" class="node">
<title>Node1</title>
<g id="a_node1"><a xlink:title=" ">
<polygon fill="#bfbfbf" stroke="black" points="0,-55 0,-74 104,-74 104,-55 0,-55"/>
<text text-anchor="middle" x="52" y="-62" font-family="Helvetica,sans-Serif" font-size="10.00">operator co_await</text>
</a>
</g>
</g>
<!-- Node2 -->
<g id="node2" class="node">
<title>Node2</title>
<g id="a_node2"><a xlink:href="structmp__coro_1_1task_1_1awaiter.html#a3a4221f9d558f4c787b0305583d47c04" target="_top" xlink:title="Returns true if the task&#39;s coroutine is already done (suspended at its final suspension point).">
<polygon fill="white" stroke="black" points="140,-98.5 140,-128.5 268,-128.5 268,-98.5 140,-98.5"/>
<text text-anchor="start" x="148" y="-116.5" font-family="Helvetica,sans-Serif" font-size="10.00">mp_coro::task::awaiter</text>
<text text-anchor="middle" x="204" y="-105.5" font-family="Helvetica,sans-Serif" font-size="10.00">::await_ready</text>
</a>
</g>
</g>
<!-- Node1&#45;&gt;Node2 -->
<g id="edge1" class="edge">
<title>Node1&#45;&gt;Node2</title>
<path fill="none" stroke="midnightblue" d="M82.28,-74.06C100.77,-80.11 125.26,-88.11 147.35,-95.32"/>
<polygon fill="midnightblue" stroke="midnightblue" points="146.38,-98.68 156.97,-98.46 148.55,-92.03 146.38,-98.68"/>
</g>
<!-- Node3 -->
<g id="node3" class="node">
<title>Node3</title>
<g id="a_node3"><a xlink:href="structmp__coro_1_1task_1_1awaiter.html#a3ffaa5cd66a8d18b91ed92bac4a31858" target="_top" xlink:title="Return the value of the task&#39;s promise.">
<polygon fill="white" stroke="black" points="140,-49.5 140,-79.5 268,-79.5 268,-49.5 140,-49.5"/>
<text text-anchor="start" x="148" y="-67.5" font-family="Helvetica,sans-Serif" font-size="10.00">mp_coro::task::awaiter</text>
<text text-anchor="middle" x="204" y="-56.5" font-family="Helvetica,sans-Serif" font-size="10.00">::await_resume</text>
</a>
</g>
</g>
<!-- Node1&#45;&gt;Node3 -->
<g id="edge2" class="edge">
<title>Node1&#45;&gt;Node3</title>
<path fill="none" stroke="midnightblue" d="M104.2,-64.5C112.44,-64.5 121.1,-64.5 129.73,-64.5"/>
<polygon fill="midnightblue" stroke="midnightblue" points="129.82,-68 139.82,-64.5 129.82,-61 129.82,-68"/>
</g>
<!-- Node6 -->
<g id="node6" class="node">
<title>Node6</title>
<g id="a_node6"><a xlink:href="structmp__coro_1_1task_1_1awaiter.html#a8fe935a064e2686356e62d12282aba70" target="_top" xlink:title="Set the current coroutine as this task&#39;s continuation, and then resume this task&#39;s coroutine.">
<polygon fill="white" stroke="black" points="140,-0.5 140,-30.5 268,-30.5 268,-0.5 140,-0.5"/>
<text text-anchor="start" x="148" y="-18.5" font-family="Helvetica,sans-Serif" font-size="10.00">mp_coro::task::awaiter</text>
<text text-anchor="middle" x="204" y="-7.5" font-family="Helvetica,sans-Serif" font-size="10.00">::await_suspend</text>
</a>
</g>
</g>
<!-- Node1&#45;&gt;Node6 -->
<g id="edge5" class="edge">
<title>Node1&#45;&gt;Node6</title>
<path fill="none" stroke="midnightblue" d="M82.28,-54.94C100.77,-48.89 125.26,-40.89 147.35,-33.68"/>
<polygon fill="midnightblue" stroke="midnightblue" points="148.55,-36.97 156.97,-30.54 146.38,-30.32 148.55,-36.97"/>
</g>
<!-- Node4 -->
<g id="node4" class="node">
<title>Node4</title>
<g id="a_node4"><a xlink:href="classmp__coro_1_1detail_1_1storage__base.html#a12a244caa425ee3044a5b8d6448d9fb1" target="_top" xlink:title=" ">
<polygon fill="white" stroke="black" points="304,-49.5 304,-79.5 439,-79.5 439,-49.5 304,-49.5"/>
<text text-anchor="start" x="312" y="-67.5" font-family="Helvetica,sans-Serif" font-size="10.00">mp_coro::detail::storage</text>
<text text-anchor="middle" x="371.5" y="-56.5" font-family="Helvetica,sans-Serif" font-size="10.00">_base::get</text>
</a>
</g>
</g>
<!-- Node3&#45;&gt;Node4 -->
<g id="edge3" class="edge">
<title>Node3&#45;&gt;Node4</title>
<path fill="none" stroke="midnightblue" d="M268.04,-64.5C276.44,-64.5 285.14,-64.5 293.74,-64.5"/>
<polygon fill="midnightblue" stroke="midnightblue" points="293.78,-68 303.78,-64.5 293.78,-61 293.78,-68"/>
</g>
<!-- Node5 -->
<g id="node5" class="node">
<title>Node5</title>
<g id="a_node5"><a xlink:href="namespacemp__coro_1_1detail.html#a014f571ae69c39715af7439c8abe52cc" target="_top" xlink:title="If rethrow contains an exception, rethrow it.">
<polygon fill="white" stroke="black" points="475,-49.5 475,-79.5 602,-79.5 602,-49.5 475,-49.5"/>
<text text-anchor="start" x="483" y="-67.5" font-family="Helvetica,sans-Serif" font-size="10.00">mp_coro::detail::check</text>
<text text-anchor="middle" x="538.5" y="-56.5" font-family="Helvetica,sans-Serif" font-size="10.00">_and_rethrow</text>
</a>
</g>
</g>
<!-- Node4&#45;&gt;Node5 -->
<g id="edge4" class="edge">
<title>Node4&#45;&gt;Node5</title>
<path fill="none" stroke="midnightblue" d="M439.14,-64.5C447.53,-64.5 456.15,-64.5 464.63,-64.5"/>
<polygon fill="midnightblue" stroke="midnightblue" points="464.89,-68 474.89,-64.5 464.89,-61 464.89,-68"/>
</g>
</g>
</svg>
