<?xml version="1.0" encoding="UTF-8" standalone="no"?>
<!DOCTYPE svg PUBLIC "-//W3C//DTD SVG 1.1//EN"
 "http://www.w3.org/Graphics/SVG/1.1/DTD/svg11.dtd">
<!-- Generated by graphviz version 2.43.0 (0)
 -->
<!-- Title: storage_base&lt; T &gt; Pages: 1 -->
<svg width="654pt" height="624pt"
 viewBox="0.00 0.00 654.00 624.00" xmlns="http://www.w3.org/2000/svg" xmlns:xlink="http://www.w3.org/1999/xlink">
<g id="graph0" class="graph" transform="scale(1 1) rotate(0) translate(4 620)">
<title>storage_base&lt; T &gt;</title>
<polygon fill="white" stroke="transparent" points="-4,4 -4,-620 650,-620 650,4 -4,4"/>
<!-- Node1 -->
<g id="node1" class="node">
<title>Node1</title>
<g id="a_node1"><a xlink:title="Storage class that can either contain a value, an exception, or be empty.">
<polygon fill="#bfbfbf" stroke="black" points="151.5,-536.5 151.5,-615.5 261.5,-615.5 261.5,-536.5 151.5,-536.5"/>
<text text-anchor="middle" x="206.5" y="-603.5" font-family="Helvetica,sans-Serif" font-size="10.00">storage_base&lt; T &gt;</text>
<polyline fill="none" stroke="black" points="151.5,-596.5 261.5,-596.5 "/>
<text text-anchor="start" x="159.5" y="-584.5" font-family="Helvetica,sans-Serif" font-size="10.00"># result</text>
<polyline fill="none" stroke="black" points="151.5,-577.5 261.5,-577.5 "/>
<text text-anchor="start" x="159.5" y="-565.5" font-family="Helvetica,sans-Serif" font-size="10.00">+ set_value()</text>
<text text-anchor="start" x="159.5" y="-554.5" font-family="Helvetica,sans-Serif" font-size="10.00">+ get()</text>
<text text-anchor="start" x="159.5" y="-543.5" font-family="Helvetica,sans-Serif" font-size="10.00">+ get()</text>
</a>
</g>
</g>
<!-- Node2 -->
<g id="node2" class="node">
<title>Node2</title>
<g id="a_node2"><a xlink:href="classmp__coro_1_1detail_1_1storage.html" target="_top" xlink:title=" ">
<polygon fill="white" stroke="black" points="18.5,-442.5 18.5,-499.5 122.5,-499.5 122.5,-442.5 18.5,-442.5"/>
<text text-anchor="middle" x="70.5" y="-487.5" font-family="Helvetica,sans-Serif" font-size="10.00">storage&lt; void &gt;</text>
<polyline fill="none" stroke="black" points="18.5,-480.5 122.5,-480.5 "/>
<text text-anchor="middle" x="70.5" y="-468.5" font-family="Helvetica,sans-Serif" font-size="10.00"> </text>
<polyline fill="none" stroke="black" points="18.5,-461.5 122.5,-461.5 "/>
<text text-anchor="start" x="26.5" y="-449.5" font-family="Helvetica,sans-Serif" font-size="10.00">+ set_exception()</text>
</a>
</g>
</g>
<!-- Node1&#45;&gt;Node2 -->
<g id="edge1" class="edge">
<title>Node1&#45;&gt;Node2</title>
<path fill="none" stroke="midnightblue" d="M147.44,-530.27C133.67,-519.84 119.41,-509.04 106.96,-499.61"/>
<polygon fill="none" stroke="midnightblue" points="145.39,-533.11 155.47,-536.35 149.61,-527.53 145.39,-533.11"/>
</g>
<!-- Node4 -->
<g id="node4" class="node">
<title>Node4</title>
<g id="a_node4"><a xlink:href="classmp__coro_1_1detail_1_1storage.html" target="_top" xlink:title=" ">
<polygon fill="white" stroke="black" points="140.5,-442.5 140.5,-499.5 272.5,-499.5 272.5,-442.5 140.5,-442.5"/>
<text text-anchor="middle" x="206.5" y="-487.5" font-family="Helvetica,sans-Serif" font-size="10.00">storage&lt; return_type &gt;</text>
<polyline fill="none" stroke="black" points="140.5,-480.5 272.5,-480.5 "/>
<text text-anchor="middle" x="206.5" y="-468.5" font-family="Helvetica,sans-Serif" font-size="10.00"> </text>
<polyline fill="none" stroke="black" points="140.5,-461.5 272.5,-461.5 "/>
<text text-anchor="start" x="148.5" y="-449.5" font-family="Helvetica,sans-Serif" font-size="10.00">+ set_exception()</text>
</a>
</g>
</g>
<!-- Node1&#45;&gt;Node4 -->
<g id="edge3" class="edge">
<title>Node1&#45;&gt;Node4</title>
<path fill="none" stroke="midnightblue" d="M206.5,-526.16C206.5,-517.04 206.5,-507.81 206.5,-499.61"/>
<polygon fill="none" stroke="midnightblue" points="203,-526.35 206.5,-536.35 210,-526.35 203,-526.35"/>
</g>
<!-- Node5 -->
<g id="node5" class="node">
<title>Node5</title>
<g id="a_node5"><a xlink:href="classmp__coro_1_1detail_1_1storage.html" target="_top" xlink:title="Storage class that can either contain a value, an exception, or be empty.">
<polygon fill="white" stroke="black" points="290.5,-442.5 290.5,-499.5 394.5,-499.5 394.5,-442.5 290.5,-442.5"/>
<text text-anchor="middle" x="342.5" y="-487.5" font-family="Helvetica,sans-Serif" font-size="10.00">storage&lt; T &gt;</text>
<polyline fill="none" stroke="black" points="290.5,-480.5 394.5,-480.5 "/>
<text text-anchor="middle" x="342.5" y="-468.5" font-family="Helvetica,sans-Serif" font-size="10.00"> </text>
<polyline fill="none" stroke="black" points="290.5,-461.5 394.5,-461.5 "/>
<text text-anchor="start" x="298.5" y="-449.5" font-family="Helvetica,sans-Serif" font-size="10.00">+ set_exception()</text>
</a>
</g>
</g>
<!-- Node1&#45;&gt;Node5 -->
<g id="edge4" class="edge">
<title>Node1&#45;&gt;Node5</title>
<path fill="none" stroke="midnightblue" d="M265.56,-530.27C279.33,-519.84 293.59,-509.04 306.04,-499.61"/>
<polygon fill="none" stroke="midnightblue" points="263.39,-527.53 257.53,-536.35 267.61,-533.11 263.39,-527.53"/>
</g>
<!-- Node3 -->
<g id="node3" class="node">
<title>Node3</title>
<g id="a_node3"><a xlink:href="classmp__coro_1_1detail_1_1nonvoid__storage_3_01void_01_4.html" target="_top" xlink:title=" ">
<polygon fill="white" stroke="black" points="0,-337.5 0,-394.5 141,-394.5 141,-337.5 0,-337.5"/>
<text text-anchor="middle" x="70.5" y="-382.5" font-family="Helvetica,sans-Serif" font-size="10.00">nonvoid_storage&lt; void &gt;</text>
<polyline fill="none" stroke="black" points="0,-375.5 141,-375.5 "/>
<text text-anchor="middle" x="70.5" y="-363.5" font-family="Helvetica,sans-Serif" font-size="10.00"> </text>
<polyline fill="none" stroke="black" points="0,-356.5 141,-356.5 "/>
<text text-anchor="start" x="8" y="-344.5" font-family="Helvetica,sans-Serif" font-size="10.00">+ nonvoid_get()</text>
</a>
</g>
</g>
<!-- Node2&#45;&gt;Node3 -->
<g id="edge2" class="edge">
<title>Node2&#45;&gt;Node3</title>
<path fill="none" stroke="midnightblue" d="M70.5,-432.29C70.5,-419.84 70.5,-406.23 70.5,-394.68"/>
<polygon fill="none" stroke="midnightblue" points="67,-432.4 70.5,-442.4 74,-432.4 67,-432.4"/>
</g>
<!-- Node6 -->
<g id="node6" class="node">
<title>Node6</title>
<g id="a_node6"><a xlink:href="classmp__coro_1_1detail_1_1nonvoid__storage.html" target="_top" xlink:title=" ">
<polygon fill="white" stroke="black" points="215,-326.5 215,-405.5 356,-405.5 356,-326.5 215,-326.5"/>
<text text-anchor="middle" x="285.5" y="-393.5" font-family="Helvetica,sans-Serif" font-size="10.00">nonvoid_storage&lt; void &gt;</text>
<polyline fill="none" stroke="black" points="215,-386.5 356,-386.5 "/>
<text text-anchor="middle" x="285.5" y="-374.5" font-family="Helvetica,sans-Serif" font-size="10.00"> </text>
<polyline fill="none" stroke="black" points="215,-367.5 356,-367.5 "/>
<text text-anchor="start" x="223" y="-355.5" font-family="Helvetica,sans-Serif" font-size="10.00">+ nonvoid_get()</text>
<text text-anchor="start" x="223" y="-344.5" font-family="Helvetica,sans-Serif" font-size="10.00">+ nonvoid_get()</text>
<text text-anchor="start" x="223" y="-333.5" font-family="Helvetica,sans-Serif" font-size="10.00">+ nonvoid_get()</text>
</a>
</g>
</g>
<!-- Node5&#45;&gt;Node6 -->
<g id="edge5" class="edge">
<title>Node5&#45;&gt;Node6</title>
<path fill="none" stroke="midnightblue" d="M322.35,-433.58C317.32,-424.49 311.9,-414.71 306.82,-405.52"/>
<polygon fill="none" stroke="midnightblue" points="319.32,-435.34 327.23,-442.4 325.45,-431.95 319.32,-435.34"/>
</g>
<!-- Node7 -->
<g id="node7" class="node">
<title>Node7</title>
<g id="a_node7"><a xlink:href="classmp__coro_1_1detail_1_1nonvoid__storage.html" target="_top" xlink:title=" ">
<polygon fill="white" stroke="black" points="374.5,-326.5 374.5,-405.5 500.5,-405.5 500.5,-326.5 374.5,-326.5"/>
<text text-anchor="middle" x="437.5" y="-393.5" font-family="Helvetica,sans-Serif" font-size="10.00">nonvoid_storage&lt; T &gt;</text>
<polyline fill="none" stroke="black" points="374.5,-386.5 500.5,-386.5 "/>
<text text-anchor="middle" x="437.5" y="-374.5" font-family="Helvetica,sans-Serif" font-size="10.00"> </text>
<polyline fill="none" stroke="black" points="374.5,-367.5 500.5,-367.5 "/>
<text text-anchor="start" x="382.5" y="-355.5" font-family="Helvetica,sans-Serif" font-size="10.00">+ nonvoid_get()</text>
<text text-anchor="start" x="382.5" y="-344.5" font-family="Helvetica,sans-Serif" font-size="10.00">+ nonvoid_get()</text>
<text text-anchor="start" x="382.5" y="-333.5" font-family="Helvetica,sans-Serif" font-size="10.00">+ nonvoid_get()</text>
</a>
</g>
</g>
<!-- Node5&#45;&gt;Node7 -->
<g id="edge6" class="edge">
<title>Node5&#45;&gt;Node7</title>
<path fill="none" stroke="midnightblue" d="M374.78,-435C383.53,-425.51 393.05,-415.19 401.97,-405.52"/>
<polygon fill="none" stroke="midnightblue" points="372.17,-432.67 367.96,-442.4 377.31,-437.42 372.17,-432.67"/>
</g>
<!-- Node8 -->
<g id="node8" class="node">
<title>Node8</title>
<g id="a_node8"><a xlink:href="structmp__coro_1_1detail_1_1task__promise__storage__base.html" target="_top" xlink:title=" ">
<polygon fill="white" stroke="black" points="288.5,-221.5 288.5,-289.5 428.5,-289.5 428.5,-221.5 288.5,-221.5"/>
<text text-anchor="start" x="296.5" y="-277.5" font-family="Helvetica,sans-Serif" font-size="10.00">task_promise_storage</text>
<text text-anchor="middle" x="358.5" y="-266.5" font-family="Helvetica,sans-Serif" font-size="10.00">_base&lt; void &gt;</text>
<polyline fill="none" stroke="black" points="288.5,-259.5 428.5,-259.5 "/>
<text text-anchor="middle" x="358.5" y="-247.5" font-family="Helvetica,sans-Serif" font-size="10.00"> </text>
<polyline fill="none" stroke="black" points="288.5,-240.5 428.5,-240.5 "/>
<text text-anchor="start" x="296.5" y="-228.5" font-family="Helvetica,sans-Serif" font-size="10.00">+ unhandled_exception()</text>
</a>
</g>
</g>
<!-- Node7&#45;&gt;Node8 -->
<g id="edge7" class="edge">
<title>Node7&#45;&gt;Node8</title>
<path fill="none" stroke="midnightblue" d="M403.35,-318.1C396.35,-308.48 389.12,-298.55 382.56,-289.54"/>
<polygon fill="none" stroke="midnightblue" points="400.71,-320.42 409.43,-326.44 406.37,-316.3 400.71,-320.42"/>
</g>
<!-- Node10 -->
<g id="node10" class="node">
<title>Node10</title>
<g id="a_node10"><a xlink:href="structmp__coro_1_1detail_1_1task__promise__storage__base.html" target="_top" xlink:title=" ">
<polygon fill="white" stroke="black" points="446.5,-221.5 446.5,-289.5 586.5,-289.5 586.5,-221.5 446.5,-221.5"/>
<text text-anchor="start" x="454.5" y="-277.5" font-family="Helvetica,sans-Serif" font-size="10.00">task_promise_storage</text>
<text text-anchor="middle" x="516.5" y="-266.5" font-family="Helvetica,sans-Serif" font-size="10.00">_base&lt; T &gt;</text>
<polyline fill="none" stroke="black" points="446.5,-259.5 586.5,-259.5 "/>
<text text-anchor="middle" x="516.5" y="-247.5" font-family="Helvetica,sans-Serif" font-size="10.00"> </text>
<polyline fill="none" stroke="black" points="446.5,-240.5 586.5,-240.5 "/>
<text text-anchor="start" x="454.5" y="-228.5" font-family="Helvetica,sans-Serif" font-size="10.00">+ unhandled_exception()</text>
</a>
</g>
</g>
<!-- Node7&#45;&gt;Node10 -->
<g id="edge9" class="edge">
<title>Node7&#45;&gt;Node10</title>
<path fill="none" stroke="midnightblue" d="M471.65,-318.1C478.65,-308.48 485.88,-298.55 492.44,-289.54"/>
<polygon fill="none" stroke="midnightblue" points="468.63,-316.3 465.57,-326.44 474.29,-320.42 468.63,-316.3"/>
</g>
<!-- Node9 -->
<g id="node9" class="node">
<title>Node9</title>
<g id="a_node9"><a xlink:href="structmp__coro_1_1detail_1_1task__promise__storage_3_01void_01_4.html" target="_top" xlink:title=" ">
<polygon fill="white" stroke="black" points="296,-116.5 296,-184.5 421,-184.5 421,-116.5 296,-116.5"/>
<text text-anchor="start" x="304" y="-172.5" font-family="Helvetica,sans-Serif" font-size="10.00">task_promise_storage</text>
<text text-anchor="middle" x="358.5" y="-161.5" font-family="Helvetica,sans-Serif" font-size="10.00">&lt; void &gt;</text>
<polyline fill="none" stroke="black" points="296,-154.5 421,-154.5 "/>
<text text-anchor="middle" x="358.5" y="-142.5" font-family="Helvetica,sans-Serif" font-size="10.00"> </text>
<polyline fill="none" stroke="black" points="296,-135.5 421,-135.5 "/>
<text text-anchor="start" x="304" y="-123.5" font-family="Helvetica,sans-Serif" font-size="10.00">+ return_void()</text>
</a>
</g>
</g>
<!-- Node8&#45;&gt;Node9 -->
<g id="edge8" class="edge">
<title>Node8&#45;&gt;Node9</title>
<path fill="none" stroke="midnightblue" d="M358.5,-211.14C358.5,-202.26 358.5,-193.04 358.5,-184.59"/>
<polygon fill="none" stroke="midnightblue" points="355,-211.34 358.5,-221.34 362,-211.34 355,-211.34"/>
</g>
<!-- Node11 -->
<g id="node11" class="node">
<title>Node11</title>
<g id="a_node11"><a xlink:href="structmp__coro_1_1detail_1_1task__promise__storage.html" target="_top" xlink:title=" ">
<polygon fill="white" stroke="black" points="440,-122 440,-179 593,-179 593,-122 440,-122"/>
<text text-anchor="middle" x="516.5" y="-167" font-family="Helvetica,sans-Serif" font-size="10.00">task_promise_storage&lt; T &gt;</text>
<polyline fill="none" stroke="black" points="440,-160 593,-160 "/>
<text text-anchor="middle" x="516.5" y="-148" font-family="Helvetica,sans-Serif" font-size="10.00"> </text>
<polyline fill="none" stroke="black" points="440,-141 593,-141 "/>
<text text-anchor="start" x="448" y="-129" font-family="Helvetica,sans-Serif" font-size="10.00">+ return_value()</text>
</a>
</g>
</g>
<!-- Node10&#45;&gt;Node11 -->
<g id="edge10" class="edge">
<title>Node10&#45;&gt;Node11</title>
<path fill="none" stroke="midnightblue" d="M516.5,-211.15C516.5,-200.29 516.5,-188.93 516.5,-179.08"/>
<polygon fill="none" stroke="midnightblue" points="513,-211.34 516.5,-221.34 520,-211.34 513,-211.34"/>
</g>
<!-- Node12 -->
<g id="node12" class="node">
<title>Node12</title>
<g id="a_node12"><a xlink:href="structmp__coro_1_1detail_1_1synchronized__task_1_1promise__type.html" target="_top" xlink:title="Required promise type for coroutines returning a synchronized_task.">
<polygon fill="white" stroke="black" points="386,-0.5 386,-79.5 507,-79.5 507,-0.5 386,-0.5"/>
<text text-anchor="middle" x="446.5" y="-67.5" font-family="Helvetica,sans-Serif" font-size="10.00">promise_type</text>
<polyline fill="none" stroke="black" points="386,-60.5 507,-60.5 "/>
<text text-anchor="start" x="394" y="-48.5" font-family="Helvetica,sans-Serif" font-size="10.00">+ sync</text>
<polyline fill="none" stroke="black" points="386,-41.5 507,-41.5 "/>
<text text-anchor="start" x="394" y="-29.5" font-family="Helvetica,sans-Serif" font-size="10.00">+ get_return_object()</text>
<text text-anchor="start" x="394" y="-18.5" font-family="Helvetica,sans-Serif" font-size="10.00">+ initial_suspend()</text>
<text text-anchor="start" x="394" y="-7.5" font-family="Helvetica,sans-Serif" font-size="10.00">+ final_suspend()</text>
</a>
</g>
</g>
<!-- Node11&#45;&gt;Node12 -->
<g id="edge11" class="edge">
<title>Node11&#45;&gt;Node12</title>
<path fill="none" stroke="midnightblue" d="M493.22,-113.42C486.23,-102.59 478.54,-90.66 471.44,-79.66"/>
<polygon fill="none" stroke="midnightblue" points="490.29,-115.33 498.65,-121.84 496.17,-111.54 490.29,-115.33"/>
</g>
<!-- Node13 -->
<g id="node13" class="node">
<title>Node13</title>
<g id="a_node13"><a xlink:href="structmp__coro_1_1task_1_1promise__type.html" target="_top" xlink:title="Required promise type for coroutines returning a task.">
<polygon fill="white" stroke="black" points="525,-0.5 525,-79.5 646,-79.5 646,-0.5 525,-0.5"/>
<text text-anchor="middle" x="585.5" y="-67.5" font-family="Helvetica,sans-Serif" font-size="10.00">promise_type</text>
<polyline fill="none" stroke="black" points="525,-60.5 646,-60.5 "/>
<text text-anchor="start" x="533" y="-48.5" font-family="Helvetica,sans-Serif" font-size="10.00">+ continuation</text>
<polyline fill="none" stroke="black" points="525,-41.5 646,-41.5 "/>
<text text-anchor="start" x="533" y="-29.5" font-family="Helvetica,sans-Serif" font-size="10.00">+ get_return_object()</text>
<text text-anchor="start" x="533" y="-18.5" font-family="Helvetica,sans-Serif" font-size="10.00">+ initial_suspend()</text>
<text text-anchor="start" x="533" y="-7.5" font-family="Helvetica,sans-Serif" font-size="10.00">+ final_suspend()</text>
</a>
</g>
</g>
<!-- Node11&#45;&gt;Node13 -->
<g id="edge12" class="edge">
<title>Node11&#45;&gt;Node13</title>
<path fill="none" stroke="midnightblue" d="M539.65,-113.1C546.48,-102.35 553.99,-90.55 560.91,-79.66"/>
<polygon fill="none" stroke="midnightblue" points="536.5,-111.52 534.09,-121.84 542.41,-115.28 536.5,-111.52"/>
</g>
</g>
</svg>
