<?xml version="1.0" encoding="UTF-8" standalone="no"?>
<!DOCTYPE svg PUBLIC "-//W3C//DTD SVG 1.1//EN"
 "http://www.w3.org/Graphics/SVG/1.1/DTD/svg11.dtd">
<!-- Generated by graphviz version 2.43.0 (0)
 -->
<!-- Title: nonvoid_storage&lt; T &gt; Pages: 1 -->
<svg width="134pt" height="298pt"
 viewBox="0.00 0.00 134.00 298.00" xmlns="http://www.w3.org/2000/svg" xmlns:xlink="http://www.w3.org/1999/xlink">
<g id="graph0" class="graph" transform="scale(1 1) rotate(0) translate(4 294)">
<title>nonvoid_storage&lt; T &gt;</title>
<polygon fill="white" stroke="transparent" points="-4,4 -4,-294 130,-294 130,4 -4,4"/>
<!-- Node1 -->
<g id="node1" class="node">
<title>Node1</title>
<g id="a_node1"><a xlink:title=" ">
<polygon fill="#bfbfbf" stroke="black" points="0,-0.5 0,-79.5 126,-79.5 126,-0.5 0,-0.5"/>
<text text-anchor="middle" x="63" y="-67.5" font-family="Helvetica,sans-Serif" font-size="10.00">nonvoid_storage&lt; T &gt;</text>
<polyline fill="none" stroke="black" points="0,-60.5 126,-60.5 "/>
<text text-anchor="middle" x="63" y="-48.5" font-family="Helvetica,sans-Serif" font-size="10.00"> </text>
<polyline fill="none" stroke="black" points="0,-41.5 126,-41.5 "/>
<text text-anchor="start" x="8" y="-29.5" font-family="Helvetica,sans-Serif" font-size="10.00">+ nonvoid_get()</text>
<text text-anchor="start" x="8" y="-18.5" font-family="Helvetica,sans-Serif" font-size="10.00">+ nonvoid_get()</text>
<text text-anchor="start" x="8" y="-7.5" font-family="Helvetica,sans-Serif" font-size="10.00">+ nonvoid_get()</text>
</a>
</g>
</g>
<!-- Node2 -->
<g id="node2" class="node">
<title>Node2</title>
<g id="a_node2"><a xlink:href="classmp__coro_1_1detail_1_1storage.html" target="_top" xlink:title="Storage class that can either contain a value, an exception, or be empty.">
<polygon fill="white" stroke="black" points="11,-116.5 11,-173.5 115,-173.5 115,-116.5 11,-116.5"/>
<text text-anchor="middle" x="63" y="-161.5" font-family="Helvetica,sans-Serif" font-size="10.00">storage&lt; T &gt;</text>
<polyline fill="none" stroke="black" points="11,-154.5 115,-154.5 "/>
<text text-anchor="middle" x="63" y="-142.5" font-family="Helvetica,sans-Serif" font-size="10.00"> </text>
<polyline fill="none" stroke="black" points="11,-135.5 115,-135.5 "/>
<text text-anchor="start" x="19" y="-123.5" font-family="Helvetica,sans-Serif" font-size="10.00">+ set_exception()</text>
</a>
</g>
</g>
<!-- Node2&#45;&gt;Node1 -->
<g id="edge1" class="edge">
<title>Node2&#45;&gt;Node1</title>
<path fill="none" stroke="midnightblue" d="M63,-106.16C63,-97.47 63,-88.23 63,-79.52"/>
<polygon fill="none" stroke="midnightblue" points="59.5,-106.4 63,-116.4 66.5,-106.4 59.5,-106.4"/>
</g>
<!-- Node3 -->
<g id="node3" class="node">
<title>Node3</title>
<g id="a_node3"><a xlink:href="classmp__coro_1_1detail_1_1storage__base.html" target="_top" xlink:title="Storage class that can either contain a value, an exception, or be empty.">
<polygon fill="white" stroke="black" points="8,-210.5 8,-289.5 118,-289.5 118,-210.5 8,-210.5"/>
<text text-anchor="middle" x="63" y="-277.5" font-family="Helvetica,sans-Serif" font-size="10.00">storage_base&lt; T &gt;</text>
<polyline fill="none" stroke="black" points="8,-270.5 118,-270.5 "/>
<text text-anchor="start" x="16" y="-258.5" font-family="Helvetica,sans-Serif" font-size="10.00"># result</text>
<polyline fill="none" stroke="black" points="8,-251.5 118,-251.5 "/>
<text text-anchor="start" x="16" y="-239.5" font-family="Helvetica,sans-Serif" font-size="10.00">+ set_value()</text>
<text text-anchor="start" x="16" y="-228.5" font-family="Helvetica,sans-Serif" font-size="10.00">+ get()</text>
<text text-anchor="start" x="16" y="-217.5" font-family="Helvetica,sans-Serif" font-size="10.00">+ get()</text>
</a>
</g>
</g>
<!-- Node3&#45;&gt;Node2 -->
<g id="edge2" class="edge">
<title>Node3&#45;&gt;Node2</title>
<path fill="none" stroke="midnightblue" d="M63,-200.16C63,-191.04 63,-181.81 63,-173.61"/>
<polygon fill="none" stroke="midnightblue" points="59.5,-200.35 63,-210.35 66.5,-200.35 59.5,-200.35"/>
</g>
</g>
</svg>
