<?xml version="1.0" encoding="UTF-8" standalone="no"?>
<!DOCTYPE svg PUBLIC "-//W3C//DTD SVG 1.1//EN"
 "http://www.w3.org/Graphics/SVG/1.1/DTD/svg11.dtd">
<!-- Generated by graphviz version 2.43.0 (0)
 -->
<!-- Title: storage&lt; T &gt; Pages: 1 -->
<svg width="118pt" height="182pt"
 viewBox="0.00 0.00 118.00 182.00" xmlns="http://www.w3.org/2000/svg" xmlns:xlink="http://www.w3.org/1999/xlink">
<g id="graph0" class="graph" transform="scale(1 1) rotate(0) translate(4 178)">
<title>storage&lt; T &gt;</title>
<polygon fill="white" stroke="transparent" points="-4,4 -4,-178 114,-178 114,4 -4,4"/>
<!-- Node1 -->
<g id="node1" class="node">
<title>Node1</title>
<g id="a_node1"><a xlink:title="Storage class that can either contain a value, an exception, or be empty.">
<polygon fill="#bfbfbf" stroke="black" points="3,-0.5 3,-57.5 107,-57.5 107,-0.5 3,-0.5"/>
<text text-anchor="middle" x="55" y="-45.5" font-family="Helvetica,sans-Serif" font-size="10.00">storage&lt; T &gt;</text>
<polyline fill="none" stroke="black" points="3,-38.5 107,-38.5 "/>
<text text-anchor="middle" x="55" y="-26.5" font-family="Helvetica,sans-Serif" font-size="10.00"> </text>
<polyline fill="none" stroke="black" points="3,-19.5 107,-19.5 "/>
<text text-anchor="start" x="11" y="-7.5" font-family="Helvetica,sans-Serif" font-size="10.00">+ set_exception()</text>
</a>
</g>
</g>
<!-- Node2 -->
<g id="node2" class="node">
<title>Node2</title>
<g id="a_node2"><a xlink:href="classmp__coro_1_1detail_1_1storage__base.html" target="_top" xlink:title="Storage class that can either contain a value, an exception, or be empty.">
<polygon fill="white" stroke="black" points="0,-94.5 0,-173.5 110,-173.5 110,-94.5 0,-94.5"/>
<text text-anchor="middle" x="55" y="-161.5" font-family="Helvetica,sans-Serif" font-size="10.00">storage_base&lt; T &gt;</text>
<polyline fill="none" stroke="black" points="0,-154.5 110,-154.5 "/>
<text text-anchor="start" x="8" y="-142.5" font-family="Helvetica,sans-Serif" font-size="10.00"># result</text>
<polyline fill="none" stroke="black" points="0,-135.5 110,-135.5 "/>
<text text-anchor="start" x="8" y="-123.5" font-family="Helvetica,sans-Serif" font-size="10.00">+ set_value()</text>
<text text-anchor="start" x="8" y="-112.5" font-family="Helvetica,sans-Serif" font-size="10.00">+ get()</text>
<text text-anchor="start" x="8" y="-101.5" font-family="Helvetica,sans-Serif" font-size="10.00">+ get()</text>
</a>
</g>
</g>
<!-- Node2&#45;&gt;Node1 -->
<g id="edge1" class="edge">
<title>Node2&#45;&gt;Node1</title>
<path fill="none" stroke="midnightblue" d="M55,-84.16C55,-75.04 55,-65.81 55,-57.61"/>
<polygon fill="none" stroke="midnightblue" points="51.5,-84.35 55,-94.35 58.5,-84.35 51.5,-84.35"/>
</g>
</g>
</svg>
