<?xml version="1.0" encoding="UTF-8" standalone="no"?>
<!DOCTYPE svg PUBLIC "-//W3C//DTD SVG 1.1//EN"
 "http://www.w3.org/Graphics/SVG/1.1/DTD/svg11.dtd">
<!-- Generated by graphviz version 2.43.0 (0)
 -->
<!-- Title: nonvoid_storage&lt; void &gt; Pages: 1 -->
<svg width="149pt" height="276pt"
 viewBox="0.00 0.00 149.00 276.00" xmlns="http://www.w3.org/2000/svg" xmlns:xlink="http://www.w3.org/1999/xlink">
<g id="graph0" class="graph" transform="scale(1 1) rotate(0) translate(4 272)">
<title>nonvoid_storage&lt; void &gt;</title>
<polygon fill="white" stroke="transparent" points="-4,4 -4,-272 145,-272 145,4 -4,4"/>
<!-- Node1 -->
<g id="node1" class="node">
<title>Node1</title>
<g id="a_node1"><a xlink:title=" ">
<polygon fill="#bfbfbf" stroke="black" points="0,-0.5 0,-57.5 141,-57.5 141,-0.5 0,-0.5"/>
<text text-anchor="middle" x="70.5" y="-45.5" font-family="Helvetica,sans-Serif" font-size="10.00">nonvoid_storage&lt; void &gt;</text>
<polyline fill="none" stroke="black" points="0,-38.5 141,-38.5 "/>
<text text-anchor="middle" x="70.5" y="-26.5" font-family="Helvetica,sans-Serif" font-size="10.00"> </text>
<polyline fill="none" stroke="black" points="0,-19.5 141,-19.5 "/>
<text text-anchor="start" x="8" y="-7.5" font-family="Helvetica,sans-Serif" font-size="10.00">+ nonvoid_get()</text>
</a>
</g>
</g>
<!-- Node2 -->
<g id="node2" class="node">
<title>Node2</title>
<g id="a_node2"><a xlink:href="classmp__coro_1_1detail_1_1storage.html" target="_top" xlink:title=" ">
<polygon fill="white" stroke="black" points="18.5,-94.5 18.5,-151.5 122.5,-151.5 122.5,-94.5 18.5,-94.5"/>
<text text-anchor="middle" x="70.5" y="-139.5" font-family="Helvetica,sans-Serif" font-size="10.00">storage&lt; void &gt;</text>
<polyline fill="none" stroke="black" points="18.5,-132.5 122.5,-132.5 "/>
<text text-anchor="middle" x="70.5" y="-120.5" font-family="Helvetica,sans-Serif" font-size="10.00"> </text>
<polyline fill="none" stroke="black" points="18.5,-113.5 122.5,-113.5 "/>
<text text-anchor="start" x="26.5" y="-101.5" font-family="Helvetica,sans-Serif" font-size="10.00">+ set_exception()</text>
</a>
</g>
</g>
<!-- Node2&#45;&gt;Node1 -->
<g id="edge1" class="edge">
<title>Node2&#45;&gt;Node1</title>
<path fill="none" stroke="midnightblue" d="M70.5,-84.21C70.5,-75.29 70.5,-65.95 70.5,-57.58"/>
<polygon fill="none" stroke="midnightblue" points="67,-84.4 70.5,-94.4 74,-84.4 67,-84.4"/>
</g>
<!-- Node3 -->
<g id="node3" class="node">
<title>Node3</title>
<g id="a_node3"><a xlink:href="classmp__coro_1_1detail_1_1storage__base.html" target="_top" xlink:title="Storage class that can either contain a value, an exception, or be empty.">
<polygon fill="white" stroke="black" points="15.5,-188.5 15.5,-267.5 125.5,-267.5 125.5,-188.5 15.5,-188.5"/>
<text text-anchor="middle" x="70.5" y="-255.5" font-family="Helvetica,sans-Serif" font-size="10.00">storage_base&lt; T &gt;</text>
<polyline fill="none" stroke="black" points="15.5,-248.5 125.5,-248.5 "/>
<text text-anchor="start" x="23.5" y="-236.5" font-family="Helvetica,sans-Serif" font-size="10.00"># result</text>
<polyline fill="none" stroke="black" points="15.5,-229.5 125.5,-229.5 "/>
<text text-anchor="start" x="23.5" y="-217.5" font-family="Helvetica,sans-Serif" font-size="10.00">+ set_value()</text>
<text text-anchor="start" x="23.5" y="-206.5" font-family="Helvetica,sans-Serif" font-size="10.00">+ get()</text>
<text text-anchor="start" x="23.5" y="-195.5" font-family="Helvetica,sans-Serif" font-size="10.00">+ get()</text>
</a>
</g>
</g>
<!-- Node3&#45;&gt;Node2 -->
<g id="edge2" class="edge">
<title>Node3&#45;&gt;Node2</title>
<path fill="none" stroke="midnightblue" d="M70.5,-178.16C70.5,-169.04 70.5,-159.81 70.5,-151.61"/>
<polygon fill="none" stroke="midnightblue" points="67,-178.35 70.5,-188.35 74,-178.35 67,-178.35"/>
</g>
</g>
</svg>
