<?xml version="1.0" encoding="UTF-8" standalone="no"?>
<!DOCTYPE svg PUBLIC "-//W3C//DTD SVG 1.1//EN"
 "http://www.w3.org/Graphics/SVG/1.1/DTD/svg11.dtd">
<!-- Generated by graphviz version 2.43.0 (0)
 -->
<!-- Title: concepts.h Pages: 1 -->
<svg width="350pt" height="308pt"
 viewBox="0.00 0.00 350.00 308.00" xmlns="http://www.w3.org/2000/svg" xmlns:xlink="http://www.w3.org/1999/xlink">
<g id="graph0" class="graph" transform="scale(1 1) rotate(0) translate(4 304)">
<title>concepts.h</title>
<polygon fill="white" stroke="transparent" points="-4,4 -4,-304 346,-304 346,4 -4,4"/>
<!-- Node1 -->
<g id="node1" class="node">
<title>Node1</title>
<g id="a_node1"><a xlink:title=" ">
<polygon fill="#bfbfbf" stroke="black" points="69.5,-280.5 69.5,-299.5 138.5,-299.5 138.5,-280.5 69.5,-280.5"/>
<text text-anchor="middle" x="104" y="-287.5" font-family="Helvetica,sans-Serif" font-size="10.00">concepts.h</text>
</a>
</g>
</g>
<!-- Node2 -->
<g id="node2" class="node">
<title>Node2</title>
<g id="a_node2"><a xlink:href="sync__await_8h.html" target="_top" xlink:title=" ">
<polygon fill="white" stroke="black" points="66,-0.5 66,-19.5 146,-19.5 146,-0.5 66,-0.5"/>
<text text-anchor="middle" x="106" y="-7.5" font-family="Helvetica,sans-Serif" font-size="10.00">sync_await.h</text>
</a>
</g>
</g>
<!-- Node1&#45;&gt;Node2 -->
<g id="edge1" class="edge">
<title>Node1&#45;&gt;Node2</title>
<path fill="none" stroke="midnightblue" d="M76.88,-275.34C46.06,-257.68 0,-223.78 0,-179 0,-179 0,-179 0,-121 0,-71.14 57.17,-35.19 87.54,-19.61"/>
<polygon fill="midnightblue" stroke="midnightblue" points="75.44,-278.54 85.88,-280.3 78.81,-272.41 75.44,-278.54"/>
</g>
<!-- Node3 -->
<g id="node3" class="node">
<title>Node3</title>
<g id="a_node3"><a xlink:href="task_8h.html" target="_top" xlink:title=" ">
<polygon fill="white" stroke="black" points="52.5,-56.5 52.5,-75.5 99.5,-75.5 99.5,-56.5 52.5,-56.5"/>
<text text-anchor="middle" x="76" y="-63.5" font-family="Helvetica,sans-Serif" font-size="10.00">task.h</text>
</a>
</g>
</g>
<!-- Node1&#45;&gt;Node3 -->
<g id="edge2" class="edge">
<title>Node1&#45;&gt;Node3</title>
<path fill="none" stroke="midnightblue" d="M99.78,-270.15C93.44,-240.8 81.69,-182.32 77,-132 75.14,-112 75.38,-88.39 75.7,-75.85"/>
<polygon fill="midnightblue" stroke="midnightblue" points="96.43,-271.2 101.99,-280.21 103.27,-269.69 96.43,-271.2"/>
</g>
<!-- Node4 -->
<g id="node4" class="node">
<title>Node4</title>
<g id="a_node4"><a xlink:href="type__traits_8h.html" target="_top" xlink:title=" ">
<polygon fill="white" stroke="black" points="132,-224.5 132,-243.5 210,-243.5 210,-224.5 132,-224.5"/>
<text text-anchor="middle" x="171" y="-231.5" font-family="Helvetica,sans-Serif" font-size="10.00">type_traits.h</text>
</a>
</g>
</g>
<!-- Node1&#45;&gt;Node4 -->
<g id="edge3" class="edge">
<title>Node1&#45;&gt;Node4</title>
<path fill="none" stroke="midnightblue" d="M122.83,-273.82C134.84,-264.15 149.97,-251.95 160.04,-243.83"/>
<polygon fill="midnightblue" stroke="midnightblue" points="120.35,-271.32 114.76,-280.32 124.75,-276.77 120.35,-271.32"/>
</g>
<!-- Node8 -->
<g id="node8" class="node">
<title>Node8</title>
<g id="a_node8"><a xlink:href="when__all_8h.html" target="_top" xlink:title=" ">
<polygon fill="white" stroke="black" points="269.5,-0.5 269.5,-19.5 338.5,-19.5 338.5,-0.5 269.5,-0.5"/>
<text text-anchor="middle" x="304" y="-7.5" font-family="Helvetica,sans-Serif" font-size="10.00">when_all.h</text>
</a>
</g>
</g>
<!-- Node1&#45;&gt;Node8 -->
<g id="edge13" class="edge">
<title>Node1&#45;&gt;Node8</title>
<path fill="none" stroke="midnightblue" d="M148.76,-287.74C217.7,-283.16 342,-263.21 342,-179 342,-179 342,-179 342,-121 342,-81.4 319.73,-37.96 309.28,-19.77"/>
<polygon fill="midnightblue" stroke="midnightblue" points="148.39,-284.26 138.61,-288.33 148.79,-291.25 148.39,-284.26"/>
</g>
<!-- Node4&#45;&gt;Node3 -->
<g id="edge11" class="edge">
<title>Node4&#45;&gt;Node3</title>
<path fill="none" stroke="midnightblue" d="M144.02,-219.46C131.37,-211.83 117.1,-201.17 108,-188 82.93,-151.71 77.5,-96.89 76.32,-75.74"/>
<polygon fill="midnightblue" stroke="midnightblue" points="142.44,-222.58 152.86,-224.47 145.89,-216.49 142.44,-222.58"/>
</g>
<!-- Node5 -->
<g id="node5" class="node">
<title>Node5</title>
<g id="a_node5"><a xlink:href="nonvoid__storage_8h.html" target="_top" xlink:title=" ">
<polygon fill="white" stroke="black" points="117.5,-168.5 117.5,-187.5 224.5,-187.5 224.5,-168.5 117.5,-168.5"/>
<text text-anchor="middle" x="171" y="-175.5" font-family="Helvetica,sans-Serif" font-size="10.00">nonvoid_storage.h</text>
</a>
</g>
</g>
<!-- Node4&#45;&gt;Node5 -->
<g id="edge4" class="edge">
<title>Node4&#45;&gt;Node5</title>
<path fill="none" stroke="midnightblue" d="M171,-213.8C171,-204.91 171,-194.78 171,-187.75"/>
<polygon fill="midnightblue" stroke="midnightblue" points="167.5,-214.08 171,-224.08 174.5,-214.08 167.5,-214.08"/>
</g>
<!-- Node7 -->
<g id="node7" class="node">
<title>Node7</title>
<g id="a_node7"><a xlink:href="synchronized__task_8h.html" target="_top" xlink:title=" ">
<polygon fill="white" stroke="black" points="157,-56.5 157,-75.5 273,-75.5 273,-56.5 157,-56.5"/>
<text text-anchor="middle" x="215" y="-63.5" font-family="Helvetica,sans-Serif" font-size="10.00">synchronized_task.h</text>
</a>
</g>
</g>
<!-- Node4&#45;&gt;Node7 -->
<g id="edge10" class="edge">
<title>Node4&#45;&gt;Node7</title>
<path fill="none" stroke="midnightblue" d="M197.62,-219.42C210.1,-211.78 224.14,-201.13 233,-188 252.22,-159.54 257.45,-144.72 247,-112 242.45,-97.75 231.56,-84.16 223.75,-75.71"/>
<polygon fill="midnightblue" stroke="midnightblue" points="195.83,-216.41 188.91,-224.44 199.32,-222.48 195.83,-216.41"/>
</g>
<!-- Node4&#45;&gt;Node8 -->
<g id="edge12" class="edge">
<title>Node4&#45;&gt;Node8</title>
<path fill="none" stroke="midnightblue" d="M207.93,-220.55C224.17,-213.36 242.19,-202.77 254,-188 296.48,-134.89 302.89,-47.62 303.84,-19.81"/>
<polygon fill="midnightblue" stroke="midnightblue" points="206.54,-217.33 198.64,-224.39 209.22,-223.8 206.54,-217.33"/>
</g>
<!-- Node6 -->
<g id="node6" class="node">
<title>Node6</title>
<g id="a_node6"><a xlink:href="task__promise__storage_8h.html" target="_top" xlink:title=" ">
<polygon fill="white" stroke="black" points="104,-112.5 104,-131.5 238,-131.5 238,-112.5 104,-112.5"/>
<text text-anchor="middle" x="171" y="-119.5" font-family="Helvetica,sans-Serif" font-size="10.00">task_promise_storage.h</text>
</a>
</g>
</g>
<!-- Node5&#45;&gt;Node6 -->
<g id="edge5" class="edge">
<title>Node5&#45;&gt;Node6</title>
<path fill="none" stroke="midnightblue" d="M171,-157.8C171,-148.91 171,-138.78 171,-131.75"/>
<polygon fill="midnightblue" stroke="midnightblue" points="167.5,-158.08 171,-168.08 174.5,-158.08 167.5,-158.08"/>
</g>
<!-- Node6&#45;&gt;Node3 -->
<g id="edge9" class="edge">
<title>Node6&#45;&gt;Node3</title>
<path fill="none" stroke="midnightblue" d="M146.68,-107.18C129.2,-97.24 106.17,-84.15 91.23,-75.65"/>
<polygon fill="midnightblue" stroke="midnightblue" points="145.31,-110.43 155.74,-112.32 148.77,-104.34 145.31,-110.43"/>
</g>
<!-- Node6&#45;&gt;Node7 -->
<g id="edge6" class="edge">
<title>Node6&#45;&gt;Node7</title>
<path fill="none" stroke="midnightblue" d="M184.73,-104.14C192.4,-94.74 201.63,-83.4 207.87,-75.75"/>
<polygon fill="midnightblue" stroke="midnightblue" points="181.87,-102.12 178.27,-112.08 187.3,-106.54 181.87,-102.12"/>
</g>
<!-- Node7&#45;&gt;Node2 -->
<g id="edge7" class="edge">
<title>Node7&#45;&gt;Node2</title>
<path fill="none" stroke="midnightblue" d="M188.48,-51.86C168.27,-41.85 141.01,-28.35 123.47,-19.65"/>
<polygon fill="midnightblue" stroke="midnightblue" points="186.97,-55.02 197.49,-56.32 190.08,-48.75 186.97,-55.02"/>
</g>
<!-- Node7&#45;&gt;Node8 -->
<g id="edge8" class="edge">
<title>Node7&#45;&gt;Node8</title>
<path fill="none" stroke="midnightblue" d="M238.24,-50.9C254.56,-41 275.87,-28.07 289.74,-19.65"/>
<polygon fill="midnightblue" stroke="midnightblue" points="236.03,-48.14 229.3,-56.32 239.66,-54.13 236.03,-48.14"/>
</g>
</g>
</svg>
