<?xml version="1.0" encoding="UTF-8" standalone="no"?>
<!DOCTYPE svg PUBLIC "-//W3C//DTD SVG 1.1//EN"
 "http://www.w3.org/Graphics/SVG/1.1/DTD/svg11.dtd">
<!-- Generated by graphviz version 2.43.0 (0)
 -->
<!-- Title: generator.h Pages: 1 -->
<svg width="716pt" height="140pt"
 viewBox="0.00 0.00 715.50 140.00" xmlns="http://www.w3.org/2000/svg" xmlns:xlink="http://www.w3.org/1999/xlink">
<g id="graph0" class="graph" transform="scale(1 1) rotate(0) translate(4 136)">
<title>generator.h</title>
<polygon fill="white" stroke="transparent" points="-4,4 -4,-136 711.5,-136 711.5,4 -4,4"/>
<!-- Node1 -->
<g id="node1" class="node">
<title>Node1</title>
<g id="a_node1"><a xlink:title=" ">
<polygon fill="#bfbfbf" stroke="black" points="362,-112.5 362,-131.5 434,-131.5 434,-112.5 362,-112.5"/>
<text text-anchor="middle" x="398" y="-119.5" font-family="Helvetica,sans-Serif" font-size="10.00">generator.h</text>
</a>
</g>
</g>
<!-- Node2 -->
<g id="node2" class="node">
<title>Node2</title>
<g id="a_node2"><a xlink:href="noncopyable_8h.html" target="_top" xlink:title=" ">
<polygon fill="white" stroke="black" points="0,-56.5 0,-75.5 152,-75.5 152,-56.5 0,-56.5"/>
<text text-anchor="middle" x="76" y="-63.5" font-family="Helvetica,sans-Serif" font-size="10.00">mp&#45;coro/bits/noncopyable.h</text>
</a>
</g>
</g>
<!-- Node1&#45;&gt;Node2 -->
<g id="edge1" class="edge">
<title>Node1&#45;&gt;Node2</title>
<path fill="none" stroke="midnightblue" d="M362,-114.96C307.44,-105.81 203.16,-88.33 136.73,-77.18"/>
<polygon fill="midnightblue" stroke="midnightblue" points="137.25,-73.72 126.81,-75.52 136.09,-80.63 137.25,-73.72"/>
</g>
<!-- Node3 -->
<g id="node3" class="node">
<title>Node3</title>
<g id="a_node3"><a xlink:href="coro__ptr_8h.html" target="_top" xlink:title=" ">
<polygon fill="white" stroke="black" points="208,-56.5 208,-75.5 316,-75.5 316,-56.5 208,-56.5"/>
<text text-anchor="middle" x="262" y="-63.5" font-family="Helvetica,sans-Serif" font-size="10.00">mp&#45;coro/coro_ptr.h</text>
</a>
</g>
</g>
<!-- Node1&#45;&gt;Node3 -->
<g id="edge2" class="edge">
<title>Node1&#45;&gt;Node3</title>
<path fill="none" stroke="midnightblue" d="M376.45,-112.44C353.97,-103.52 318.51,-89.44 293.02,-79.32"/>
<polygon fill="midnightblue" stroke="midnightblue" points="294.03,-75.95 283.45,-75.52 291.45,-82.46 294.03,-75.95"/>
</g>
<!-- Node4 -->
<g id="node4" class="node">
<title>Node4</title>
<g id="a_node4"><a xlink:href="trace_8h.html" target="_top" xlink:title=" ">
<polygon fill="white" stroke="black" points="125,-0.5 125,-19.5 219,-19.5 219,-0.5 125,-0.5"/>
<text text-anchor="middle" x="172" y="-7.5" font-family="Helvetica,sans-Serif" font-size="10.00">mp&#45;coro/trace.h</text>
</a>
</g>
</g>
<!-- Node1&#45;&gt;Node4 -->
<g id="edge6" class="edge">
<title>Node1&#45;&gt;Node4</title>
<path fill="none" stroke="midnightblue" d="M361.82,-116.83C311.37,-110.36 223.32,-96.47 199,-76 185.14,-64.34 178.28,-44.39 174.96,-29.66"/>
<polygon fill="midnightblue" stroke="midnightblue" points="178.36,-28.81 173.05,-19.64 171.48,-30.12 178.36,-28.81"/>
</g>
<!-- Node5 -->
<g id="node5" class="node">
<title>Node5</title>
<g id="a_node5"><a xlink:title=" ">
<polygon fill="white" stroke="#bfbfbf" points="313,-0.5 313,-19.5 375,-19.5 375,-0.5 313,-0.5"/>
<text text-anchor="middle" x="344" y="-7.5" font-family="Helvetica,sans-Serif" font-size="10.00">coroutine</text>
</a>
</g>
</g>
<!-- Node1&#45;&gt;Node5 -->
<g id="edge9" class="edge">
<title>Node1&#45;&gt;Node5</title>
<path fill="none" stroke="midnightblue" d="M389.67,-112.39C381.78,-103.8 370.12,-89.92 363,-76 355.47,-61.28 350.48,-43.12 347.51,-29.74"/>
<polygon fill="midnightblue" stroke="midnightblue" points="350.91,-28.9 345.48,-19.8 344.06,-30.3 350.91,-28.9"/>
</g>
<!-- Node7 -->
<g id="node7" class="node">
<title>Node7</title>
<g id="a_node7"><a xlink:title=" ">
<polygon fill="white" stroke="#bfbfbf" points="372,-56.5 372,-75.5 424,-75.5 424,-56.5 372,-56.5"/>
<text text-anchor="middle" x="398" y="-63.5" font-family="Helvetica,sans-Serif" font-size="10.00">cassert</text>
</a>
</g>
</g>
<!-- Node1&#45;&gt;Node7 -->
<g id="edge7" class="edge">
<title>Node1&#45;&gt;Node7</title>
<path fill="none" stroke="midnightblue" d="M398,-112.08C398,-105.01 398,-94.86 398,-85.99"/>
<polygon fill="midnightblue" stroke="midnightblue" points="401.5,-85.75 398,-75.75 394.5,-85.75 401.5,-85.75"/>
</g>
<!-- Node8 -->
<g id="node8" class="node">
<title>Node8</title>
<g id="a_node8"><a xlink:title=" ">
<polygon fill="white" stroke="#bfbfbf" points="442,-56.5 442,-75.5 502,-75.5 502,-56.5 442,-56.5"/>
<text text-anchor="middle" x="472" y="-63.5" font-family="Helvetica,sans-Serif" font-size="10.00">concepts</text>
</a>
</g>
</g>
<!-- Node1&#45;&gt;Node8 -->
<g id="edge8" class="edge">
<title>Node1&#45;&gt;Node8</title>
<path fill="none" stroke="midnightblue" d="M409.89,-112.32C421.15,-104.11 438.29,-91.6 451.71,-81.81"/>
<polygon fill="midnightblue" stroke="midnightblue" points="453.88,-84.56 459.89,-75.83 449.75,-78.9 453.88,-84.56"/>
</g>
<!-- Node9 -->
<g id="node9" class="node">
<title>Node9</title>
<g id="a_node9"><a xlink:title=" ">
<polygon fill="white" stroke="#bfbfbf" points="520,-56.5 520,-75.5 576,-75.5 576,-56.5 520,-56.5"/>
<text text-anchor="middle" x="548" y="-63.5" font-family="Helvetica,sans-Serif" font-size="10.00">optional</text>
</a>
</g>
</g>
<!-- Node1&#45;&gt;Node9 -->
<g id="edge10" class="edge">
<title>Node1&#45;&gt;Node9</title>
<path fill="none" stroke="midnightblue" d="M421.77,-112.44C446.89,-103.4 486.71,-89.06 514.9,-78.92"/>
<polygon fill="midnightblue" stroke="midnightblue" points="516.12,-82.2 524.34,-75.52 513.75,-75.61 516.12,-82.2"/>
</g>
<!-- Node10 -->
<g id="node10" class="node">
<title>Node10</title>
<g id="a_node10"><a xlink:title=" ">
<polygon fill="white" stroke="#bfbfbf" points="594,-56.5 594,-75.5 644,-75.5 644,-56.5 594,-56.5"/>
<text text-anchor="middle" x="619" y="-63.5" font-family="Helvetica,sans-Serif" font-size="10.00">ranges</text>
</a>
</g>
</g>
<!-- Node1&#45;&gt;Node10 -->
<g id="edge11" class="edge">
<title>Node1&#45;&gt;Node10</title>
<path fill="none" stroke="midnightblue" d="M434.26,-112.53C469.91,-104.15 526.14,-90.77 583.76,-76.27"/>
<polygon fill="midnightblue" stroke="midnightblue" points="584.93,-79.59 593.77,-73.75 583.21,-72.8 584.93,-79.59"/>
</g>
<!-- Node11 -->
<g id="node11" class="node">
<title>Node11</title>
<g id="a_node11"><a xlink:title=" ">
<polygon fill="white" stroke="#bfbfbf" points="662.5,-56.5 662.5,-75.5 707.5,-75.5 707.5,-56.5 662.5,-56.5"/>
<text text-anchor="middle" x="685" y="-63.5" font-family="Helvetica,sans-Serif" font-size="10.00">utility</text>
</a>
</g>
</g>
<!-- Node1&#45;&gt;Node11 -->
<g id="edge12" class="edge">
<title>Node1&#45;&gt;Node11</title>
<path fill="none" stroke="midnightblue" d="M434.12,-115.78C481.85,-108.64 568.71,-94.77 652.42,-75.93"/>
<polygon fill="midnightblue" stroke="midnightblue" points="653.37,-79.31 662.35,-73.67 651.82,-72.48 653.37,-79.31"/>
</g>
<!-- Node3&#45;&gt;Node4 -->
<g id="edge3" class="edge">
<title>Node3&#45;&gt;Node4</title>
<path fill="none" stroke="midnightblue" d="M247.54,-56.32C233.5,-47.9 211.95,-34.97 195.46,-25.07"/>
<polygon fill="midnightblue" stroke="midnightblue" points="196.8,-21.8 186.42,-19.65 193.2,-27.8 196.8,-21.8"/>
</g>
<!-- Node3&#45;&gt;Node5 -->
<g id="edge4" class="edge">
<title>Node3&#45;&gt;Node5</title>
<path fill="none" stroke="midnightblue" d="M275.17,-56.32C287.85,-47.98 307.23,-35.21 322.21,-25.35"/>
<polygon fill="midnightblue" stroke="midnightblue" points="324.43,-28.08 330.86,-19.65 320.58,-22.23 324.43,-28.08"/>
</g>
<!-- Node6 -->
<g id="node6" class="node">
<title>Node6</title>
<g id="a_node6"><a xlink:title=" ">
<polygon fill="white" stroke="#bfbfbf" points="237,-0.5 237,-19.5 295,-19.5 295,-0.5 237,-0.5"/>
<text text-anchor="middle" x="266" y="-7.5" font-family="Helvetica,sans-Serif" font-size="10.00">memory</text>
</a>
</g>
</g>
<!-- Node3&#45;&gt;Node6 -->
<g id="edge5" class="edge">
<title>Node3&#45;&gt;Node6</title>
<path fill="none" stroke="midnightblue" d="M262.66,-56.08C263.18,-49.01 263.94,-38.86 264.59,-29.99"/>
<polygon fill="midnightblue" stroke="midnightblue" points="268.1,-29.98 265.35,-19.75 261.12,-29.47 268.1,-29.98"/>
</g>
</g>
</svg>
