<?xml version="1.0" encoding="UTF-8" standalone="no"?>
<!DOCTYPE svg PUBLIC "-//W3C//DTD SVG 1.1//EN"
 "http://www.w3.org/Graphics/SVG/1.1/DTD/svg11.dtd">
<!-- Generated by graphviz version 2.43.0 (0)
 -->
<!-- Title: get_awaiter.h Pages: 1 -->
<svg width="350pt" height="364pt"
 viewBox="0.00 0.00 350.00 364.00" xmlns="http://www.w3.org/2000/svg" xmlns:xlink="http://www.w3.org/1999/xlink">
<g id="graph0" class="graph" transform="scale(1 1) rotate(0) translate(4 360)">
<title>get_awaiter.h</title>
<polygon fill="white" stroke="transparent" points="-4,4 -4,-360 346,-360 346,4 -4,4"/>
<!-- Node1 -->
<g id="node1" class="node">
<title>Node1</title>
<g id="a_node1"><a xlink:title=" ">
<polygon fill="#bfbfbf" stroke="black" points="160.5,-336.5 160.5,-355.5 243.5,-355.5 243.5,-336.5 160.5,-336.5"/>
<text text-anchor="middle" x="202" y="-343.5" font-family="Helvetica,sans-Serif" font-size="10.00">get_awaiter.h</text>
</a>
</g>
</g>
<!-- Node2 -->
<g id="node2" class="node">
<title>Node2</title>
<g id="a_node2"><a xlink:href="concepts_8h.html" target="_top" xlink:title=" ">
<polygon fill="white" stroke="black" points="199.5,-280.5 199.5,-299.5 268.5,-299.5 268.5,-280.5 199.5,-280.5"/>
<text text-anchor="middle" x="234" y="-287.5" font-family="Helvetica,sans-Serif" font-size="10.00">concepts.h</text>
</a>
</g>
</g>
<!-- Node1&#45;&gt;Node2 -->
<g id="edge1" class="edge">
<title>Node1&#45;&gt;Node2</title>
<path fill="none" stroke="midnightblue" d="M212.5,-327.27C217.97,-318.05 224.42,-307.17 228.81,-299.75"/>
<polygon fill="midnightblue" stroke="midnightblue" points="209.37,-325.7 207.28,-336.08 215.39,-329.26 209.37,-325.7"/>
</g>
<!-- Node5 -->
<g id="node5" class="node">
<title>Node5</title>
<g id="a_node5"><a xlink:href="type__traits_8h.html" target="_top" xlink:title=" ">
<polygon fill="white" stroke="black" points="132,-224.5 132,-243.5 210,-243.5 210,-224.5 132,-224.5"/>
<text text-anchor="middle" x="171" y="-231.5" font-family="Helvetica,sans-Serif" font-size="10.00">type_traits.h</text>
</a>
</g>
</g>
<!-- Node1&#45;&gt;Node5 -->
<g id="edge15" class="edge">
<title>Node1&#45;&gt;Node5</title>
<path fill="none" stroke="midnightblue" d="M196.84,-326.67C190.06,-302.62 178.44,-261.39 173.42,-243.59"/>
<polygon fill="midnightblue" stroke="midnightblue" points="193.49,-327.69 199.57,-336.37 200.22,-325.79 193.49,-327.69"/>
</g>
<!-- Node3 -->
<g id="node3" class="node">
<title>Node3</title>
<g id="a_node3"><a xlink:href="sync__await_8h.html" target="_top" xlink:title=" ">
<polygon fill="white" stroke="black" points="108,-0.5 108,-19.5 188,-19.5 188,-0.5 108,-0.5"/>
<text text-anchor="middle" x="148" y="-7.5" font-family="Helvetica,sans-Serif" font-size="10.00">sync_await.h</text>
</a>
</g>
</g>
<!-- Node2&#45;&gt;Node3 -->
<g id="edge2" class="edge">
<title>Node2&#45;&gt;Node3</title>
<path fill="none" stroke="midnightblue" d="M261.75,-275.84C293.75,-258.51 342,-224.79 342,-179 342,-179 342,-179 342,-121 342,-50.92 245.02,-24.95 188.2,-15.75"/>
<polygon fill="midnightblue" stroke="midnightblue" points="260.07,-272.77 252.81,-280.49 263.3,-278.98 260.07,-272.77"/>
</g>
<!-- Node4 -->
<g id="node4" class="node">
<title>Node4</title>
<g id="a_node4"><a xlink:href="task_8h.html" target="_top" xlink:title=" ">
<polygon fill="white" stroke="black" points="242.5,-56.5 242.5,-75.5 289.5,-75.5 289.5,-56.5 242.5,-56.5"/>
<text text-anchor="middle" x="266" y="-63.5" font-family="Helvetica,sans-Serif" font-size="10.00">task.h</text>
</a>
</g>
</g>
<!-- Node2&#45;&gt;Node4 -->
<g id="edge3" class="edge">
<title>Node2&#45;&gt;Node4</title>
<path fill="none" stroke="midnightblue" d="M240.25,-270.7C249.8,-241.71 267.58,-183.23 274,-132 276.52,-111.92 271.67,-88.34 268.48,-75.83"/>
<polygon fill="midnightblue" stroke="midnightblue" points="236.9,-269.7 237.04,-280.3 243.54,-271.93 236.9,-269.7"/>
</g>
<!-- Node2&#45;&gt;Node5 -->
<g id="edge4" class="edge">
<title>Node2&#45;&gt;Node5</title>
<path fill="none" stroke="midnightblue" d="M215.96,-273.54C204.73,-263.91 190.68,-251.87 181.31,-243.83"/>
<polygon fill="midnightblue" stroke="midnightblue" points="214.01,-276.47 223.88,-280.32 218.56,-271.16 214.01,-276.47"/>
</g>
<!-- Node9 -->
<g id="node9" class="node">
<title>Node9</title>
<g id="a_node9"><a xlink:href="when__all_8h.html" target="_top" xlink:title=" ">
<polygon fill="white" stroke="black" points="3.5,-0.5 3.5,-19.5 72.5,-19.5 72.5,-0.5 3.5,-0.5"/>
<text text-anchor="middle" x="38" y="-7.5" font-family="Helvetica,sans-Serif" font-size="10.00">when_all.h</text>
</a>
</g>
</g>
<!-- Node2&#45;&gt;Node9 -->
<g id="edge14" class="edge">
<title>Node2&#45;&gt;Node9</title>
<path fill="none" stroke="midnightblue" d="M189.47,-287.44C121.58,-282.41 0,-261.83 0,-179 0,-179 0,-179 0,-121 0,-81.4 22.27,-37.96 32.72,-19.77"/>
<polygon fill="midnightblue" stroke="midnightblue" points="189.26,-290.93 199.47,-288.09 189.72,-283.94 189.26,-290.93"/>
</g>
<!-- Node5&#45;&gt;Node4 -->
<g id="edge12" class="edge">
<title>Node5&#45;&gt;Node4</title>
<path fill="none" stroke="midnightblue" d="M197.5,-219.34C209.95,-211.68 224,-201.03 233,-188 258.13,-151.63 264.15,-96.86 265.57,-75.74"/>
<polygon fill="midnightblue" stroke="midnightblue" points="195.71,-216.33 188.82,-224.38 199.22,-222.39 195.71,-216.33"/>
</g>
<!-- Node6 -->
<g id="node6" class="node">
<title>Node6</title>
<g id="a_node6"><a xlink:href="nonvoid__storage_8h.html" target="_top" xlink:title=" ">
<polygon fill="white" stroke="black" points="117.5,-168.5 117.5,-187.5 224.5,-187.5 224.5,-168.5 117.5,-168.5"/>
<text text-anchor="middle" x="171" y="-175.5" font-family="Helvetica,sans-Serif" font-size="10.00">nonvoid_storage.h</text>
</a>
</g>
</g>
<!-- Node5&#45;&gt;Node6 -->
<g id="edge5" class="edge">
<title>Node5&#45;&gt;Node6</title>
<path fill="none" stroke="midnightblue" d="M171,-213.8C171,-204.91 171,-194.78 171,-187.75"/>
<polygon fill="midnightblue" stroke="midnightblue" points="167.5,-214.08 171,-224.08 174.5,-214.08 167.5,-214.08"/>
</g>
<!-- Node8 -->
<g id="node8" class="node">
<title>Node8</title>
<g id="a_node8"><a xlink:href="synchronized__task_8h.html" target="_top" xlink:title=" ">
<polygon fill="white" stroke="black" points="78,-56.5 78,-75.5 194,-75.5 194,-56.5 78,-56.5"/>
<text text-anchor="middle" x="136" y="-63.5" font-family="Helvetica,sans-Serif" font-size="10.00">synchronized_task.h</text>
</a>
</g>
</g>
<!-- Node5&#45;&gt;Node8 -->
<g id="edge11" class="edge">
<title>Node5&#45;&gt;Node8</title>
<path fill="none" stroke="midnightblue" d="M143.59,-219.42C130.96,-211.83 116.84,-201.22 108,-188 93.8,-166.76 97.91,-157.38 95,-132 93.99,-123.17 91.79,-120.29 95,-112 100.88,-96.82 114.52,-83.62 124.46,-75.51"/>
<polygon fill="midnightblue" stroke="midnightblue" points="142.01,-222.54 152.43,-224.41 145.44,-216.44 142.01,-222.54"/>
</g>
<!-- Node5&#45;&gt;Node9 -->
<g id="edge13" class="edge">
<title>Node5&#45;&gt;Node9</title>
<path fill="none" stroke="midnightblue" d="M138.56,-220.27C123.44,-212.88 106.33,-202.19 95,-188 52.09,-134.27 41.13,-47.42 38.65,-19.76"/>
<polygon fill="midnightblue" stroke="midnightblue" points="137.1,-223.45 147.65,-224.45 140.02,-217.09 137.1,-223.45"/>
</g>
<!-- Node7 -->
<g id="node7" class="node">
<title>Node7</title>
<g id="a_node7"><a xlink:href="task__promise__storage_8h.html" target="_top" xlink:title=" ">
<polygon fill="white" stroke="black" points="104,-112.5 104,-131.5 238,-131.5 238,-112.5 104,-112.5"/>
<text text-anchor="middle" x="171" y="-119.5" font-family="Helvetica,sans-Serif" font-size="10.00">task_promise_storage.h</text>
</a>
</g>
</g>
<!-- Node6&#45;&gt;Node7 -->
<g id="edge6" class="edge">
<title>Node6&#45;&gt;Node7</title>
<path fill="none" stroke="midnightblue" d="M171,-157.8C171,-148.91 171,-138.78 171,-131.75"/>
<polygon fill="midnightblue" stroke="midnightblue" points="167.5,-158.08 171,-168.08 174.5,-158.08 167.5,-158.08"/>
</g>
<!-- Node7&#45;&gt;Node4 -->
<g id="edge10" class="edge">
<title>Node7&#45;&gt;Node4</title>
<path fill="none" stroke="midnightblue" d="M195.32,-107.18C212.8,-97.24 235.83,-84.15 250.77,-75.65"/>
<polygon fill="midnightblue" stroke="midnightblue" points="193.23,-104.34 186.26,-112.32 196.69,-110.43 193.23,-104.34"/>
</g>
<!-- Node7&#45;&gt;Node8 -->
<g id="edge7" class="edge">
<title>Node7&#45;&gt;Node8</title>
<path fill="none" stroke="midnightblue" d="M159.7,-103.57C153.68,-94.27 146.53,-83.25 141.67,-75.75"/>
<polygon fill="midnightblue" stroke="midnightblue" points="156.84,-105.6 165.22,-112.08 162.72,-101.79 156.84,-105.6"/>
</g>
<!-- Node8&#45;&gt;Node3 -->
<g id="edge8" class="edge">
<title>Node8&#45;&gt;Node3</title>
<path fill="none" stroke="midnightblue" d="M140.2,-46.1C142.19,-37.14 144.48,-26.86 146.06,-19.75"/>
<polygon fill="midnightblue" stroke="midnightblue" points="136.73,-45.56 137.98,-56.08 143.57,-47.08 136.73,-45.56"/>
</g>
<!-- Node8&#45;&gt;Node9 -->
<g id="edge9" class="edge">
<title>Node8&#45;&gt;Node9</title>
<path fill="none" stroke="midnightblue" d="M111.41,-51.45C93.32,-41.48 69.27,-28.23 53.71,-19.65"/>
<polygon fill="midnightblue" stroke="midnightblue" points="109.81,-54.56 120.25,-56.32 113.19,-48.43 109.81,-54.56"/>
</g>
</g>
</svg>
