<?xml version="1.0" encoding="UTF-8" standalone="no"?>
<!DOCTYPE svg PUBLIC "-//W3C//DTD SVG 1.1//EN"
 "http://www.w3.org/Graphics/SVG/1.1/DTD/svg11.dtd">
<!-- Generated by graphviz version 2.43.0 (0)
 -->
<!-- Title: Graphical Class Hierarchy Pages: 1 -->
<svg width="269pt" height="110pt"
 viewBox="0.00 0.00 269.00 110.00" xmlns="http://www.w3.org/2000/svg" xmlns:xlink="http://www.w3.org/1999/xlink">
<g id="graph0" class="graph" transform="scale(1 1) rotate(0) translate(4 106)">
<title>Graphical Class Hierarchy</title>
<polygon fill="white" stroke="transparent" points="-4,4 -4,-106 265,-106 265,4 -4,4"/>
<!-- Node0 -->
<g id="node1" class="node">
<title>Node0</title>
<g id="a_node1"><a xlink:title=" ">
<polygon fill="white" stroke="#bfbfbf" points="0,-41.5 0,-60.5 97,-60.5 97,-41.5 0,-41.5"/>
<text text-anchor="middle" x="48.5" y="-48.5" font-family="Helvetica,sans-Serif" font-size="10.00">suspend_always</text>
</a>
</g>
</g>
<!-- Node1 -->
<g id="node2" class="node">
<title>Node1</title>
<g id="a_node2"><a xlink:href="structmp__coro_1_1detail_1_1synchronized__task_1_1promise__type_1_1final__awaiter.html" target="_top" xlink:title="Awaiter returned by final_suspend.">
<polygon fill="white" stroke="black" points="139,-60.5 139,-101.5 255,-101.5 255,-60.5 139,-60.5"/>
<text text-anchor="start" x="147" y="-89.5" font-family="Helvetica,sans-Serif" font-size="10.00">synchronized_task&lt;</text>
<text text-anchor="start" x="147" y="-78.5" font-family="Helvetica,sans-Serif" font-size="10.00"> Sync, T &gt;::promise</text>
<text text-anchor="middle" x="197" y="-67.5" font-family="Helvetica,sans-Serif" font-size="10.00">_type::final_awaiter</text>
</a>
</g>
</g>
<!-- Node0&#45;&gt;Node1 -->
<g id="edge1" class="edge">
<title>Node0&#45;&gt;Node1</title>
<path fill="none" stroke="midnightblue" d="M106.33,-62.64C117.02,-64.83 128.21,-67.12 138.91,-69.31"/>
<polygon fill="midnightblue" stroke="midnightblue" points="106.76,-59.15 96.26,-60.57 105.35,-66.01 106.76,-59.15"/>
</g>
<!-- Node2 -->
<g id="node3" class="node">
<title>Node2</title>
<g id="a_node3"><a xlink:href="structmp__coro_1_1task_1_1promise__type_1_1final__awaiter.html" target="_top" xlink:title="Awaiter returned by final_suspend.">
<polygon fill="white" stroke="black" points="133,-0.5 133,-41.5 261,-41.5 261,-0.5 133,-0.5"/>
<text text-anchor="start" x="141" y="-29.5" font-family="Helvetica,sans-Serif" font-size="10.00">task&lt; T, Allocator</text>
<text text-anchor="start" x="141" y="-18.5" font-family="Helvetica,sans-Serif" font-size="10.00"> &gt;::promise_type::final</text>
<text text-anchor="middle" x="197" y="-7.5" font-family="Helvetica,sans-Serif" font-size="10.00">_awaiter</text>
</a>
</g>
</g>
<!-- Node0&#45;&gt;Node2 -->
<g id="edge2" class="edge">
<title>Node0&#45;&gt;Node2</title>
<path fill="none" stroke="midnightblue" d="M106.29,-39.37C114.99,-37.59 124.02,-35.74 132.85,-33.93"/>
<polygon fill="midnightblue" stroke="midnightblue" points="105.35,-35.99 96.26,-41.43 106.76,-42.85 105.35,-35.99"/>
</g>
</g>
</svg>
