<?xml version="1.0" encoding="UTF-8" standalone="no"?>
<!DOCTYPE svg PUBLIC "-//W3C//DTD SVG 1.1//EN"
 "http://www.w3.org/Graphics/SVG/1.1/DTD/svg11.dtd">
<!-- Generated by graphviz version 2.43.0 (0)
 -->
<!-- Title: Graphical Class Hierarchy Pages: 1 -->
<svg width="1014pt" height="158pt"
 viewBox="0.00 0.00 1014.00 157.50" xmlns="http://www.w3.org/2000/svg" xmlns:xlink="http://www.w3.org/1999/xlink">
<g id="graph0" class="graph" transform="scale(1 1) rotate(0) translate(4 153.5)">
<title>Graphical Class Hierarchy</title>
<polygon fill="white" stroke="transparent" points="-4,4 -4,-153.5 1010,-153.5 1010,4 -4,4"/>
<!-- Node0 -->
<g id="node1" class="node">
<title>Node0</title>
<g id="a_node1"><a xlink:href="structmp__coro_1_1detail_1_1noncopyable.html" target="_top" xlink:title="Base class with deleted copy constructor and copy assignment operator.">
<polygon fill="white" stroke="black" points="689,-75.5 689,-94.5 768,-94.5 768,-75.5 689,-75.5"/>
<text text-anchor="middle" x="728.5" y="-82.5" font-family="Helvetica,sans-Serif" font-size="10.00">noncopyable</text>
</a>
</g>
</g>
<!-- Node1 -->
<g id="node2" class="node">
<title>Node1</title>
<g id="a_node2"><a xlink:href="structmp__coro_1_1detail_1_1synchronized__task_1_1promise__type.html" target="_top" xlink:title="Required promise type for coroutines returning a synchronized_task.">
<polygon fill="white" stroke="black" points="854,-70 854,-100 993,-100 993,-70 854,-70"/>
<text text-anchor="start" x="862" y="-88" font-family="Helvetica,sans-Serif" font-size="10.00">synchronized_task&lt;</text>
<text text-anchor="middle" x="923.5" y="-77" font-family="Helvetica,sans-Serif" font-size="10.00"> Sync, T &gt;::promise_type</text>
</a>
</g>
</g>
<!-- Node0&#45;&gt;Node1 -->
<g id="edge1" class="edge">
<title>Node0&#45;&gt;Node1</title>
<path fill="none" stroke="#8b1a1a" d="M778.26,-85C801.18,-85 828.9,-85 853.9,-85"/>
<polygon fill="#8b1a1a" stroke="#8b1a1a" points="778.09,-81.5 768.09,-85 778.09,-88.5 778.09,-81.5"/>
</g>
<!-- Node14 -->
<g id="node3" class="node">
<title>Node14</title>
<g id="a_node3"><a xlink:href="structmp__coro_1_1generator_1_1promise__type.html" target="_top" xlink:title=" ">
<polygon fill="white" stroke="black" points="841,-31.5 841,-50.5 1006,-50.5 1006,-31.5 841,-31.5"/>
<text text-anchor="middle" x="923.5" y="-38.5" font-family="Helvetica,sans-Serif" font-size="10.00">generator&lt; T &gt;::promise_type</text>
</a>
</g>
</g>
<!-- Node0&#45;&gt;Node14 -->
<g id="edge2" class="edge">
<title>Node0&#45;&gt;Node14</title>
<path fill="none" stroke="#8b1a1a" d="M778.01,-73.94C809.62,-66.74 850.44,-57.43 880.63,-50.55"/>
<polygon fill="#8b1a1a" stroke="#8b1a1a" points="777.06,-70.57 768.09,-76.2 778.62,-77.39 777.06,-70.57"/>
</g>
<!-- Node3 -->
<g id="node4" class="node">
<title>Node3</title>
<g id="a_node4"><a xlink:href="structmp__coro_1_1task_1_1promise__type.html" target="_top" xlink:title="Required promise type for coroutines returning a task.">
<polygon fill="white" stroke="black" points="871.5,-119 871.5,-149 975.5,-149 975.5,-119 871.5,-119"/>
<text text-anchor="start" x="879.5" y="-137" font-family="Helvetica,sans-Serif" font-size="10.00">task&lt; T, Allocator</text>
<text text-anchor="middle" x="923.5" y="-126" font-family="Helvetica,sans-Serif" font-size="10.00"> &gt;::promise_type</text>
</a>
</g>
</g>
<!-- Node0&#45;&gt;Node3 -->
<g id="edge3" class="edge">
<title>Node0&#45;&gt;Node3</title>
<path fill="none" stroke="#8b1a1a" d="M777.31,-97.01C786.5,-99.32 796.05,-101.73 805,-104 826.73,-109.51 850.72,-115.63 871.32,-120.89"/>
<polygon fill="#8b1a1a" stroke="#8b1a1a" points="778.08,-93.59 767.53,-94.54 776.37,-100.38 778.08,-93.59"/>
</g>
<!-- Node10 -->
<g id="node5" class="node">
<title>Node10</title>
<g id="a_node5"><a xlink:href="classmp__coro_1_1detail_1_1storage__base.html" target="_top" xlink:title="Storage class that can either contain a value, an exception, or be empty.">
<polygon fill="white" stroke="black" points="0,-38.5 0,-57.5 110,-57.5 110,-38.5 0,-38.5"/>
<text text-anchor="middle" x="55" y="-45.5" font-family="Helvetica,sans-Serif" font-size="10.00">storage_base&lt; T &gt;</text>
</a>
</g>
</g>
<!-- Node11 -->
<g id="node6" class="node">
<title>Node11</title>
<g id="a_node6"><a xlink:href="classmp__coro_1_1detail_1_1storage.html" target="_top" xlink:title=" ">
<polygon fill="white" stroke="black" points="163.5,-38.5 163.5,-57.5 260.5,-57.5 260.5,-38.5 163.5,-38.5"/>
<text text-anchor="middle" x="212" y="-45.5" font-family="Helvetica,sans-Serif" font-size="10.00">storage&lt; void &gt;</text>
</a>
</g>
</g>
<!-- Node10&#45;&gt;Node11 -->
<g id="edge4" class="edge">
<title>Node10&#45;&gt;Node11</title>
<path fill="none" stroke="midnightblue" d="M120.51,-48C134.83,-48 149.77,-48 163.28,-48"/>
<polygon fill="midnightblue" stroke="midnightblue" points="120.21,-44.5 110.21,-48 120.21,-51.5 120.21,-44.5"/>
</g>
<!-- Node13 -->
<g id="node8" class="node">
<title>Node13</title>
<g id="a_node8"><a xlink:href="classmp__coro_1_1detail_1_1storage.html" target="_top" xlink:title=" ">
<polygon fill="white" stroke="black" points="146,-0.5 146,-19.5 278,-19.5 278,-0.5 146,-0.5"/>
<text text-anchor="middle" x="212" y="-7.5" font-family="Helvetica,sans-Serif" font-size="10.00">storage&lt; return_type &gt;</text>
</a>
</g>
</g>
<!-- Node10&#45;&gt;Node13 -->
<g id="edge6" class="edge">
<title>Node10&#45;&gt;Node13</title>
<path fill="none" stroke="midnightblue" d="M105.11,-35.96C126.76,-30.65 151.85,-24.5 172.17,-19.52"/>
<polygon fill="midnightblue" stroke="midnightblue" points="103.99,-32.63 95.11,-38.41 105.66,-39.43 103.99,-32.63"/>
</g>
<!-- Node8 -->
<g id="node9" class="node">
<title>Node8</title>
<g id="a_node9"><a xlink:href="classmp__coro_1_1detail_1_1storage.html" target="_top" xlink:title="Storage class that can either contain a value, an exception, or be empty.">
<polygon fill="white" stroke="black" points="171,-76.5 171,-95.5 253,-95.5 253,-76.5 171,-76.5"/>
<text text-anchor="middle" x="212" y="-83.5" font-family="Helvetica,sans-Serif" font-size="10.00">storage&lt; T &gt;</text>
</a>
</g>
</g>
<!-- Node10&#45;&gt;Node8 -->
<g id="edge7" class="edge">
<title>Node10&#45;&gt;Node8</title>
<path fill="none" stroke="midnightblue" d="M105.11,-60.04C126.76,-65.35 151.85,-71.5 172.17,-76.48"/>
<polygon fill="midnightblue" stroke="midnightblue" points="105.66,-56.57 95.11,-57.59 103.99,-63.37 105.66,-56.57"/>
</g>
<!-- Node12 -->
<g id="node7" class="node">
<title>Node12</title>
<g id="a_node7"><a xlink:href="classmp__coro_1_1detail_1_1nonvoid__storage_3_01void_01_4.html" target="_top" xlink:title=" ">
<polygon fill="white" stroke="black" points="314,-38.5 314,-57.5 455,-57.5 455,-38.5 314,-38.5"/>
<text text-anchor="middle" x="384.5" y="-45.5" font-family="Helvetica,sans-Serif" font-size="10.00">nonvoid_storage&lt; void &gt;</text>
</a>
</g>
</g>
<!-- Node11&#45;&gt;Node12 -->
<g id="edge5" class="edge">
<title>Node11&#45;&gt;Node12</title>
<path fill="none" stroke="midnightblue" d="M271.23,-48C284.98,-48 299.77,-48 313.96,-48"/>
<polygon fill="midnightblue" stroke="midnightblue" points="270.95,-44.5 260.95,-48 270.95,-51.5 270.95,-44.5"/>
</g>
<!-- Node9 -->
<g id="node10" class="node">
<title>Node9</title>
<g id="a_node10"><a xlink:href="classmp__coro_1_1detail_1_1nonvoid__storage.html" target="_top" xlink:title=" ">
<polygon fill="white" stroke="black" points="314,-114.5 314,-133.5 455,-133.5 455,-114.5 314,-114.5"/>
<text text-anchor="middle" x="384.5" y="-121.5" font-family="Helvetica,sans-Serif" font-size="10.00">nonvoid_storage&lt; void &gt;</text>
</a>
</g>
</g>
<!-- Node8&#45;&gt;Node9 -->
<g id="edge8" class="edge">
<title>Node8&#45;&gt;Node9</title>
<path fill="none" stroke="midnightblue" d="M263.28,-97.21C287.88,-102.69 317.19,-109.22 340.7,-114.46"/>
<polygon fill="midnightblue" stroke="midnightblue" points="263.93,-93.76 253.41,-95.01 262.41,-100.6 263.93,-93.76"/>
</g>
<!-- Node5 -->
<g id="node11" class="node">
<title>Node5</title>
<g id="a_node11"><a xlink:href="classmp__coro_1_1detail_1_1nonvoid__storage.html" target="_top" xlink:title=" ">
<polygon fill="white" stroke="black" points="321.5,-76.5 321.5,-95.5 447.5,-95.5 447.5,-76.5 321.5,-76.5"/>
<text text-anchor="middle" x="384.5" y="-83.5" font-family="Helvetica,sans-Serif" font-size="10.00">nonvoid_storage&lt; T &gt;</text>
</a>
</g>
</g>
<!-- Node8&#45;&gt;Node5 -->
<g id="edge9" class="edge">
<title>Node8&#45;&gt;Node5</title>
<path fill="none" stroke="midnightblue" d="M263.49,-86C281.65,-86 302.34,-86 321.38,-86"/>
<polygon fill="midnightblue" stroke="midnightblue" points="263.41,-82.5 253.41,-86 263.41,-89.5 263.41,-82.5"/>
</g>
<!-- Node6 -->
<g id="node12" class="node">
<title>Node6</title>
<g id="a_node12"><a xlink:href="structmp__coro_1_1detail_1_1task__promise__storage__base.html" target="_top" xlink:title=" ">
<polygon fill="white" stroke="black" points="491,-42 491,-72 616,-72 616,-42 491,-42"/>
<text text-anchor="start" x="499" y="-60" font-family="Helvetica,sans-Serif" font-size="10.00">task_promise_storage</text>
<text text-anchor="middle" x="553.5" y="-49" font-family="Helvetica,sans-Serif" font-size="10.00">_base&lt; void &gt;</text>
</a>
</g>
</g>
<!-- Node5&#45;&gt;Node6 -->
<g id="edge10" class="edge">
<title>Node5&#45;&gt;Node6</title>
<path fill="none" stroke="midnightblue" d="M450.6,-74.69C463.82,-72.4 477.68,-69.99 490.78,-67.72"/>
<polygon fill="midnightblue" stroke="midnightblue" points="449.9,-71.26 440.64,-76.42 451.1,-78.16 449.9,-71.26"/>
</g>
<!-- Node4 -->
<g id="node14" class="node">
<title>Node4</title>
<g id="a_node14"><a xlink:href="structmp__coro_1_1detail_1_1task__promise__storage__base.html" target="_top" xlink:title=" ">
<polygon fill="white" stroke="black" points="491,-99 491,-129 616,-129 616,-99 491,-99"/>
<text text-anchor="start" x="499" y="-117" font-family="Helvetica,sans-Serif" font-size="10.00">task_promise_storage</text>
<text text-anchor="middle" x="553.5" y="-106" font-family="Helvetica,sans-Serif" font-size="10.00">_base&lt; T &gt;</text>
</a>
</g>
</g>
<!-- Node5&#45;&gt;Node4 -->
<g id="edge12" class="edge">
<title>Node5&#45;&gt;Node4</title>
<path fill="none" stroke="midnightblue" d="M452.53,-97.24C465.2,-99.36 478.4,-101.58 490.9,-103.67"/>
<polygon fill="midnightblue" stroke="midnightblue" points="452.95,-93.76 442.5,-95.56 451.79,-100.66 452.95,-93.76"/>
</g>
<!-- Node7 -->
<g id="node13" class="node">
<title>Node7</title>
<g id="a_node13"><a xlink:href="structmp__coro_1_1detail_1_1task__promise__storage_3_01void_01_4.html" target="_top" xlink:title=" ">
<polygon fill="white" stroke="black" points="666,-26 666,-56 791,-56 791,-26 666,-26"/>
<text text-anchor="start" x="674" y="-44" font-family="Helvetica,sans-Serif" font-size="10.00">task_promise_storage</text>
<text text-anchor="middle" x="728.5" y="-33" font-family="Helvetica,sans-Serif" font-size="10.00">&lt; void &gt;</text>
</a>
</g>
</g>
<!-- Node6&#45;&gt;Node7 -->
<g id="edge11" class="edge">
<title>Node6&#45;&gt;Node7</title>
<path fill="none" stroke="midnightblue" d="M626.79,-50.31C639.82,-49.11 653.28,-47.86 665.96,-46.69"/>
<polygon fill="midnightblue" stroke="midnightblue" points="626.1,-46.86 616.47,-51.27 626.75,-53.83 626.1,-46.86"/>
</g>
<!-- Node2 -->
<g id="node15" class="node">
<title>Node2</title>
<g id="a_node15"><a xlink:href="structmp__coro_1_1detail_1_1task__promise__storage.html" target="_top" xlink:title=" ">
<polygon fill="white" stroke="black" points="652,-113.5 652,-132.5 805,-132.5 805,-113.5 652,-113.5"/>
<text text-anchor="middle" x="728.5" y="-120.5" font-family="Helvetica,sans-Serif" font-size="10.00">task_promise_storage&lt; T &gt;</text>
</a>
</g>
</g>
<!-- Node4&#45;&gt;Node2 -->
<g id="edge13" class="edge">
<title>Node4&#45;&gt;Node2</title>
<path fill="none" stroke="midnightblue" d="M626.52,-117.75C634.86,-118.18 643.38,-118.62 651.77,-119.06"/>
<polygon fill="midnightblue" stroke="midnightblue" points="626.64,-114.25 616.47,-117.22 626.27,-121.24 626.64,-114.25"/>
</g>
<!-- Node2&#45;&gt;Node1 -->
<g id="edge14" class="edge">
<title>Node2&#45;&gt;Node1</title>
<path fill="none" stroke="midnightblue" d="M788.12,-111.46C808.83,-107.38 832.3,-102.76 853.77,-98.53"/>
<polygon fill="midnightblue" stroke="midnightblue" points="787.34,-108.05 778.2,-113.41 788.69,-114.91 787.34,-108.05"/>
</g>
<!-- Node2&#45;&gt;Node3 -->
<g id="edge15" class="edge">
<title>Node2&#45;&gt;Node3</title>
<path fill="none" stroke="midnightblue" d="M815.45,-127.9C834.55,-128.99 854.2,-130.11 871.38,-131.09"/>
<polygon fill="midnightblue" stroke="midnightblue" points="815.41,-124.39 805.22,-127.32 815.01,-131.38 815.41,-124.39"/>
</g>
</g>
</svg>
