<?xml version="1.0" encoding="UTF-8" standalone="no"?>
<!DOCTYPE svg PUBLIC "-//W3C//DTD SVG 1.1//EN"
 "http://www.w3.org/Graphics/SVG/1.1/DTD/svg11.dtd">
<!-- Generated by graphviz version 2.43.0 (0)
 -->
<!-- Title: check_and_rethrow Pages: 1 -->
<svg width="672pt" height="186pt"
 viewBox="0.00 0.00 672.00 186.00" xmlns="http://www.w3.org/2000/svg" xmlns:xlink="http://www.w3.org/1999/xlink">
<g id="graph0" class="graph" transform="scale(1 1) rotate(0) translate(4 182)">
<title>check_and_rethrow</title>
<polygon fill="white" stroke="transparent" points="-4,4 -4,-182 668,-182 668,4 -4,4"/>
<!-- Node1 -->
<g id="node1" class="node">
<title>Node1</title>
<g id="a_node1"><a xlink:title="If rethrow contains an exception, rethrow it.">
<polygon fill="#bfbfbf" stroke="black" points="553,-79 553,-98 664,-98 664,-79 553,-79"/>
<text text-anchor="middle" x="608.5" y="-86" font-family="Helvetica,sans-Serif" font-size="10.00">check_and_rethrow</text>
</a>
</g>
</g>
<!-- Node2 -->
<g id="node2" class="node">
<title>Node2</title>
<g id="a_node2"><a xlink:href="classmp__coro_1_1detail_1_1storage__base_3_01T_01_6_01_4.html#ae2893386dcb56aa821ef423abd25817d" target="_top" xlink:title=" ">
<polygon fill="white" stroke="black" points="365.5,-147.5 365.5,-177.5 500.5,-177.5 500.5,-147.5 365.5,-147.5"/>
<text text-anchor="start" x="373.5" y="-165.5" font-family="Helvetica,sans-Serif" font-size="10.00">mp_coro::detail::storage</text>
<text text-anchor="middle" x="433" y="-154.5" font-family="Helvetica,sans-Serif" font-size="10.00">_base&lt; T &amp; &gt;::get</text>
</a>
</g>
</g>
<!-- Node1&#45;&gt;Node2 -->
<g id="edge1" class="edge">
<title>Node1&#45;&gt;Node2</title>
<path fill="none" stroke="midnightblue" d="M584.05,-103.36C566.19,-114.21 540.72,-128.66 517,-138.5 509.1,-141.78 500.61,-144.78 492.17,-147.48"/>
<polygon fill="midnightblue" stroke="midnightblue" points="585.97,-106.29 592.65,-98.07 582.3,-100.33 585.97,-106.29"/>
</g>
<!-- Node3 -->
<g id="node3" class="node">
<title>Node3</title>
<g id="a_node3"><a xlink:href="classmp__coro_1_1detail_1_1storage__base_3_01void_01_4.html#a62091964d37840b587e47b13c2408209" target="_top" xlink:title=" ">
<polygon fill="white" stroke="black" points="365.5,-98.5 365.5,-128.5 500.5,-128.5 500.5,-98.5 365.5,-98.5"/>
<text text-anchor="start" x="373.5" y="-116.5" font-family="Helvetica,sans-Serif" font-size="10.00">mp_coro::detail::storage</text>
<text text-anchor="middle" x="433" y="-105.5" font-family="Helvetica,sans-Serif" font-size="10.00">_base&lt; void &gt;::get</text>
</a>
</g>
</g>
<!-- Node1&#45;&gt;Node3 -->
<g id="edge2" class="edge">
<title>Node1&#45;&gt;Node3</title>
<path fill="none" stroke="midnightblue" d="M542.36,-97.89C528.75,-99.85 514.38,-101.92 500.71,-103.89"/>
<polygon fill="midnightblue" stroke="midnightblue" points="543.2,-101.3 552.6,-96.41 542.21,-94.37 543.2,-101.3"/>
</g>
<!-- Node4 -->
<g id="node4" class="node">
<title>Node4</title>
<g id="a_node4"><a xlink:href="classmp__coro_1_1detail_1_1storage__base.html#a12a244caa425ee3044a5b8d6448d9fb1" target="_top" xlink:title=" ">
<polygon fill="white" stroke="black" points="365.5,-49.5 365.5,-79.5 500.5,-79.5 500.5,-49.5 365.5,-49.5"/>
<text text-anchor="start" x="373.5" y="-67.5" font-family="Helvetica,sans-Serif" font-size="10.00">mp_coro::detail::storage</text>
<text text-anchor="middle" x="433" y="-56.5" font-family="Helvetica,sans-Serif" font-size="10.00">_base::get</text>
</a>
</g>
</g>
<!-- Node1&#45;&gt;Node4 -->
<g id="edge3" class="edge">
<title>Node1&#45;&gt;Node4</title>
<path fill="none" stroke="midnightblue" d="M542.36,-79.49C528.75,-77.61 514.38,-75.62 500.71,-73.73"/>
<polygon fill="midnightblue" stroke="midnightblue" points="542.22,-83 552.6,-80.91 543.18,-76.07 542.22,-83"/>
</g>
<!-- Node9 -->
<g id="node9" class="node">
<title>Node9</title>
<g id="a_node9"><a xlink:href="classmp__coro_1_1detail_1_1nonvoid__storage_3_01void_01_4.html#ac0874ff72f5778e86420bcddd083b96b" target="_top" xlink:title=" ">
<polygon fill="white" stroke="black" points="349,-0.5 349,-30.5 517,-30.5 517,-0.5 349,-0.5"/>
<text text-anchor="start" x="357" y="-18.5" font-family="Helvetica,sans-Serif" font-size="10.00">mp_coro::detail::nonvoid</text>
<text text-anchor="middle" x="433" y="-7.5" font-family="Helvetica,sans-Serif" font-size="10.00">_storage&lt; void &gt;::nonvoid_get</text>
</a>
</g>
</g>
<!-- Node1&#45;&gt;Node9 -->
<g id="edge8" class="edge">
<title>Node1&#45;&gt;Node9</title>
<path fill="none" stroke="midnightblue" d="M583.69,-73.77C565.83,-63.18 540.51,-49.13 517,-39.5 509.09,-36.26 500.59,-33.27 492.15,-30.58"/>
<polygon fill="midnightblue" stroke="midnightblue" points="581.93,-76.8 592.3,-78.95 585.54,-70.8 581.93,-76.8"/>
</g>
<!-- Node5 -->
<g id="node5" class="node">
<title>Node5</title>
<g id="a_node5"><a xlink:href="structmp__coro_1_1task_1_1awaiter.html#a3ffaa5cd66a8d18b91ed92bac4a31858" target="_top" xlink:title="Return the value of the task&#39;s promise.">
<polygon fill="white" stroke="black" points="180.5,-74.5 180.5,-104.5 308.5,-104.5 308.5,-74.5 180.5,-74.5"/>
<text text-anchor="start" x="188.5" y="-92.5" font-family="Helvetica,sans-Serif" font-size="10.00">mp_coro::task::awaiter</text>
<text text-anchor="middle" x="244.5" y="-81.5" font-family="Helvetica,sans-Serif" font-size="10.00">::await_resume</text>
</a>
</g>
</g>
<!-- Node4&#45;&gt;Node5 -->
<g id="edge4" class="edge">
<title>Node4&#45;&gt;Node5</title>
<path fill="none" stroke="midnightblue" d="M355.35,-74.78C339.79,-76.86 323.6,-79.03 308.58,-81.04"/>
<polygon fill="midnightblue" stroke="midnightblue" points="356.01,-78.22 365.46,-73.42 355.08,-71.28 356.01,-78.22"/>
</g>
<!-- Node8 -->
<g id="node8" class="node">
<title>Node8</title>
<g id="a_node8"><a xlink:href="classmp__coro_1_1detail_1_1nonvoid__storage.html#ae10f0ddc271baf9b60b2c44a049f6106" target="_top" xlink:title=" ">
<polygon fill="white" stroke="black" points="176,-25.5 176,-55.5 313,-55.5 313,-25.5 176,-25.5"/>
<text text-anchor="start" x="184" y="-43.5" font-family="Helvetica,sans-Serif" font-size="10.00">mp_coro::detail::nonvoid</text>
<text text-anchor="middle" x="244.5" y="-32.5" font-family="Helvetica,sans-Serif" font-size="10.00">_storage::nonvoid_get</text>
</a>
</g>
</g>
<!-- Node4&#45;&gt;Node8 -->
<g id="edge7" class="edge">
<title>Node4&#45;&gt;Node8</title>
<path fill="none" stroke="midnightblue" d="M355.4,-54.64C341.44,-52.85 326.96,-50.98 313.27,-49.22"/>
<polygon fill="midnightblue" stroke="midnightblue" points="355.09,-58.13 365.46,-55.94 355.99,-51.19 355.09,-58.13"/>
</g>
<!-- Node6 -->
<g id="node6" class="node">
<title>Node6</title>
<g id="a_node6"><a xlink:href="structmp__coro_1_1detail_1_1when__all__awaitable.html#a41cc5ea5dd6aaa94fc81dc0a76facb60" target="_top" xlink:title=" ">
<polygon fill="white" stroke="black" points="3,-97 3,-138 137,-138 137,-97 3,-97"/>
<text text-anchor="start" x="11" y="-126" font-family="Helvetica,sans-Serif" font-size="10.00">mp_coro::detail::when</text>
<text text-anchor="start" x="11" y="-115" font-family="Helvetica,sans-Serif" font-size="10.00">_all_awaitable::operator</text>
<text text-anchor="middle" x="70" y="-104" font-family="Helvetica,sans-Serif" font-size="10.00"> co_await</text>
</a>
</g>
</g>
<!-- Node5&#45;&gt;Node6 -->
<g id="edge5" class="edge">
<title>Node5&#45;&gt;Node6</title>
<path fill="none" stroke="midnightblue" d="M170.25,-101.39C159.26,-103.17 147.98,-105.01 137.14,-106.76"/>
<polygon fill="midnightblue" stroke="midnightblue" points="170.94,-104.82 180.25,-99.77 169.82,-97.91 170.94,-104.82"/>
</g>
<!-- Node7 -->
<g id="node7" class="node">
<title>Node7</title>
<g id="a_node7"><a xlink:href="classmp__coro_1_1async.html#a2c5b02a3e9d6dee7dd5185de8791a2b2" target="_top" xlink:title=" ">
<polygon fill="white" stroke="black" points="0,-47.5 0,-77.5 140,-77.5 140,-47.5 0,-47.5"/>
<text text-anchor="start" x="8" y="-65.5" font-family="Helvetica,sans-Serif" font-size="10.00">mp_coro::async::operator</text>
<text text-anchor="middle" x="70" y="-54.5" font-family="Helvetica,sans-Serif" font-size="10.00"> co_await</text>
</a>
</g>
</g>
<!-- Node5&#45;&gt;Node7 -->
<g id="edge6" class="edge">
<title>Node5&#45;&gt;Node7</title>
<path fill="none" stroke="midnightblue" d="M170.32,-78.05C160.29,-76.48 150.01,-74.87 140.06,-73.31"/>
<polygon fill="midnightblue" stroke="midnightblue" points="169.83,-81.51 180.25,-79.6 170.91,-74.6 169.83,-81.51"/>
</g>
</g>
</svg>
