<?xml version="1.0" encoding="UTF-8" standalone="no"?>
<!DOCTYPE svg PUBLIC "-//W3C//DTD SVG 1.1//EN"
 "http://www.w3.org/Graphics/SVG/1.1/DTD/svg11.dtd">
<!-- Generated by graphviz version 2.43.0 (0)
 -->
<!-- Title: nonvoid_storage.h Pages: 1 -->
<svg width="568pt" height="252pt"
 viewBox="0.00 0.00 567.50 252.00" xmlns="http://www.w3.org/2000/svg" xmlns:xlink="http://www.w3.org/1999/xlink">
<g id="graph0" class="graph" transform="scale(1 1) rotate(0) translate(4 248)">
<title>nonvoid_storage.h</title>
<polygon fill="white" stroke="transparent" points="-4,4 -4,-248 563.5,-248 563.5,4 -4,4"/>
<!-- Node1 -->
<g id="node1" class="node">
<title>Node1</title>
<g id="a_node1"><a xlink:title=" ">
<polygon fill="#bfbfbf" stroke="black" points="148,-224.5 148,-243.5 255,-243.5 255,-224.5 148,-224.5"/>
<text text-anchor="middle" x="201.5" y="-231.5" font-family="Helvetica,sans-Serif" font-size="10.00">nonvoid_storage.h</text>
</a>
</g>
</g>
<!-- Node2 -->
<g id="node2" class="node">
<title>Node2</title>
<g id="a_node2"><a xlink:href="storage_8h.html" target="_top" xlink:title=" ">
<polygon fill="white" stroke="black" points="67,-168.5 67,-187.5 194,-187.5 194,-168.5 67,-168.5"/>
<text text-anchor="middle" x="130.5" y="-175.5" font-family="Helvetica,sans-Serif" font-size="10.00">mp&#45;coro/bits/storage.h</text>
</a>
</g>
</g>
<!-- Node1&#45;&gt;Node2 -->
<g id="edge1" class="edge">
<title>Node1&#45;&gt;Node2</title>
<path fill="none" stroke="midnightblue" d="M190.09,-224.32C179.39,-216.18 163.16,-203.84 150.34,-194.09"/>
<polygon fill="midnightblue" stroke="midnightblue" points="152.19,-191.1 142.11,-187.83 147.96,-196.67 152.19,-191.1"/>
</g>
<!-- Node6 -->
<g id="node6" class="node">
<title>Node6</title>
<g id="a_node6"><a xlink:href="type__traits_8h.html" target="_top" xlink:title=" ">
<polygon fill="white" stroke="black" points="219.5,-168.5 219.5,-187.5 341.5,-187.5 341.5,-168.5 219.5,-168.5"/>
<text text-anchor="middle" x="280.5" y="-175.5" font-family="Helvetica,sans-Serif" font-size="10.00">mp&#45;coro/type_traits.h</text>
</a>
</g>
</g>
<!-- Node1&#45;&gt;Node6 -->
<g id="edge5" class="edge">
<title>Node1&#45;&gt;Node6</title>
<path fill="none" stroke="midnightblue" d="M214.19,-224.32C226.4,-215.98 245.08,-203.21 259.5,-193.35"/>
<polygon fill="midnightblue" stroke="midnightblue" points="261.56,-196.19 267.84,-187.65 257.61,-190.41 261.56,-196.19"/>
</g>
<!-- Node3 -->
<g id="node3" class="node">
<title>Node3</title>
<g id="a_node3"><a xlink:title=" ">
<polygon fill="white" stroke="#bfbfbf" points="0,-112.5 0,-131.5 65,-131.5 65,-112.5 0,-112.5"/>
<text text-anchor="middle" x="32.5" y="-119.5" font-family="Helvetica,sans-Serif" font-size="10.00">exception</text>
</a>
</g>
</g>
<!-- Node2&#45;&gt;Node3 -->
<g id="edge2" class="edge">
<title>Node2&#45;&gt;Node3</title>
<path fill="none" stroke="midnightblue" d="M114.75,-168.32C99.18,-159.74 75.12,-146.49 57.04,-136.52"/>
<polygon fill="midnightblue" stroke="midnightblue" points="58.65,-133.42 48.21,-131.65 55.28,-139.55 58.65,-133.42"/>
</g>
<!-- Node4 -->
<g id="node4" class="node">
<title>Node4</title>
<g id="a_node4"><a xlink:title=" ">
<polygon fill="white" stroke="#bfbfbf" points="83,-112.5 83,-131.5 152,-131.5 152,-112.5 83,-112.5"/>
<text text-anchor="middle" x="117.5" y="-119.5" font-family="Helvetica,sans-Serif" font-size="10.00">type_traits</text>
</a>
</g>
</g>
<!-- Node2&#45;&gt;Node4 -->
<g id="edge3" class="edge">
<title>Node2&#45;&gt;Node4</title>
<path fill="none" stroke="midnightblue" d="M128.35,-168.08C126.63,-160.93 124.15,-150.64 122,-141.69"/>
<polygon fill="midnightblue" stroke="midnightblue" points="125.35,-140.65 119.61,-131.75 118.54,-142.29 125.35,-140.65"/>
</g>
<!-- Node5 -->
<g id="node5" class="node">
<title>Node5</title>
<g id="a_node5"><a xlink:title=" ">
<polygon fill="white" stroke="#bfbfbf" points="170,-112.5 170,-131.5 221,-131.5 221,-112.5 170,-112.5"/>
<text text-anchor="middle" x="195.5" y="-119.5" font-family="Helvetica,sans-Serif" font-size="10.00">variant</text>
</a>
</g>
</g>
<!-- Node2&#45;&gt;Node5 -->
<g id="edge4" class="edge">
<title>Node2&#45;&gt;Node5</title>
<path fill="none" stroke="midnightblue" d="M140.94,-168.32C150.65,-160.26 165.32,-148.08 177,-138.37"/>
<polygon fill="midnightblue" stroke="midnightblue" points="179.41,-140.92 184.87,-131.83 174.94,-135.53 179.41,-140.92"/>
</g>
<!-- Node7 -->
<g id="node7" class="node">
<title>Node7</title>
<g id="a_node7"><a xlink:href="get__awaiter_8h.html" target="_top" xlink:title=" ">
<polygon fill="white" stroke="black" points="93,-56.5 93,-75.5 240,-75.5 240,-56.5 93,-56.5"/>
<text text-anchor="middle" x="166.5" y="-63.5" font-family="Helvetica,sans-Serif" font-size="10.00">mp&#45;coro/bits/get_awaiter.h</text>
</a>
</g>
</g>
<!-- Node6&#45;&gt;Node7 -->
<g id="edge6" class="edge">
<title>Node6&#45;&gt;Node7</title>
<path fill="none" stroke="midnightblue" d="M274.91,-168.37C266.19,-155.28 248.37,-130.04 229.5,-112 217.3,-100.34 201.92,-89.3 189.41,-81.07"/>
<polygon fill="midnightblue" stroke="midnightblue" points="191.2,-78.06 180.89,-75.6 187.42,-83.95 191.2,-78.06"/>
</g>
<!-- Node9 -->
<g id="node9" class="node">
<title>Node9</title>
<g id="a_node9"><a xlink:href="bits_2type__traits_8h.html" target="_top" xlink:title=" ">
<polygon fill="white" stroke="black" points="258,-56.5 258,-75.5 401,-75.5 401,-56.5 258,-56.5"/>
<text text-anchor="middle" x="329.5" y="-63.5" font-family="Helvetica,sans-Serif" font-size="10.00">mp&#45;coro/bits/type_traits.h</text>
</a>
</g>
</g>
<!-- Node6&#45;&gt;Node9 -->
<g id="edge8" class="edge">
<title>Node6&#45;&gt;Node9</title>
<path fill="none" stroke="midnightblue" d="M283.62,-168.48C288.27,-155.96 297.45,-131.92 306.5,-112 310.68,-102.8 315.75,-92.77 320.07,-84.52"/>
<polygon fill="midnightblue" stroke="midnightblue" points="323.26,-85.99 324.85,-75.51 317.07,-82.7 323.26,-85.99"/>
</g>
<!-- Node10 -->
<g id="node10" class="node">
<title>Node10</title>
<g id="a_node10"><a xlink:href="concepts_8h.html" target="_top" xlink:title=" ">
<polygon fill="white" stroke="black" points="316,-112.5 316,-131.5 429,-131.5 429,-112.5 316,-112.5"/>
<text text-anchor="middle" x="372.5" y="-119.5" font-family="Helvetica,sans-Serif" font-size="10.00">mp&#45;coro/concepts.h</text>
</a>
</g>
</g>
<!-- Node6&#45;&gt;Node10 -->
<g id="edge9" class="edge">
<title>Node6&#45;&gt;Node10</title>
<path fill="none" stroke="midnightblue" d="M295.28,-168.32C309.77,-159.82 332.07,-146.73 348.99,-136.8"/>
<polygon fill="midnightblue" stroke="midnightblue" points="350.9,-139.74 357.76,-131.65 347.36,-133.7 350.9,-139.74"/>
</g>
<!-- Node8 -->
<g id="node8" class="node">
<title>Node8</title>
<g id="a_node8"><a xlink:title=" ">
<polygon fill="white" stroke="#bfbfbf" points="144,-0.5 144,-19.5 189,-19.5 189,-0.5 144,-0.5"/>
<text text-anchor="middle" x="166.5" y="-7.5" font-family="Helvetica,sans-Serif" font-size="10.00">utility</text>
</a>
</g>
</g>
<!-- Node7&#45;&gt;Node8 -->
<g id="edge7" class="edge">
<title>Node7&#45;&gt;Node8</title>
<path fill="none" stroke="midnightblue" d="M166.5,-56.08C166.5,-49.01 166.5,-38.86 166.5,-29.99"/>
<polygon fill="midnightblue" stroke="midnightblue" points="170,-29.75 166.5,-19.75 163,-29.75 170,-29.75"/>
</g>
<!-- Node10&#45;&gt;Node7 -->
<g id="edge10" class="edge">
<title>Node10&#45;&gt;Node7</title>
<path fill="none" stroke="midnightblue" d="M339.86,-112.44C304.45,-103.16 247.79,-88.31 208.95,-78.13"/>
<polygon fill="midnightblue" stroke="midnightblue" points="209.55,-74.67 198.99,-75.52 207.77,-81.44 209.55,-74.67"/>
</g>
<!-- Node10&#45;&gt;Node9 -->
<g id="edge11" class="edge">
<title>Node10&#45;&gt;Node9</title>
<path fill="none" stroke="midnightblue" d="M365.4,-112.08C359.26,-104.38 350.23,-93.03 342.76,-83.65"/>
<polygon fill="midnightblue" stroke="midnightblue" points="345.44,-81.39 336.47,-75.75 339.96,-85.75 345.44,-81.39"/>
</g>
<!-- Node11 -->
<g id="node11" class="node">
<title>Node11</title>
<g id="a_node11"><a xlink:title=" ">
<polygon fill="white" stroke="#bfbfbf" points="419.5,-56.5 419.5,-75.5 479.5,-75.5 479.5,-56.5 419.5,-56.5"/>
<text text-anchor="middle" x="449.5" y="-63.5" font-family="Helvetica,sans-Serif" font-size="10.00">concepts</text>
</a>
</g>
</g>
<!-- Node10&#45;&gt;Node11 -->
<g id="edge12" class="edge">
<title>Node10&#45;&gt;Node11</title>
<path fill="none" stroke="midnightblue" d="M384.87,-112.32C396.66,-104.06 414.63,-91.45 428.64,-81.63"/>
<polygon fill="midnightblue" stroke="midnightblue" points="430.98,-84.26 437.16,-75.65 426.96,-78.53 430.98,-84.26"/>
</g>
<!-- Node12 -->
<g id="node12" class="node">
<title>Node12</title>
<g id="a_node12"><a xlink:title=" ">
<polygon fill="white" stroke="#bfbfbf" points="497.5,-56.5 497.5,-75.5 559.5,-75.5 559.5,-56.5 497.5,-56.5"/>
<text text-anchor="middle" x="528.5" y="-63.5" font-family="Helvetica,sans-Serif" font-size="10.00">coroutine</text>
</a>
</g>
</g>
<!-- Node10&#45;&gt;Node12 -->
<g id="edge13" class="edge">
<title>Node10&#45;&gt;Node12</title>
<path fill="none" stroke="midnightblue" d="M397.22,-112.44C423.35,-103.4 464.76,-89.06 494.08,-78.92"/>
<polygon fill="midnightblue" stroke="midnightblue" points="495.59,-82.1 503.9,-75.52 493.3,-75.48 495.59,-82.1"/>
</g>
</g>
</svg>
