<?xml version="1.0" encoding="UTF-8" standalone="no"?>
<!DOCTYPE svg PUBLIC "-//W3C//DTD SVG 1.1//EN"
 "http://www.w3.org/Graphics/SVG/1.1/DTD/svg11.dtd">
<!-- Generated by graphviz version 2.43.0 (0)
 -->
<!-- Title: storage.h Pages: 1 -->
<svg width="218pt" height="252pt"
 viewBox="0.00 0.00 217.50 252.00" xmlns="http://www.w3.org/2000/svg" xmlns:xlink="http://www.w3.org/1999/xlink">
<g id="graph0" class="graph" transform="scale(1 1) rotate(0) translate(4 248)">
<title>storage.h</title>
<polygon fill="white" stroke="transparent" points="-4,4 -4,-248 213.5,-248 213.5,4 -4,4"/>
<!-- Node1 -->
<g id="node1" class="node">
<title>Node1</title>
<g id="a_node1"><a xlink:title=" ">
<polygon fill="#bfbfbf" stroke="black" points="55,-224.5 55,-243.5 117,-243.5 117,-224.5 55,-224.5"/>
<text text-anchor="middle" x="86" y="-231.5" font-family="Helvetica,sans-Serif" font-size="10.00">storage.h</text>
</a>
</g>
</g>
<!-- Node2 -->
<g id="node2" class="node">
<title>Node2</title>
<g id="a_node2"><a xlink:href="async_8h.html" target="_top" xlink:title=" ">
<polygon fill="white" stroke="black" points="10,-168.5 10,-187.5 64,-187.5 64,-168.5 10,-168.5"/>
<text text-anchor="middle" x="37" y="-175.5" font-family="Helvetica,sans-Serif" font-size="10.00">async.h</text>
</a>
</g>
</g>
<!-- Node1&#45;&gt;Node2 -->
<g id="edge1" class="edge">
<title>Node1&#45;&gt;Node2</title>
<path fill="none" stroke="midnightblue" d="M70.97,-216.43C62.38,-206.97 51.96,-195.48 44.94,-187.75"/>
<polygon fill="midnightblue" stroke="midnightblue" points="68.6,-219.03 77.91,-224.08 73.78,-214.33 68.6,-219.03"/>
</g>
<!-- Node3 -->
<g id="node3" class="node">
<title>Node3</title>
<g id="a_node3"><a xlink:href="nonvoid__storage_8h.html" target="_top" xlink:title=" ">
<polygon fill="white" stroke="black" points="82.5,-168.5 82.5,-187.5 189.5,-187.5 189.5,-168.5 82.5,-168.5"/>
<text text-anchor="middle" x="136" y="-175.5" font-family="Helvetica,sans-Serif" font-size="10.00">nonvoid_storage.h</text>
</a>
</g>
</g>
<!-- Node1&#45;&gt;Node3 -->
<g id="edge2" class="edge">
<title>Node1&#45;&gt;Node3</title>
<path fill="none" stroke="midnightblue" d="M101.08,-216.72C109.89,-207.2 120.67,-195.56 127.9,-187.75"/>
<polygon fill="midnightblue" stroke="midnightblue" points="98.48,-214.37 94.26,-224.08 103.62,-219.12 98.48,-214.37"/>
</g>
<!-- Node4 -->
<g id="node4" class="node">
<title>Node4</title>
<g id="a_node4"><a xlink:href="task__promise__storage_8h.html" target="_top" xlink:title=" ">
<polygon fill="white" stroke="black" points="69,-112.5 69,-131.5 203,-131.5 203,-112.5 69,-112.5"/>
<text text-anchor="middle" x="136" y="-119.5" font-family="Helvetica,sans-Serif" font-size="10.00">task_promise_storage.h</text>
</a>
</g>
</g>
<!-- Node3&#45;&gt;Node4 -->
<g id="edge3" class="edge">
<title>Node3&#45;&gt;Node4</title>
<path fill="none" stroke="midnightblue" d="M136,-157.8C136,-148.91 136,-138.78 136,-131.75"/>
<polygon fill="midnightblue" stroke="midnightblue" points="132.5,-158.08 136,-168.08 139.5,-158.08 132.5,-158.08"/>
</g>
<!-- Node5 -->
<g id="node5" class="node">
<title>Node5</title>
<g id="a_node5"><a xlink:href="synchronized__task_8h.html" target="_top" xlink:title=" ">
<polygon fill="white" stroke="black" points="28,-56.5 28,-75.5 144,-75.5 144,-56.5 28,-56.5"/>
<text text-anchor="middle" x="86" y="-63.5" font-family="Helvetica,sans-Serif" font-size="10.00">synchronized_task.h</text>
</a>
</g>
</g>
<!-- Node4&#45;&gt;Node5 -->
<g id="edge4" class="edge">
<title>Node4&#45;&gt;Node5</title>
<path fill="none" stroke="midnightblue" d="M120.92,-104.72C112.11,-95.2 101.33,-83.56 94.1,-75.75"/>
<polygon fill="midnightblue" stroke="midnightblue" points="118.38,-107.12 127.74,-112.08 123.52,-102.37 118.38,-107.12"/>
</g>
<!-- Node8 -->
<g id="node8" class="node">
<title>Node8</title>
<g id="a_node8"><a xlink:href="task_8h.html" target="_top" xlink:title=" ">
<polygon fill="white" stroke="black" points="162.5,-56.5 162.5,-75.5 209.5,-75.5 209.5,-56.5 162.5,-56.5"/>
<text text-anchor="middle" x="186" y="-63.5" font-family="Helvetica,sans-Serif" font-size="10.00">task.h</text>
</a>
</g>
</g>
<!-- Node4&#45;&gt;Node8 -->
<g id="edge7" class="edge">
<title>Node4&#45;&gt;Node8</title>
<path fill="none" stroke="midnightblue" d="M151.08,-104.72C159.89,-95.2 170.67,-83.56 177.9,-75.75"/>
<polygon fill="midnightblue" stroke="midnightblue" points="148.48,-102.37 144.26,-112.08 153.62,-107.12 148.48,-102.37"/>
</g>
<!-- Node6 -->
<g id="node6" class="node">
<title>Node6</title>
<g id="a_node6"><a xlink:href="sync__await_8h.html" target="_top" xlink:title=" ">
<polygon fill="white" stroke="black" points="0,-0.5 0,-19.5 80,-19.5 80,-0.5 0,-0.5"/>
<text text-anchor="middle" x="40" y="-7.5" font-family="Helvetica,sans-Serif" font-size="10.00">sync_await.h</text>
</a>
</g>
</g>
<!-- Node5&#45;&gt;Node6 -->
<g id="edge5" class="edge">
<title>Node5&#45;&gt;Node6</title>
<path fill="none" stroke="midnightblue" d="M71.89,-48.43C63.82,-38.97 54.04,-27.48 47.45,-19.75"/>
<polygon fill="midnightblue" stroke="midnightblue" points="69.25,-50.74 78.4,-56.08 74.58,-46.2 69.25,-50.74"/>
</g>
<!-- Node7 -->
<g id="node7" class="node">
<title>Node7</title>
<g id="a_node7"><a xlink:href="when__all_8h.html" target="_top" xlink:title=" ">
<polygon fill="white" stroke="black" points="98.5,-0.5 98.5,-19.5 167.5,-19.5 167.5,-0.5 98.5,-0.5"/>
<text text-anchor="middle" x="133" y="-7.5" font-family="Helvetica,sans-Serif" font-size="10.00">when_all.h</text>
</a>
</g>
</g>
<!-- Node5&#45;&gt;Node7 -->
<g id="edge6" class="edge">
<title>Node5&#45;&gt;Node7</title>
<path fill="none" stroke="midnightblue" d="M100.42,-48.43C108.66,-38.97 118.65,-27.48 125.38,-19.75"/>
<polygon fill="midnightblue" stroke="midnightblue" points="97.69,-46.24 93.76,-56.08 102.97,-50.84 97.69,-46.24"/>
</g>
</g>
</svg>
