<?xml version="1.0" encoding="UTF-8" standalone="no"?>
<!DOCTYPE svg PUBLIC "-//W3C//DTD SVG 1.1//EN"
 "http://www.w3.org/Graphics/SVG/1.1/DTD/svg11.dtd">
<!-- Generated by graphviz version 2.43.0 (0)
 -->
<!-- Title: when_all_awaitable&lt; T &gt; Pages: 1 -->
<svg width="181pt" height="248pt"
 viewBox="0.00 0.00 181.00 248.00" xmlns="http://www.w3.org/2000/svg" xmlns:xlink="http://www.w3.org/1999/xlink">
<g id="graph0" class="graph" transform="scale(1 1) rotate(0) translate(4 244)">
<title>when_all_awaitable&lt; T &gt;</title>
<polygon fill="white" stroke="transparent" points="-4,4 -4,-244 177,-244 177,4 -4,4"/>
<!-- Node1 -->
<g id="node1" class="node">
<title>Node1</title>
<g id="a_node1"><a xlink:title=" ">
<polygon fill="#bfbfbf" stroke="black" points="15.5,-0.5 15.5,-79.5 157.5,-79.5 157.5,-0.5 15.5,-0.5"/>
<text text-anchor="middle" x="86.5" y="-67.5" font-family="Helvetica,sans-Serif" font-size="10.00">when_all_awaitable&lt; T &gt;</text>
<polyline fill="none" stroke="black" points="15.5,-60.5 157.5,-60.5 "/>
<text text-anchor="start" x="23.5" y="-48.5" font-family="Helvetica,sans-Serif" font-size="10.00">&#45; tasks_</text>
<polyline fill="none" stroke="black" points="15.5,-41.5 157.5,-41.5 "/>
<text text-anchor="start" x="23.5" y="-29.5" font-family="Helvetica,sans-Serif" font-size="10.00">+ when_all_awaitable()</text>
<text text-anchor="start" x="23.5" y="-18.5" font-family="Helvetica,sans-Serif" font-size="10.00">+ operator co_await()</text>
<text text-anchor="start" x="23.5" y="-7.5" font-family="Helvetica,sans-Serif" font-size="10.00">+ operator co_await()</text>
</a>
</g>
</g>
<!-- Node2 -->
<g id="node2" class="node">
<title>Node2</title>
<g id="a_node2"><a xlink:href="classmp__coro_1_1detail_1_1when__all__sync.html" target="_top" xlink:title=" ">
<polygon fill="white" stroke="black" points="0,-127.5 0,-239.5 173,-239.5 173,-127.5 0,-127.5"/>
<text text-anchor="middle" x="86.5" y="-227.5" font-family="Helvetica,sans-Serif" font-size="10.00">when_all_sync</text>
<polyline fill="none" stroke="black" points="0,-220.5 173,-220.5 "/>
<text text-anchor="start" x="8" y="-208.5" font-family="Helvetica,sans-Serif" font-size="10.00">&#45; counter_</text>
<text text-anchor="start" x="8" y="-197.5" font-family="Helvetica,sans-Serif" font-size="10.00">&#45; continuation_</text>
<polyline fill="none" stroke="black" points="0,-190.5 173,-190.5 "/>
<text text-anchor="start" x="8" y="-178.5" font-family="Helvetica,sans-Serif" font-size="10.00">+ when_all_sync()</text>
<text text-anchor="start" x="8" y="-167.5" font-family="Helvetica,sans-Serif" font-size="10.00">+ when_all_sync()</text>
<text text-anchor="start" x="8" y="-156.5" font-family="Helvetica,sans-Serif" font-size="10.00">+ set_continuation()</text>
<text text-anchor="start" x="8" y="-145.5" font-family="Helvetica,sans-Serif" font-size="10.00">+ notify_awaitable_completed()</text>
<text text-anchor="start" x="8" y="-134.5" font-family="Helvetica,sans-Serif" font-size="10.00">+ is_ready()</text>
</a>
</g>
</g>
<!-- Node2&#45;&gt;Node1 -->
<g id="edge1" class="edge">
<title>Node2&#45;&gt;Node1</title>
<path fill="none" stroke="#404040" d="M86.5,-127.39C86.5,-115.65 86.5,-103.3 86.5,-91.74"/>
<polygon fill="none" stroke="#404040" points="86.5,-91.56 82.5,-85.56 86.5,-79.56 90.5,-85.56 86.5,-91.56"/>
<text text-anchor="middle" x="104" y="-101" font-family="Helvetica,sans-Serif" font-size="10.00"> &#45;sync_</text>
</g>
</g>
</svg>
