<?xml version="1.0" encoding="UTF-8" standalone="no"?>
<!DOCTYPE svg PUBLIC "-//W3C//DTD SVG 1.1//EN"
 "http://www.w3.org/Graphics/SVG/1.1/DTD/svg11.dtd">
<!-- Generated by graphviz version 2.43.0 (0)
 -->
<!-- Title: task_promise_storage&lt; void &gt; Pages: 1 -->
<svg width="148pt" height="508pt"
 viewBox="0.00 0.00 148.00 508.00" xmlns="http://www.w3.org/2000/svg" xmlns:xlink="http://www.w3.org/1999/xlink">
<g id="graph0" class="graph" transform="scale(1 1) rotate(0) translate(4 504)">
<title>task_promise_storage&lt; void &gt;</title>
<polygon fill="white" stroke="transparent" points="-4,4 -4,-504 144,-504 144,4 -4,4"/>
<!-- Node1 -->
<g id="node1" class="node">
<title>Node1</title>
<g id="a_node1"><a xlink:title=" ">
<polygon fill="#bfbfbf" stroke="black" points="7.5,-0.5 7.5,-68.5 132.5,-68.5 132.5,-0.5 7.5,-0.5"/>
<text text-anchor="start" x="15.5" y="-56.5" font-family="Helvetica,sans-Serif" font-size="10.00">task_promise_storage</text>
<text text-anchor="middle" x="70" y="-45.5" font-family="Helvetica,sans-Serif" font-size="10.00">&lt; void &gt;</text>
<polyline fill="none" stroke="black" points="7.5,-38.5 132.5,-38.5 "/>
<text text-anchor="middle" x="70" y="-26.5" font-family="Helvetica,sans-Serif" font-size="10.00"> </text>
<polyline fill="none" stroke="black" points="7.5,-19.5 132.5,-19.5 "/>
<text text-anchor="start" x="15.5" y="-7.5" font-family="Helvetica,sans-Serif" font-size="10.00">+ return_void()</text>
</a>
</g>
</g>
<!-- Node2 -->
<g id="node2" class="node">
<title>Node2</title>
<g id="a_node2"><a xlink:href="structmp__coro_1_1detail_1_1task__promise__storage__base.html" target="_top" xlink:title=" ">
<polygon fill="white" stroke="black" points="0,-105.5 0,-173.5 140,-173.5 140,-105.5 0,-105.5"/>
<text text-anchor="start" x="8" y="-161.5" font-family="Helvetica,sans-Serif" font-size="10.00">task_promise_storage</text>
<text text-anchor="middle" x="70" y="-150.5" font-family="Helvetica,sans-Serif" font-size="10.00">_base&lt; void &gt;</text>
<polyline fill="none" stroke="black" points="0,-143.5 140,-143.5 "/>
<text text-anchor="middle" x="70" y="-131.5" font-family="Helvetica,sans-Serif" font-size="10.00"> </text>
<polyline fill="none" stroke="black" points="0,-124.5 140,-124.5 "/>
<text text-anchor="start" x="8" y="-112.5" font-family="Helvetica,sans-Serif" font-size="10.00">+ unhandled_exception()</text>
</a>
</g>
</g>
<!-- Node2&#45;&gt;Node1 -->
<g id="edge1" class="edge">
<title>Node2&#45;&gt;Node1</title>
<path fill="none" stroke="midnightblue" d="M70,-95.14C70,-86.26 70,-77.04 70,-68.59"/>
<polygon fill="none" stroke="midnightblue" points="66.5,-95.34 70,-105.34 73.5,-95.34 66.5,-95.34"/>
</g>
<!-- Node3 -->
<g id="node3" class="node">
<title>Node3</title>
<g id="a_node3"><a xlink:href="classmp__coro_1_1detail_1_1nonvoid__storage.html" target="_top" xlink:title=" ">
<polygon fill="white" stroke="black" points="7,-210.5 7,-289.5 133,-289.5 133,-210.5 7,-210.5"/>
<text text-anchor="middle" x="70" y="-277.5" font-family="Helvetica,sans-Serif" font-size="10.00">nonvoid_storage&lt; T &gt;</text>
<polyline fill="none" stroke="black" points="7,-270.5 133,-270.5 "/>
<text text-anchor="middle" x="70" y="-258.5" font-family="Helvetica,sans-Serif" font-size="10.00"> </text>
<polyline fill="none" stroke="black" points="7,-251.5 133,-251.5 "/>
<text text-anchor="start" x="15" y="-239.5" font-family="Helvetica,sans-Serif" font-size="10.00">+ nonvoid_get()</text>
<text text-anchor="start" x="15" y="-228.5" font-family="Helvetica,sans-Serif" font-size="10.00">+ nonvoid_get()</text>
<text text-anchor="start" x="15" y="-217.5" font-family="Helvetica,sans-Serif" font-size="10.00">+ nonvoid_get()</text>
</a>
</g>
</g>
<!-- Node3&#45;&gt;Node2 -->
<g id="edge2" class="edge">
<title>Node3&#45;&gt;Node2</title>
<path fill="none" stroke="midnightblue" d="M70,-200.35C70,-191.28 70,-182 70,-173.54"/>
<polygon fill="none" stroke="midnightblue" points="66.5,-200.44 70,-210.44 73.5,-200.44 66.5,-200.44"/>
</g>
<!-- Node4 -->
<g id="node4" class="node">
<title>Node4</title>
<g id="a_node4"><a xlink:href="classmp__coro_1_1detail_1_1storage.html" target="_top" xlink:title="Storage class that can either contain a value, an exception, or be empty.">
<polygon fill="white" stroke="black" points="18,-326.5 18,-383.5 122,-383.5 122,-326.5 18,-326.5"/>
<text text-anchor="middle" x="70" y="-371.5" font-family="Helvetica,sans-Serif" font-size="10.00">storage&lt; T &gt;</text>
<polyline fill="none" stroke="black" points="18,-364.5 122,-364.5 "/>
<text text-anchor="middle" x="70" y="-352.5" font-family="Helvetica,sans-Serif" font-size="10.00"> </text>
<polyline fill="none" stroke="black" points="18,-345.5 122,-345.5 "/>
<text text-anchor="start" x="26" y="-333.5" font-family="Helvetica,sans-Serif" font-size="10.00">+ set_exception()</text>
</a>
</g>
</g>
<!-- Node4&#45;&gt;Node3 -->
<g id="edge3" class="edge">
<title>Node4&#45;&gt;Node3</title>
<path fill="none" stroke="midnightblue" d="M70,-316.16C70,-307.47 70,-298.23 70,-289.52"/>
<polygon fill="none" stroke="midnightblue" points="66.5,-316.4 70,-326.4 73.5,-316.4 66.5,-316.4"/>
</g>
<!-- Node5 -->
<g id="node5" class="node">
<title>Node5</title>
<g id="a_node5"><a xlink:href="classmp__coro_1_1detail_1_1storage__base.html" target="_top" xlink:title="Storage class that can either contain a value, an exception, or be empty.">
<polygon fill="white" stroke="black" points="15,-420.5 15,-499.5 125,-499.5 125,-420.5 15,-420.5"/>
<text text-anchor="middle" x="70" y="-487.5" font-family="Helvetica,sans-Serif" font-size="10.00">storage_base&lt; T &gt;</text>
<polyline fill="none" stroke="black" points="15,-480.5 125,-480.5 "/>
<text text-anchor="start" x="23" y="-468.5" font-family="Helvetica,sans-Serif" font-size="10.00"># result</text>
<polyline fill="none" stroke="black" points="15,-461.5 125,-461.5 "/>
<text text-anchor="start" x="23" y="-449.5" font-family="Helvetica,sans-Serif" font-size="10.00">+ set_value()</text>
<text text-anchor="start" x="23" y="-438.5" font-family="Helvetica,sans-Serif" font-size="10.00">+ get()</text>
<text text-anchor="start" x="23" y="-427.5" font-family="Helvetica,sans-Serif" font-size="10.00">+ get()</text>
</a>
</g>
</g>
<!-- Node5&#45;&gt;Node4 -->
<g id="edge4" class="edge">
<title>Node5&#45;&gt;Node4</title>
<path fill="none" stroke="midnightblue" d="M70,-410.16C70,-401.04 70,-391.81 70,-383.61"/>
<polygon fill="none" stroke="midnightblue" points="66.5,-410.35 70,-420.35 73.5,-410.35 66.5,-410.35"/>
</g>
</g>
</svg>
