<?xml version="1.0" encoding="UTF-8" standalone="no"?>
<!DOCTYPE svg PUBLIC "-//W3C//DTD SVG 1.1//EN"
 "http://www.w3.org/Graphics/SVG/1.1/DTD/svg11.dtd">
<!-- Generated by graphviz version 2.43.0 (0)
 -->
<!-- Title: task_promise_storage_base&lt; T &gt; Pages: 1 -->
<svg width="268pt" height="613pt"
 viewBox="0.00 0.00 268.00 613.00" xmlns="http://www.w3.org/2000/svg" xmlns:xlink="http://www.w3.org/1999/xlink">
<g id="graph0" class="graph" transform="scale(1 1) rotate(0) translate(4 609)">
<title>task_promise_storage_base&lt; T &gt;</title>
<polygon fill="white" stroke="transparent" points="-4,4 -4,-609 264,-609 264,4 -4,4"/>
<!-- Node1 -->
<g id="node1" class="node">
<title>Node1</title>
<g id="a_node1"><a xlink:title=" ">
<polygon fill="#bfbfbf" stroke="black" points="59.5,-210.5 59.5,-278.5 199.5,-278.5 199.5,-210.5 59.5,-210.5"/>
<text text-anchor="start" x="67.5" y="-266.5" font-family="Helvetica,sans-Serif" font-size="10.00">task_promise_storage</text>
<text text-anchor="middle" x="129.5" y="-255.5" font-family="Helvetica,sans-Serif" font-size="10.00">_base&lt; T &gt;</text>
<polyline fill="none" stroke="black" points="59.5,-248.5 199.5,-248.5 "/>
<text text-anchor="middle" x="129.5" y="-236.5" font-family="Helvetica,sans-Serif" font-size="10.00"> </text>
<polyline fill="none" stroke="black" points="59.5,-229.5 199.5,-229.5 "/>
<text text-anchor="start" x="67.5" y="-217.5" font-family="Helvetica,sans-Serif" font-size="10.00">+ unhandled_exception()</text>
</a>
</g>
</g>
<!-- Node5 -->
<g id="node5" class="node">
<title>Node5</title>
<g id="a_node5"><a xlink:href="structmp__coro_1_1detail_1_1task__promise__storage.html" target="_top" xlink:title=" ">
<polygon fill="white" stroke="black" points="53,-116.5 53,-173.5 206,-173.5 206,-116.5 53,-116.5"/>
<text text-anchor="middle" x="129.5" y="-161.5" font-family="Helvetica,sans-Serif" font-size="10.00">task_promise_storage&lt; T &gt;</text>
<polyline fill="none" stroke="black" points="53,-154.5 206,-154.5 "/>
<text text-anchor="middle" x="129.5" y="-142.5" font-family="Helvetica,sans-Serif" font-size="10.00"> </text>
<polyline fill="none" stroke="black" points="53,-135.5 206,-135.5 "/>
<text text-anchor="start" x="61" y="-123.5" font-family="Helvetica,sans-Serif" font-size="10.00">+ return_value()</text>
</a>
</g>
</g>
<!-- Node1&#45;&gt;Node5 -->
<g id="edge4" class="edge">
<title>Node1&#45;&gt;Node5</title>
<path fill="none" stroke="midnightblue" d="M129.5,-200.45C129.5,-191.4 129.5,-182.09 129.5,-173.78"/>
<polygon fill="none" stroke="midnightblue" points="126,-200.49 129.5,-210.49 133,-200.49 126,-200.49"/>
</g>
<!-- Node2 -->
<g id="node2" class="node">
<title>Node2</title>
<g id="a_node2"><a xlink:href="classmp__coro_1_1detail_1_1nonvoid__storage.html" target="_top" xlink:title=" ">
<polygon fill="white" stroke="black" points="66.5,-315.5 66.5,-394.5 192.5,-394.5 192.5,-315.5 66.5,-315.5"/>
<text text-anchor="middle" x="129.5" y="-382.5" font-family="Helvetica,sans-Serif" font-size="10.00">nonvoid_storage&lt; T &gt;</text>
<polyline fill="none" stroke="black" points="66.5,-375.5 192.5,-375.5 "/>
<text text-anchor="middle" x="129.5" y="-363.5" font-family="Helvetica,sans-Serif" font-size="10.00"> </text>
<polyline fill="none" stroke="black" points="66.5,-356.5 192.5,-356.5 "/>
<text text-anchor="start" x="74.5" y="-344.5" font-family="Helvetica,sans-Serif" font-size="10.00">+ nonvoid_get()</text>
<text text-anchor="start" x="74.5" y="-333.5" font-family="Helvetica,sans-Serif" font-size="10.00">+ nonvoid_get()</text>
<text text-anchor="start" x="74.5" y="-322.5" font-family="Helvetica,sans-Serif" font-size="10.00">+ nonvoid_get()</text>
</a>
</g>
</g>
<!-- Node2&#45;&gt;Node1 -->
<g id="edge1" class="edge">
<title>Node2&#45;&gt;Node1</title>
<path fill="none" stroke="midnightblue" d="M129.5,-305.35C129.5,-296.28 129.5,-287 129.5,-278.54"/>
<polygon fill="none" stroke="midnightblue" points="126,-305.44 129.5,-315.44 133,-305.44 126,-305.44"/>
</g>
<!-- Node3 -->
<g id="node3" class="node">
<title>Node3</title>
<g id="a_node3"><a xlink:href="classmp__coro_1_1detail_1_1storage.html" target="_top" xlink:title="Storage class that can either contain a value, an exception, or be empty.">
<polygon fill="white" stroke="black" points="77.5,-431.5 77.5,-488.5 181.5,-488.5 181.5,-431.5 77.5,-431.5"/>
<text text-anchor="middle" x="129.5" y="-476.5" font-family="Helvetica,sans-Serif" font-size="10.00">storage&lt; T &gt;</text>
<polyline fill="none" stroke="black" points="77.5,-469.5 181.5,-469.5 "/>
<text text-anchor="middle" x="129.5" y="-457.5" font-family="Helvetica,sans-Serif" font-size="10.00"> </text>
<polyline fill="none" stroke="black" points="77.5,-450.5 181.5,-450.5 "/>
<text text-anchor="start" x="85.5" y="-438.5" font-family="Helvetica,sans-Serif" font-size="10.00">+ set_exception()</text>
</a>
</g>
</g>
<!-- Node3&#45;&gt;Node2 -->
<g id="edge2" class="edge">
<title>Node3&#45;&gt;Node2</title>
<path fill="none" stroke="midnightblue" d="M129.5,-421.16C129.5,-412.47 129.5,-403.23 129.5,-394.52"/>
<polygon fill="none" stroke="midnightblue" points="126,-421.4 129.5,-431.4 133,-421.4 126,-421.4"/>
</g>
<!-- Node4 -->
<g id="node4" class="node">
<title>Node4</title>
<g id="a_node4"><a xlink:href="classmp__coro_1_1detail_1_1storage__base.html" target="_top" xlink:title="Storage class that can either contain a value, an exception, or be empty.">
<polygon fill="white" stroke="black" points="74.5,-525.5 74.5,-604.5 184.5,-604.5 184.5,-525.5 74.5,-525.5"/>
<text text-anchor="middle" x="129.5" y="-592.5" font-family="Helvetica,sans-Serif" font-size="10.00">storage_base&lt; T &gt;</text>
<polyline fill="none" stroke="black" points="74.5,-585.5 184.5,-585.5 "/>
<text text-anchor="start" x="82.5" y="-573.5" font-family="Helvetica,sans-Serif" font-size="10.00"># result</text>
<polyline fill="none" stroke="black" points="74.5,-566.5 184.5,-566.5 "/>
<text text-anchor="start" x="82.5" y="-554.5" font-family="Helvetica,sans-Serif" font-size="10.00">+ set_value()</text>
<text text-anchor="start" x="82.5" y="-543.5" font-family="Helvetica,sans-Serif" font-size="10.00">+ get()</text>
<text text-anchor="start" x="82.5" y="-532.5" font-family="Helvetica,sans-Serif" font-size="10.00">+ get()</text>
</a>
</g>
</g>
<!-- Node4&#45;&gt;Node3 -->
<g id="edge3" class="edge">
<title>Node4&#45;&gt;Node3</title>
<path fill="none" stroke="midnightblue" d="M129.5,-515.16C129.5,-506.04 129.5,-496.81 129.5,-488.61"/>
<polygon fill="none" stroke="midnightblue" points="126,-515.35 129.5,-525.35 133,-515.35 126,-515.35"/>
</g>
<!-- Node6 -->
<g id="node6" class="node">
<title>Node6</title>
<g id="a_node6"><a xlink:href="structmp__coro_1_1detail_1_1synchronized__task_1_1promise__type.html" target="_top" xlink:title="Required promise type for coroutines returning a synchronized_task.">
<polygon fill="white" stroke="black" points="0,-0.5 0,-79.5 121,-79.5 121,-0.5 0,-0.5"/>
<text text-anchor="middle" x="60.5" y="-67.5" font-family="Helvetica,sans-Serif" font-size="10.00">promise_type</text>
<polyline fill="none" stroke="black" points="0,-60.5 121,-60.5 "/>
<text text-anchor="start" x="8" y="-48.5" font-family="Helvetica,sans-Serif" font-size="10.00">+ sync</text>
<polyline fill="none" stroke="black" points="0,-41.5 121,-41.5 "/>
<text text-anchor="start" x="8" y="-29.5" font-family="Helvetica,sans-Serif" font-size="10.00">+ get_return_object()</text>
<text text-anchor="start" x="8" y="-18.5" font-family="Helvetica,sans-Serif" font-size="10.00">+ initial_suspend()</text>
<text text-anchor="start" x="8" y="-7.5" font-family="Helvetica,sans-Serif" font-size="10.00">+ final_suspend()</text>
</a>
</g>
</g>
<!-- Node5&#45;&gt;Node6 -->
<g id="edge5" class="edge">
<title>Node5&#45;&gt;Node6</title>
<path fill="none" stroke="midnightblue" d="M105.29,-107.87C99.15,-98.69 92.53,-88.81 86.3,-79.52"/>
<polygon fill="none" stroke="midnightblue" points="102.54,-110.04 111.01,-116.4 108.35,-106.14 102.54,-110.04"/>
</g>
<!-- Node7 -->
<g id="node7" class="node">
<title>Node7</title>
<g id="a_node7"><a xlink:href="structmp__coro_1_1task_1_1promise__type.html" target="_top" xlink:title="Required promise type for coroutines returning a task.">
<polygon fill="white" stroke="black" points="139,-0.5 139,-79.5 260,-79.5 260,-0.5 139,-0.5"/>
<text text-anchor="middle" x="199.5" y="-67.5" font-family="Helvetica,sans-Serif" font-size="10.00">promise_type</text>
<polyline fill="none" stroke="black" points="139,-60.5 260,-60.5 "/>
<text text-anchor="start" x="147" y="-48.5" font-family="Helvetica,sans-Serif" font-size="10.00">+ continuation</text>
<polyline fill="none" stroke="black" points="139,-41.5 260,-41.5 "/>
<text text-anchor="start" x="147" y="-29.5" font-family="Helvetica,sans-Serif" font-size="10.00">+ get_return_object()</text>
<text text-anchor="start" x="147" y="-18.5" font-family="Helvetica,sans-Serif" font-size="10.00">+ initial_suspend()</text>
<text text-anchor="start" x="147" y="-7.5" font-family="Helvetica,sans-Serif" font-size="10.00">+ final_suspend()</text>
</a>
</g>
</g>
<!-- Node5&#45;&gt;Node7 -->
<g id="edge6" class="edge">
<title>Node5&#45;&gt;Node7</title>
<path fill="none" stroke="midnightblue" d="M154.06,-107.87C160.29,-98.69 167.01,-88.81 173.32,-79.52"/>
<polygon fill="none" stroke="midnightblue" points="150.98,-106.16 148.26,-116.4 156.77,-110.09 150.98,-106.16"/>
</g>
</g>
</svg>
