<?xml version="1.0" encoding="UTF-8" standalone="no"?>
<!DOCTYPE svg PUBLIC "-//W3C//DTD SVG 1.1//EN"
 "http://www.w3.org/Graphics/SVG/1.1/DTD/svg11.dtd">
<!-- Generated by graphviz version 2.43.0 (0)
 -->
<!-- Title: await_resume Pages: 1 -->
<svg width="270pt" height="100pt"
 viewBox="0.00 0.00 270.00 99.50" xmlns="http://www.w3.org/2000/svg" xmlns:xlink="http://www.w3.org/1999/xlink">
<g id="graph0" class="graph" transform="scale(1 1) rotate(0) translate(4 95.5)">
<title>await_resume</title>
<polygon fill="white" stroke="transparent" points="-4,4 -4,-95.5 266,-95.5 266,4 -4,4"/>
<!-- Node1 -->
<g id="node1" class="node">
<title>Node1</title>
<g id="a_node1"><a xlink:title="Return the value of the task&#39;s promise.">
<polygon fill="#bfbfbf" stroke="black" points="176,-33 176,-52 262,-52 262,-33 176,-33"/>
<text text-anchor="middle" x="219" y="-40" font-family="Helvetica,sans-Serif" font-size="10.00">await_resume</text>
</a>
</g>
</g>
<!-- Node2 -->
<g id="node2" class="node">
<title>Node2</title>
<g id="a_node2"><a xlink:href="structmp__coro_1_1detail_1_1when__all__awaitable.html#a41cc5ea5dd6aaa94fc81dc0a76facb60" target="_top" xlink:title=" ">
<polygon fill="white" stroke="black" points="3,-50 3,-91 137,-91 137,-50 3,-50"/>
<text text-anchor="start" x="11" y="-79" font-family="Helvetica,sans-Serif" font-size="10.00">mp_coro::detail::when</text>
<text text-anchor="start" x="11" y="-68" font-family="Helvetica,sans-Serif" font-size="10.00">_all_awaitable::operator</text>
<text text-anchor="middle" x="70" y="-57" font-family="Helvetica,sans-Serif" font-size="10.00"> co_await</text>
</a>
</g>
</g>
<!-- Node1&#45;&gt;Node2 -->
<g id="edge1" class="edge">
<title>Node1&#45;&gt;Node2</title>
<path fill="none" stroke="midnightblue" d="M166.01,-52.4C156.71,-54.17 146.91,-56.04 137.27,-57.88"/>
<polygon fill="midnightblue" stroke="midnightblue" points="166.71,-55.83 175.88,-50.52 165.4,-48.96 166.71,-55.83"/>
</g>
<!-- Node3 -->
<g id="node3" class="node">
<title>Node3</title>
<g id="a_node3"><a xlink:href="classmp__coro_1_1async.html#a2c5b02a3e9d6dee7dd5185de8791a2b2" target="_top" xlink:title=" ">
<polygon fill="white" stroke="black" points="0,-0.5 0,-30.5 140,-30.5 140,-0.5 0,-0.5"/>
<text text-anchor="start" x="8" y="-18.5" font-family="Helvetica,sans-Serif" font-size="10.00">mp_coro::async::operator</text>
<text text-anchor="middle" x="70" y="-7.5" font-family="Helvetica,sans-Serif" font-size="10.00"> co_await</text>
</a>
</g>
</g>
<!-- Node1&#45;&gt;Node3 -->
<g id="edge2" class="edge">
<title>Node1&#45;&gt;Node3</title>
<path fill="none" stroke="midnightblue" d="M165.9,-32.93C157.52,-31.39 148.75,-29.78 140.05,-28.18"/>
<polygon fill="midnightblue" stroke="midnightblue" points="165.41,-36.4 175.88,-34.76 166.67,-29.51 165.41,-36.4"/>
</g>
</g>
</svg>
