<?xml version="1.0" encoding="UTF-8" standalone="no"?>
<!DOCTYPE svg PUBLIC "-//W3C//DTD SVG 1.1//EN"
 "http://www.w3.org/Graphics/SVG/1.1/DTD/svg11.dtd">
<!-- Generated by graphviz version 2.43.0 (0)
 -->
<!-- Title: operator co_await Pages: 1 -->
<svg width="610pt" height="88pt"
 viewBox="0.00 0.00 610.00 88.00" xmlns="http://www.w3.org/2000/svg" xmlns:xlink="http://www.w3.org/1999/xlink">
<g id="graph0" class="graph" transform="scale(1 1) rotate(0) translate(4 84)">
<title>operator co_await</title>
<polygon fill="white" stroke="transparent" points="-4,4 -4,-84 606,-84 606,4 -4,4"/>
<!-- Node1 -->
<g id="node1" class="node">
<title>Node1</title>
<g id="a_node1"><a xlink:title=" ">
<polygon fill="#bfbfbf" stroke="black" points="0,-30 0,-49 104,-49 104,-30 0,-30"/>
<text text-anchor="middle" x="52" y="-37" font-family="Helvetica,sans-Serif" font-size="10.00">operator co_await</text>
</a>
</g>
</g>
<!-- Node2 -->
<g id="node2" class="node">
<title>Node2</title>
<g id="a_node2"><a xlink:href="structmp__coro_1_1task_1_1awaiter.html#a3ffaa5cd66a8d18b91ed92bac4a31858" target="_top" xlink:title="Return the value of the task&#39;s promise.">
<polygon fill="white" stroke="black" points="140,-49.5 140,-79.5 268,-79.5 268,-49.5 140,-49.5"/>
<text text-anchor="start" x="148" y="-67.5" font-family="Helvetica,sans-Serif" font-size="10.00">mp_coro::task::awaiter</text>
<text text-anchor="middle" x="204" y="-56.5" font-family="Helvetica,sans-Serif" font-size="10.00">::await_resume</text>
</a>
</g>
</g>
<!-- Node1&#45;&gt;Node2 -->
<g id="edge1" class="edge">
<title>Node1&#45;&gt;Node2</title>
<path fill="none" stroke="midnightblue" d="M104.2,-48.03C112.44,-49.41 121.1,-50.85 129.73,-52.29"/>
<polygon fill="midnightblue" stroke="midnightblue" points="129.38,-55.78 139.82,-53.97 130.53,-48.87 129.38,-55.78"/>
</g>
<!-- Node5 -->
<g id="node5" class="node">
<title>Node5</title>
<g id="a_node5"><a xlink:href="namespacemp__coro_1_1detail.html#a6748457c3f2853438dabcd91590e0af4" target="_top" xlink:title=" ">
<polygon fill="white" stroke="black" points="141.5,-0.5 141.5,-30.5 266.5,-30.5 266.5,-0.5 141.5,-0.5"/>
<text text-anchor="start" x="149.5" y="-18.5" font-family="Helvetica,sans-Serif" font-size="10.00">mp_coro::detail::make</text>
<text text-anchor="middle" x="204" y="-7.5" font-family="Helvetica,sans-Serif" font-size="10.00">_all_results</text>
</a>
</g>
</g>
<!-- Node1&#45;&gt;Node5 -->
<g id="edge4" class="edge">
<title>Node1&#45;&gt;Node5</title>
<path fill="none" stroke="midnightblue" d="M104.2,-31.31C112.99,-29.9 122.26,-28.42 131.47,-26.94"/>
<polygon fill="midnightblue" stroke="midnightblue" points="132.08,-30.39 141.4,-25.36 130.98,-23.48 132.08,-30.39"/>
</g>
<!-- Node3 -->
<g id="node3" class="node">
<title>Node3</title>
<g id="a_node3"><a xlink:href="classmp__coro_1_1detail_1_1storage__base.html#a12a244caa425ee3044a5b8d6448d9fb1" target="_top" xlink:title=" ">
<polygon fill="white" stroke="black" points="304,-49.5 304,-79.5 439,-79.5 439,-49.5 304,-49.5"/>
<text text-anchor="start" x="312" y="-67.5" font-family="Helvetica,sans-Serif" font-size="10.00">mp_coro::detail::storage</text>
<text text-anchor="middle" x="371.5" y="-56.5" font-family="Helvetica,sans-Serif" font-size="10.00">_base::get</text>
</a>
</g>
</g>
<!-- Node2&#45;&gt;Node3 -->
<g id="edge2" class="edge">
<title>Node2&#45;&gt;Node3</title>
<path fill="none" stroke="midnightblue" d="M268.04,-64.5C276.44,-64.5 285.14,-64.5 293.74,-64.5"/>
<polygon fill="midnightblue" stroke="midnightblue" points="293.78,-68 303.78,-64.5 293.78,-61 293.78,-68"/>
</g>
<!-- Node4 -->
<g id="node4" class="node">
<title>Node4</title>
<g id="a_node4"><a xlink:href="namespacemp__coro_1_1detail.html#a014f571ae69c39715af7439c8abe52cc" target="_top" xlink:title="If rethrow contains an exception, rethrow it.">
<polygon fill="white" stroke="black" points="475,-49.5 475,-79.5 602,-79.5 602,-49.5 475,-49.5"/>
<text text-anchor="start" x="483" y="-67.5" font-family="Helvetica,sans-Serif" font-size="10.00">mp_coro::detail::check</text>
<text text-anchor="middle" x="538.5" y="-56.5" font-family="Helvetica,sans-Serif" font-size="10.00">_and_rethrow</text>
</a>
</g>
</g>
<!-- Node3&#45;&gt;Node4 -->
<g id="edge3" class="edge">
<title>Node3&#45;&gt;Node4</title>
<path fill="none" stroke="midnightblue" d="M439.14,-64.5C447.53,-64.5 456.15,-64.5 464.63,-64.5"/>
<polygon fill="midnightblue" stroke="midnightblue" points="464.89,-68 474.89,-64.5 464.89,-61 464.89,-68"/>
</g>
</g>
</svg>
