<?xml version="1.0" encoding="UTF-8" standalone="no"?>
<!DOCTYPE svg PUBLIC "-//W3C//DTD SVG 1.1//EN"
 "http://www.w3.org/Graphics/SVG/1.1/DTD/svg11.dtd">
<!-- Generated by graphviz version 2.43.0 (0)
 -->
<!-- Title: generator&lt; T &gt;::promise_type Pages: 1 -->
<svg width="173pt" height="248pt"
 viewBox="0.00 0.00 173.00 248.00" xmlns="http://www.w3.org/2000/svg" xmlns:xlink="http://www.w3.org/1999/xlink">
<g id="graph0" class="graph" transform="scale(1 1) rotate(0) translate(4 244)">
<title>generator&lt; T &gt;::promise_type</title>
<polygon fill="white" stroke="transparent" points="-4,4 -4,-244 169,-244 169,4 -4,4"/>
<!-- Node1 -->
<g id="node1" class="node">
<title>Node1</title>
<g id="a_node1"><a xlink:title=" ">
<polygon fill="#bfbfbf" stroke="black" points="0,-0.5 0,-123.5 165,-123.5 165,-0.5 0,-0.5"/>
<text text-anchor="middle" x="82.5" y="-111.5" font-family="Helvetica,sans-Serif" font-size="10.00">generator&lt; T &gt;::promise_type</text>
<polyline fill="none" stroke="black" points="0,-104.5 165,-104.5 "/>
<text text-anchor="start" x="8" y="-92.5" font-family="Helvetica,sans-Serif" font-size="10.00">+ value</text>
<polyline fill="none" stroke="black" points="0,-85.5 165,-85.5 "/>
<text text-anchor="start" x="8" y="-73.5" font-family="Helvetica,sans-Serif" font-size="10.00">+ get_return_object()</text>
<text text-anchor="start" x="8" y="-62.5" font-family="Helvetica,sans-Serif" font-size="10.00">+ yield_value()</text>
<text text-anchor="start" x="8" y="-51.5" font-family="Helvetica,sans-Serif" font-size="10.00">+ unhandled_exception()</text>
<text text-anchor="start" x="8" y="-40.5" font-family="Helvetica,sans-Serif" font-size="10.00">+ await_transform()</text>
<text text-anchor="start" x="8" y="-29.5" font-family="Helvetica,sans-Serif" font-size="10.00">+ initial_suspend()</text>
<text text-anchor="start" x="8" y="-18.5" font-family="Helvetica,sans-Serif" font-size="10.00">+ final_suspend()</text>
<text text-anchor="start" x="8" y="-7.5" font-family="Helvetica,sans-Serif" font-size="10.00">+ return_void()</text>
</a>
</g>
</g>
<!-- Node2 -->
<g id="node2" class="node">
<title>Node2</title>
<g id="a_node2"><a xlink:href="structmp__coro_1_1detail_1_1noncopyable.html" target="_top" xlink:title="Base class with deleted copy constructor and copy assignment operator.">
<polygon fill="white" stroke="black" points="33.5,-160.5 33.5,-239.5 131.5,-239.5 131.5,-160.5 33.5,-160.5"/>
<text text-anchor="middle" x="82.5" y="-227.5" font-family="Helvetica,sans-Serif" font-size="10.00">noncopyable</text>
<polyline fill="none" stroke="black" points="33.5,-220.5 131.5,-220.5 "/>
<text text-anchor="middle" x="82.5" y="-208.5" font-family="Helvetica,sans-Serif" font-size="10.00"> </text>
<polyline fill="none" stroke="black" points="33.5,-201.5 131.5,-201.5 "/>
<text text-anchor="start" x="41.5" y="-189.5" font-family="Helvetica,sans-Serif" font-size="10.00">+ noncopyable()</text>
<text text-anchor="start" x="41.5" y="-178.5" font-family="Helvetica,sans-Serif" font-size="10.00">+ noncopyable()</text>
<text text-anchor="start" x="41.5" y="-167.5" font-family="Helvetica,sans-Serif" font-size="10.00">+ operator=()</text>
</a>
</g>
</g>
<!-- Node2&#45;&gt;Node1 -->
<g id="edge1" class="edge">
<title>Node2&#45;&gt;Node1</title>
<path fill="none" stroke="#8b1a1a" d="M82.5,-150.14C82.5,-141.53 82.5,-132.47 82.5,-123.57"/>
<polygon fill="none" stroke="#8b1a1a" points="79,-150.39 82.5,-160.39 86,-150.39 79,-150.39"/>
</g>
</g>
</svg>
