<?xml version="1.0" encoding="UTF-8" standalone="no"?>
<!DOCTYPE svg PUBLIC "-//W3C//DTD SVG 1.1//EN"
 "http://www.w3.org/Graphics/SVG/1.1/DTD/svg11.dtd">
<!-- Generated by graphviz version 2.43.0 (0)
 -->
<!-- Title: task&lt; T, Allocator &gt;::promise_type Pages: 1 -->
<svg width="278pt" height="646pt"
 viewBox="0.00 0.00 277.50 646.00" xmlns="http://www.w3.org/2000/svg" xmlns:xlink="http://www.w3.org/1999/xlink">
<g id="graph0" class="graph" transform="scale(1 1) rotate(0) translate(4 642)">
<title>task&lt; T, Allocator &gt;::promise_type</title>
<polygon fill="white" stroke="transparent" points="-4,4 -4,-642 273.5,-642 273.5,4 -4,4"/>
<!-- Node1 -->
<g id="node1" class="node">
<title>Node1</title>
<g id="a_node1"><a xlink:title="Required promise type for coroutines returning a task.">
<polygon fill="#bfbfbf" stroke="black" points="60.5,-0.5 60.5,-90.5 181.5,-90.5 181.5,-0.5 60.5,-0.5"/>
<text text-anchor="start" x="68.5" y="-78.5" font-family="Helvetica,sans-Serif" font-size="10.00">task&lt; T, Allocator</text>
<text text-anchor="middle" x="121" y="-67.5" font-family="Helvetica,sans-Serif" font-size="10.00"> &gt;::promise_type</text>
<polyline fill="none" stroke="black" points="60.5,-60.5 181.5,-60.5 "/>
<text text-anchor="start" x="68.5" y="-48.5" font-family="Helvetica,sans-Serif" font-size="10.00">+ continuation</text>
<polyline fill="none" stroke="black" points="60.5,-41.5 181.5,-41.5 "/>
<text text-anchor="start" x="68.5" y="-29.5" font-family="Helvetica,sans-Serif" font-size="10.00">+ get_return_object()</text>
<text text-anchor="start" x="68.5" y="-18.5" font-family="Helvetica,sans-Serif" font-size="10.00">+ initial_suspend()</text>
<text text-anchor="start" x="68.5" y="-7.5" font-family="Helvetica,sans-Serif" font-size="10.00">+ final_suspend()</text>
</a>
</g>
</g>
<!-- Node2 -->
<g id="node2" class="node">
<title>Node2</title>
<g id="a_node2"><a xlink:href="structmp__coro_1_1detail_1_1noncopyable.html" target="_top" xlink:title="Base class with deleted copy constructor and copy assignment operator.">
<polygon fill="white" stroke="black" points="0,-127.5 0,-206.5 98,-206.5 98,-127.5 0,-127.5"/>
<text text-anchor="middle" x="49" y="-194.5" font-family="Helvetica,sans-Serif" font-size="10.00">noncopyable</text>
<polyline fill="none" stroke="black" points="0,-187.5 98,-187.5 "/>
<text text-anchor="middle" x="49" y="-175.5" font-family="Helvetica,sans-Serif" font-size="10.00"> </text>
<polyline fill="none" stroke="black" points="0,-168.5 98,-168.5 "/>
<text text-anchor="start" x="8" y="-156.5" font-family="Helvetica,sans-Serif" font-size="10.00">+ noncopyable()</text>
<text text-anchor="start" x="8" y="-145.5" font-family="Helvetica,sans-Serif" font-size="10.00">+ noncopyable()</text>
<text text-anchor="start" x="8" y="-134.5" font-family="Helvetica,sans-Serif" font-size="10.00">+ operator=()</text>
</a>
</g>
</g>
<!-- Node2&#45;&gt;Node1 -->
<g id="edge1" class="edge">
<title>Node2&#45;&gt;Node1</title>
<path fill="none" stroke="#8b1a1a" d="M77.56,-118.6C83.06,-109.47 88.8,-99.94 94.24,-90.91"/>
<polygon fill="none" stroke="#8b1a1a" points="74.54,-116.83 72.38,-127.2 80.54,-120.44 74.54,-116.83"/>
</g>
<!-- Node3 -->
<g id="node3" class="node">
<title>Node3</title>
<g id="a_node3"><a xlink:href="structmp__coro_1_1detail_1_1task__promise__storage.html" target="_top" xlink:title=" ">
<polygon fill="white" stroke="black" points="116.5,-138.5 116.5,-195.5 269.5,-195.5 269.5,-138.5 116.5,-138.5"/>
<text text-anchor="middle" x="193" y="-183.5" font-family="Helvetica,sans-Serif" font-size="10.00">task_promise_storage&lt; T &gt;</text>
<polyline fill="none" stroke="black" points="116.5,-176.5 269.5,-176.5 "/>
<text text-anchor="middle" x="193" y="-164.5" font-family="Helvetica,sans-Serif" font-size="10.00"> </text>
<polyline fill="none" stroke="black" points="116.5,-157.5 269.5,-157.5 "/>
<text text-anchor="start" x="124.5" y="-145.5" font-family="Helvetica,sans-Serif" font-size="10.00">+ return_value()</text>
</a>
</g>
</g>
<!-- Node3&#45;&gt;Node1 -->
<g id="edge2" class="edge">
<title>Node3&#45;&gt;Node1</title>
<path fill="none" stroke="midnightblue" d="M171.13,-129.69C163.76,-117.47 155.46,-103.69 147.76,-90.91"/>
<polygon fill="none" stroke="midnightblue" points="168.14,-131.52 176.3,-138.28 174.14,-127.91 168.14,-131.52"/>
</g>
<!-- Node4 -->
<g id="node4" class="node">
<title>Node4</title>
<g id="a_node4"><a xlink:href="structmp__coro_1_1detail_1_1task__promise__storage__base.html" target="_top" xlink:title=" ">
<polygon fill="white" stroke="black" points="123,-243.5 123,-311.5 263,-311.5 263,-243.5 123,-243.5"/>
<text text-anchor="start" x="131" y="-299.5" font-family="Helvetica,sans-Serif" font-size="10.00">task_promise_storage</text>
<text text-anchor="middle" x="193" y="-288.5" font-family="Helvetica,sans-Serif" font-size="10.00">_base&lt; T &gt;</text>
<polyline fill="none" stroke="black" points="123,-281.5 263,-281.5 "/>
<text text-anchor="middle" x="193" y="-269.5" font-family="Helvetica,sans-Serif" font-size="10.00"> </text>
<polyline fill="none" stroke="black" points="123,-262.5 263,-262.5 "/>
<text text-anchor="start" x="131" y="-250.5" font-family="Helvetica,sans-Serif" font-size="10.00">+ unhandled_exception()</text>
</a>
</g>
</g>
<!-- Node4&#45;&gt;Node3 -->
<g id="edge3" class="edge">
<title>Node4&#45;&gt;Node3</title>
<path fill="none" stroke="midnightblue" d="M193,-233.06C193,-220.51 193,-207.15 193,-195.83"/>
<polygon fill="none" stroke="midnightblue" points="189.5,-233.36 193,-243.36 196.5,-233.36 189.5,-233.36"/>
</g>
<!-- Node5 -->
<g id="node5" class="node">
<title>Node5</title>
<g id="a_node5"><a xlink:href="classmp__coro_1_1detail_1_1nonvoid__storage.html" target="_top" xlink:title=" ">
<polygon fill="white" stroke="black" points="130,-348.5 130,-427.5 256,-427.5 256,-348.5 130,-348.5"/>
<text text-anchor="middle" x="193" y="-415.5" font-family="Helvetica,sans-Serif" font-size="10.00">nonvoid_storage&lt; T &gt;</text>
<polyline fill="none" stroke="black" points="130,-408.5 256,-408.5 "/>
<text text-anchor="middle" x="193" y="-396.5" font-family="Helvetica,sans-Serif" font-size="10.00"> </text>
<polyline fill="none" stroke="black" points="130,-389.5 256,-389.5 "/>
<text text-anchor="start" x="138" y="-377.5" font-family="Helvetica,sans-Serif" font-size="10.00">+ nonvoid_get()</text>
<text text-anchor="start" x="138" y="-366.5" font-family="Helvetica,sans-Serif" font-size="10.00">+ nonvoid_get()</text>
<text text-anchor="start" x="138" y="-355.5" font-family="Helvetica,sans-Serif" font-size="10.00">+ nonvoid_get()</text>
</a>
</g>
</g>
<!-- Node5&#45;&gt;Node4 -->
<g id="edge4" class="edge">
<title>Node5&#45;&gt;Node4</title>
<path fill="none" stroke="midnightblue" d="M193,-338.35C193,-329.28 193,-320 193,-311.54"/>
<polygon fill="none" stroke="midnightblue" points="189.5,-338.44 193,-348.44 196.5,-338.44 189.5,-338.44"/>
</g>
<!-- Node6 -->
<g id="node6" class="node">
<title>Node6</title>
<g id="a_node6"><a xlink:href="classmp__coro_1_1detail_1_1storage.html" target="_top" xlink:title="Storage class that can either contain a value, an exception, or be empty.">
<polygon fill="white" stroke="black" points="141,-464.5 141,-521.5 245,-521.5 245,-464.5 141,-464.5"/>
<text text-anchor="middle" x="193" y="-509.5" font-family="Helvetica,sans-Serif" font-size="10.00">storage&lt; T &gt;</text>
<polyline fill="none" stroke="black" points="141,-502.5 245,-502.5 "/>
<text text-anchor="middle" x="193" y="-490.5" font-family="Helvetica,sans-Serif" font-size="10.00"> </text>
<polyline fill="none" stroke="black" points="141,-483.5 245,-483.5 "/>
<text text-anchor="start" x="149" y="-471.5" font-family="Helvetica,sans-Serif" font-size="10.00">+ set_exception()</text>
</a>
</g>
</g>
<!-- Node6&#45;&gt;Node5 -->
<g id="edge5" class="edge">
<title>Node6&#45;&gt;Node5</title>
<path fill="none" stroke="midnightblue" d="M193,-454.16C193,-445.47 193,-436.23 193,-427.52"/>
<polygon fill="none" stroke="midnightblue" points="189.5,-454.4 193,-464.4 196.5,-454.4 189.5,-454.4"/>
</g>
<!-- Node7 -->
<g id="node7" class="node">
<title>Node7</title>
<g id="a_node7"><a xlink:href="classmp__coro_1_1detail_1_1storage__base.html" target="_top" xlink:title="Storage class that can either contain a value, an exception, or be empty.">
<polygon fill="white" stroke="black" points="138,-558.5 138,-637.5 248,-637.5 248,-558.5 138,-558.5"/>
<text text-anchor="middle" x="193" y="-625.5" font-family="Helvetica,sans-Serif" font-size="10.00">storage_base&lt; T &gt;</text>
<polyline fill="none" stroke="black" points="138,-618.5 248,-618.5 "/>
<text text-anchor="start" x="146" y="-606.5" font-family="Helvetica,sans-Serif" font-size="10.00"># result</text>
<polyline fill="none" stroke="black" points="138,-599.5 248,-599.5 "/>
<text text-anchor="start" x="146" y="-587.5" font-family="Helvetica,sans-Serif" font-size="10.00">+ set_value()</text>
<text text-anchor="start" x="146" y="-576.5" font-family="Helvetica,sans-Serif" font-size="10.00">+ get()</text>
<text text-anchor="start" x="146" y="-565.5" font-family="Helvetica,sans-Serif" font-size="10.00">+ get()</text>
</a>
</g>
</g>
<!-- Node7&#45;&gt;Node6 -->
<g id="edge6" class="edge">
<title>Node7&#45;&gt;Node6</title>
<path fill="none" stroke="midnightblue" d="M193,-548.16C193,-539.04 193,-529.81 193,-521.61"/>
<polygon fill="none" stroke="midnightblue" points="189.5,-548.35 193,-558.35 196.5,-548.35 189.5,-548.35"/>
</g>
</g>
</svg>
