<?xml version="1.0" encoding="UTF-8" standalone="no"?>
<!DOCTYPE svg PUBLIC "-//W3C//DTD SVG 1.1//EN"
 "http://www.w3.org/Graphics/SVG/1.1/DTD/svg11.dtd">
<!-- Generated by graphviz version 2.43.0 (0)
 -->
<!-- Title: task_promise_storage&lt; T &gt; Pages: 1 -->
<svg width="161pt" height="497pt"
 viewBox="0.00 0.00 161.00 497.00" xmlns="http://www.w3.org/2000/svg" xmlns:xlink="http://www.w3.org/1999/xlink">
<g id="graph0" class="graph" transform="scale(1 1) rotate(0) translate(4 493)">
<title>task_promise_storage&lt; T &gt;</title>
<polygon fill="white" stroke="transparent" points="-4,4 -4,-493 157,-493 157,4 -4,4"/>
<!-- Node1 -->
<g id="node1" class="node">
<title>Node1</title>
<g id="a_node1"><a xlink:title=" ">
<polygon fill="#bfbfbf" stroke="black" points="0,-0.5 0,-57.5 153,-57.5 153,-0.5 0,-0.5"/>
<text text-anchor="middle" x="76.5" y="-45.5" font-family="Helvetica,sans-Serif" font-size="10.00">task_promise_storage&lt; T &gt;</text>
<polyline fill="none" stroke="black" points="0,-38.5 153,-38.5 "/>
<text text-anchor="middle" x="76.5" y="-26.5" font-family="Helvetica,sans-Serif" font-size="10.00"> </text>
<polyline fill="none" stroke="black" points="0,-19.5 153,-19.5 "/>
<text text-anchor="start" x="8" y="-7.5" font-family="Helvetica,sans-Serif" font-size="10.00">+ return_value()</text>
</a>
</g>
</g>
<!-- Node2 -->
<g id="node2" class="node">
<title>Node2</title>
<g id="a_node2"><a xlink:href="structmp__coro_1_1detail_1_1task__promise__storage__base.html" target="_top" xlink:title=" ">
<polygon fill="white" stroke="black" points="6.5,-94.5 6.5,-162.5 146.5,-162.5 146.5,-94.5 6.5,-94.5"/>
<text text-anchor="start" x="14.5" y="-150.5" font-family="Helvetica,sans-Serif" font-size="10.00">task_promise_storage</text>
<text text-anchor="middle" x="76.5" y="-139.5" font-family="Helvetica,sans-Serif" font-size="10.00">_base&lt; T &gt;</text>
<polyline fill="none" stroke="black" points="6.5,-132.5 146.5,-132.5 "/>
<text text-anchor="middle" x="76.5" y="-120.5" font-family="Helvetica,sans-Serif" font-size="10.00"> </text>
<polyline fill="none" stroke="black" points="6.5,-113.5 146.5,-113.5 "/>
<text text-anchor="start" x="14.5" y="-101.5" font-family="Helvetica,sans-Serif" font-size="10.00">+ unhandled_exception()</text>
</a>
</g>
</g>
<!-- Node2&#45;&gt;Node1 -->
<g id="edge1" class="edge">
<title>Node2&#45;&gt;Node1</title>
<path fill="none" stroke="midnightblue" d="M76.5,-84.45C76.5,-75.4 76.5,-66.09 76.5,-57.78"/>
<polygon fill="none" stroke="midnightblue" points="73,-84.49 76.5,-94.49 80,-84.49 73,-84.49"/>
</g>
<!-- Node3 -->
<g id="node3" class="node">
<title>Node3</title>
<g id="a_node3"><a xlink:href="classmp__coro_1_1detail_1_1nonvoid__storage.html" target="_top" xlink:title=" ">
<polygon fill="white" stroke="black" points="13.5,-199.5 13.5,-278.5 139.5,-278.5 139.5,-199.5 13.5,-199.5"/>
<text text-anchor="middle" x="76.5" y="-266.5" font-family="Helvetica,sans-Serif" font-size="10.00">nonvoid_storage&lt; T &gt;</text>
<polyline fill="none" stroke="black" points="13.5,-259.5 139.5,-259.5 "/>
<text text-anchor="middle" x="76.5" y="-247.5" font-family="Helvetica,sans-Serif" font-size="10.00"> </text>
<polyline fill="none" stroke="black" points="13.5,-240.5 139.5,-240.5 "/>
<text text-anchor="start" x="21.5" y="-228.5" font-family="Helvetica,sans-Serif" font-size="10.00">+ nonvoid_get()</text>
<text text-anchor="start" x="21.5" y="-217.5" font-family="Helvetica,sans-Serif" font-size="10.00">+ nonvoid_get()</text>
<text text-anchor="start" x="21.5" y="-206.5" font-family="Helvetica,sans-Serif" font-size="10.00">+ nonvoid_get()</text>
</a>
</g>
</g>
<!-- Node3&#45;&gt;Node2 -->
<g id="edge2" class="edge">
<title>Node3&#45;&gt;Node2</title>
<path fill="none" stroke="midnightblue" d="M76.5,-189.35C76.5,-180.28 76.5,-171 76.5,-162.54"/>
<polygon fill="none" stroke="midnightblue" points="73,-189.44 76.5,-199.44 80,-189.44 73,-189.44"/>
</g>
<!-- Node4 -->
<g id="node4" class="node">
<title>Node4</title>
<g id="a_node4"><a xlink:href="classmp__coro_1_1detail_1_1storage.html" target="_top" xlink:title="Storage class that can either contain a value, an exception, or be empty.">
<polygon fill="white" stroke="black" points="24.5,-315.5 24.5,-372.5 128.5,-372.5 128.5,-315.5 24.5,-315.5"/>
<text text-anchor="middle" x="76.5" y="-360.5" font-family="Helvetica,sans-Serif" font-size="10.00">storage&lt; T &gt;</text>
<polyline fill="none" stroke="black" points="24.5,-353.5 128.5,-353.5 "/>
<text text-anchor="middle" x="76.5" y="-341.5" font-family="Helvetica,sans-Serif" font-size="10.00"> </text>
<polyline fill="none" stroke="black" points="24.5,-334.5 128.5,-334.5 "/>
<text text-anchor="start" x="32.5" y="-322.5" font-family="Helvetica,sans-Serif" font-size="10.00">+ set_exception()</text>
</a>
</g>
</g>
<!-- Node4&#45;&gt;Node3 -->
<g id="edge3" class="edge">
<title>Node4&#45;&gt;Node3</title>
<path fill="none" stroke="midnightblue" d="M76.5,-305.16C76.5,-296.47 76.5,-287.23 76.5,-278.52"/>
<polygon fill="none" stroke="midnightblue" points="73,-305.4 76.5,-315.4 80,-305.4 73,-305.4"/>
</g>
<!-- Node5 -->
<g id="node5" class="node">
<title>Node5</title>
<g id="a_node5"><a xlink:href="classmp__coro_1_1detail_1_1storage__base.html" target="_top" xlink:title="Storage class that can either contain a value, an exception, or be empty.">
<polygon fill="white" stroke="black" points="21.5,-409.5 21.5,-488.5 131.5,-488.5 131.5,-409.5 21.5,-409.5"/>
<text text-anchor="middle" x="76.5" y="-476.5" font-family="Helvetica,sans-Serif" font-size="10.00">storage_base&lt; T &gt;</text>
<polyline fill="none" stroke="black" points="21.5,-469.5 131.5,-469.5 "/>
<text text-anchor="start" x="29.5" y="-457.5" font-family="Helvetica,sans-Serif" font-size="10.00"># result</text>
<polyline fill="none" stroke="black" points="21.5,-450.5 131.5,-450.5 "/>
<text text-anchor="start" x="29.5" y="-438.5" font-family="Helvetica,sans-Serif" font-size="10.00">+ set_value()</text>
<text text-anchor="start" x="29.5" y="-427.5" font-family="Helvetica,sans-Serif" font-size="10.00">+ get()</text>
<text text-anchor="start" x="29.5" y="-416.5" font-family="Helvetica,sans-Serif" font-size="10.00">+ get()</text>
</a>
</g>
</g>
<!-- Node5&#45;&gt;Node4 -->
<g id="edge4" class="edge">
<title>Node5&#45;&gt;Node4</title>
<path fill="none" stroke="midnightblue" d="M76.5,-399.16C76.5,-390.04 76.5,-380.81 76.5,-372.61"/>
<polygon fill="none" stroke="midnightblue" points="73,-399.35 76.5,-409.35 80,-399.35 73,-399.35"/>
</g>
</g>
</svg>
