<?xml version="1.0" encoding="UTF-8" standalone="no"?>
<!DOCTYPE svg PUBLIC "-//W3C//DTD SVG 1.1//EN"
 "http://www.w3.org/Graphics/SVG/1.1/DTD/svg11.dtd">
<!-- Generated by graphviz version 2.43.0 (0)
 -->
<!-- Title: when_all_awaitable&lt; T &gt;::awaiter_base Pages: 1 -->
<svg width="181pt" height="375pt"
 viewBox="0.00 0.00 181.00 375.00" xmlns="http://www.w3.org/2000/svg" xmlns:xlink="http://www.w3.org/1999/xlink">
<g id="graph0" class="graph" transform="scale(1 1) rotate(0) translate(4 371)">
<title>when_all_awaitable&lt; T &gt;::awaiter_base</title>
<polygon fill="white" stroke="transparent" points="-4,4 -4,-371 177,-371 177,4 -4,4"/>
<!-- Node1 -->
<g id="node1" class="node">
<title>Node1</title>
<g id="a_node1"><a xlink:title=" ">
<polygon fill="#bfbfbf" stroke="black" points="28.5,-0.5 28.5,-79.5 144.5,-79.5 144.5,-0.5 28.5,-0.5"/>
<text text-anchor="start" x="36.5" y="-67.5" font-family="Helvetica,sans-Serif" font-size="10.00">when_all_awaitable</text>
<text text-anchor="middle" x="86.5" y="-56.5" font-family="Helvetica,sans-Serif" font-size="10.00">&lt; T &gt;::awaiter_base</text>
<polyline fill="none" stroke="black" points="28.5,-49.5 144.5,-49.5 "/>
<text text-anchor="middle" x="86.5" y="-37.5" font-family="Helvetica,sans-Serif" font-size="10.00"> </text>
<polyline fill="none" stroke="black" points="28.5,-30.5 144.5,-30.5 "/>
<text text-anchor="start" x="36.5" y="-18.5" font-family="Helvetica,sans-Serif" font-size="10.00">+ await_ready()</text>
<text text-anchor="start" x="36.5" y="-7.5" font-family="Helvetica,sans-Serif" font-size="10.00">+ await_suspend()</text>
</a>
</g>
</g>
<!-- Node2 -->
<g id="node2" class="node">
<title>Node2</title>
<g id="a_node2"><a xlink:href="structmp__coro_1_1detail_1_1when__all__awaitable.html" target="_top" xlink:title=" ">
<polygon fill="white" stroke="black" points="15.5,-127.5 15.5,-206.5 157.5,-206.5 157.5,-127.5 15.5,-127.5"/>
<text text-anchor="middle" x="86.5" y="-194.5" font-family="Helvetica,sans-Serif" font-size="10.00">when_all_awaitable&lt; T &gt;</text>
<polyline fill="none" stroke="black" points="15.5,-187.5 157.5,-187.5 "/>
<text text-anchor="start" x="23.5" y="-175.5" font-family="Helvetica,sans-Serif" font-size="10.00">&#45; tasks_</text>
<polyline fill="none" stroke="black" points="15.5,-168.5 157.5,-168.5 "/>
<text text-anchor="start" x="23.5" y="-156.5" font-family="Helvetica,sans-Serif" font-size="10.00">+ when_all_awaitable()</text>
<text text-anchor="start" x="23.5" y="-145.5" font-family="Helvetica,sans-Serif" font-size="10.00">+ operator co_await()</text>
<text text-anchor="start" x="23.5" y="-134.5" font-family="Helvetica,sans-Serif" font-size="10.00">+ operator co_await()</text>
</a>
</g>
</g>
<!-- Node2&#45;&gt;Node1 -->
<g id="edge1" class="edge">
<title>Node2&#45;&gt;Node1</title>
<path fill="none" stroke="#404040" d="M86.5,-127.48C86.5,-116.19 86.5,-103.67 86.5,-91.75"/>
<polygon fill="none" stroke="#404040" points="86.5,-91.61 82.5,-85.61 86.5,-79.61 90.5,-85.61 86.5,-91.61"/>
<text text-anchor="middle" x="116.5" y="-101" font-family="Helvetica,sans-Serif" font-size="10.00"> +awaitable</text>
</g>
<!-- Node3 -->
<g id="node3" class="node">
<title>Node3</title>
<g id="a_node3"><a xlink:href="classmp__coro_1_1detail_1_1when__all__sync.html" target="_top" xlink:title=" ">
<polygon fill="white" stroke="black" points="0,-254.5 0,-366.5 173,-366.5 173,-254.5 0,-254.5"/>
<text text-anchor="middle" x="86.5" y="-354.5" font-family="Helvetica,sans-Serif" font-size="10.00">when_all_sync</text>
<polyline fill="none" stroke="black" points="0,-347.5 173,-347.5 "/>
<text text-anchor="start" x="8" y="-335.5" font-family="Helvetica,sans-Serif" font-size="10.00">&#45; counter_</text>
<text text-anchor="start" x="8" y="-324.5" font-family="Helvetica,sans-Serif" font-size="10.00">&#45; continuation_</text>
<polyline fill="none" stroke="black" points="0,-317.5 173,-317.5 "/>
<text text-anchor="start" x="8" y="-305.5" font-family="Helvetica,sans-Serif" font-size="10.00">+ when_all_sync()</text>
<text text-anchor="start" x="8" y="-294.5" font-family="Helvetica,sans-Serif" font-size="10.00">+ when_all_sync()</text>
<text text-anchor="start" x="8" y="-283.5" font-family="Helvetica,sans-Serif" font-size="10.00">+ set_continuation()</text>
<text text-anchor="start" x="8" y="-272.5" font-family="Helvetica,sans-Serif" font-size="10.00">+ notify_awaitable_completed()</text>
<text text-anchor="start" x="8" y="-261.5" font-family="Helvetica,sans-Serif" font-size="10.00">+ is_ready()</text>
</a>
</g>
</g>
<!-- Node3&#45;&gt;Node2 -->
<g id="edge2" class="edge">
<title>Node3&#45;&gt;Node2</title>
<path fill="none" stroke="#404040" d="M86.5,-254.39C86.5,-242.65 86.5,-230.3 86.5,-218.74"/>
<polygon fill="none" stroke="#404040" points="86.5,-218.56 82.5,-212.56 86.5,-206.56 90.5,-212.56 86.5,-218.56"/>
<text text-anchor="middle" x="104" y="-228" font-family="Helvetica,sans-Serif" font-size="10.00"> &#45;sync_</text>
</g>
</g>
</svg>
