<?xml version="1.0" encoding="UTF-8" standalone="no"?>
<!DOCTYPE svg PUBLIC "-//W3C//DTD SVG 1.1//EN"
 "http://www.w3.org/Graphics/SVG/1.1/DTD/svg11.dtd">
<!-- Generated by graphviz version 2.43.0 (0)
 -->
<!-- Title: task&lt; T, Allocator &gt;::awaiter Pages: 1 -->
<svg width="278pt" height="778pt"
 viewBox="0.00 0.00 277.50 778.00" xmlns="http://www.w3.org/2000/svg" xmlns:xlink="http://www.w3.org/1999/xlink">
<g id="graph0" class="graph" transform="scale(1 1) rotate(0) translate(4 774)">
<title>task&lt; T, Allocator &gt;::awaiter</title>
<polygon fill="white" stroke="transparent" points="-4,4 -4,-774 273.5,-774 273.5,4 -4,4"/>
<!-- Node1 -->
<g id="node1" class="node">
<title>Node1</title>
<g id="a_node1"><a xlink:title="Awaiter type for awaiting the result of a task.">
<polygon fill="#bfbfbf" stroke="black" points="7,-0.5 7,-90.5 115,-90.5 115,-0.5 7,-0.5"/>
<text text-anchor="start" x="15" y="-78.5" font-family="Helvetica,sans-Serif" font-size="10.00">task&lt; T, Allocator</text>
<text text-anchor="middle" x="61" y="-67.5" font-family="Helvetica,sans-Serif" font-size="10.00"> &gt;::awaiter</text>
<polyline fill="none" stroke="black" points="7,-60.5 115,-60.5 "/>
<text text-anchor="middle" x="61" y="-48.5" font-family="Helvetica,sans-Serif" font-size="10.00"> </text>
<polyline fill="none" stroke="black" points="7,-41.5 115,-41.5 "/>
<text text-anchor="start" x="15" y="-29.5" font-family="Helvetica,sans-Serif" font-size="10.00">+ await_ready()</text>
<text text-anchor="start" x="15" y="-18.5" font-family="Helvetica,sans-Serif" font-size="10.00">+ await_suspend()</text>
<text text-anchor="start" x="15" y="-7.5" font-family="Helvetica,sans-Serif" font-size="10.00">+ await_resume()</text>
</a>
</g>
</g>
<!-- Node2 -->
<g id="node2" class="node">
<title>Node2</title>
<g id="a_node2"><a xlink:href="structmp__coro_1_1task_1_1promise__type.html" target="_top" xlink:title="Required promise type for coroutines returning a task.">
<polygon fill="white" stroke="black" points="0.5,-138.5 0.5,-217.5 121.5,-217.5 121.5,-138.5 0.5,-138.5"/>
<text text-anchor="middle" x="61" y="-205.5" font-family="Helvetica,sans-Serif" font-size="10.00">promise_type</text>
<polyline fill="none" stroke="black" points="0.5,-198.5 121.5,-198.5 "/>
<text text-anchor="start" x="8.5" y="-186.5" font-family="Helvetica,sans-Serif" font-size="10.00">+ continuation</text>
<polyline fill="none" stroke="black" points="0.5,-179.5 121.5,-179.5 "/>
<text text-anchor="start" x="8.5" y="-167.5" font-family="Helvetica,sans-Serif" font-size="10.00">+ get_return_object()</text>
<text text-anchor="start" x="8.5" y="-156.5" font-family="Helvetica,sans-Serif" font-size="10.00">+ initial_suspend()</text>
<text text-anchor="start" x="8.5" y="-145.5" font-family="Helvetica,sans-Serif" font-size="10.00">+ final_suspend()</text>
</a>
</g>
</g>
<!-- Node2&#45;&gt;Node1 -->
<g id="edge1" class="edge">
<title>Node2&#45;&gt;Node1</title>
<path fill="none" stroke="#404040" d="M61,-138.2C61,-127.16 61,-114.9 61,-103.04"/>
<polygon fill="none" stroke="#404040" points="61,-102.88 57,-96.88 61,-90.88 65,-96.88 61,-102.88"/>
<text text-anchor="middle" x="87" y="-112" font-family="Helvetica,sans-Serif" font-size="10.00"> +promise</text>
</g>
<!-- Node3 -->
<g id="node3" class="node">
<title>Node3</title>
<g id="a_node3"><a xlink:href="structmp__coro_1_1detail_1_1noncopyable.html" target="_top" xlink:title="Base class with deleted copy constructor and copy assignment operator.">
<polygon fill="white" stroke="black" points="0,-255.5 0,-334.5 98,-334.5 98,-255.5 0,-255.5"/>
<text text-anchor="middle" x="49" y="-322.5" font-family="Helvetica,sans-Serif" font-size="10.00">noncopyable</text>
<polyline fill="none" stroke="black" points="0,-315.5 98,-315.5 "/>
<text text-anchor="middle" x="49" y="-303.5" font-family="Helvetica,sans-Serif" font-size="10.00"> </text>
<polyline fill="none" stroke="black" points="0,-296.5 98,-296.5 "/>
<text text-anchor="start" x="8" y="-284.5" font-family="Helvetica,sans-Serif" font-size="10.00">+ noncopyable()</text>
<text text-anchor="start" x="8" y="-273.5" font-family="Helvetica,sans-Serif" font-size="10.00">+ noncopyable()</text>
<text text-anchor="start" x="8" y="-262.5" font-family="Helvetica,sans-Serif" font-size="10.00">+ operator=()</text>
</a>
</g>
</g>
<!-- Node3&#45;&gt;Node2 -->
<g id="edge2" class="edge">
<title>Node3&#45;&gt;Node2</title>
<path fill="none" stroke="#8b1a1a" d="M54.09,-245.2C55.05,-236.02 56.04,-226.53 56.96,-217.71"/>
<polygon fill="none" stroke="#8b1a1a" points="50.59,-245.08 53.03,-255.39 57.55,-245.8 50.59,-245.08"/>
</g>
<!-- Node4 -->
<g id="node4" class="node">
<title>Node4</title>
<g id="a_node4"><a xlink:href="structmp__coro_1_1detail_1_1task__promise__storage.html" target="_top" xlink:title=" ">
<polygon fill="white" stroke="black" points="116.5,-266.5 116.5,-323.5 269.5,-323.5 269.5,-266.5 116.5,-266.5"/>
<text text-anchor="middle" x="193" y="-311.5" font-family="Helvetica,sans-Serif" font-size="10.00">task_promise_storage&lt; T &gt;</text>
<polyline fill="none" stroke="black" points="116.5,-304.5 269.5,-304.5 "/>
<text text-anchor="middle" x="193" y="-292.5" font-family="Helvetica,sans-Serif" font-size="10.00"> </text>
<polyline fill="none" stroke="black" points="116.5,-285.5 269.5,-285.5 "/>
<text text-anchor="start" x="124.5" y="-273.5" font-family="Helvetica,sans-Serif" font-size="10.00">+ return_value()</text>
</a>
</g>
</g>
<!-- Node4&#45;&gt;Node2 -->
<g id="edge3" class="edge">
<title>Node4&#45;&gt;Node2</title>
<path fill="none" stroke="midnightblue" d="M153.66,-259.73C138.46,-246.48 120.98,-231.26 105.34,-217.63"/>
<polygon fill="none" stroke="midnightblue" points="151.54,-262.52 161.38,-266.45 156.14,-257.25 151.54,-262.52"/>
</g>
<!-- Node5 -->
<g id="node5" class="node">
<title>Node5</title>
<g id="a_node5"><a xlink:href="structmp__coro_1_1detail_1_1task__promise__storage__base.html" target="_top" xlink:title=" ">
<polygon fill="white" stroke="black" points="123,-372.5 123,-440.5 263,-440.5 263,-372.5 123,-372.5"/>
<text text-anchor="start" x="131" y="-428.5" font-family="Helvetica,sans-Serif" font-size="10.00">task_promise_storage</text>
<text text-anchor="middle" x="193" y="-417.5" font-family="Helvetica,sans-Serif" font-size="10.00">_base&lt; T &gt;</text>
<polyline fill="none" stroke="black" points="123,-410.5 263,-410.5 "/>
<text text-anchor="middle" x="193" y="-398.5" font-family="Helvetica,sans-Serif" font-size="10.00"> </text>
<polyline fill="none" stroke="black" points="123,-391.5 263,-391.5 "/>
<text text-anchor="start" x="131" y="-379.5" font-family="Helvetica,sans-Serif" font-size="10.00">+ unhandled_exception()</text>
</a>
</g>
</g>
<!-- Node5&#45;&gt;Node4 -->
<g id="edge4" class="edge">
<title>Node5&#45;&gt;Node4</title>
<path fill="none" stroke="midnightblue" d="M193,-362.16C193,-349.13 193,-335.21 193,-323.51"/>
<polygon fill="none" stroke="midnightblue" points="189.5,-362.35 193,-372.35 196.5,-362.35 189.5,-362.35"/>
</g>
<!-- Node6 -->
<g id="node6" class="node">
<title>Node6</title>
<g id="a_node6"><a xlink:href="classmp__coro_1_1detail_1_1nonvoid__storage.html" target="_top" xlink:title=" ">
<polygon fill="white" stroke="black" points="130,-478.5 130,-557.5 256,-557.5 256,-478.5 130,-478.5"/>
<text text-anchor="middle" x="193" y="-545.5" font-family="Helvetica,sans-Serif" font-size="10.00">nonvoid_storage&lt; T &gt;</text>
<polyline fill="none" stroke="black" points="130,-538.5 256,-538.5 "/>
<text text-anchor="middle" x="193" y="-526.5" font-family="Helvetica,sans-Serif" font-size="10.00"> </text>
<polyline fill="none" stroke="black" points="130,-519.5 256,-519.5 "/>
<text text-anchor="start" x="138" y="-507.5" font-family="Helvetica,sans-Serif" font-size="10.00">+ nonvoid_get()</text>
<text text-anchor="start" x="138" y="-496.5" font-family="Helvetica,sans-Serif" font-size="10.00">+ nonvoid_get()</text>
<text text-anchor="start" x="138" y="-485.5" font-family="Helvetica,sans-Serif" font-size="10.00">+ nonvoid_get()</text>
</a>
</g>
</g>
<!-- Node6&#45;&gt;Node5 -->
<g id="edge5" class="edge">
<title>Node6&#45;&gt;Node5</title>
<path fill="none" stroke="midnightblue" d="M193,-468.38C193,-459.02 193,-449.41 193,-440.67"/>
<polygon fill="none" stroke="midnightblue" points="189.5,-468.39 193,-478.39 196.5,-468.39 189.5,-468.39"/>
</g>
<!-- Node7 -->
<g id="node7" class="node">
<title>Node7</title>
<g id="a_node7"><a xlink:href="classmp__coro_1_1detail_1_1storage.html" target="_top" xlink:title="Storage class that can either contain a value, an exception, or be empty.">
<polygon fill="white" stroke="black" points="141,-595.5 141,-652.5 245,-652.5 245,-595.5 141,-595.5"/>
<text text-anchor="middle" x="193" y="-640.5" font-family="Helvetica,sans-Serif" font-size="10.00">storage&lt; T &gt;</text>
<polyline fill="none" stroke="black" points="141,-633.5 245,-633.5 "/>
<text text-anchor="middle" x="193" y="-621.5" font-family="Helvetica,sans-Serif" font-size="10.00"> </text>
<polyline fill="none" stroke="black" points="141,-614.5 245,-614.5 "/>
<text text-anchor="start" x="149" y="-602.5" font-family="Helvetica,sans-Serif" font-size="10.00">+ set_exception()</text>
</a>
</g>
</g>
<!-- Node7&#45;&gt;Node6 -->
<g id="edge6" class="edge">
<title>Node7&#45;&gt;Node6</title>
<path fill="none" stroke="midnightblue" d="M193,-585.23C193,-576.27 193,-566.69 193,-557.69"/>
<polygon fill="none" stroke="midnightblue" points="189.5,-585.4 193,-595.4 196.5,-585.4 189.5,-585.4"/>
</g>
<!-- Node8 -->
<g id="node8" class="node">
<title>Node8</title>
<g id="a_node8"><a xlink:href="classmp__coro_1_1detail_1_1storage__base.html" target="_top" xlink:title="Storage class that can either contain a value, an exception, or be empty.">
<polygon fill="white" stroke="black" points="138,-690.5 138,-769.5 248,-769.5 248,-690.5 138,-690.5"/>
<text text-anchor="middle" x="193" y="-757.5" font-family="Helvetica,sans-Serif" font-size="10.00">storage_base&lt; T &gt;</text>
<polyline fill="none" stroke="black" points="138,-750.5 248,-750.5 "/>
<text text-anchor="start" x="146" y="-738.5" font-family="Helvetica,sans-Serif" font-size="10.00"># result</text>
<polyline fill="none" stroke="black" points="138,-731.5 248,-731.5 "/>
<text text-anchor="start" x="146" y="-719.5" font-family="Helvetica,sans-Serif" font-size="10.00">+ set_value()</text>
<text text-anchor="start" x="146" y="-708.5" font-family="Helvetica,sans-Serif" font-size="10.00">+ get()</text>
<text text-anchor="start" x="146" y="-697.5" font-family="Helvetica,sans-Serif" font-size="10.00">+ get()</text>
</a>
</g>
</g>
<!-- Node8&#45;&gt;Node7 -->
<g id="edge7" class="edge">
<title>Node8&#45;&gt;Node7</title>
<path fill="none" stroke="midnightblue" d="M193,-680.16C193,-670.74 193,-661.17 193,-652.72"/>
<polygon fill="none" stroke="midnightblue" points="189.5,-680.27 193,-690.27 196.5,-680.27 189.5,-680.27"/>
</g>
</g>
</svg>
