<?xml version="1.0" encoding="UTF-8" standalone="no"?>
<!DOCTYPE svg PUBLIC "-//W3C//DTD SVG 1.1//EN"
 "http://www.w3.org/Graphics/SVG/1.1/DTD/svg11.dtd">
<!-- Generated by graphviz version 2.43.0 (0)
 -->
<!-- Title: noncopyable Pages: 1 -->
<svg width="427pt" height="248pt"
 viewBox="0.00 0.00 427.00 248.00" xmlns="http://www.w3.org/2000/svg" xmlns:xlink="http://www.w3.org/1999/xlink">
<g id="graph0" class="graph" transform="scale(1 1) rotate(0) translate(4 244)">
<title>noncopyable</title>
<polygon fill="white" stroke="transparent" points="-4,4 -4,-244 423,-244 423,4 -4,4"/>
<!-- Node1 -->
<g id="node1" class="node">
<title>Node1</title>
<g id="a_node1"><a xlink:title="Base class with deleted copy constructor and copy assignment operator.">
<polygon fill="#bfbfbf" stroke="black" points="160.5,-160.5 160.5,-239.5 258.5,-239.5 258.5,-160.5 160.5,-160.5"/>
<text text-anchor="middle" x="209.5" y="-227.5" font-family="Helvetica,sans-Serif" font-size="10.00">noncopyable</text>
<polyline fill="none" stroke="black" points="160.5,-220.5 258.5,-220.5 "/>
<text text-anchor="middle" x="209.5" y="-208.5" font-family="Helvetica,sans-Serif" font-size="10.00"> </text>
<polyline fill="none" stroke="black" points="160.5,-201.5 258.5,-201.5 "/>
<text text-anchor="start" x="168.5" y="-189.5" font-family="Helvetica,sans-Serif" font-size="10.00">+ noncopyable()</text>
<text text-anchor="start" x="168.5" y="-178.5" font-family="Helvetica,sans-Serif" font-size="10.00">+ noncopyable()</text>
<text text-anchor="start" x="168.5" y="-167.5" font-family="Helvetica,sans-Serif" font-size="10.00">+ operator=()</text>
</a>
</g>
</g>
<!-- Node2 -->
<g id="node2" class="node">
<title>Node2</title>
<g id="a_node2"><a xlink:href="structmp__coro_1_1detail_1_1synchronized__task_1_1promise__type.html" target="_top" xlink:title="Required promise type for coroutines returning a synchronized_task.">
<polygon fill="white" stroke="black" points="0,-22.5 0,-101.5 121,-101.5 121,-22.5 0,-22.5"/>
<text text-anchor="middle" x="60.5" y="-89.5" font-family="Helvetica,sans-Serif" font-size="10.00">promise_type</text>
<polyline fill="none" stroke="black" points="0,-82.5 121,-82.5 "/>
<text text-anchor="start" x="8" y="-70.5" font-family="Helvetica,sans-Serif" font-size="10.00">+ sync</text>
<polyline fill="none" stroke="black" points="0,-63.5 121,-63.5 "/>
<text text-anchor="start" x="8" y="-51.5" font-family="Helvetica,sans-Serif" font-size="10.00">+ get_return_object()</text>
<text text-anchor="start" x="8" y="-40.5" font-family="Helvetica,sans-Serif" font-size="10.00">+ initial_suspend()</text>
<text text-anchor="start" x="8" y="-29.5" font-family="Helvetica,sans-Serif" font-size="10.00">+ final_suspend()</text>
</a>
</g>
</g>
<!-- Node1&#45;&gt;Node2 -->
<g id="edge1" class="edge">
<title>Node1&#45;&gt;Node2</title>
<path fill="none" stroke="#8b1a1a" d="M159.48,-153.35C141.12,-136.59 120.53,-117.79 102.9,-101.7"/>
<polygon fill="none" stroke="#8b1a1a" points="157.46,-156.24 167.2,-160.39 162.17,-151.07 157.46,-156.24"/>
</g>
<!-- Node3 -->
<g id="node3" class="node">
<title>Node3</title>
<g id="a_node3"><a xlink:href="structmp__coro_1_1generator_1_1promise__type.html" target="_top" xlink:title=" ">
<polygon fill="white" stroke="black" points="139.5,-0.5 139.5,-123.5 279.5,-123.5 279.5,-0.5 139.5,-0.5"/>
<text text-anchor="middle" x="209.5" y="-111.5" font-family="Helvetica,sans-Serif" font-size="10.00">promise_type</text>
<polyline fill="none" stroke="black" points="139.5,-104.5 279.5,-104.5 "/>
<text text-anchor="start" x="147.5" y="-92.5" font-family="Helvetica,sans-Serif" font-size="10.00">+ value</text>
<polyline fill="none" stroke="black" points="139.5,-85.5 279.5,-85.5 "/>
<text text-anchor="start" x="147.5" y="-73.5" font-family="Helvetica,sans-Serif" font-size="10.00">+ get_return_object()</text>
<text text-anchor="start" x="147.5" y="-62.5" font-family="Helvetica,sans-Serif" font-size="10.00">+ yield_value()</text>
<text text-anchor="start" x="147.5" y="-51.5" font-family="Helvetica,sans-Serif" font-size="10.00">+ unhandled_exception()</text>
<text text-anchor="start" x="147.5" y="-40.5" font-family="Helvetica,sans-Serif" font-size="10.00">+ await_transform()</text>
<text text-anchor="start" x="147.5" y="-29.5" font-family="Helvetica,sans-Serif" font-size="10.00">+ initial_suspend()</text>
<text text-anchor="start" x="147.5" y="-18.5" font-family="Helvetica,sans-Serif" font-size="10.00">+ final_suspend()</text>
<text text-anchor="start" x="147.5" y="-7.5" font-family="Helvetica,sans-Serif" font-size="10.00">+ return_void()</text>
</a>
</g>
</g>
<!-- Node1&#45;&gt;Node3 -->
<g id="edge2" class="edge">
<title>Node1&#45;&gt;Node3</title>
<path fill="none" stroke="#8b1a1a" d="M209.5,-150.14C209.5,-141.53 209.5,-132.47 209.5,-123.57"/>
<polygon fill="none" stroke="#8b1a1a" points="206,-150.39 209.5,-160.39 213,-150.39 206,-150.39"/>
</g>
<!-- Node4 -->
<g id="node4" class="node">
<title>Node4</title>
<g id="a_node4"><a xlink:href="structmp__coro_1_1task_1_1promise__type.html" target="_top" xlink:title="Required promise type for coroutines returning a task.">
<polygon fill="white" stroke="black" points="298,-22.5 298,-101.5 419,-101.5 419,-22.5 298,-22.5"/>
<text text-anchor="middle" x="358.5" y="-89.5" font-family="Helvetica,sans-Serif" font-size="10.00">promise_type</text>
<polyline fill="none" stroke="black" points="298,-82.5 419,-82.5 "/>
<text text-anchor="start" x="306" y="-70.5" font-family="Helvetica,sans-Serif" font-size="10.00">+ continuation</text>
<polyline fill="none" stroke="black" points="298,-63.5 419,-63.5 "/>
<text text-anchor="start" x="306" y="-51.5" font-family="Helvetica,sans-Serif" font-size="10.00">+ get_return_object()</text>
<text text-anchor="start" x="306" y="-40.5" font-family="Helvetica,sans-Serif" font-size="10.00">+ initial_suspend()</text>
<text text-anchor="start" x="306" y="-29.5" font-family="Helvetica,sans-Serif" font-size="10.00">+ final_suspend()</text>
</a>
</g>
</g>
<!-- Node1&#45;&gt;Node4 -->
<g id="edge3" class="edge">
<title>Node1&#45;&gt;Node4</title>
<path fill="none" stroke="#8b1a1a" d="M259.52,-153.35C277.88,-136.59 298.47,-117.79 316.1,-101.7"/>
<polygon fill="none" stroke="#8b1a1a" points="256.83,-151.07 251.8,-160.39 261.54,-156.24 256.83,-151.07"/>
</g>
</g>
</svg>
