<?xml version="1.0" encoding="UTF-8" standalone="no"?>
<!DOCTYPE svg PUBLIC "-//W3C//DTD SVG 1.1//EN"
 "http://www.w3.org/Graphics/SVG/1.1/DTD/svg11.dtd">
<!-- Generated by graphviz version 2.43.0 (0)
 -->
<!-- Title: sync_await.h Pages: 1 -->
<svg width="819pt" height="453pt"
 viewBox="0.00 0.00 818.56 453.00" xmlns="http://www.w3.org/2000/svg" xmlns:xlink="http://www.w3.org/1999/xlink">
<g id="graph0" class="graph" transform="scale(1 1) rotate(0) translate(4 449)">
<title>sync_await.h</title>
<polygon fill="white" stroke="transparent" points="-4,4 -4,-449 814.56,-449 814.56,4 -4,4"/>
<!-- Node1 -->
<g id="node1" class="node">
<title>Node1</title>
<g id="a_node1"><a xlink:title=" ">
<polygon fill="#bfbfbf" stroke="black" points="473.69,-425.5 473.69,-444.5 553.69,-444.5 553.69,-425.5 473.69,-425.5"/>
<text text-anchor="middle" x="513.69" y="-432.5" font-family="Helvetica,sans-Serif" font-size="10.00">sync_await.h</text>
</a>
</g>
</g>
<!-- Node2 -->
<g id="node2" class="node">
<title>Node2</title>
<g id="a_node2"><a xlink:href="synchronized__task_8h.html" target="_top" xlink:title=" ">
<polygon fill="white" stroke="black" points="130.69,-358.5 130.69,-388.5 276.69,-388.5 276.69,-358.5 130.69,-358.5"/>
<text text-anchor="start" x="138.69" y="-376.5" font-family="Helvetica,sans-Serif" font-size="10.00">mp&#45;coro/bits/synchronized</text>
<text text-anchor="middle" x="203.69" y="-365.5" font-family="Helvetica,sans-Serif" font-size="10.00">_task.h</text>
</a>
</g>
</g>
<!-- Node1&#45;&gt;Node2 -->
<g id="edge1" class="edge">
<title>Node1&#45;&gt;Node2</title>
<path fill="none" stroke="midnightblue" d="M473.48,-426.28C426.38,-417.24 347.11,-402.03 286.65,-390.42"/>
<polygon fill="midnightblue" stroke="midnightblue" points="287.22,-386.97 276.74,-388.52 285.9,-393.84 287.22,-386.97"/>
</g>
<!-- Node14 -->
<g id="node14" class="node">
<title>Node14</title>
<g id="a_node14"><a xlink:href="concepts_8h.html" target="_top" xlink:title=" ">
<polygon fill="white" stroke="black" points="441.19,-112.5 441.19,-131.5 554.19,-131.5 554.19,-112.5 441.19,-112.5"/>
<text text-anchor="middle" x="497.69" y="-119.5" font-family="Helvetica,sans-Serif" font-size="10.00">mp&#45;coro/concepts.h</text>
</a>
</g>
</g>
<!-- Node1&#45;&gt;Node14 -->
<g id="edge27" class="edge">
<title>Node1&#45;&gt;Node14</title>
<path fill="none" stroke="midnightblue" d="M528.31,-425.25C556.51,-407.11 615.69,-362.51 615.69,-307.5 615.69,-307.5 615.69,-307.5 615.69,-238.5 615.69,-189.11 562.24,-153.88 527.28,-136.13"/>
<polygon fill="midnightblue" stroke="midnightblue" points="528.5,-132.82 517.98,-131.58 525.43,-139.12 528.5,-132.82"/>
</g>
<!-- Node17 -->
<g id="node17" class="node">
<title>Node17</title>
<g id="a_node17"><a xlink:href="trace_8h.html" target="_top" xlink:title=" ">
<polygon fill="white" stroke="black" points="267.69,-230 267.69,-249 361.69,-249 361.69,-230 267.69,-230"/>
<text text-anchor="middle" x="314.69" y="-237" font-family="Helvetica,sans-Serif" font-size="10.00">mp&#45;coro/trace.h</text>
</a>
</g>
</g>
<!-- Node1&#45;&gt;Node17 -->
<g id="edge28" class="edge">
<title>Node1&#45;&gt;Node17</title>
<path fill="none" stroke="midnightblue" d="M507.64,-425.18C491.15,-401.52 443.23,-335.47 392.69,-291 376.39,-276.66 355.67,-263.44 339.68,-254.13"/>
<polygon fill="midnightblue" stroke="midnightblue" points="341.31,-251.02 330.89,-249.11 337.84,-257.1 341.31,-251.02"/>
</g>
<!-- Node20 -->
<g id="node20" class="node">
<title>Node20</title>
<g id="a_node20"><a xlink:title=" ">
<polygon fill="white" stroke="#bfbfbf" points="644.19,-364 644.19,-383 715.19,-383 715.19,-364 644.19,-364"/>
<text text-anchor="middle" x="679.69" y="-371" font-family="Helvetica,sans-Serif" font-size="10.00">semaphore</text>
</a>
</g>
</g>
<!-- Node1&#45;&gt;Node20 -->
<g id="edge29" class="edge">
<title>Node1&#45;&gt;Node20</title>
<path fill="none" stroke="midnightblue" d="M537.48,-425.48C566.07,-415.22 614.24,-397.96 646.49,-386.4"/>
<polygon fill="midnightblue" stroke="midnightblue" points="647.72,-389.68 655.95,-383.01 645.36,-383.09 647.72,-389.68"/>
</g>
<!-- Node3 -->
<g id="node3" class="node">
<title>Node3</title>
<g id="a_node3"><a xlink:href="noncopyable_8h.html" target="_top" xlink:title=" ">
<polygon fill="white" stroke="black" points="231.69,-297 231.69,-316 383.69,-316 383.69,-297 231.69,-297"/>
<text text-anchor="middle" x="307.69" y="-304" font-family="Helvetica,sans-Serif" font-size="10.00">mp&#45;coro/bits/noncopyable.h</text>
</a>
</g>
</g>
<!-- Node2&#45;&gt;Node3 -->
<g id="edge2" class="edge">
<title>Node2&#45;&gt;Node3</title>
<path fill="none" stroke="midnightblue" d="M226.26,-358.4C243.7,-347.5 267.73,-332.48 285.16,-321.58"/>
<polygon fill="midnightblue" stroke="midnightblue" points="287.46,-324.28 294.08,-316.01 283.75,-318.34 287.46,-324.28"/>
</g>
<!-- Node4 -->
<g id="node4" class="node">
<title>Node4</title>
<g id="a_node4"><a xlink:href="task__promise__storage_8h.html" target="_top" xlink:title=" ">
<polygon fill="white" stroke="black" points="440.19,-291.5 440.19,-321.5 587.19,-321.5 587.19,-291.5 440.19,-291.5"/>
<text text-anchor="start" x="448.19" y="-309.5" font-family="Helvetica,sans-Serif" font-size="10.00">mp&#45;coro/bits/task_promise</text>
<text text-anchor="middle" x="513.69" y="-298.5" font-family="Helvetica,sans-Serif" font-size="10.00">_storage.h</text>
</a>
</g>
</g>
<!-- Node2&#45;&gt;Node4 -->
<g id="edge3" class="edge">
<title>Node2&#45;&gt;Node4</title>
<path fill="none" stroke="midnightblue" d="M270.58,-358.48C319.38,-348.24 385.65,-334.35 436.67,-323.65"/>
<polygon fill="midnightblue" stroke="midnightblue" points="437.59,-327.03 446.66,-321.55 436.16,-320.18 437.59,-327.03"/>
</g>
<!-- Node10 -->
<g id="node10" class="node">
<title>Node10</title>
<g id="a_node10"><a xlink:href="type__traits_8h.html" target="_top" xlink:title=" ">
<polygon fill="white" stroke="black" points="351.69,-168.5 351.69,-187.5 473.69,-187.5 473.69,-168.5 351.69,-168.5"/>
<text text-anchor="middle" x="412.69" y="-175.5" font-family="Helvetica,sans-Serif" font-size="10.00">mp&#45;coro/type_traits.h</text>
</a>
</g>
</g>
<!-- Node2&#45;&gt;Node10 -->
<g id="edge25" class="edge">
<title>Node2&#45;&gt;Node10</title>
<path fill="none" stroke="midnightblue" d="M200.9,-358.46C198.21,-341.82 195.63,-313.51 203.69,-291 216.67,-254.73 226.55,-245.24 258.69,-224 284.26,-207.11 316.3,-196.42 344.52,-189.73"/>
<polygon fill="midnightblue" stroke="midnightblue" points="345.34,-193.13 354.33,-187.52 343.8,-186.3 345.34,-193.13"/>
</g>
<!-- Node16 -->
<g id="node16" class="node">
<title>Node16</title>
<g id="a_node16"><a xlink:title=" ">
<polygon fill="white" stroke="#bfbfbf" points="14.69,-56.5 14.69,-75.5 76.69,-75.5 76.69,-56.5 14.69,-56.5"/>
<text text-anchor="middle" x="45.69" y="-63.5" font-family="Helvetica,sans-Serif" font-size="10.00">coroutine</text>
</a>
</g>
</g>
<!-- Node2&#45;&gt;Node16 -->
<g id="edge26" class="edge">
<title>Node2&#45;&gt;Node16</title>
<path fill="none" stroke="midnightblue" d="M130.49,-369.58C92.82,-364.24 49,-351.47 20.69,-322 -5.07,-295.18 1.69,-277.69 1.69,-240.5 1.69,-240.5 1.69,-240.5 1.69,-177 1.69,-142.04 21.09,-105.01 34.12,-84.07"/>
<polygon fill="midnightblue" stroke="midnightblue" points="37.08,-85.95 39.57,-75.65 31.2,-82.15 37.08,-85.95"/>
</g>
<!-- Node2&#45;&gt;Node17 -->
<g id="edge24" class="edge">
<title>Node2&#45;&gt;Node17</title>
<path fill="none" stroke="midnightblue" d="M203.61,-358.37C204.2,-340.86 207.59,-310.91 222.69,-291 236.26,-273.12 258.07,-260.75 277.05,-252.73"/>
<polygon fill="midnightblue" stroke="midnightblue" points="278.37,-255.98 286.38,-249.04 275.79,-249.47 278.37,-255.98"/>
</g>
<!-- Node18 -->
<g id="node18" class="node">
<title>Node18</title>
<g id="a_node18"><a xlink:href="coro__ptr_8h.html" target="_top" xlink:title=" ">
<polygon fill="white" stroke="black" points="29.69,-297 29.69,-316 137.69,-316 137.69,-297 29.69,-297"/>
<text text-anchor="middle" x="83.69" y="-304" font-family="Helvetica,sans-Serif" font-size="10.00">mp&#45;coro/coro_ptr.h</text>
</a>
</g>
</g>
<!-- Node2&#45;&gt;Node18 -->
<g id="edge20" class="edge">
<title>Node2&#45;&gt;Node18</title>
<path fill="none" stroke="midnightblue" d="M177.65,-358.4C157.06,-347.24 128.52,-331.78 108.31,-320.83"/>
<polygon fill="midnightblue" stroke="midnightblue" points="109.86,-317.69 99.4,-316.01 106.52,-323.85 109.86,-317.69"/>
</g>
<!-- Node5 -->
<g id="node5" class="node">
<title>Node5</title>
<g id="a_node5"><a xlink:href="nonvoid__storage_8h.html" target="_top" xlink:title=" ">
<polygon fill="white" stroke="black" points="453.69,-224.5 453.69,-254.5 573.69,-254.5 573.69,-224.5 453.69,-224.5"/>
<text text-anchor="start" x="461.69" y="-242.5" font-family="Helvetica,sans-Serif" font-size="10.00">mp&#45;coro/bits/nonvoid</text>
<text text-anchor="middle" x="513.69" y="-231.5" font-family="Helvetica,sans-Serif" font-size="10.00">_storage.h</text>
</a>
</g>
</g>
<!-- Node4&#45;&gt;Node5 -->
<g id="edge4" class="edge">
<title>Node4&#45;&gt;Node5</title>
<path fill="none" stroke="midnightblue" d="M513.69,-291.4C513.69,-283.64 513.69,-273.81 513.69,-264.86"/>
<polygon fill="midnightblue" stroke="midnightblue" points="517.19,-264.58 513.69,-254.58 510.19,-264.58 517.19,-264.58"/>
</g>
<!-- Node15 -->
<g id="node15" class="node">
<title>Node15</title>
<g id="a_node15"><a xlink:title=" ">
<polygon fill="white" stroke="#bfbfbf" points="699.69,-56.5 699.69,-75.5 759.69,-75.5 759.69,-56.5 699.69,-56.5"/>
<text text-anchor="middle" x="729.69" y="-63.5" font-family="Helvetica,sans-Serif" font-size="10.00">concepts</text>
</a>
</g>
</g>
<!-- Node4&#45;&gt;Node15 -->
<g id="edge19" class="edge">
<title>Node4&#45;&gt;Node15</title>
<path fill="none" stroke="midnightblue" d="M580.18,-291.5C639.9,-275.75 726.31,-244.61 780.69,-188 805.05,-162.64 819.83,-142.7 802.69,-112 794.54,-97.39 779.47,-86.94 765.14,-79.8"/>
<polygon fill="midnightblue" stroke="midnightblue" points="766.45,-76.56 755.9,-75.59 763.55,-82.92 766.45,-76.56"/>
</g>
<!-- Node4&#45;&gt;Node17 -->
<g id="edge18" class="edge">
<title>Node4&#45;&gt;Node17</title>
<path fill="none" stroke="midnightblue" d="M470.51,-291.4C434.67,-279.69 384.28,-263.23 350.61,-252.23"/>
<polygon fill="midnightblue" stroke="midnightblue" points="351.33,-248.78 340.74,-249.01 349.15,-255.44 351.33,-248.78"/>
</g>
<!-- Node6 -->
<g id="node6" class="node">
<title>Node6</title>
<g id="a_node6"><a xlink:href="storage_8h.html" target="_top" xlink:title=" ">
<polygon fill="white" stroke="black" points="644.19,-168.5 644.19,-187.5 771.19,-187.5 771.19,-168.5 644.19,-168.5"/>
<text text-anchor="middle" x="707.69" y="-175.5" font-family="Helvetica,sans-Serif" font-size="10.00">mp&#45;coro/bits/storage.h</text>
</a>
</g>
</g>
<!-- Node5&#45;&gt;Node6 -->
<g id="edge5" class="edge">
<title>Node5&#45;&gt;Node6</title>
<path fill="none" stroke="midnightblue" d="M559.67,-224.4C593.33,-214.07 638.47,-200.23 670.01,-190.56"/>
<polygon fill="midnightblue" stroke="midnightblue" points="671.21,-193.85 679.75,-187.57 669.16,-187.16 671.21,-193.85"/>
</g>
<!-- Node5&#45;&gt;Node10 -->
<g id="edge9" class="edge">
<title>Node5&#45;&gt;Node10</title>
<path fill="none" stroke="midnightblue" d="M489.76,-224.4C473.57,-214.86 452.28,-202.32 436.19,-192.84"/>
<polygon fill="midnightblue" stroke="midnightblue" points="437.78,-189.72 427.39,-187.66 434.23,-195.75 437.78,-189.72"/>
</g>
<!-- Node7 -->
<g id="node7" class="node">
<title>Node7</title>
<g id="a_node7"><a xlink:title=" ">
<polygon fill="white" stroke="#bfbfbf" points="728.19,-112.5 728.19,-131.5 793.19,-131.5 793.19,-112.5 728.19,-112.5"/>
<text text-anchor="middle" x="760.69" y="-119.5" font-family="Helvetica,sans-Serif" font-size="10.00">exception</text>
</a>
</g>
</g>
<!-- Node6&#45;&gt;Node7 -->
<g id="edge6" class="edge">
<title>Node6&#45;&gt;Node7</title>
<path fill="none" stroke="midnightblue" d="M716.44,-168.08C724.16,-160.22 735.6,-148.57 744.91,-139.08"/>
<polygon fill="midnightblue" stroke="midnightblue" points="747.6,-141.34 752.1,-131.75 742.6,-136.44 747.6,-141.34"/>
</g>
<!-- Node8 -->
<g id="node8" class="node">
<title>Node8</title>
<g id="a_node8"><a xlink:title=" ">
<polygon fill="white" stroke="#bfbfbf" points="572.19,-112.5 572.19,-131.5 641.19,-131.5 641.19,-112.5 572.19,-112.5"/>
<text text-anchor="middle" x="606.69" y="-119.5" font-family="Helvetica,sans-Serif" font-size="10.00">type_traits</text>
</a>
</g>
</g>
<!-- Node6&#45;&gt;Node8 -->
<g id="edge7" class="edge">
<title>Node6&#45;&gt;Node8</title>
<path fill="none" stroke="midnightblue" d="M691.46,-168.32C675.34,-159.7 650.39,-146.36 631.73,-136.39"/>
<polygon fill="midnightblue" stroke="midnightblue" points="633.35,-133.28 622.88,-131.65 630.05,-139.46 633.35,-133.28"/>
</g>
<!-- Node9 -->
<g id="node9" class="node">
<title>Node9</title>
<g id="a_node9"><a xlink:title=" ">
<polygon fill="white" stroke="#bfbfbf" points="659.19,-112.5 659.19,-131.5 710.19,-131.5 710.19,-112.5 659.19,-112.5"/>
<text text-anchor="middle" x="684.69" y="-119.5" font-family="Helvetica,sans-Serif" font-size="10.00">variant</text>
</a>
</g>
</g>
<!-- Node6&#45;&gt;Node9 -->
<g id="edge8" class="edge">
<title>Node6&#45;&gt;Node9</title>
<path fill="none" stroke="midnightblue" d="M703.89,-168.08C700.78,-160.77 696.27,-150.18 692.4,-141.1"/>
<polygon fill="midnightblue" stroke="midnightblue" points="695.56,-139.58 688.42,-131.75 689.12,-142.32 695.56,-139.58"/>
</g>
<!-- Node11 -->
<g id="node11" class="node">
<title>Node11</title>
<g id="a_node11"><a xlink:href="get__awaiter_8h.html" target="_top" xlink:title=" ">
<polygon fill="white" stroke="black" points="281.19,-56.5 281.19,-75.5 428.19,-75.5 428.19,-56.5 281.19,-56.5"/>
<text text-anchor="middle" x="354.69" y="-63.5" font-family="Helvetica,sans-Serif" font-size="10.00">mp&#45;coro/bits/get_awaiter.h</text>
</a>
</g>
</g>
<!-- Node10&#45;&gt;Node11 -->
<g id="edge10" class="edge">
<title>Node10&#45;&gt;Node11</title>
<path fill="none" stroke="midnightblue" d="M408.14,-168.37C398.65,-150.38 376.6,-108.55 363.99,-84.63"/>
<polygon fill="midnightblue" stroke="midnightblue" points="366.98,-82.8 359.22,-75.59 360.79,-86.07 366.98,-82.8"/>
</g>
<!-- Node13 -->
<g id="node13" class="node">
<title>Node13</title>
<g id="a_node13"><a xlink:href="bits_2type__traits_8h.html" target="_top" xlink:title=" ">
<polygon fill="white" stroke="black" points="446.19,-56.5 446.19,-75.5 589.19,-75.5 589.19,-56.5 446.19,-56.5"/>
<text text-anchor="middle" x="517.69" y="-63.5" font-family="Helvetica,sans-Serif" font-size="10.00">mp&#45;coro/bits/type_traits.h</text>
</a>
</g>
</g>
<!-- Node10&#45;&gt;Node13 -->
<g id="edge12" class="edge">
<title>Node10&#45;&gt;Node13</title>
<path fill="none" stroke="midnightblue" d="M413.26,-168.44C414.57,-154.99 418.84,-128.74 432.69,-112 444.97,-97.16 463.44,-86.56 480.03,-79.38"/>
<polygon fill="midnightblue" stroke="midnightblue" points="481.56,-82.54 489.52,-75.55 478.94,-76.05 481.56,-82.54"/>
</g>
<!-- Node10&#45;&gt;Node14 -->
<g id="edge13" class="edge">
<title>Node10&#45;&gt;Node14</title>
<path fill="none" stroke="midnightblue" d="M426.35,-168.32C439.61,-159.9 459.96,-146.97 475.54,-137.07"/>
<polygon fill="midnightblue" stroke="midnightblue" points="477.5,-139.97 484.07,-131.65 473.75,-134.06 477.5,-139.97"/>
</g>
<!-- Node12 -->
<g id="node12" class="node">
<title>Node12</title>
<g id="a_node12"><a xlink:title=" ">
<polygon fill="white" stroke="#bfbfbf" points="332.19,-0.5 332.19,-19.5 377.19,-19.5 377.19,-0.5 332.19,-0.5"/>
<text text-anchor="middle" x="354.69" y="-7.5" font-family="Helvetica,sans-Serif" font-size="10.00">utility</text>
</a>
</g>
</g>
<!-- Node11&#45;&gt;Node12 -->
<g id="edge11" class="edge">
<title>Node11&#45;&gt;Node12</title>
<path fill="none" stroke="midnightblue" d="M354.69,-56.08C354.69,-49.01 354.69,-38.86 354.69,-29.99"/>
<polygon fill="midnightblue" stroke="midnightblue" points="358.19,-29.75 354.69,-19.75 351.19,-29.75 358.19,-29.75"/>
</g>
<!-- Node14&#45;&gt;Node11 -->
<g id="edge14" class="edge">
<title>Node14&#45;&gt;Node11</title>
<path fill="none" stroke="midnightblue" d="M475.03,-112.44C451.29,-103.48 413.78,-89.31 386.95,-79.18"/>
<polygon fill="midnightblue" stroke="midnightblue" points="387.84,-75.77 377.24,-75.52 385.36,-82.32 387.84,-75.77"/>
</g>
<!-- Node14&#45;&gt;Node13 -->
<g id="edge15" class="edge">
<title>Node14&#45;&gt;Node13</title>
<path fill="none" stroke="midnightblue" d="M500.99,-112.08C503.67,-104.85 507.54,-94.41 510.88,-85.4"/>
<polygon fill="midnightblue" stroke="midnightblue" points="514.26,-86.34 514.45,-75.75 507.69,-83.91 514.26,-86.34"/>
</g>
<!-- Node14&#45;&gt;Node15 -->
<g id="edge16" class="edge">
<title>Node14&#45;&gt;Node15</title>
<path fill="none" stroke="midnightblue" d="M534.45,-112.44C576.68,-102.61 645.75,-86.54 689.4,-76.38"/>
<polygon fill="midnightblue" stroke="midnightblue" points="690.44,-79.73 699.39,-74.05 688.85,-72.91 690.44,-79.73"/>
</g>
<!-- Node14&#45;&gt;Node16 -->
<g id="edge17" class="edge">
<title>Node14&#45;&gt;Node16</title>
<path fill="none" stroke="midnightblue" d="M440.9,-114.22C348.66,-103.2 168.42,-81.66 87.17,-71.96"/>
<polygon fill="midnightblue" stroke="midnightblue" points="87.18,-68.43 76.84,-70.72 86.35,-75.38 87.18,-68.43"/>
</g>
<!-- Node18&#45;&gt;Node16 -->
<g id="edge22" class="edge">
<title>Node18&#45;&gt;Node16</title>
<path fill="none" stroke="midnightblue" d="M79.61,-296.78C75.18,-286.88 68.24,-270.14 64.69,-255 50.49,-194.43 46.9,-120.43 46,-86.14"/>
<polygon fill="midnightblue" stroke="midnightblue" points="49.49,-85.67 45.78,-75.75 42.49,-85.82 49.49,-85.67"/>
</g>
<!-- Node18&#45;&gt;Node17 -->
<g id="edge21" class="edge">
<title>Node18&#45;&gt;Node17</title>
<path fill="none" stroke="midnightblue" d="M114.37,-296.87C155.56,-285.28 228.82,-264.66 274.41,-251.83"/>
<polygon fill="midnightblue" stroke="midnightblue" points="275.58,-255.14 284.26,-249.06 273.68,-248.4 275.58,-255.14"/>
</g>
<!-- Node19 -->
<g id="node19" class="node">
<title>Node19</title>
<g id="a_node19"><a xlink:title=" ">
<polygon fill="white" stroke="#bfbfbf" points="73.69,-230 73.69,-249 131.69,-249 131.69,-230 73.69,-230"/>
<text text-anchor="middle" x="102.69" y="-237" font-family="Helvetica,sans-Serif" font-size="10.00">memory</text>
</a>
</g>
</g>
<!-- Node18&#45;&gt;Node19 -->
<g id="edge23" class="edge">
<title>Node18&#45;&gt;Node19</title>
<path fill="none" stroke="midnightblue" d="M86.25,-296.73C89.07,-287.09 93.69,-271.3 97.31,-258.91"/>
<polygon fill="midnightblue" stroke="midnightblue" points="100.72,-259.71 100.17,-249.13 94,-257.74 100.72,-259.71"/>
</g>
</g>
</svg>
