<?xml version="1.0" encoding="UTF-8" standalone="no"?>
<!DOCTYPE svg PUBLIC "-//W3C//DTD SVG 1.1//EN"
 "http://www.w3.org/Graphics/SVG/1.1/DTD/svg11.dtd">
<!-- Generated by graphviz version 2.43.0 (0)
 -->
<!-- Title: synchronized_task.h Pages: 1 -->
<svg width="800pt" height="386pt"
 viewBox="0.00 0.00 799.50 386.00" xmlns="http://www.w3.org/2000/svg" xmlns:xlink="http://www.w3.org/1999/xlink">
<g id="graph0" class="graph" transform="scale(1 1) rotate(0) translate(4 382)">
<title>synchronized_task.h</title>
<polygon fill="white" stroke="transparent" points="-4,4 -4,-382 795.5,-382 795.5,4 -4,4"/>
<!-- Node1 -->
<g id="node1" class="node">
<title>Node1</title>
<g id="a_node1"><a xlink:title=" ">
<polygon fill="#bfbfbf" stroke="black" points="496.5,-358.5 496.5,-377.5 612.5,-377.5 612.5,-358.5 496.5,-358.5"/>
<text text-anchor="middle" x="554.5" y="-365.5" font-family="Helvetica,sans-Serif" font-size="10.00">synchronized_task.h</text>
</a>
</g>
</g>
<!-- Node2 -->
<g id="node2" class="node">
<title>Node2</title>
<g id="a_node2"><a xlink:href="noncopyable_8h.html" target="_top" xlink:title=" ">
<polygon fill="white" stroke="black" points="159.5,-297 159.5,-316 311.5,-316 311.5,-297 159.5,-297"/>
<text text-anchor="middle" x="235.5" y="-304" font-family="Helvetica,sans-Serif" font-size="10.00">mp&#45;coro/bits/noncopyable.h</text>
</a>
</g>
</g>
<!-- Node1&#45;&gt;Node2 -->
<g id="edge1" class="edge">
<title>Node1&#45;&gt;Node2</title>
<path fill="none" stroke="midnightblue" d="M508.8,-358.48C451.35,-347.76 352.82,-329.38 291.08,-317.87"/>
<polygon fill="midnightblue" stroke="midnightblue" points="291.59,-314.4 281.12,-316.01 290.31,-321.28 291.59,-314.4"/>
</g>
<!-- Node3 -->
<g id="node3" class="node">
<title>Node3</title>
<g id="a_node3"><a xlink:href="task__promise__storage_8h.html" target="_top" xlink:title=" ">
<polygon fill="white" stroke="black" points="430,-291.5 430,-321.5 577,-321.5 577,-291.5 430,-291.5"/>
<text text-anchor="start" x="438" y="-309.5" font-family="Helvetica,sans-Serif" font-size="10.00">mp&#45;coro/bits/task_promise</text>
<text text-anchor="middle" x="503.5" y="-298.5" font-family="Helvetica,sans-Serif" font-size="10.00">_storage.h</text>
</a>
</g>
</g>
<!-- Node1&#45;&gt;Node3 -->
<g id="edge2" class="edge">
<title>Node1&#45;&gt;Node3</title>
<path fill="none" stroke="midnightblue" d="M547.19,-358.48C540.67,-350.87 530.84,-339.4 522.16,-329.26"/>
<polygon fill="midnightblue" stroke="midnightblue" points="524.69,-326.84 515.52,-321.52 519.37,-331.39 524.69,-326.84"/>
</g>
<!-- Node9 -->
<g id="node9" class="node">
<title>Node9</title>
<g id="a_node9"><a xlink:href="type__traits_8h.html" target="_top" xlink:title=" ">
<polygon fill="white" stroke="black" points="165.5,-168.5 165.5,-187.5 287.5,-187.5 287.5,-168.5 165.5,-168.5"/>
<text text-anchor="middle" x="226.5" y="-175.5" font-family="Helvetica,sans-Serif" font-size="10.00">mp&#45;coro/type_traits.h</text>
</a>
</g>
</g>
<!-- Node1&#45;&gt;Node9 -->
<g id="edge24" class="edge">
<title>Node1&#45;&gt;Node9</title>
<path fill="none" stroke="midnightblue" d="M519.43,-358.45C491.67,-350.93 452.4,-338.59 420.5,-322 349.28,-284.96 275.85,-223.12 243.52,-194.46"/>
<polygon fill="midnightblue" stroke="midnightblue" points="245.66,-191.67 235.87,-187.61 240.99,-196.89 245.66,-191.67"/>
</g>
<!-- Node15 -->
<g id="node15" class="node">
<title>Node15</title>
<g id="a_node15"><a xlink:title=" ">
<polygon fill="white" stroke="#bfbfbf" points="722.5,-56.5 722.5,-75.5 784.5,-75.5 784.5,-56.5 722.5,-56.5"/>
<text text-anchor="middle" x="753.5" y="-63.5" font-family="Helvetica,sans-Serif" font-size="10.00">coroutine</text>
</a>
</g>
</g>
<!-- Node1&#45;&gt;Node15 -->
<g id="edge25" class="edge">
<title>Node1&#45;&gt;Node15</title>
<path fill="none" stroke="midnightblue" d="M612.51,-359.63C663.24,-352.17 732.06,-339.28 753.5,-322 784.62,-296.92 791.5,-280.47 791.5,-240.5 791.5,-240.5 791.5,-240.5 791.5,-177 791.5,-142.81 774.9,-105.76 763.64,-84.57"/>
<polygon fill="midnightblue" stroke="midnightblue" points="766.68,-82.83 758.78,-75.77 760.55,-86.22 766.68,-82.83"/>
</g>
<!-- Node16 -->
<g id="node16" class="node">
<title>Node16</title>
<g id="a_node16"><a xlink:href="trace_8h.html" target="_top" xlink:title=" ">
<polygon fill="white" stroke="black" points="555.5,-230 555.5,-249 649.5,-249 649.5,-230 555.5,-230"/>
<text text-anchor="middle" x="602.5" y="-237" font-family="Helvetica,sans-Serif" font-size="10.00">mp&#45;coro/trace.h</text>
</a>
</g>
</g>
<!-- Node1&#45;&gt;Node16 -->
<g id="edge23" class="edge">
<title>Node1&#45;&gt;Node16</title>
<path fill="none" stroke="midnightblue" d="M562.35,-358.38C569.73,-349.8 580.52,-335.92 586.5,-322 595.2,-301.76 599.21,-276.66 601.04,-259.7"/>
<polygon fill="midnightblue" stroke="midnightblue" points="604.55,-259.7 601.98,-249.42 597.58,-259.06 604.55,-259.7"/>
</g>
<!-- Node17 -->
<g id="node17" class="node">
<title>Node17</title>
<g id="a_node17"><a xlink:href="coro__ptr_8h.html" target="_top" xlink:title=" ">
<polygon fill="white" stroke="black" points="636.5,-297 636.5,-316 744.5,-316 744.5,-297 636.5,-297"/>
<text text-anchor="middle" x="690.5" y="-304" font-family="Helvetica,sans-Serif" font-size="10.00">mp&#45;coro/coro_ptr.h</text>
</a>
</g>
</g>
<!-- Node1&#45;&gt;Node17 -->
<g id="edge19" class="edge">
<title>Node1&#45;&gt;Node17</title>
<path fill="none" stroke="midnightblue" d="M573.99,-358.48C596.91,-348.45 635.19,-331.7 661.58,-320.15"/>
<polygon fill="midnightblue" stroke="midnightblue" points="663.29,-323.22 671.05,-316.01 660.49,-316.81 663.29,-323.22"/>
</g>
<!-- Node4 -->
<g id="node4" class="node">
<title>Node4</title>
<g id="a_node4"><a xlink:href="nonvoid__storage_8h.html" target="_top" xlink:title=" ">
<polygon fill="white" stroke="black" points="367.5,-224.5 367.5,-254.5 487.5,-254.5 487.5,-224.5 367.5,-224.5"/>
<text text-anchor="start" x="375.5" y="-242.5" font-family="Helvetica,sans-Serif" font-size="10.00">mp&#45;coro/bits/nonvoid</text>
<text text-anchor="middle" x="427.5" y="-231.5" font-family="Helvetica,sans-Serif" font-size="10.00">_storage.h</text>
</a>
</g>
</g>
<!-- Node3&#45;&gt;Node4 -->
<g id="edge3" class="edge">
<title>Node3&#45;&gt;Node4</title>
<path fill="none" stroke="midnightblue" d="M487.01,-291.4C476.65,-282.54 463.12,-270.96 451.57,-261.09"/>
<polygon fill="midnightblue" stroke="midnightblue" points="453.83,-258.42 443.96,-254.58 449.28,-263.74 453.83,-258.42"/>
</g>
<!-- Node14 -->
<g id="node14" class="node">
<title>Node14</title>
<g id="a_node14"><a xlink:title=" ">
<polygon fill="white" stroke="#bfbfbf" points="428.5,-56.5 428.5,-75.5 488.5,-75.5 488.5,-56.5 428.5,-56.5"/>
<text text-anchor="middle" x="458.5" y="-63.5" font-family="Helvetica,sans-Serif" font-size="10.00">concepts</text>
</a>
</g>
</g>
<!-- Node3&#45;&gt;Node14 -->
<g id="edge18" class="edge">
<title>Node3&#45;&gt;Node14</title>
<path fill="none" stroke="midnightblue" d="M511.03,-291.3C527.7,-257.76 563.71,-171.93 530.5,-112 522.41,-97.41 507.4,-86.92 493.16,-79.76"/>
<polygon fill="midnightblue" stroke="midnightblue" points="494.55,-76.55 484,-75.53 491.61,-82.9 494.55,-76.55"/>
</g>
<!-- Node3&#45;&gt;Node16 -->
<g id="edge17" class="edge">
<title>Node3&#45;&gt;Node16</title>
<path fill="none" stroke="midnightblue" d="M524.98,-291.4C541.58,-280.5 564.46,-265.48 581.05,-254.58"/>
<polygon fill="midnightblue" stroke="midnightblue" points="583.1,-257.42 589.54,-249.01 579.26,-251.57 583.1,-257.42"/>
</g>
<!-- Node5 -->
<g id="node5" class="node">
<title>Node5</title>
<g id="a_node5"><a xlink:href="storage_8h.html" target="_top" xlink:title=" ">
<polygon fill="white" stroke="black" points="358,-168.5 358,-187.5 485,-187.5 485,-168.5 358,-168.5"/>
<text text-anchor="middle" x="421.5" y="-175.5" font-family="Helvetica,sans-Serif" font-size="10.00">mp&#45;coro/bits/storage.h</text>
</a>
</g>
</g>
<!-- Node4&#45;&gt;Node5 -->
<g id="edge4" class="edge">
<title>Node4&#45;&gt;Node5</title>
<path fill="none" stroke="midnightblue" d="M426.08,-224.4C425.28,-216.47 424.27,-206.46 423.4,-197.86"/>
<polygon fill="midnightblue" stroke="midnightblue" points="426.86,-197.26 422.37,-187.66 419.89,-197.96 426.86,-197.26"/>
</g>
<!-- Node4&#45;&gt;Node9 -->
<g id="edge8" class="edge">
<title>Node4&#45;&gt;Node9</title>
<path fill="none" stroke="midnightblue" d="M380.12,-224.47C344.99,-214.08 297.71,-200.08 264.92,-190.37"/>
<polygon fill="midnightblue" stroke="midnightblue" points="265.82,-186.99 255.24,-187.51 263.83,-193.7 265.82,-186.99"/>
</g>
<!-- Node6 -->
<g id="node6" class="node">
<title>Node6</title>
<g id="a_node6"><a xlink:title=" ">
<polygon fill="white" stroke="#bfbfbf" points="301,-112.5 301,-131.5 366,-131.5 366,-112.5 301,-112.5"/>
<text text-anchor="middle" x="333.5" y="-119.5" font-family="Helvetica,sans-Serif" font-size="10.00">exception</text>
</a>
</g>
</g>
<!-- Node5&#45;&gt;Node6 -->
<g id="edge5" class="edge">
<title>Node5&#45;&gt;Node6</title>
<path fill="none" stroke="midnightblue" d="M407.36,-168.32C393.63,-159.9 372.56,-146.97 356.44,-137.07"/>
<polygon fill="midnightblue" stroke="midnightblue" points="357.96,-133.9 347.6,-131.65 354.3,-139.87 357.96,-133.9"/>
</g>
<!-- Node7 -->
<g id="node7" class="node">
<title>Node7</title>
<g id="a_node7"><a xlink:title=" ">
<polygon fill="white" stroke="#bfbfbf" points="384,-112.5 384,-131.5 453,-131.5 453,-112.5 384,-112.5"/>
<text text-anchor="middle" x="418.5" y="-119.5" font-family="Helvetica,sans-Serif" font-size="10.00">type_traits</text>
</a>
</g>
</g>
<!-- Node5&#45;&gt;Node7 -->
<g id="edge6" class="edge">
<title>Node5&#45;&gt;Node7</title>
<path fill="none" stroke="midnightblue" d="M421,-168.08C420.61,-161.01 420.05,-150.86 419.55,-141.99"/>
<polygon fill="midnightblue" stroke="midnightblue" points="423.04,-141.54 418.99,-131.75 416.05,-141.93 423.04,-141.54"/>
</g>
<!-- Node8 -->
<g id="node8" class="node">
<title>Node8</title>
<g id="a_node8"><a xlink:title=" ">
<polygon fill="white" stroke="#bfbfbf" points="471,-112.5 471,-131.5 522,-131.5 522,-112.5 471,-112.5"/>
<text text-anchor="middle" x="496.5" y="-119.5" font-family="Helvetica,sans-Serif" font-size="10.00">variant</text>
</a>
</g>
</g>
<!-- Node5&#45;&gt;Node8 -->
<g id="edge7" class="edge">
<title>Node5&#45;&gt;Node8</title>
<path fill="none" stroke="midnightblue" d="M433.55,-168.32C444.96,-160.11 462.33,-147.6 475.93,-137.81"/>
<polygon fill="midnightblue" stroke="midnightblue" points="478.16,-140.52 484.23,-131.83 474.07,-134.84 478.16,-140.52"/>
</g>
<!-- Node10 -->
<g id="node10" class="node">
<title>Node10</title>
<g id="a_node10"><a xlink:href="get__awaiter_8h.html" target="_top" xlink:title=" ">
<polygon fill="white" stroke="black" points="0,-56.5 0,-75.5 147,-75.5 147,-56.5 0,-56.5"/>
<text text-anchor="middle" x="73.5" y="-63.5" font-family="Helvetica,sans-Serif" font-size="10.00">mp&#45;coro/bits/get_awaiter.h</text>
</a>
</g>
</g>
<!-- Node9&#45;&gt;Node10 -->
<g id="edge9" class="edge">
<title>Node9&#45;&gt;Node10</title>
<path fill="none" stroke="midnightblue" d="M211.31,-168.42C196.29,-159.74 172.8,-145.7 153.5,-132 131.34,-116.27 107.32,-96.32 91.44,-82.7"/>
<polygon fill="midnightblue" stroke="midnightblue" points="93.37,-79.75 83.52,-75.85 88.79,-85.04 93.37,-79.75"/>
</g>
<!-- Node12 -->
<g id="node12" class="node">
<title>Node12</title>
<g id="a_node12"><a xlink:href="bits_2type__traits_8h.html" target="_top" xlink:title=" ">
<polygon fill="white" stroke="black" points="165,-56.5 165,-75.5 308,-75.5 308,-56.5 165,-56.5"/>
<text text-anchor="middle" x="236.5" y="-63.5" font-family="Helvetica,sans-Serif" font-size="10.00">mp&#45;coro/bits/type_traits.h</text>
</a>
</g>
</g>
<!-- Node9&#45;&gt;Node12 -->
<g id="edge11" class="edge">
<title>Node9&#45;&gt;Node12</title>
<path fill="none" stroke="midnightblue" d="M205.42,-168.36C181.3,-157.11 146.8,-136.03 160.5,-112 168.91,-97.25 184.27,-86.84 198.98,-79.77"/>
<polygon fill="midnightblue" stroke="midnightblue" points="200.74,-82.83 208.48,-75.6 197.92,-76.42 200.74,-82.83"/>
</g>
<!-- Node13 -->
<g id="node13" class="node">
<title>Node13</title>
<g id="a_node13"><a xlink:href="concepts_8h.html" target="_top" xlink:title=" ">
<polygon fill="white" stroke="black" points="170,-112.5 170,-131.5 283,-131.5 283,-112.5 170,-112.5"/>
<text text-anchor="middle" x="226.5" y="-119.5" font-family="Helvetica,sans-Serif" font-size="10.00">mp&#45;coro/concepts.h</text>
</a>
</g>
</g>
<!-- Node9&#45;&gt;Node13 -->
<g id="edge12" class="edge">
<title>Node9&#45;&gt;Node13</title>
<path fill="none" stroke="midnightblue" d="M226.5,-168.08C226.5,-161.01 226.5,-150.86 226.5,-141.99"/>
<polygon fill="midnightblue" stroke="midnightblue" points="230,-141.75 226.5,-131.75 223,-141.75 230,-141.75"/>
</g>
<!-- Node11 -->
<g id="node11" class="node">
<title>Node11</title>
<g id="a_node11"><a xlink:title=" ">
<polygon fill="white" stroke="#bfbfbf" points="51,-0.5 51,-19.5 96,-19.5 96,-0.5 51,-0.5"/>
<text text-anchor="middle" x="73.5" y="-7.5" font-family="Helvetica,sans-Serif" font-size="10.00">utility</text>
</a>
</g>
</g>
<!-- Node10&#45;&gt;Node11 -->
<g id="edge10" class="edge">
<title>Node10&#45;&gt;Node11</title>
<path fill="none" stroke="midnightblue" d="M73.5,-56.08C73.5,-49.01 73.5,-38.86 73.5,-29.99"/>
<polygon fill="midnightblue" stroke="midnightblue" points="77,-29.75 73.5,-19.75 70,-29.75 77,-29.75"/>
</g>
<!-- Node13&#45;&gt;Node10 -->
<g id="edge13" class="edge">
<title>Node13&#45;&gt;Node10</title>
<path fill="none" stroke="midnightblue" d="M202.26,-112.44C176.63,-103.4 136.01,-89.06 107.26,-78.92"/>
<polygon fill="midnightblue" stroke="midnightblue" points="108.22,-75.54 97.63,-75.52 105.89,-82.15 108.22,-75.54"/>
</g>
<!-- Node13&#45;&gt;Node12 -->
<g id="edge14" class="edge">
<title>Node13&#45;&gt;Node12</title>
<path fill="none" stroke="midnightblue" d="M228.15,-112.08C229.48,-104.93 231.38,-94.64 233.04,-85.69"/>
<polygon fill="midnightblue" stroke="midnightblue" points="236.5,-86.22 234.88,-75.75 229.62,-84.95 236.5,-86.22"/>
</g>
<!-- Node13&#45;&gt;Node14 -->
<g id="edge15" class="edge">
<title>Node13&#45;&gt;Node14</title>
<path fill="none" stroke="midnightblue" d="M263.26,-112.44C305.49,-102.61 374.55,-86.54 418.21,-76.38"/>
<polygon fill="midnightblue" stroke="midnightblue" points="419.25,-79.73 428.2,-74.05 417.66,-72.91 419.25,-79.73"/>
</g>
<!-- Node13&#45;&gt;Node15 -->
<g id="edge16" class="edge">
<title>Node13&#45;&gt;Node15</title>
<path fill="none" stroke="midnightblue" d="M283.2,-113.01C286.01,-112.66 288.78,-112.32 291.5,-112 446.41,-93.74 631.18,-77.37 712.1,-70.47"/>
<polygon fill="midnightblue" stroke="midnightblue" points="712.69,-73.93 722.36,-69.59 712.1,-66.95 712.69,-73.93"/>
</g>
<!-- Node17&#45;&gt;Node15 -->
<g id="edge21" class="edge">
<title>Node17&#45;&gt;Node15</title>
<path fill="none" stroke="midnightblue" d="M701.3,-296.72C711.77,-287.53 727.11,-272.07 734.5,-255 759.45,-197.39 757.72,-120.86 755.25,-85.88"/>
<polygon fill="midnightblue" stroke="midnightblue" points="758.72,-85.39 754.42,-75.7 751.74,-85.95 758.72,-85.39"/>
</g>
<!-- Node17&#45;&gt;Node16 -->
<g id="edge20" class="edge">
<title>Node17&#45;&gt;Node16</title>
<path fill="none" stroke="midnightblue" d="M678.63,-296.73C664.25,-286.11 639.8,-268.05 622.49,-255.26"/>
<polygon fill="midnightblue" stroke="midnightblue" points="624.3,-252.25 614.18,-249.13 620.14,-257.88 624.3,-252.25"/>
</g>
<!-- Node18 -->
<g id="node18" class="node">
<title>Node18</title>
<g id="a_node18"><a xlink:title=" ">
<polygon fill="white" stroke="#bfbfbf" points="667.5,-230 667.5,-249 725.5,-249 725.5,-230 667.5,-230"/>
<text text-anchor="middle" x="696.5" y="-237" font-family="Helvetica,sans-Serif" font-size="10.00">memory</text>
</a>
</g>
</g>
<!-- Node17&#45;&gt;Node18 -->
<g id="edge22" class="edge">
<title>Node17&#45;&gt;Node18</title>
<path fill="none" stroke="midnightblue" d="M691.31,-296.73C692.19,-287.18 693.63,-271.62 694.77,-259.28"/>
<polygon fill="midnightblue" stroke="midnightblue" points="698.27,-259.41 695.7,-249.13 691.3,-258.76 698.27,-259.41"/>
</g>
</g>
</svg>
