<?xml version="1.0" encoding="UTF-8" standalone="no"?>
<!DOCTYPE svg PUBLIC "-//W3C//DTD SVG 1.1//EN"
 "http://www.w3.org/Graphics/SVG/1.1/DTD/svg11.dtd">
<!-- Generated by graphviz version 2.43.0 (0)
 -->
<!-- Title: task_promise_storage.h Pages: 1 -->
<svg width="686pt" height="319pt"
 viewBox="0.00 0.00 685.50 319.00" xmlns="http://www.w3.org/2000/svg" xmlns:xlink="http://www.w3.org/1999/xlink">
<g id="graph0" class="graph" transform="scale(1 1) rotate(0) translate(4 315)">
<title>task_promise_storage.h</title>
<polygon fill="white" stroke="transparent" points="-4,4 -4,-315 681.5,-315 681.5,4 -4,4"/>
<!-- Node1 -->
<g id="node1" class="node">
<title>Node1</title>
<g id="a_node1"><a xlink:title=" ">
<polygon fill="#bfbfbf" stroke="black" points="488.5,-291.5 488.5,-310.5 622.5,-310.5 622.5,-291.5 488.5,-291.5"/>
<text text-anchor="middle" x="555.5" y="-298.5" font-family="Helvetica,sans-Serif" font-size="10.00">task_promise_storage.h</text>
</a>
</g>
</g>
<!-- Node2 -->
<g id="node2" class="node">
<title>Node2</title>
<g id="a_node2"><a xlink:href="nonvoid__storage_8h.html" target="_top" xlink:title=" ">
<polygon fill="white" stroke="black" points="363.5,-224.5 363.5,-254.5 483.5,-254.5 483.5,-224.5 363.5,-224.5"/>
<text text-anchor="start" x="371.5" y="-242.5" font-family="Helvetica,sans-Serif" font-size="10.00">mp&#45;coro/bits/nonvoid</text>
<text text-anchor="middle" x="423.5" y="-231.5" font-family="Helvetica,sans-Serif" font-size="10.00">_storage.h</text>
</a>
</g>
</g>
<!-- Node1&#45;&gt;Node2 -->
<g id="edge1" class="edge">
<title>Node1&#45;&gt;Node2</title>
<path fill="none" stroke="midnightblue" d="M536.59,-291.48C517.71,-282.96 488.1,-269.62 463.92,-258.72"/>
<polygon fill="midnightblue" stroke="midnightblue" points="465.16,-255.44 454.61,-254.52 462.29,-261.82 465.16,-255.44"/>
</g>
<!-- Node12 -->
<g id="node12" class="node">
<title>Node12</title>
<g id="a_node12"><a xlink:title=" ">
<polygon fill="white" stroke="#bfbfbf" points="466.5,-56.5 466.5,-75.5 526.5,-75.5 526.5,-56.5 466.5,-56.5"/>
<text text-anchor="middle" x="496.5" y="-63.5" font-family="Helvetica,sans-Serif" font-size="10.00">concepts</text>
</a>
</g>
</g>
<!-- Node1&#45;&gt;Node12 -->
<g id="edge16" class="edge">
<title>Node1&#45;&gt;Node12</title>
<path fill="none" stroke="midnightblue" d="M556.36,-291.3C558.71,-263.69 563.37,-176.12 535.5,-112 530.74,-101.05 522.34,-90.82 514.55,-82.89"/>
<polygon fill="midnightblue" stroke="midnightblue" points="516.76,-80.17 507.12,-75.78 511.93,-85.23 516.76,-80.17"/>
</g>
<!-- Node14 -->
<g id="node14" class="node">
<title>Node14</title>
<g id="a_node14"><a xlink:href="trace_8h.html" target="_top" xlink:title=" ">
<polygon fill="white" stroke="black" points="583.5,-230 583.5,-249 677.5,-249 677.5,-230 583.5,-230"/>
<text text-anchor="middle" x="630.5" y="-237" font-family="Helvetica,sans-Serif" font-size="10.00">mp&#45;coro/trace.h</text>
</a>
</g>
</g>
<!-- Node1&#45;&gt;Node14 -->
<g id="edge15" class="edge">
<title>Node1&#45;&gt;Node14</title>
<path fill="none" stroke="midnightblue" d="M566.25,-291.48C578.05,-282.11 597.24,-266.88 611.58,-255.51"/>
<polygon fill="midnightblue" stroke="midnightblue" points="614.12,-257.97 619.77,-249.01 609.76,-252.48 614.12,-257.97"/>
</g>
<!-- Node3 -->
<g id="node3" class="node">
<title>Node3</title>
<g id="a_node3"><a xlink:href="storage_8h.html" target="_top" xlink:title=" ">
<polygon fill="white" stroke="black" points="360,-168.5 360,-187.5 487,-187.5 487,-168.5 360,-168.5"/>
<text text-anchor="middle" x="423.5" y="-175.5" font-family="Helvetica,sans-Serif" font-size="10.00">mp&#45;coro/bits/storage.h</text>
</a>
</g>
</g>
<!-- Node2&#45;&gt;Node3 -->
<g id="edge2" class="edge">
<title>Node2&#45;&gt;Node3</title>
<path fill="none" stroke="midnightblue" d="M423.5,-224.4C423.5,-216.47 423.5,-206.46 423.5,-197.86"/>
<polygon fill="midnightblue" stroke="midnightblue" points="427,-197.66 423.5,-187.66 420,-197.66 427,-197.66"/>
</g>
<!-- Node7 -->
<g id="node7" class="node">
<title>Node7</title>
<g id="a_node7"><a xlink:href="type__traits_8h.html" target="_top" xlink:title=" ">
<polygon fill="white" stroke="black" points="174.5,-168.5 174.5,-187.5 296.5,-187.5 296.5,-168.5 174.5,-168.5"/>
<text text-anchor="middle" x="235.5" y="-175.5" font-family="Helvetica,sans-Serif" font-size="10.00">mp&#45;coro/type_traits.h</text>
</a>
</g>
</g>
<!-- Node2&#45;&gt;Node7 -->
<g id="edge6" class="edge">
<title>Node2&#45;&gt;Node7</title>
<path fill="none" stroke="midnightblue" d="M378.95,-224.4C346.46,-214.12 302.96,-200.35 272.41,-190.68"/>
<polygon fill="midnightblue" stroke="midnightblue" points="273.17,-187.25 262.58,-187.57 271.06,-193.93 273.17,-187.25"/>
</g>
<!-- Node4 -->
<g id="node4" class="node">
<title>Node4</title>
<g id="a_node4"><a xlink:title=" ">
<polygon fill="white" stroke="#bfbfbf" points="306,-112.5 306,-131.5 371,-131.5 371,-112.5 306,-112.5"/>
<text text-anchor="middle" x="338.5" y="-119.5" font-family="Helvetica,sans-Serif" font-size="10.00">exception</text>
</a>
</g>
</g>
<!-- Node3&#45;&gt;Node4 -->
<g id="edge3" class="edge">
<title>Node3&#45;&gt;Node4</title>
<path fill="none" stroke="midnightblue" d="M409.84,-168.32C396.58,-159.9 376.23,-146.97 360.65,-137.07"/>
<polygon fill="midnightblue" stroke="midnightblue" points="362.44,-134.06 352.12,-131.65 358.69,-139.97 362.44,-134.06"/>
</g>
<!-- Node5 -->
<g id="node5" class="node">
<title>Node5</title>
<g id="a_node5"><a xlink:title=" ">
<polygon fill="white" stroke="#bfbfbf" points="389,-112.5 389,-131.5 458,-131.5 458,-112.5 389,-112.5"/>
<text text-anchor="middle" x="423.5" y="-119.5" font-family="Helvetica,sans-Serif" font-size="10.00">type_traits</text>
</a>
</g>
</g>
<!-- Node3&#45;&gt;Node5 -->
<g id="edge4" class="edge">
<title>Node3&#45;&gt;Node5</title>
<path fill="none" stroke="midnightblue" d="M423.5,-168.08C423.5,-161.01 423.5,-150.86 423.5,-141.99"/>
<polygon fill="midnightblue" stroke="midnightblue" points="427,-141.75 423.5,-131.75 420,-141.75 427,-141.75"/>
</g>
<!-- Node6 -->
<g id="node6" class="node">
<title>Node6</title>
<g id="a_node6"><a xlink:title=" ">
<polygon fill="white" stroke="#bfbfbf" points="476,-112.5 476,-131.5 527,-131.5 527,-112.5 476,-112.5"/>
<text text-anchor="middle" x="501.5" y="-119.5" font-family="Helvetica,sans-Serif" font-size="10.00">variant</text>
</a>
</g>
</g>
<!-- Node3&#45;&gt;Node6 -->
<g id="edge5" class="edge">
<title>Node3&#45;&gt;Node6</title>
<path fill="none" stroke="midnightblue" d="M436.03,-168.32C448.09,-159.98 466.53,-147.21 480.77,-137.35"/>
<polygon fill="midnightblue" stroke="midnightblue" points="482.77,-140.22 489,-131.65 478.78,-134.47 482.77,-140.22"/>
</g>
<!-- Node8 -->
<g id="node8" class="node">
<title>Node8</title>
<g id="a_node8"><a xlink:href="get__awaiter_8h.html" target="_top" xlink:title=" ">
<polygon fill="white" stroke="black" points="242,-56.5 242,-75.5 389,-75.5 389,-56.5 242,-56.5"/>
<text text-anchor="middle" x="315.5" y="-63.5" font-family="Helvetica,sans-Serif" font-size="10.00">mp&#45;coro/bits/get_awaiter.h</text>
</a>
</g>
</g>
<!-- Node7&#45;&gt;Node8 -->
<g id="edge7" class="edge">
<title>Node7&#45;&gt;Node8</title>
<path fill="none" stroke="midnightblue" d="M241.78,-168.37C254.98,-150.22 285.83,-107.8 303.14,-83.99"/>
<polygon fill="midnightblue" stroke="midnightblue" points="306.2,-85.74 309.25,-75.59 300.54,-81.62 306.2,-85.74"/>
</g>
<!-- Node10 -->
<g id="node10" class="node">
<title>Node10</title>
<g id="a_node10"><a xlink:href="bits_2type__traits_8h.html" target="_top" xlink:title=" ">
<polygon fill="white" stroke="black" points="0,-56.5 0,-75.5 143,-75.5 143,-56.5 0,-56.5"/>
<text text-anchor="middle" x="71.5" y="-63.5" font-family="Helvetica,sans-Serif" font-size="10.00">mp&#45;coro/bits/type_traits.h</text>
</a>
</g>
</g>
<!-- Node7&#45;&gt;Node10 -->
<g id="edge9" class="edge">
<title>Node7&#45;&gt;Node10</title>
<path fill="none" stroke="midnightblue" d="M203.88,-168.37C180.96,-161.1 149.99,-149.13 126.5,-132 108.47,-118.85 92.58,-98.61 82.58,-84.22"/>
<polygon fill="midnightblue" stroke="midnightblue" points="85.36,-82.09 76.89,-75.73 79.55,-85.98 85.36,-82.09"/>
</g>
<!-- Node11 -->
<g id="node11" class="node">
<title>Node11</title>
<g id="a_node11"><a xlink:href="concepts_8h.html" target="_top" xlink:title=" ">
<polygon fill="white" stroke="black" points="136,-112.5 136,-131.5 249,-131.5 249,-112.5 136,-112.5"/>
<text text-anchor="middle" x="192.5" y="-119.5" font-family="Helvetica,sans-Serif" font-size="10.00">mp&#45;coro/concepts.h</text>
</a>
</g>
</g>
<!-- Node7&#45;&gt;Node11 -->
<g id="edge10" class="edge">
<title>Node7&#45;&gt;Node11</title>
<path fill="none" stroke="midnightblue" d="M228.4,-168.08C222.26,-160.38 213.23,-149.03 205.76,-139.65"/>
<polygon fill="midnightblue" stroke="midnightblue" points="208.44,-137.39 199.47,-131.75 202.96,-141.75 208.44,-137.39"/>
</g>
<!-- Node9 -->
<g id="node9" class="node">
<title>Node9</title>
<g id="a_node9"><a xlink:title=" ">
<polygon fill="white" stroke="#bfbfbf" points="293,-0.5 293,-19.5 338,-19.5 338,-0.5 293,-0.5"/>
<text text-anchor="middle" x="315.5" y="-7.5" font-family="Helvetica,sans-Serif" font-size="10.00">utility</text>
</a>
</g>
</g>
<!-- Node8&#45;&gt;Node9 -->
<g id="edge8" class="edge">
<title>Node8&#45;&gt;Node9</title>
<path fill="none" stroke="midnightblue" d="M315.5,-56.08C315.5,-49.01 315.5,-38.86 315.5,-29.99"/>
<polygon fill="midnightblue" stroke="midnightblue" points="319,-29.75 315.5,-19.75 312,-29.75 319,-29.75"/>
</g>
<!-- Node11&#45;&gt;Node8 -->
<g id="edge11" class="edge">
<title>Node11&#45;&gt;Node8</title>
<path fill="none" stroke="midnightblue" d="M211.99,-112.44C232.14,-103.6 263.82,-89.69 286.83,-79.59"/>
<polygon fill="midnightblue" stroke="midnightblue" points="288.35,-82.74 296.1,-75.52 285.54,-76.33 288.35,-82.74"/>
</g>
<!-- Node11&#45;&gt;Node10 -->
<g id="edge12" class="edge">
<title>Node11&#45;&gt;Node10</title>
<path fill="none" stroke="midnightblue" d="M173.33,-112.44C153.59,-103.64 122.61,-89.81 100.01,-79.72"/>
<polygon fill="midnightblue" stroke="midnightblue" points="101.14,-76.4 90.58,-75.52 98.29,-82.79 101.14,-76.4"/>
</g>
<!-- Node11&#45;&gt;Node12 -->
<g id="edge13" class="edge">
<title>Node11&#45;&gt;Node12</title>
<path fill="none" stroke="midnightblue" d="M240.67,-112.44C300.25,-101.86 400.59,-84.04 456.25,-74.15"/>
<polygon fill="midnightblue" stroke="midnightblue" points="456.87,-77.59 466.11,-72.4 455.65,-70.7 456.87,-77.59"/>
</g>
<!-- Node13 -->
<g id="node13" class="node">
<title>Node13</title>
<g id="a_node13"><a xlink:title=" ">
<polygon fill="white" stroke="#bfbfbf" points="161.5,-56.5 161.5,-75.5 223.5,-75.5 223.5,-56.5 161.5,-56.5"/>
<text text-anchor="middle" x="192.5" y="-63.5" font-family="Helvetica,sans-Serif" font-size="10.00">coroutine</text>
</a>
</g>
</g>
<!-- Node11&#45;&gt;Node13 -->
<g id="edge14" class="edge">
<title>Node11&#45;&gt;Node13</title>
<path fill="none" stroke="midnightblue" d="M192.5,-112.08C192.5,-105.01 192.5,-94.86 192.5,-85.99"/>
<polygon fill="midnightblue" stroke="midnightblue" points="196,-85.75 192.5,-75.75 189,-85.75 196,-85.75"/>
</g>
</g>
</svg>
