<?xml version="1.0" encoding="UTF-8" standalone="no"?>
<!DOCTYPE svg PUBLIC "-//W3C//DTD SVG 1.1//EN"
 "http://www.w3.org/Graphics/SVG/1.1/DTD/svg11.dtd">
<!-- Generated by graphviz version 2.43.0 (0)
 -->
<!-- Title: task.h Pages: 1 -->
<svg width="882pt" height="386pt"
 viewBox="0.00 0.00 881.50 386.00" xmlns="http://www.w3.org/2000/svg" xmlns:xlink="http://www.w3.org/1999/xlink">
<g id="graph0" class="graph" transform="scale(1 1) rotate(0) translate(4 382)">
<title>task.h</title>
<polygon fill="white" stroke="transparent" points="-4,4 -4,-382 877.5,-382 877.5,4 -4,4"/>
<!-- Node1 -->
<g id="node1" class="node">
<title>Node1</title>
<g id="a_node1"><a xlink:title=" ">
<polygon fill="#bfbfbf" stroke="black" points="387,-358.5 387,-377.5 434,-377.5 434,-358.5 387,-358.5"/>
<text text-anchor="middle" x="410.5" y="-365.5" font-family="Helvetica,sans-Serif" font-size="10.00">task.h</text>
</a>
</g>
</g>
<!-- Node2 -->
<g id="node2" class="node">
<title>Node2</title>
<g id="a_node2"><a xlink:href="noncopyable_8h.html" target="_top" xlink:title=" ">
<polygon fill="white" stroke="black" points="65.5,-297 65.5,-316 217.5,-316 217.5,-297 65.5,-297"/>
<text text-anchor="middle" x="141.5" y="-304" font-family="Helvetica,sans-Serif" font-size="10.00">mp&#45;coro/bits/noncopyable.h</text>
</a>
</g>
</g>
<!-- Node1&#45;&gt;Node2 -->
<g id="edge1" class="edge">
<title>Node1&#45;&gt;Node2</title>
<path fill="none" stroke="midnightblue" d="M386.63,-361.72C342.72,-352.01 248.33,-331.13 190.34,-318.3"/>
<polygon fill="midnightblue" stroke="midnightblue" points="190.83,-314.83 180.31,-316.08 189.31,-321.66 190.83,-314.83"/>
</g>
<!-- Node3 -->
<g id="node3" class="node">
<title>Node3</title>
<g id="a_node3"><a xlink:href="task__promise__storage_8h.html" target="_top" xlink:title=" ">
<polygon fill="white" stroke="black" points="426,-291.5 426,-321.5 573,-321.5 573,-291.5 426,-291.5"/>
<text text-anchor="start" x="434" y="-309.5" font-family="Helvetica,sans-Serif" font-size="10.00">mp&#45;coro/bits/task_promise</text>
<text text-anchor="middle" x="499.5" y="-298.5" font-family="Helvetica,sans-Serif" font-size="10.00">_storage.h</text>
</a>
</g>
</g>
<!-- Node1&#45;&gt;Node3 -->
<g id="edge2" class="edge">
<title>Node1&#45;&gt;Node3</title>
<path fill="none" stroke="midnightblue" d="M423.25,-358.48C435.42,-350.34 454.19,-337.79 470.06,-327.18"/>
<polygon fill="midnightblue" stroke="midnightblue" points="472.16,-329.99 478.52,-321.52 468.27,-324.17 472.16,-329.99"/>
</g>
<!-- Node9 -->
<g id="node9" class="node">
<title>Node9</title>
<g id="a_node9"><a xlink:href="type__traits_8h.html" target="_top" xlink:title=" ">
<polygon fill="white" stroke="black" points="133.5,-168.5 133.5,-187.5 255.5,-187.5 255.5,-168.5 133.5,-168.5"/>
<text text-anchor="middle" x="194.5" y="-175.5" font-family="Helvetica,sans-Serif" font-size="10.00">mp&#45;coro/type_traits.h</text>
</a>
</g>
</g>
<!-- Node1&#45;&gt;Node9 -->
<g id="edge25" class="edge">
<title>Node1&#45;&gt;Node9</title>
<path fill="none" stroke="midnightblue" d="M386.91,-364.95C356.58,-361.2 303.74,-350.75 269.5,-322 229.34,-288.29 207.83,-227.51 199.15,-197.2"/>
<polygon fill="midnightblue" stroke="midnightblue" points="202.52,-196.26 196.53,-187.53 195.77,-198.09 202.52,-196.26"/>
</g>
<!-- Node13 -->
<g id="node13" class="node">
<title>Node13</title>
<g id="a_node13"><a xlink:href="concepts_8h.html" target="_top" xlink:title=" ">
<polygon fill="white" stroke="black" points="180,-112.5 180,-131.5 293,-131.5 293,-112.5 180,-112.5"/>
<text text-anchor="middle" x="236.5" y="-119.5" font-family="Helvetica,sans-Serif" font-size="10.00">mp&#45;coro/concepts.h</text>
</a>
</g>
</g>
<!-- Node1&#45;&gt;Node13 -->
<g id="edge19" class="edge">
<title>Node1&#45;&gt;Node13</title>
<path fill="none" stroke="midnightblue" d="M386.99,-362.8C363.54,-357.4 328.11,-345.71 307.5,-322 260.88,-268.37 293.12,-233.05 264.5,-168 260.19,-158.21 254.02,-148.03 248.57,-139.84"/>
<polygon fill="midnightblue" stroke="midnightblue" points="251.42,-137.8 242.86,-131.55 245.66,-141.77 251.42,-137.8"/>
</g>
<!-- Node14 -->
<g id="node14" class="node">
<title>Node14</title>
<g id="a_node14"><a xlink:title=" ">
<polygon fill="white" stroke="#bfbfbf" points="326.5,-56.5 326.5,-75.5 386.5,-75.5 386.5,-56.5 326.5,-56.5"/>
<text text-anchor="middle" x="356.5" y="-63.5" font-family="Helvetica,sans-Serif" font-size="10.00">concepts</text>
</a>
</g>
</g>
<!-- Node1&#45;&gt;Node14 -->
<g id="edge26" class="edge">
<title>Node1&#45;&gt;Node14</title>
<path fill="none" stroke="midnightblue" d="M398.5,-358.37C374.2,-339.79 321.5,-293.4 321.5,-240.5 321.5,-240.5 321.5,-240.5 321.5,-177 321.5,-143.07 336.81,-105.91 347.18,-84.63"/>
<polygon fill="midnightblue" stroke="midnightblue" points="350.38,-86.05 351.78,-75.54 344.14,-82.88 350.38,-86.05"/>
</g>
<!-- Node15 -->
<g id="node15" class="node">
<title>Node15</title>
<g id="a_node15"><a xlink:title=" ">
<polygon fill="white" stroke="#bfbfbf" points="606.5,-56.5 606.5,-75.5 668.5,-75.5 668.5,-56.5 606.5,-56.5"/>
<text text-anchor="middle" x="637.5" y="-63.5" font-family="Helvetica,sans-Serif" font-size="10.00">coroutine</text>
</a>
</g>
</g>
<!-- Node1&#45;&gt;Node15 -->
<g id="edge27" class="edge">
<title>Node1&#45;&gt;Node15</title>
<path fill="none" stroke="midnightblue" d="M434.36,-364.9C492.65,-358.34 637.5,-332.76 637.5,-240.5 637.5,-240.5 637.5,-240.5 637.5,-177 637.5,-144.95 637.5,-107.64 637.5,-85.75"/>
<polygon fill="midnightblue" stroke="midnightblue" points="641,-85.56 637.5,-75.56 634,-85.56 641,-85.56"/>
</g>
<!-- Node16 -->
<g id="node16" class="node">
<title>Node16</title>
<g id="a_node16"><a xlink:href="trace_8h.html" target="_top" xlink:title=" ">
<polygon fill="white" stroke="black" points="665.5,-230 665.5,-249 759.5,-249 759.5,-230 665.5,-230"/>
<text text-anchor="middle" x="712.5" y="-237" font-family="Helvetica,sans-Serif" font-size="10.00">mp&#45;coro/trace.h</text>
</a>
</g>
</g>
<!-- Node1&#45;&gt;Node16 -->
<g id="edge24" class="edge">
<title>Node1&#45;&gt;Node16</title>
<path fill="none" stroke="midnightblue" d="M434.06,-364.79C487.32,-359.45 615.18,-344.59 651.5,-322 676.31,-306.57 694.51,-277.09 704.3,-258.13"/>
<polygon fill="midnightblue" stroke="midnightblue" points="707.48,-259.6 708.74,-249.08 701.19,-256.51 707.48,-259.6"/>
</g>
<!-- Node17 -->
<g id="node17" class="node">
<title>Node17</title>
<g id="a_node17"><a xlink:href="coro__ptr_8h.html" target="_top" xlink:title=" ">
<polygon fill="white" stroke="black" points="725.5,-297 725.5,-316 833.5,-316 833.5,-297 725.5,-297"/>
<text text-anchor="middle" x="779.5" y="-304" font-family="Helvetica,sans-Serif" font-size="10.00">mp&#45;coro/coro_ptr.h</text>
</a>
</g>
</g>
<!-- Node1&#45;&gt;Node17 -->
<g id="edge20" class="edge">
<title>Node1&#45;&gt;Node17</title>
<path fill="none" stroke="midnightblue" d="M434.18,-363.7C484.2,-356.65 604.27,-339.35 704.5,-322 711.69,-320.76 719.25,-319.38 726.69,-317.98"/>
<polygon fill="midnightblue" stroke="midnightblue" points="727.55,-321.38 736.72,-316.07 726.24,-314.5 727.55,-321.38"/>
</g>
<!-- Node4 -->
<g id="node4" class="node">
<title>Node4</title>
<g id="a_node4"><a xlink:href="nonvoid__storage_8h.html" target="_top" xlink:title=" ">
<polygon fill="white" stroke="black" points="402.5,-224.5 402.5,-254.5 522.5,-254.5 522.5,-224.5 402.5,-224.5"/>
<text text-anchor="start" x="410.5" y="-242.5" font-family="Helvetica,sans-Serif" font-size="10.00">mp&#45;coro/bits/nonvoid</text>
<text text-anchor="middle" x="462.5" y="-231.5" font-family="Helvetica,sans-Serif" font-size="10.00">_storage.h</text>
</a>
</g>
</g>
<!-- Node3&#45;&gt;Node4 -->
<g id="edge3" class="edge">
<title>Node3&#45;&gt;Node4</title>
<path fill="none" stroke="midnightblue" d="M491.47,-291.4C486.82,-283.22 480.84,-272.73 475.53,-263.39"/>
<polygon fill="midnightblue" stroke="midnightblue" points="478.5,-261.54 470.51,-254.58 472.42,-265 478.5,-261.54"/>
</g>
<!-- Node3&#45;&gt;Node14 -->
<g id="edge18" class="edge">
<title>Node3&#45;&gt;Node14</title>
<path fill="none" stroke="midnightblue" d="M514.5,-291.41C548.96,-257.35 627.35,-169.19 580.5,-112 557.73,-84.2 454.95,-73.21 396.84,-69.16"/>
<polygon fill="midnightblue" stroke="midnightblue" points="396.75,-65.64 386.54,-68.48 396.29,-72.63 396.75,-65.64"/>
</g>
<!-- Node3&#45;&gt;Node16 -->
<g id="edge17" class="edge">
<title>Node3&#45;&gt;Node16</title>
<path fill="none" stroke="midnightblue" d="M545.46,-291.48C584.13,-279.67 638.77,-263 674.88,-251.98"/>
<polygon fill="midnightblue" stroke="midnightblue" points="676.01,-255.3 684.55,-249.03 673.97,-248.6 676.01,-255.3"/>
</g>
<!-- Node5 -->
<g id="node5" class="node">
<title>Node5</title>
<g id="a_node5"><a xlink:href="storage_8h.html" target="_top" xlink:title=" ">
<polygon fill="white" stroke="black" points="399,-168.5 399,-187.5 526,-187.5 526,-168.5 399,-168.5"/>
<text text-anchor="middle" x="462.5" y="-175.5" font-family="Helvetica,sans-Serif" font-size="10.00">mp&#45;coro/bits/storage.h</text>
</a>
</g>
</g>
<!-- Node4&#45;&gt;Node5 -->
<g id="edge4" class="edge">
<title>Node4&#45;&gt;Node5</title>
<path fill="none" stroke="midnightblue" d="M462.5,-224.4C462.5,-216.47 462.5,-206.46 462.5,-197.86"/>
<polygon fill="midnightblue" stroke="midnightblue" points="466,-197.66 462.5,-187.66 459,-197.66 466,-197.66"/>
</g>
<!-- Node4&#45;&gt;Node9 -->
<g id="edge8" class="edge">
<title>Node4&#45;&gt;Node9</title>
<path fill="none" stroke="midnightblue" d="M402.36,-225.15C354.25,-214.47 287.67,-199.69 242.95,-189.76"/>
<polygon fill="midnightblue" stroke="midnightblue" points="243.44,-186.28 232.92,-187.53 241.92,-193.11 243.44,-186.28"/>
</g>
<!-- Node6 -->
<g id="node6" class="node">
<title>Node6</title>
<g id="a_node6"><a xlink:title=" ">
<polygon fill="white" stroke="#bfbfbf" points="506,-112.5 506,-131.5 571,-131.5 571,-112.5 506,-112.5"/>
<text text-anchor="middle" x="538.5" y="-119.5" font-family="Helvetica,sans-Serif" font-size="10.00">exception</text>
</a>
</g>
</g>
<!-- Node5&#45;&gt;Node6 -->
<g id="edge5" class="edge">
<title>Node5&#45;&gt;Node6</title>
<path fill="none" stroke="midnightblue" d="M474.71,-168.32C486.28,-160.11 503.88,-147.6 517.66,-137.81"/>
<polygon fill="midnightblue" stroke="midnightblue" points="519.94,-140.48 526.07,-131.83 515.89,-134.77 519.94,-140.48"/>
</g>
<!-- Node7 -->
<g id="node7" class="node">
<title>Node7</title>
<g id="a_node7"><a xlink:title=" ">
<polygon fill="white" stroke="#bfbfbf" points="350,-112.5 350,-131.5 419,-131.5 419,-112.5 350,-112.5"/>
<text text-anchor="middle" x="384.5" y="-119.5" font-family="Helvetica,sans-Serif" font-size="10.00">type_traits</text>
</a>
</g>
</g>
<!-- Node5&#45;&gt;Node7 -->
<g id="edge6" class="edge">
<title>Node5&#45;&gt;Node7</title>
<path fill="none" stroke="midnightblue" d="M449.97,-168.32C437.91,-159.98 419.47,-147.21 405.23,-137.35"/>
<polygon fill="midnightblue" stroke="midnightblue" points="407.22,-134.47 397,-131.65 403.23,-140.22 407.22,-134.47"/>
</g>
<!-- Node8 -->
<g id="node8" class="node">
<title>Node8</title>
<g id="a_node8"><a xlink:title=" ">
<polygon fill="white" stroke="#bfbfbf" points="437,-112.5 437,-131.5 488,-131.5 488,-112.5 437,-112.5"/>
<text text-anchor="middle" x="462.5" y="-119.5" font-family="Helvetica,sans-Serif" font-size="10.00">variant</text>
</a>
</g>
</g>
<!-- Node5&#45;&gt;Node8 -->
<g id="edge7" class="edge">
<title>Node5&#45;&gt;Node8</title>
<path fill="none" stroke="midnightblue" d="M462.5,-168.08C462.5,-161.01 462.5,-150.86 462.5,-141.99"/>
<polygon fill="midnightblue" stroke="midnightblue" points="466,-141.75 462.5,-131.75 459,-141.75 466,-141.75"/>
</g>
<!-- Node10 -->
<g id="node10" class="node">
<title>Node10</title>
<g id="a_node10"><a xlink:href="get__awaiter_8h.html" target="_top" xlink:title=" ">
<polygon fill="white" stroke="black" points="0,-56.5 0,-75.5 147,-75.5 147,-56.5 0,-56.5"/>
<text text-anchor="middle" x="73.5" y="-63.5" font-family="Helvetica,sans-Serif" font-size="10.00">mp&#45;coro/bits/get_awaiter.h</text>
</a>
</g>
</g>
<!-- Node9&#45;&gt;Node10 -->
<g id="edge9" class="edge">
<title>Node9&#45;&gt;Node10</title>
<path fill="none" stroke="midnightblue" d="M185.01,-168.37C164.6,-149.81 116.3,-105.91 90.48,-82.44"/>
<polygon fill="midnightblue" stroke="midnightblue" points="92.7,-79.73 82.95,-75.59 88,-84.91 92.7,-79.73"/>
</g>
<!-- Node12 -->
<g id="node12" class="node">
<title>Node12</title>
<g id="a_node12"><a xlink:href="bits_2type__traits_8h.html" target="_top" xlink:title=" ">
<polygon fill="white" stroke="black" points="165,-56.5 165,-75.5 308,-75.5 308,-56.5 165,-56.5"/>
<text text-anchor="middle" x="236.5" y="-63.5" font-family="Helvetica,sans-Serif" font-size="10.00">mp&#45;coro/bits/type_traits.h</text>
</a>
</g>
</g>
<!-- Node9&#45;&gt;Node12 -->
<g id="edge11" class="edge">
<title>Node9&#45;&gt;Node12</title>
<path fill="none" stroke="midnightblue" d="M186.74,-168.28C176.36,-155.5 160.38,-131.14 170.5,-112 177.92,-97.95 191.92,-87.47 205.12,-80.17"/>
<polygon fill="midnightblue" stroke="midnightblue" points="206.72,-83.28 214.04,-75.62 203.54,-77.04 206.72,-83.28"/>
</g>
<!-- Node9&#45;&gt;Node13 -->
<g id="edge12" class="edge">
<title>Node9&#45;&gt;Node13</title>
<path fill="none" stroke="midnightblue" d="M201.44,-168.08C207.43,-160.38 216.25,-149.03 223.55,-139.65"/>
<polygon fill="midnightblue" stroke="midnightblue" points="226.32,-141.79 229.69,-131.75 220.79,-137.5 226.32,-141.79"/>
</g>
<!-- Node11 -->
<g id="node11" class="node">
<title>Node11</title>
<g id="a_node11"><a xlink:title=" ">
<polygon fill="white" stroke="#bfbfbf" points="51,-0.5 51,-19.5 96,-19.5 96,-0.5 51,-0.5"/>
<text text-anchor="middle" x="73.5" y="-7.5" font-family="Helvetica,sans-Serif" font-size="10.00">utility</text>
</a>
</g>
</g>
<!-- Node10&#45;&gt;Node11 -->
<g id="edge10" class="edge">
<title>Node10&#45;&gt;Node11</title>
<path fill="none" stroke="midnightblue" d="M73.5,-56.08C73.5,-49.01 73.5,-38.86 73.5,-29.99"/>
<polygon fill="midnightblue" stroke="midnightblue" points="77,-29.75 73.5,-19.75 70,-29.75 77,-29.75"/>
</g>
<!-- Node13&#45;&gt;Node10 -->
<g id="edge13" class="edge">
<title>Node13&#45;&gt;Node10</title>
<path fill="none" stroke="midnightblue" d="M210.67,-112.44C183.25,-103.36 139.72,-88.94 109.07,-78.78"/>
<polygon fill="midnightblue" stroke="midnightblue" points="109.8,-75.34 99.21,-75.52 107.6,-81.98 109.8,-75.34"/>
</g>
<!-- Node13&#45;&gt;Node12 -->
<g id="edge14" class="edge">
<title>Node13&#45;&gt;Node12</title>
<path fill="none" stroke="midnightblue" d="M236.5,-112.08C236.5,-105.01 236.5,-94.86 236.5,-85.99"/>
<polygon fill="midnightblue" stroke="midnightblue" points="240,-85.75 236.5,-75.75 233,-85.75 240,-85.75"/>
</g>
<!-- Node13&#45;&gt;Node14 -->
<g id="edge15" class="edge">
<title>Node13&#45;&gt;Node14</title>
<path fill="none" stroke="midnightblue" d="M255.51,-112.44C275.09,-103.64 305.81,-89.81 328.23,-79.72"/>
<polygon fill="midnightblue" stroke="midnightblue" points="329.89,-82.81 337.57,-75.52 327.02,-76.43 329.89,-82.81"/>
</g>
<!-- Node13&#45;&gt;Node15 -->
<g id="edge16" class="edge">
<title>Node13&#45;&gt;Node15</title>
<path fill="none" stroke="midnightblue" d="M293.1,-113.38C374.9,-102.36 524.22,-82.25 596.34,-72.54"/>
<polygon fill="midnightblue" stroke="midnightblue" points="596.96,-75.99 606.41,-71.19 596.03,-69.05 596.96,-75.99"/>
</g>
<!-- Node17&#45;&gt;Node15 -->
<g id="edge22" class="edge">
<title>Node17&#45;&gt;Node15</title>
<path fill="none" stroke="midnightblue" d="M779.86,-296.99C780.2,-281.7 779.43,-248.83 768.5,-224 741.94,-163.68 685,-108.27 655.71,-82.38"/>
<polygon fill="midnightblue" stroke="midnightblue" points="657.75,-79.51 647.91,-75.6 653.16,-84.8 657.75,-79.51"/>
</g>
<!-- Node17&#45;&gt;Node16 -->
<g id="edge21" class="edge">
<title>Node17&#45;&gt;Node16</title>
<path fill="none" stroke="midnightblue" d="M770.46,-296.73C759.82,-286.4 741.92,-269.04 728.82,-256.33"/>
<polygon fill="midnightblue" stroke="midnightblue" points="731.01,-253.58 721.39,-249.13 726.13,-258.6 731.01,-253.58"/>
</g>
<!-- Node18 -->
<g id="node18" class="node">
<title>Node18</title>
<g id="a_node18"><a xlink:title=" ">
<polygon fill="white" stroke="#bfbfbf" points="815.5,-230 815.5,-249 873.5,-249 873.5,-230 815.5,-230"/>
<text text-anchor="middle" x="844.5" y="-237" font-family="Helvetica,sans-Serif" font-size="10.00">memory</text>
</a>
</g>
</g>
<!-- Node17&#45;&gt;Node18 -->
<g id="edge23" class="edge">
<title>Node17&#45;&gt;Node18</title>
<path fill="none" stroke="midnightblue" d="M788.27,-296.73C798.6,-286.4 815.96,-269.04 828.67,-256.33"/>
<polygon fill="midnightblue" stroke="midnightblue" points="831.28,-258.67 835.87,-249.13 826.33,-253.72 831.28,-258.67"/>
</g>
</g>
</svg>
