<?xml version="1.0" encoding="UTF-8" standalone="no"?>
<!DOCTYPE svg PUBLIC "-//W3C//DTD SVG 1.1//EN"
 "http://www.w3.org/Graphics/SVG/1.1/DTD/svg11.dtd">
<!-- Generated by graphviz version 2.43.0 (0)
 -->
<!-- Title: trace.h Pages: 1 -->
<svg width="446pt" height="196pt"
 viewBox="0.00 0.00 445.90 196.00" xmlns="http://www.w3.org/2000/svg" xmlns:xlink="http://www.w3.org/1999/xlink">
<g id="graph0" class="graph" transform="scale(1 1) rotate(0) translate(4 192)">
<title>trace.h</title>
<polygon fill="white" stroke="transparent" points="-4,4 -4,-192 441.9,-192 441.9,4 -4,4"/>
<!-- Node1 -->
<g id="node1" class="node">
<title>Node1</title>
<g id="a_node1"><a xlink:title=" ">
<polygon fill="#bfbfbf" stroke="black" points="186,-168.5 186,-187.5 236,-187.5 236,-168.5 186,-168.5"/>
<text text-anchor="middle" x="211" y="-175.5" font-family="Helvetica,sans-Serif" font-size="10.00">trace.h</text>
</a>
</g>
</g>
<!-- Node2 -->
<g id="node2" class="node">
<title>Node2</title>
<g id="a_node2"><a xlink:href="async_8h.html" target="_top" xlink:title=" ">
<polygon fill="white" stroke="black" points="0,-112.5 0,-131.5 54,-131.5 54,-112.5 0,-112.5"/>
<text text-anchor="middle" x="27" y="-119.5" font-family="Helvetica,sans-Serif" font-size="10.00">async.h</text>
</a>
</g>
</g>
<!-- Node1&#45;&gt;Node2 -->
<g id="edge1" class="edge">
<title>Node1&#45;&gt;Node2</title>
<path fill="none" stroke="midnightblue" d="M175.9,-166.7C140.5,-156.31 86.6,-140.49 54.29,-131.01"/>
<polygon fill="midnightblue" stroke="midnightblue" points="175.22,-170.15 185.8,-169.6 177.19,-163.43 175.22,-170.15"/>
</g>
<!-- Node3 -->
<g id="node3" class="node">
<title>Node3</title>
<g id="a_node3"><a xlink:href="coro__ptr_8h.html" target="_top" xlink:title=" ">
<polygon fill="white" stroke="black" points="148.5,-112.5 148.5,-131.5 213.5,-131.5 213.5,-112.5 148.5,-112.5"/>
<text text-anchor="middle" x="181" y="-119.5" font-family="Helvetica,sans-Serif" font-size="10.00">coro_ptr.h</text>
</a>
</g>
</g>
<!-- Node1&#45;&gt;Node3 -->
<g id="edge2" class="edge">
<title>Node1&#45;&gt;Node3</title>
<path fill="none" stroke="midnightblue" d="M201.15,-159.27C196.03,-150.05 189.98,-139.17 185.86,-131.75"/>
<polygon fill="midnightblue" stroke="midnightblue" points="198.13,-161.04 206.05,-168.08 204.25,-157.64 198.13,-161.04"/>
</g>
<!-- Node4 -->
<g id="node4" class="node">
<title>Node4</title>
<g id="a_node4"><a xlink:href="generator_8h.html" target="_top" xlink:title=" ">
<polygon fill="white" stroke="black" points="110,-56.5 110,-75.5 182,-75.5 182,-56.5 110,-56.5"/>
<text text-anchor="middle" x="146" y="-63.5" font-family="Helvetica,sans-Serif" font-size="10.00">generator.h</text>
</a>
</g>
</g>
<!-- Node1&#45;&gt;Node4 -->
<g id="edge8" class="edge">
<title>Node1&#45;&gt;Node4</title>
<path fill="none" stroke="midnightblue" d="M176.65,-164.39C162.32,-157.23 147.15,-146.7 139,-132 128.99,-113.93 136.75,-88.7 142.07,-75.62"/>
<polygon fill="midnightblue" stroke="midnightblue" points="175.31,-167.63 185.85,-168.62 178.23,-161.27 175.31,-167.63"/>
</g>
<!-- Node5 -->
<g id="node5" class="node">
<title>Node5</title>
<g id="a_node5"><a xlink:href="synchronized__task_8h.html" target="_top" xlink:title=" ">
<polygon fill="white" stroke="black" points="200,-56.5 200,-75.5 316,-75.5 316,-56.5 200,-56.5"/>
<text text-anchor="middle" x="258" y="-63.5" font-family="Helvetica,sans-Serif" font-size="10.00">synchronized_task.h</text>
</a>
</g>
</g>
<!-- Node1&#45;&gt;Node5 -->
<g id="edge10" class="edge">
<title>Node1&#45;&gt;Node5</title>
<path fill="none" stroke="midnightblue" d="M218.69,-159C228.95,-135 246.69,-93.47 254.33,-75.59"/>
<polygon fill="midnightblue" stroke="midnightblue" points="215.4,-157.8 214.69,-168.37 221.84,-160.55 215.4,-157.8"/>
</g>
<!-- Node6 -->
<g id="node6" class="node">
<title>Node6</title>
<g id="a_node6"><a xlink:href="sync__await_8h.html" target="_top" xlink:title=" ">
<polygon fill="white" stroke="black" points="151,-0.5 151,-19.5 231,-19.5 231,-0.5 151,-0.5"/>
<text text-anchor="middle" x="191" y="-7.5" font-family="Helvetica,sans-Serif" font-size="10.00">sync_await.h</text>
</a>
</g>
</g>
<!-- Node1&#45;&gt;Node6 -->
<g id="edge9" class="edge">
<title>Node1&#45;&gt;Node6</title>
<path fill="none" stroke="midnightblue" d="M178.94,-164.13C163.07,-156.56 144.48,-145.76 131,-132 111.24,-111.83 107.87,-103.39 101,-76 98.84,-67.38 96.33,-63.56 101,-56 112.57,-37.28 134.56,-26.08 153.9,-19.54"/>
<polygon fill="midnightblue" stroke="midnightblue" points="177.85,-167.48 188.4,-168.42 180.74,-161.1 177.85,-167.48"/>
</g>
<!-- Node7 -->
<g id="node7" class="node">
<title>Node7</title>
<g id="a_node7"><a xlink:href="when__all_8h.html" target="_top" xlink:title=" ">
<polygon fill="white" stroke="black" points="290.5,-0.5 290.5,-19.5 359.5,-19.5 359.5,-0.5 290.5,-0.5"/>
<text text-anchor="middle" x="325" y="-7.5" font-family="Helvetica,sans-Serif" font-size="10.00">when_all.h</text>
</a>
</g>
</g>
<!-- Node1&#45;&gt;Node7 -->
<g id="edge15" class="edge">
<title>Node1&#45;&gt;Node7</title>
<path fill="none" stroke="midnightblue" d="M246.3,-174.97C302.02,-170.94 406.36,-159.8 429,-132 464.08,-88.94 380.42,-39.11 342.49,-19.52"/>
<polygon fill="midnightblue" stroke="midnightblue" points="245.91,-171.49 236.17,-175.66 246.39,-178.47 245.91,-171.49"/>
</g>
<!-- Node8 -->
<g id="node8" class="node">
<title>Node8</title>
<g id="a_node8"><a xlink:href="task_8h.html" target="_top" xlink:title=" ">
<polygon fill="white" stroke="black" points="334.5,-56.5 334.5,-75.5 381.5,-75.5 381.5,-56.5 334.5,-56.5"/>
<text text-anchor="middle" x="358" y="-63.5" font-family="Helvetica,sans-Serif" font-size="10.00">task.h</text>
</a>
</g>
</g>
<!-- Node1&#45;&gt;Node8 -->
<g id="edge11" class="edge">
<title>Node1&#45;&gt;Node8</title>
<path fill="none" stroke="midnightblue" d="M246.38,-174.32C298.64,-169.55 392.5,-157.57 413,-132 429.55,-111.36 396.07,-87.8 374.43,-75.5"/>
<polygon fill="midnightblue" stroke="midnightblue" points="245.87,-170.85 236.21,-175.21 246.48,-177.83 245.87,-170.85"/>
</g>
<!-- Node9 -->
<g id="node9" class="node">
<title>Node9</title>
<g id="a_node9"><a xlink:href="task__promise__storage_8h.html" target="_top" xlink:title=" ">
<polygon fill="white" stroke="black" points="270,-112.5 270,-131.5 404,-131.5 404,-112.5 270,-112.5"/>
<text text-anchor="middle" x="337" y="-119.5" font-family="Helvetica,sans-Serif" font-size="10.00">task_promise_storage.h</text>
</a>
</g>
</g>
<!-- Node1&#45;&gt;Node9 -->
<g id="edge12" class="edge">
<title>Node1&#45;&gt;Node9</title>
<path fill="none" stroke="midnightblue" d="M240.16,-164.5C263.78,-154.38 296.43,-140.39 317.13,-131.52"/>
<polygon fill="midnightblue" stroke="midnightblue" points="238.78,-161.29 230.97,-168.44 241.54,-167.72 238.78,-161.29"/>
</g>
<!-- Node3&#45;&gt;Node4 -->
<g id="edge3" class="edge">
<title>Node3&#45;&gt;Node4</title>
<path fill="none" stroke="midnightblue" d="M169.7,-103.57C163.68,-94.27 156.53,-83.25 151.67,-75.75"/>
<polygon fill="midnightblue" stroke="midnightblue" points="166.84,-105.6 175.22,-112.08 172.72,-101.79 166.84,-105.6"/>
</g>
<!-- Node3&#45;&gt;Node5 -->
<g id="edge4" class="edge">
<title>Node3&#45;&gt;Node5</title>
<path fill="none" stroke="midnightblue" d="M201.9,-106.34C215.91,-96.52 233.88,-83.91 245.66,-75.65"/>
<polygon fill="midnightblue" stroke="midnightblue" points="199.55,-103.72 193.37,-112.32 203.57,-109.45 199.55,-103.72"/>
</g>
<!-- Node3&#45;&gt;Node8 -->
<g id="edge7" class="edge">
<title>Node3&#45;&gt;Node8</title>
<path fill="none" stroke="midnightblue" d="M218.91,-109.43C253.91,-98.76 304.79,-83.23 334.33,-74.22"/>
<polygon fill="midnightblue" stroke="midnightblue" points="217.59,-106.18 209.05,-112.44 219.63,-112.87 217.59,-106.18"/>
</g>
<!-- Node5&#45;&gt;Node6 -->
<g id="edge5" class="edge">
<title>Node5&#45;&gt;Node6</title>
<path fill="none" stroke="midnightblue" d="M239.17,-49.82C227.16,-40.15 212.03,-27.95 201.96,-19.83"/>
<polygon fill="midnightblue" stroke="midnightblue" points="237.25,-52.77 247.24,-56.32 241.65,-47.32 237.25,-52.77"/>
</g>
<!-- Node5&#45;&gt;Node7 -->
<g id="edge6" class="edge">
<title>Node5&#45;&gt;Node7</title>
<path fill="none" stroke="midnightblue" d="M276.83,-49.82C288.84,-40.15 303.97,-27.95 314.04,-19.83"/>
<polygon fill="midnightblue" stroke="midnightblue" points="274.35,-47.32 268.76,-56.32 278.75,-52.77 274.35,-47.32"/>
</g>
<!-- Node9&#45;&gt;Node5 -->
<g id="edge13" class="edge">
<title>Node9&#45;&gt;Node5</title>
<path fill="none" stroke="midnightblue" d="M315.97,-106.62C301.53,-96.76 282.86,-83.99 270.66,-75.65"/>
<polygon fill="midnightblue" stroke="midnightblue" points="314.08,-109.57 324.31,-112.32 318.03,-103.79 314.08,-109.57"/>
</g>
<!-- Node9&#45;&gt;Node8 -->
<g id="edge14" class="edge">
<title>Node9&#45;&gt;Node8</title>
<path fill="none" stroke="midnightblue" d="M344.12,-102.69C347.66,-93.59 351.77,-83.01 354.6,-75.75"/>
<polygon fill="midnightblue" stroke="midnightblue" points="340.83,-101.49 340.47,-112.08 347.35,-104.03 340.83,-101.49"/>
</g>
</g>
</svg>
