<?xml version="1.0" encoding="UTF-8" standalone="no"?>
<!DOCTYPE svg PUBLIC "-//W3C//DTD SVG 1.1//EN"
 "http://www.w3.org/Graphics/SVG/1.1/DTD/svg11.dtd">
<!-- Generated by graphviz version 2.43.0 (0)
 -->
<!-- Title: type_traits.h Pages: 1 -->
<svg width="475pt" height="196pt"
 viewBox="0.00 0.00 474.50 196.00" xmlns="http://www.w3.org/2000/svg" xmlns:xlink="http://www.w3.org/1999/xlink">
<g id="graph0" class="graph" transform="scale(1 1) rotate(0) translate(4 192)">
<title>type_traits.h</title>
<polygon fill="white" stroke="transparent" points="-4,4 -4,-192 470.5,-192 470.5,4 -4,4"/>
<!-- Node1 -->
<g id="node1" class="node">
<title>Node1</title>
<g id="a_node1"><a xlink:title=" ">
<polygon fill="#bfbfbf" stroke="black" points="154.5,-168.5 154.5,-187.5 232.5,-187.5 232.5,-168.5 154.5,-168.5"/>
<text text-anchor="middle" x="193.5" y="-175.5" font-family="Helvetica,sans-Serif" font-size="10.00">type_traits.h</text>
</a>
</g>
</g>
<!-- Node2 -->
<g id="node2" class="node">
<title>Node2</title>
<g id="a_node2"><a xlink:href="get__awaiter_8h.html" target="_top" xlink:title=" ">
<polygon fill="white" stroke="black" points="0,-56.5 0,-75.5 147,-75.5 147,-56.5 0,-56.5"/>
<text text-anchor="middle" x="73.5" y="-63.5" font-family="Helvetica,sans-Serif" font-size="10.00">mp&#45;coro/bits/get_awaiter.h</text>
</a>
</g>
</g>
<!-- Node1&#45;&gt;Node2 -->
<g id="edge1" class="edge">
<title>Node1&#45;&gt;Node2</title>
<path fill="none" stroke="midnightblue" d="M184.08,-168.37C163.84,-149.81 115.95,-105.91 90.34,-82.44"/>
<polygon fill="midnightblue" stroke="midnightblue" points="92.61,-79.77 82.87,-75.59 87.88,-84.93 92.61,-79.77"/>
</g>
<!-- Node4 -->
<g id="node4" class="node">
<title>Node4</title>
<g id="a_node4"><a xlink:href="bits_2type__traits_8h.html" target="_top" xlink:title=" ">
<polygon fill="white" stroke="black" points="165,-56.5 165,-75.5 308,-75.5 308,-56.5 165,-56.5"/>
<text text-anchor="middle" x="236.5" y="-63.5" font-family="Helvetica,sans-Serif" font-size="10.00">mp&#45;coro/bits/type_traits.h</text>
</a>
</g>
</g>
<!-- Node1&#45;&gt;Node4 -->
<g id="edge3" class="edge">
<title>Node1&#45;&gt;Node4</title>
<path fill="none" stroke="midnightblue" d="M195.42,-168.4C198.36,-155.77 204.51,-131.6 212.5,-112 216.3,-102.67 221.46,-92.75 226.03,-84.6"/>
<polygon fill="midnightblue" stroke="midnightblue" points="229.2,-86.11 231.16,-75.7 223.13,-82.62 229.2,-86.11"/>
</g>
<!-- Node5 -->
<g id="node5" class="node">
<title>Node5</title>
<g id="a_node5"><a xlink:href="concepts_8h.html" target="_top" xlink:title=" ">
<polygon fill="white" stroke="black" points="222,-112.5 222,-131.5 335,-131.5 335,-112.5 222,-112.5"/>
<text text-anchor="middle" x="278.5" y="-119.5" font-family="Helvetica,sans-Serif" font-size="10.00">mp&#45;coro/concepts.h</text>
</a>
</g>
</g>
<!-- Node1&#45;&gt;Node5 -->
<g id="edge4" class="edge">
<title>Node1&#45;&gt;Node5</title>
<path fill="none" stroke="midnightblue" d="M207.16,-168.32C220.42,-159.9 240.77,-146.97 256.35,-137.07"/>
<polygon fill="midnightblue" stroke="midnightblue" points="258.31,-139.97 264.88,-131.65 254.56,-134.06 258.31,-139.97"/>
</g>
<!-- Node3 -->
<g id="node3" class="node">
<title>Node3</title>
<g id="a_node3"><a xlink:title=" ">
<polygon fill="white" stroke="#bfbfbf" points="51,-0.5 51,-19.5 96,-19.5 96,-0.5 51,-0.5"/>
<text text-anchor="middle" x="73.5" y="-7.5" font-family="Helvetica,sans-Serif" font-size="10.00">utility</text>
</a>
</g>
</g>
<!-- Node2&#45;&gt;Node3 -->
<g id="edge2" class="edge">
<title>Node2&#45;&gt;Node3</title>
<path fill="none" stroke="midnightblue" d="M73.5,-56.08C73.5,-49.01 73.5,-38.86 73.5,-29.99"/>
<polygon fill="midnightblue" stroke="midnightblue" points="77,-29.75 73.5,-19.75 70,-29.75 77,-29.75"/>
</g>
<!-- Node5&#45;&gt;Node2 -->
<g id="edge5" class="edge">
<title>Node5&#45;&gt;Node2</title>
<path fill="none" stroke="midnightblue" d="M246.02,-112.44C210.78,-103.16 154.4,-88.31 115.74,-78.13"/>
<polygon fill="midnightblue" stroke="midnightblue" points="116.39,-74.68 105.83,-75.52 114.61,-81.45 116.39,-74.68"/>
</g>
<!-- Node5&#45;&gt;Node4 -->
<g id="edge6" class="edge">
<title>Node5&#45;&gt;Node4</title>
<path fill="none" stroke="midnightblue" d="M271.56,-112.08C265.57,-104.38 256.75,-93.03 249.45,-83.65"/>
<polygon fill="midnightblue" stroke="midnightblue" points="252.21,-81.5 243.31,-75.75 246.68,-85.79 252.21,-81.5"/>
</g>
<!-- Node6 -->
<g id="node6" class="node">
<title>Node6</title>
<g id="a_node6"><a xlink:title=" ">
<polygon fill="white" stroke="#bfbfbf" points="326.5,-56.5 326.5,-75.5 386.5,-75.5 386.5,-56.5 326.5,-56.5"/>
<text text-anchor="middle" x="356.5" y="-63.5" font-family="Helvetica,sans-Serif" font-size="10.00">concepts</text>
</a>
</g>
</g>
<!-- Node5&#45;&gt;Node6 -->
<g id="edge7" class="edge">
<title>Node5&#45;&gt;Node6</title>
<path fill="none" stroke="midnightblue" d="M291.03,-112.32C303.09,-103.98 321.53,-91.21 335.77,-81.35"/>
<polygon fill="midnightblue" stroke="midnightblue" points="337.77,-84.22 344,-75.65 333.78,-78.47 337.77,-84.22"/>
</g>
<!-- Node7 -->
<g id="node7" class="node">
<title>Node7</title>
<g id="a_node7"><a xlink:title=" ">
<polygon fill="white" stroke="#bfbfbf" points="404.5,-56.5 404.5,-75.5 466.5,-75.5 466.5,-56.5 404.5,-56.5"/>
<text text-anchor="middle" x="435.5" y="-63.5" font-family="Helvetica,sans-Serif" font-size="10.00">coroutine</text>
</a>
</g>
</g>
<!-- Node5&#45;&gt;Node7 -->
<g id="edge8" class="edge">
<title>Node5&#45;&gt;Node7</title>
<path fill="none" stroke="midnightblue" d="M303.38,-112.44C329.79,-103.36 371.72,-88.94 401.24,-78.78"/>
<polygon fill="midnightblue" stroke="midnightblue" points="402.42,-82.08 410.74,-75.52 400.14,-75.46 402.42,-82.08"/>
</g>
</g>
</svg>
