<?xml version="1.0" encoding="UTF-8" standalone="no"?>
<!DOCTYPE svg PUBLIC "-//W3C//DTD SVG 1.1//EN"
 "http://www.w3.org/Graphics/SVG/1.1/DTD/svg11.dtd">
<!-- Generated by graphviz version 2.43.0 (0)
 -->
<!-- Title: type_traits.h Pages: 1 -->
<svg width="229pt" height="252pt"
 viewBox="0.00 0.00 229.09 252.00" xmlns="http://www.w3.org/2000/svg" xmlns:xlink="http://www.w3.org/1999/xlink">
<g id="graph0" class="graph" transform="scale(1 1) rotate(0) translate(4 248)">
<title>type_traits.h</title>
<polygon fill="white" stroke="transparent" points="-4,4 -4,-248 225.09,-248 225.09,4 -4,4"/>
<!-- Node1 -->
<g id="node1" class="node">
<title>Node1</title>
<g id="a_node1"><a xlink:title=" ">
<polygon fill="#bfbfbf" stroke="black" points="97.59,-224.5 97.59,-243.5 175.59,-243.5 175.59,-224.5 97.59,-224.5"/>
<text text-anchor="middle" x="136.59" y="-231.5" font-family="Helvetica,sans-Serif" font-size="10.00">type_traits.h</text>
</a>
</g>
</g>
<!-- Node2 -->
<g id="node2" class="node">
<title>Node2</title>
<g id="a_node2"><a xlink:href="nonvoid__storage_8h.html" target="_top" xlink:title=" ">
<polygon fill="white" stroke="black" points="36.09,-168.5 36.09,-187.5 143.09,-187.5 143.09,-168.5 36.09,-168.5"/>
<text text-anchor="middle" x="89.59" y="-175.5" font-family="Helvetica,sans-Serif" font-size="10.00">nonvoid_storage.h</text>
</a>
</g>
</g>
<!-- Node1&#45;&gt;Node2 -->
<g id="edge1" class="edge">
<title>Node1&#45;&gt;Node2</title>
<path fill="none" stroke="midnightblue" d="M122.16,-216.43C113.93,-206.97 103.93,-195.48 97.2,-187.75"/>
<polygon fill="midnightblue" stroke="midnightblue" points="119.62,-218.84 128.82,-224.08 124.9,-214.24 119.62,-218.84"/>
</g>
<!-- Node4 -->
<g id="node4" class="node">
<title>Node4</title>
<g id="a_node4"><a xlink:href="synchronized__task_8h.html" target="_top" xlink:title=" ">
<polygon fill="white" stroke="black" points="6.59,-56.5 6.59,-75.5 122.59,-75.5 122.59,-56.5 6.59,-56.5"/>
<text text-anchor="middle" x="64.59" y="-63.5" font-family="Helvetica,sans-Serif" font-size="10.00">synchronized_task.h</text>
</a>
</g>
</g>
<!-- Node1&#45;&gt;Node4 -->
<g id="edge7" class="edge">
<title>Node1&#45;&gt;Node4</title>
<path fill="none" stroke="midnightblue" d="M87.69,-222.71C66.44,-216 42.76,-205.19 26.59,-188 2.73,-162.64 -7.6,-143.33 7.59,-112 15.61,-95.43 33.02,-83.13 46.5,-75.61"/>
<polygon fill="midnightblue" stroke="midnightblue" points="86.98,-226.15 97.56,-225.59 88.94,-219.43 86.98,-226.15"/>
</g>
<!-- Node6 -->
<g id="node6" class="node">
<title>Node6</title>
<g id="a_node6"><a xlink:href="when__all_8h.html" target="_top" xlink:title=" ">
<polygon fill="white" stroke="black" points="152.09,-0.5 152.09,-19.5 221.09,-19.5 221.09,-0.5 152.09,-0.5"/>
<text text-anchor="middle" x="186.59" y="-7.5" font-family="Helvetica,sans-Serif" font-size="10.00">when_all.h</text>
</a>
</g>
</g>
<!-- Node1&#45;&gt;Node6 -->
<g id="edge9" class="edge">
<title>Node1&#45;&gt;Node6</title>
<path fill="none" stroke="midnightblue" d="M149.81,-215.98C155.61,-207.86 162.1,-197.8 166.59,-188 188.07,-141.03 190.63,-127.18 197.59,-76 200.33,-55.81 193.94,-32.27 189.79,-19.8"/>
<polygon fill="midnightblue" stroke="midnightblue" points="146.85,-214.08 143.7,-224.2 152.47,-218.26 146.85,-214.08"/>
</g>
<!-- Node7 -->
<g id="node7" class="node">
<title>Node7</title>
<g id="a_node7"><a xlink:href="task_8h.html" target="_top" xlink:title=" ">
<polygon fill="white" stroke="black" points="141.09,-56.5 141.09,-75.5 188.09,-75.5 188.09,-56.5 141.09,-56.5"/>
<text text-anchor="middle" x="164.59" y="-63.5" font-family="Helvetica,sans-Serif" font-size="10.00">task.h</text>
</a>
</g>
</g>
<!-- Node1&#45;&gt;Node7 -->
<g id="edge8" class="edge">
<title>Node1&#45;&gt;Node7</title>
<path fill="none" stroke="midnightblue" d="M143.53,-214.66C146.37,-206.58 149.48,-196.92 151.59,-188 161.34,-146.67 163.79,-95.65 164.39,-75.63"/>
<polygon fill="midnightblue" stroke="midnightblue" points="140.2,-213.58 140.05,-224.17 146.77,-215.98 140.2,-213.58"/>
</g>
<!-- Node3 -->
<g id="node3" class="node">
<title>Node3</title>
<g id="a_node3"><a xlink:href="task__promise__storage_8h.html" target="_top" xlink:title=" ">
<polygon fill="white" stroke="black" points="16.59,-112.5 16.59,-131.5 150.59,-131.5 150.59,-112.5 16.59,-112.5"/>
<text text-anchor="middle" x="83.59" y="-119.5" font-family="Helvetica,sans-Serif" font-size="10.00">task_promise_storage.h</text>
</a>
</g>
</g>
<!-- Node2&#45;&gt;Node3 -->
<g id="edge2" class="edge">
<title>Node2&#45;&gt;Node3</title>
<path fill="none" stroke="midnightblue" d="M87.49,-158.1C86.49,-149.14 85.35,-138.86 84.56,-131.75"/>
<polygon fill="midnightblue" stroke="midnightblue" points="84.01,-158.53 88.59,-168.08 90.97,-157.76 84.01,-158.53"/>
</g>
<!-- Node3&#45;&gt;Node4 -->
<g id="edge3" class="edge">
<title>Node3&#45;&gt;Node4</title>
<path fill="none" stroke="midnightblue" d="M77.04,-102.4C73.86,-93.36 70.19,-82.94 67.66,-75.75"/>
<polygon fill="midnightblue" stroke="midnightblue" points="73.83,-103.81 80.45,-112.08 80.43,-101.49 73.83,-103.81"/>
</g>
<!-- Node3&#45;&gt;Node7 -->
<g id="edge6" class="edge">
<title>Node3&#45;&gt;Node7</title>
<path fill="none" stroke="midnightblue" d="M105.15,-106.62C119.95,-96.76 139.1,-83.99 151.6,-75.65"/>
<polygon fill="midnightblue" stroke="midnightblue" points="102.98,-103.86 96.6,-112.32 106.86,-109.69 102.98,-103.86"/>
</g>
<!-- Node5 -->
<g id="node5" class="node">
<title>Node5</title>
<g id="a_node5"><a xlink:href="sync__await_8h.html" target="_top" xlink:title=" ">
<polygon fill="white" stroke="black" points="24.59,-0.5 24.59,-19.5 104.59,-19.5 104.59,-0.5 24.59,-0.5"/>
<text text-anchor="middle" x="64.59" y="-7.5" font-family="Helvetica,sans-Serif" font-size="10.00">sync_await.h</text>
</a>
</g>
</g>
<!-- Node4&#45;&gt;Node5 -->
<g id="edge4" class="edge">
<title>Node4&#45;&gt;Node5</title>
<path fill="none" stroke="midnightblue" d="M64.59,-45.8C64.59,-36.91 64.59,-26.78 64.59,-19.75"/>
<polygon fill="midnightblue" stroke="midnightblue" points="61.09,-46.08 64.59,-56.08 68.09,-46.08 61.09,-46.08"/>
</g>
<!-- Node4&#45;&gt;Node6 -->
<g id="edge5" class="edge">
<title>Node4&#45;&gt;Node6</title>
<path fill="none" stroke="midnightblue" d="M93.13,-52.37C115.97,-42.26 147.39,-28.35 167.34,-19.52"/>
<polygon fill="midnightblue" stroke="midnightblue" points="91.64,-49.2 83.92,-56.44 94.48,-55.6 91.64,-49.2"/>
</g>
</g>
</svg>
