<?xml version="1.0" encoding="UTF-8" standalone="no"?>
<!DOCTYPE svg PUBLIC "-//W3C//DTD SVG 1.1//EN"
 "http://www.w3.org/Graphics/SVG/1.1/DTD/svg11.dtd">
<!-- Generated by graphviz version 2.43.0 (0)
 -->
<!-- Title: when_all.h Pages: 1 -->
<svg width="1077pt" height="453pt"
 viewBox="0.00 0.00 1077.00 453.00" xmlns="http://www.w3.org/2000/svg" xmlns:xlink="http://www.w3.org/1999/xlink">
<g id="graph0" class="graph" transform="scale(1 1) rotate(0) translate(4 449)">
<title>when_all.h</title>
<polygon fill="white" stroke="transparent" points="-4,4 -4,-449 1073,-449 1073,4 -4,4"/>
<!-- Node1 -->
<g id="node1" class="node">
<title>Node1</title>
<g id="a_node1"><a xlink:title=" ">
<polygon fill="#bfbfbf" stroke="black" points="722,-425.5 722,-444.5 791,-444.5 791,-425.5 722,-425.5"/>
<text text-anchor="middle" x="756.5" y="-432.5" font-family="Helvetica,sans-Serif" font-size="10.00">when_all.h</text>
</a>
</g>
</g>
<!-- Node2 -->
<g id="node2" class="node">
<title>Node2</title>
<g id="a_node2"><a xlink:href="synchronized__task_8h.html" target="_top" xlink:title=" ">
<polygon fill="white" stroke="black" points="433.5,-358.5 433.5,-388.5 579.5,-388.5 579.5,-358.5 433.5,-358.5"/>
<text text-anchor="start" x="441.5" y="-376.5" font-family="Helvetica,sans-Serif" font-size="10.00">mp&#45;coro/bits/synchronized</text>
<text text-anchor="middle" x="506.5" y="-365.5" font-family="Helvetica,sans-Serif" font-size="10.00">_task.h</text>
</a>
</g>
</g>
<!-- Node1&#45;&gt;Node2 -->
<g id="edge1" class="edge">
<title>Node1&#45;&gt;Node2</title>
<path fill="none" stroke="midnightblue" d="M721.74,-425.73C684.04,-416.75 622.88,-402.2 575.38,-390.89"/>
<polygon fill="midnightblue" stroke="midnightblue" points="576,-387.44 565.46,-388.53 574.38,-394.25 576,-387.44"/>
</g>
<!-- Node10 -->
<g id="node10" class="node">
<title>Node10</title>
<g id="a_node10"><a xlink:href="type__traits_8h.html" target="_top" xlink:title=" ">
<polygon fill="white" stroke="black" points="62.5,-168.5 62.5,-187.5 184.5,-187.5 184.5,-168.5 62.5,-168.5"/>
<text text-anchor="middle" x="123.5" y="-175.5" font-family="Helvetica,sans-Serif" font-size="10.00">mp&#45;coro/type_traits.h</text>
</a>
</g>
</g>
<!-- Node1&#45;&gt;Node10 -->
<g id="edge29" class="edge">
<title>Node1&#45;&gt;Node10</title>
<path fill="none" stroke="midnightblue" d="M721.65,-433.97C598.37,-433.53 188,-429.05 146.5,-389 93.8,-338.14 109.32,-238.85 118.7,-197.63"/>
<polygon fill="midnightblue" stroke="midnightblue" points="122.12,-198.38 121.07,-187.84 115.32,-196.73 122.12,-198.38"/>
</g>
<!-- Node14 -->
<g id="node14" class="node">
<title>Node14</title>
<g id="a_node14"><a xlink:href="concepts_8h.html" target="_top" xlink:title=" ">
<polygon fill="white" stroke="black" points="165,-112.5 165,-131.5 278,-131.5 278,-112.5 165,-112.5"/>
<text text-anchor="middle" x="221.5" y="-119.5" font-family="Helvetica,sans-Serif" font-size="10.00">mp&#45;coro/concepts.h</text>
</a>
</g>
</g>
<!-- Node1&#45;&gt;Node14 -->
<g id="edge27" class="edge">
<title>Node1&#45;&gt;Node14</title>
<path fill="none" stroke="midnightblue" d="M721.89,-432.58C612.57,-427.26 278.35,-404.4 218.5,-322 178.58,-267.04 201.74,-179.13 214.64,-141.3"/>
<polygon fill="midnightblue" stroke="midnightblue" points="218.02,-142.23 218.09,-131.63 211.43,-139.88 218.02,-142.23"/>
</g>
<!-- Node16 -->
<g id="node16" class="node">
<title>Node16</title>
<g id="a_node16"><a xlink:title=" ">
<polygon fill="white" stroke="#bfbfbf" points="724.5,-56.5 724.5,-75.5 786.5,-75.5 786.5,-56.5 724.5,-56.5"/>
<text text-anchor="middle" x="755.5" y="-63.5" font-family="Helvetica,sans-Serif" font-size="10.00">coroutine</text>
</a>
</g>
</g>
<!-- Node1&#45;&gt;Node16 -->
<g id="edge31" class="edge">
<title>Node1&#45;&gt;Node16</title>
<path fill="none" stroke="midnightblue" d="M753.38,-425.27C748.71,-410.83 741.3,-381.24 749.5,-358 756.33,-338.62 768,-339.66 778.5,-322 798.57,-288.27 812.5,-279.75 812.5,-240.5 812.5,-240.5 812.5,-240.5 812.5,-177 812.5,-140.3 787.18,-103.66 770.29,-83.3"/>
<polygon fill="midnightblue" stroke="midnightblue" points="772.85,-80.9 763.67,-75.62 767.55,-85.48 772.85,-80.9"/>
</g>
<!-- Node17 -->
<g id="node17" class="node">
<title>Node17</title>
<g id="a_node17"><a xlink:href="trace_8h.html" target="_top" xlink:title=" ">
<polygon fill="white" stroke="black" points="477.5,-230 477.5,-249 571.5,-249 571.5,-230 477.5,-230"/>
<text text-anchor="middle" x="524.5" y="-237" font-family="Helvetica,sans-Serif" font-size="10.00">mp&#45;coro/trace.h</text>
</a>
</g>
</g>
<!-- Node1&#45;&gt;Node17 -->
<g id="edge28" class="edge">
<title>Node1&#45;&gt;Node17</title>
<path fill="none" stroke="midnightblue" d="M747.02,-425.38C722.06,-402.78 652.22,-340.1 591.5,-291 576.08,-278.53 558.1,-265.04 544.66,-255.14"/>
<polygon fill="midnightblue" stroke="midnightblue" points="546.68,-252.28 536.55,-249.2 542.55,-257.93 546.68,-252.28"/>
</g>
<!-- Node20 -->
<g id="node20" class="node">
<title>Node20</title>
<g id="a_node20"><a xlink:title=" ">
<polygon fill="white" stroke="#bfbfbf" points="758.5,-364 758.5,-383 808.5,-383 808.5,-364 758.5,-364"/>
<text text-anchor="middle" x="783.5" y="-371" font-family="Helvetica,sans-Serif" font-size="10.00">atomic</text>
</a>
</g>
</g>
<!-- Node1&#45;&gt;Node20 -->
<g id="edge30" class="edge">
<title>Node1&#45;&gt;Node20</title>
<path fill="none" stroke="midnightblue" d="M760.37,-425.48C764.3,-416.82 770.5,-403.15 775.49,-392.15"/>
<polygon fill="midnightblue" stroke="midnightblue" points="778.69,-393.56 779.64,-383.01 772.32,-390.67 778.69,-393.56"/>
</g>
<!-- Node21 -->
<g id="node21" class="node">
<title>Node21</title>
<g id="a_node21"><a xlink:title=" ">
<polygon fill="white" stroke="#bfbfbf" points="826.5,-364 826.5,-383 876.5,-383 876.5,-364 826.5,-364"/>
<text text-anchor="middle" x="851.5" y="-371" font-family="Helvetica,sans-Serif" font-size="10.00">cstdint</text>
</a>
</g>
</g>
<!-- Node1&#45;&gt;Node21 -->
<g id="edge32" class="edge">
<title>Node1&#45;&gt;Node21</title>
<path fill="none" stroke="midnightblue" d="M770.11,-425.48C785.56,-415.8 810.99,-399.87 829.32,-388.39"/>
<polygon fill="midnightblue" stroke="midnightblue" points="831.3,-391.28 837.91,-383.01 827.58,-385.35 831.3,-391.28"/>
</g>
<!-- Node22 -->
<g id="node22" class="node">
<title>Node22</title>
<g id="a_node22"><a xlink:title=" ">
<polygon fill="white" stroke="#bfbfbf" points="894.5,-364 894.5,-383 944.5,-383 944.5,-364 894.5,-364"/>
<text text-anchor="middle" x="919.5" y="-371" font-family="Helvetica,sans-Serif" font-size="10.00">ranges</text>
</a>
</g>
</g>
<!-- Node1&#45;&gt;Node22 -->
<g id="edge33" class="edge">
<title>Node1&#45;&gt;Node22</title>
<path fill="none" stroke="midnightblue" d="M782.88,-425.38C809.08,-416.68 850.33,-402.62 885.5,-389 887.15,-388.36 888.83,-387.7 890.53,-387.01"/>
<polygon fill="midnightblue" stroke="midnightblue" points="892.28,-390.07 900.17,-383.01 889.6,-383.61 892.28,-390.07"/>
</g>
<!-- Node23 -->
<g id="node23" class="node">
<title>Node23</title>
<g id="a_node23"><a xlink:title=" ">
<polygon fill="white" stroke="#bfbfbf" points="963,-364 963,-383 1004,-383 1004,-364 963,-364"/>
<text text-anchor="middle" x="983.5" y="-371" font-family="Helvetica,sans-Serif" font-size="10.00">tuple</text>
</a>
</g>
</g>
<!-- Node1&#45;&gt;Node23 -->
<g id="edge34" class="edge">
<title>Node1&#45;&gt;Node23</title>
<path fill="none" stroke="midnightblue" d="M791.33,-428.5C831.23,-421.64 898.22,-408.39 953.5,-389 955.11,-388.43 956.75,-387.81 958.4,-387.14"/>
<polygon fill="midnightblue" stroke="midnightblue" points="959.9,-390.3 967.59,-383.01 957.04,-383.91 959.9,-390.3"/>
</g>
<!-- Node24 -->
<g id="node24" class="node">
<title>Node24</title>
<g id="a_node24"><a xlink:title=" ">
<polygon fill="white" stroke="#bfbfbf" points="1022,-364 1022,-383 1069,-383 1069,-364 1022,-364"/>
<text text-anchor="middle" x="1045.5" y="-371" font-family="Helvetica,sans-Serif" font-size="10.00">vector</text>
</a>
</g>
</g>
<!-- Node1&#45;&gt;Node24 -->
<g id="edge35" class="edge">
<title>Node1&#45;&gt;Node24</title>
<path fill="none" stroke="midnightblue" d="M791.24,-430.73C841.25,-425.39 936.03,-412.91 1013.5,-389 1015.38,-388.42 1017.29,-387.76 1019.2,-387.04"/>
<polygon fill="midnightblue" stroke="midnightblue" points="1020.66,-390.22 1028.54,-383.14 1017.96,-383.76 1020.66,-390.22"/>
</g>
<!-- Node3 -->
<g id="node3" class="node">
<title>Node3</title>
<g id="a_node3"><a xlink:href="noncopyable_8h.html" target="_top" xlink:title=" ">
<polygon fill="white" stroke="black" points="430.5,-297 430.5,-316 582.5,-316 582.5,-297 430.5,-297"/>
<text text-anchor="middle" x="506.5" y="-304" font-family="Helvetica,sans-Serif" font-size="10.00">mp&#45;coro/bits/noncopyable.h</text>
</a>
</g>
</g>
<!-- Node2&#45;&gt;Node3 -->
<g id="edge2" class="edge">
<title>Node2&#45;&gt;Node3</title>
<path fill="none" stroke="midnightblue" d="M506.5,-358.4C506.5,-349.06 506.5,-336.71 506.5,-326.52"/>
<polygon fill="midnightblue" stroke="midnightblue" points="510,-326.19 506.5,-316.19 503,-326.19 510,-326.19"/>
</g>
<!-- Node4 -->
<g id="node4" class="node">
<title>Node4</title>
<g id="a_node4"><a xlink:href="task__promise__storage_8h.html" target="_top" xlink:title=" ">
<polygon fill="white" stroke="black" points="227,-291.5 227,-321.5 374,-321.5 374,-291.5 227,-291.5"/>
<text text-anchor="start" x="235" y="-309.5" font-family="Helvetica,sans-Serif" font-size="10.00">mp&#45;coro/bits/task_promise</text>
<text text-anchor="middle" x="300.5" y="-298.5" font-family="Helvetica,sans-Serif" font-size="10.00">_storage.h</text>
</a>
</g>
</g>
<!-- Node2&#45;&gt;Node4 -->
<g id="edge3" class="edge">
<title>Node2&#45;&gt;Node4</title>
<path fill="none" stroke="midnightblue" d="M462.05,-358.48C430.62,-348.56 388.29,-335.2 354.85,-324.65"/>
<polygon fill="midnightblue" stroke="midnightblue" points="355.81,-321.28 345.22,-321.61 353.7,-327.96 355.81,-321.28"/>
</g>
<!-- Node2&#45;&gt;Node10 -->
<g id="edge25" class="edge">
<title>Node2&#45;&gt;Node10</title>
<path fill="none" stroke="midnightblue" d="M433.46,-366.28C360.09,-358.88 253.08,-344.6 218.5,-322 171.41,-291.22 142.12,-228.09 129.98,-197.05"/>
<polygon fill="midnightblue" stroke="midnightblue" points="133.19,-195.64 126.39,-187.51 126.63,-198.1 133.19,-195.64"/>
</g>
<!-- Node2&#45;&gt;Node16 -->
<g id="edge26" class="edge">
<title>Node2&#45;&gt;Node16</title>
<path fill="none" stroke="midnightblue" d="M579.5,-366.38C643.76,-359.48 730.82,-345.97 755.5,-322 782.18,-296.08 774.5,-277.69 774.5,-240.5 774.5,-240.5 774.5,-240.5 774.5,-177 774.5,-144.49 766.34,-107.35 760.72,-85.61"/>
<polygon fill="midnightblue" stroke="midnightblue" points="764.04,-84.5 758.06,-75.75 757.28,-86.32 764.04,-84.5"/>
</g>
<!-- Node2&#45;&gt;Node17 -->
<g id="edge24" class="edge">
<title>Node2&#45;&gt;Node17</title>
<path fill="none" stroke="midnightblue" d="M465.1,-358.4C448.47,-350.46 431.01,-338.71 421.5,-322 414.69,-310.03 414.21,-302.69 421.5,-291 433.42,-271.89 454.9,-259.81 475.18,-252.27"/>
<polygon fill="midnightblue" stroke="midnightblue" points="476.35,-255.57 484.68,-249.03 474.09,-248.95 476.35,-255.57"/>
</g>
<!-- Node18 -->
<g id="node18" class="node">
<title>Node18</title>
<g id="a_node18"><a xlink:href="coro__ptr_8h.html" target="_top" xlink:title=" ">
<polygon fill="white" stroke="black" points="638.5,-297 638.5,-316 746.5,-316 746.5,-297 638.5,-297"/>
<text text-anchor="middle" x="692.5" y="-304" font-family="Helvetica,sans-Serif" font-size="10.00">mp&#45;coro/coro_ptr.h</text>
</a>
</g>
</g>
<!-- Node2&#45;&gt;Node18 -->
<g id="edge20" class="edge">
<title>Node2&#45;&gt;Node18</title>
<path fill="none" stroke="midnightblue" d="M546.86,-358.4C580.22,-346.74 627.05,-330.37 658.52,-319.38"/>
<polygon fill="midnightblue" stroke="midnightblue" points="659.87,-322.61 668.16,-316.01 657.56,-316 659.87,-322.61"/>
</g>
<!-- Node5 -->
<g id="node5" class="node">
<title>Node5</title>
<g id="a_node5"><a xlink:href="nonvoid__storage_8h.html" target="_top" xlink:title=" ">
<polygon fill="white" stroke="black" points="240.5,-224.5 240.5,-254.5 360.5,-254.5 360.5,-224.5 240.5,-224.5"/>
<text text-anchor="start" x="248.5" y="-242.5" font-family="Helvetica,sans-Serif" font-size="10.00">mp&#45;coro/bits/nonvoid</text>
<text text-anchor="middle" x="300.5" y="-231.5" font-family="Helvetica,sans-Serif" font-size="10.00">_storage.h</text>
</a>
</g>
</g>
<!-- Node4&#45;&gt;Node5 -->
<g id="edge4" class="edge">
<title>Node4&#45;&gt;Node5</title>
<path fill="none" stroke="midnightblue" d="M300.5,-291.4C300.5,-283.64 300.5,-273.81 300.5,-264.86"/>
<polygon fill="midnightblue" stroke="midnightblue" points="304,-264.58 300.5,-254.58 297,-264.58 304,-264.58"/>
</g>
<!-- Node15 -->
<g id="node15" class="node">
<title>Node15</title>
<g id="a_node15"><a xlink:title=" ">
<polygon fill="white" stroke="#bfbfbf" points="353.5,-56.5 353.5,-75.5 413.5,-75.5 413.5,-56.5 353.5,-56.5"/>
<text text-anchor="middle" x="383.5" y="-63.5" font-family="Helvetica,sans-Serif" font-size="10.00">concepts</text>
</a>
</g>
</g>
<!-- Node4&#45;&gt;Node15 -->
<g id="edge19" class="edge">
<title>Node4&#45;&gt;Node15</title>
<path fill="none" stroke="midnightblue" d="M330.2,-291.49C344.63,-283.05 360.71,-270.84 369.5,-255 400.17,-199.74 392.54,-120.88 386.93,-85.46"/>
<polygon fill="midnightblue" stroke="midnightblue" points="390.38,-84.84 385.24,-75.58 383.48,-86.02 390.38,-84.84"/>
</g>
<!-- Node4&#45;&gt;Node17 -->
<g id="edge18" class="edge">
<title>Node4&#45;&gt;Node17</title>
<path fill="none" stroke="midnightblue" d="M348.83,-291.48C389.68,-279.62 447.45,-262.86 485.43,-251.84"/>
<polygon fill="midnightblue" stroke="midnightblue" points="486.48,-255.18 495.11,-249.03 484.53,-248.45 486.48,-255.18"/>
</g>
<!-- Node6 -->
<g id="node6" class="node">
<title>Node6</title>
<g id="a_node6"><a xlink:href="storage_8h.html" target="_top" xlink:title=" ">
<polygon fill="white" stroke="black" points="442,-168.5 442,-187.5 569,-187.5 569,-168.5 442,-168.5"/>
<text text-anchor="middle" x="505.5" y="-175.5" font-family="Helvetica,sans-Serif" font-size="10.00">mp&#45;coro/bits/storage.h</text>
</a>
</g>
</g>
<!-- Node5&#45;&gt;Node6 -->
<g id="edge5" class="edge">
<title>Node5&#45;&gt;Node6</title>
<path fill="none" stroke="midnightblue" d="M348.82,-224.47C384.65,-214.08 432.88,-200.08 466.32,-190.37"/>
<polygon fill="midnightblue" stroke="midnightblue" points="467.56,-193.66 476.19,-187.51 465.61,-186.93 467.56,-193.66"/>
</g>
<!-- Node5&#45;&gt;Node10 -->
<g id="edge9" class="edge">
<title>Node5&#45;&gt;Node10</title>
<path fill="none" stroke="midnightblue" d="M258.55,-224.4C228.1,-214.16 187.37,-200.47 158.63,-190.81"/>
<polygon fill="midnightblue" stroke="midnightblue" points="159.59,-187.44 149,-187.57 157.36,-194.07 159.59,-187.44"/>
</g>
<!-- Node7 -->
<g id="node7" class="node">
<title>Node7</title>
<g id="a_node7"><a xlink:title=" ">
<polygon fill="white" stroke="#bfbfbf" points="573,-112.5 573,-131.5 638,-131.5 638,-112.5 573,-112.5"/>
<text text-anchor="middle" x="605.5" y="-119.5" font-family="Helvetica,sans-Serif" font-size="10.00">exception</text>
</a>
</g>
</g>
<!-- Node6&#45;&gt;Node7 -->
<g id="edge6" class="edge">
<title>Node6&#45;&gt;Node7</title>
<path fill="none" stroke="midnightblue" d="M521.57,-168.32C537.46,-159.74 562.01,-146.49 580.46,-136.52"/>
<polygon fill="midnightblue" stroke="midnightblue" points="582.34,-139.49 589.47,-131.65 579.01,-133.33 582.34,-139.49"/>
</g>
<!-- Node8 -->
<g id="node8" class="node">
<title>Node8</title>
<g id="a_node8"><a xlink:title=" ">
<polygon fill="white" stroke="#bfbfbf" points="417,-112.5 417,-131.5 486,-131.5 486,-112.5 417,-112.5"/>
<text text-anchor="middle" x="451.5" y="-119.5" font-family="Helvetica,sans-Serif" font-size="10.00">type_traits</text>
</a>
</g>
</g>
<!-- Node6&#45;&gt;Node8 -->
<g id="edge7" class="edge">
<title>Node6&#45;&gt;Node8</title>
<path fill="none" stroke="midnightblue" d="M496.58,-168.08C488.72,-160.22 477.07,-148.57 467.58,-139.08"/>
<polygon fill="midnightblue" stroke="midnightblue" points="469.8,-136.35 460.25,-131.75 464.85,-141.3 469.8,-136.35"/>
</g>
<!-- Node9 -->
<g id="node9" class="node">
<title>Node9</title>
<g id="a_node9"><a xlink:title=" ">
<polygon fill="white" stroke="#bfbfbf" points="504,-112.5 504,-131.5 555,-131.5 555,-112.5 504,-112.5"/>
<text text-anchor="middle" x="529.5" y="-119.5" font-family="Helvetica,sans-Serif" font-size="10.00">variant</text>
</a>
</g>
</g>
<!-- Node6&#45;&gt;Node9 -->
<g id="edge8" class="edge">
<title>Node6&#45;&gt;Node9</title>
<path fill="none" stroke="midnightblue" d="M509.46,-168.08C512.71,-160.77 517.42,-150.18 521.45,-141.1"/>
<polygon fill="midnightblue" stroke="midnightblue" points="524.75,-142.31 525.61,-131.75 518.35,-139.47 524.75,-142.31"/>
</g>
<!-- Node11 -->
<g id="node11" class="node">
<title>Node11</title>
<g id="a_node11"><a xlink:href="get__awaiter_8h.html" target="_top" xlink:title=" ">
<polygon fill="white" stroke="black" points="161,-56.5 161,-75.5 308,-75.5 308,-56.5 161,-56.5"/>
<text text-anchor="middle" x="234.5" y="-63.5" font-family="Helvetica,sans-Serif" font-size="10.00">mp&#45;coro/bits/get_awaiter.h</text>
</a>
</g>
</g>
<!-- Node10&#45;&gt;Node11 -->
<g id="edge10" class="edge">
<title>Node10&#45;&gt;Node11</title>
<path fill="none" stroke="midnightblue" d="M126.06,-168.48C130.44,-155.09 140.48,-128.9 156.5,-112 169.5,-98.28 187.62,-87.48 203.12,-79.91"/>
<polygon fill="midnightblue" stroke="midnightblue" points="204.78,-83 212.37,-75.61 201.83,-76.65 204.78,-83"/>
</g>
<!-- Node13 -->
<g id="node13" class="node">
<title>Node13</title>
<g id="a_node13"><a xlink:href="bits_2type__traits_8h.html" target="_top" xlink:title=" ">
<polygon fill="white" stroke="black" points="0,-56.5 0,-75.5 143,-75.5 143,-56.5 0,-56.5"/>
<text text-anchor="middle" x="71.5" y="-63.5" font-family="Helvetica,sans-Serif" font-size="10.00">mp&#45;coro/bits/type_traits.h</text>
</a>
</g>
</g>
<!-- Node10&#45;&gt;Node13 -->
<g id="edge12" class="edge">
<title>Node10&#45;&gt;Node13</title>
<path fill="none" stroke="midnightblue" d="M119.42,-168.37C110.95,-150.46 91.32,-108.92 79.98,-84.95"/>
<polygon fill="midnightblue" stroke="midnightblue" points="83,-83.14 75.56,-75.59 76.67,-86.13 83,-83.14"/>
</g>
<!-- Node10&#45;&gt;Node14 -->
<g id="edge13" class="edge">
<title>Node10&#45;&gt;Node14</title>
<path fill="none" stroke="midnightblue" d="M139.25,-168.32C154.82,-159.74 178.88,-146.49 196.96,-136.52"/>
<polygon fill="midnightblue" stroke="midnightblue" points="198.72,-139.55 205.79,-131.65 195.35,-133.42 198.72,-139.55"/>
</g>
<!-- Node12 -->
<g id="node12" class="node">
<title>Node12</title>
<g id="a_node12"><a xlink:title=" ">
<polygon fill="white" stroke="#bfbfbf" points="212,-0.5 212,-19.5 257,-19.5 257,-0.5 212,-0.5"/>
<text text-anchor="middle" x="234.5" y="-7.5" font-family="Helvetica,sans-Serif" font-size="10.00">utility</text>
</a>
</g>
</g>
<!-- Node11&#45;&gt;Node12 -->
<g id="edge11" class="edge">
<title>Node11&#45;&gt;Node12</title>
<path fill="none" stroke="midnightblue" d="M234.5,-56.08C234.5,-49.01 234.5,-38.86 234.5,-29.99"/>
<polygon fill="midnightblue" stroke="midnightblue" points="238,-29.75 234.5,-19.75 231,-29.75 238,-29.75"/>
</g>
<!-- Node14&#45;&gt;Node11 -->
<g id="edge14" class="edge">
<title>Node14&#45;&gt;Node11</title>
<path fill="none" stroke="midnightblue" d="M223.65,-112.08C225.37,-104.93 227.85,-94.64 230,-85.69"/>
<polygon fill="midnightblue" stroke="midnightblue" points="233.46,-86.29 232.39,-75.75 226.65,-84.65 233.46,-86.29"/>
</g>
<!-- Node14&#45;&gt;Node13 -->
<g id="edge15" class="edge">
<title>Node14&#45;&gt;Node13</title>
<path fill="none" stroke="midnightblue" d="M197.73,-112.44C172.61,-103.4 132.79,-89.06 104.6,-78.92"/>
<polygon fill="midnightblue" stroke="midnightblue" points="105.75,-75.61 95.16,-75.52 103.38,-82.2 105.75,-75.61"/>
</g>
<!-- Node14&#45;&gt;Node15 -->
<g id="edge16" class="edge">
<title>Node14&#45;&gt;Node15</title>
<path fill="none" stroke="midnightblue" d="M247.17,-112.44C274.42,-103.36 317.68,-88.94 348.15,-78.78"/>
<polygon fill="midnightblue" stroke="midnightblue" points="349.57,-82 357.95,-75.52 347.36,-75.36 349.57,-82"/>
</g>
<!-- Node14&#45;&gt;Node16 -->
<g id="edge17" class="edge">
<title>Node14&#45;&gt;Node16</title>
<path fill="none" stroke="midnightblue" d="M278.14,-115.27C386.29,-104.34 619.82,-80.72 714.44,-71.15"/>
<polygon fill="midnightblue" stroke="midnightblue" points="714.89,-74.62 724.48,-70.14 714.18,-67.66 714.89,-74.62"/>
</g>
<!-- Node18&#45;&gt;Node16 -->
<g id="edge22" class="edge">
<title>Node18&#45;&gt;Node16</title>
<path fill="none" stroke="midnightblue" d="M697.65,-296.86C703.29,-287.04 712.24,-270.37 717.5,-255 738.03,-194.99 749.04,-120.21 753.34,-85.85"/>
<polygon fill="midnightblue" stroke="midnightblue" points="756.83,-86.18 754.54,-75.83 749.88,-85.34 756.83,-86.18"/>
</g>
<!-- Node18&#45;&gt;Node17 -->
<g id="edge21" class="edge">
<title>Node18&#45;&gt;Node17</title>
<path fill="none" stroke="midnightblue" d="M670.19,-296.87C640.99,-285.57 589.62,-265.7 556.34,-252.82"/>
<polygon fill="midnightblue" stroke="midnightblue" points="557.22,-249.41 546.63,-249.06 554.7,-255.94 557.22,-249.41"/>
</g>
<!-- Node19 -->
<g id="node19" class="node">
<title>Node19</title>
<g id="a_node19"><a xlink:title=" ">
<polygon fill="white" stroke="#bfbfbf" points="650.5,-230 650.5,-249 708.5,-249 708.5,-230 650.5,-230"/>
<text text-anchor="middle" x="679.5" y="-237" font-family="Helvetica,sans-Serif" font-size="10.00">memory</text>
</a>
</g>
</g>
<!-- Node18&#45;&gt;Node19 -->
<g id="edge23" class="edge">
<title>Node18&#45;&gt;Node19</title>
<path fill="none" stroke="midnightblue" d="M690.75,-296.73C688.84,-287.18 685.72,-271.62 683.26,-259.28"/>
<polygon fill="midnightblue" stroke="midnightblue" points="686.62,-258.25 681.23,-249.13 679.75,-259.62 686.62,-258.25"/>
</g>
</g>
</svg>
